%TF.GenerationSoftware,KiCad,Pcbnew,9.0.1*%
%TF.CreationDate,2025-04-25T13:26:33+02:00*%
%TF.ProjectId,m2-e-usdex,6d322d65-2d75-4736-9465-782e6b696361,rev?*%
%TF.SameCoordinates,Original*%
%TF.FileFunction,Copper,L3,Inr*%
%TF.FilePolarity,Positive*%
%FSLAX46Y46*%
G04 Gerber Fmt 4.6, Leading zero omitted, Abs format (unit mm)*
G04 Created by KiCad (PCBNEW 9.0.1) date 2025-04-25 13:26:33*
%MOMM*%
%LPD*%
G01*
G04 APERTURE LIST*
%TA.AperFunction,ViaPad*%
%ADD10C,0.600000*%
%TD*%
%TA.AperFunction,ViaPad*%
%ADD11C,0.350000*%
%TD*%
G04 APERTURE END LIST*
D10*
%TO.N,GND*%
X259200000Y-84000000D03*
X279000000Y-58000000D03*
X279000000Y-128000000D03*
X273000000Y-58000000D03*
X267720000Y-107700000D03*
X259200000Y-62000000D03*
X259200000Y-80000000D03*
X259200000Y-70000000D03*
X259500000Y-128000000D03*
X264990000Y-107700000D03*
X279000000Y-104000000D03*
X279000000Y-64000000D03*
X259200000Y-98000000D03*
X259200000Y-100000000D03*
X279000000Y-126000000D03*
X279000000Y-120000000D03*
X259200000Y-96000000D03*
X279000000Y-60000000D03*
X259200000Y-78000000D03*
X267030000Y-106000000D03*
D11*
X270500000Y-133550000D03*
D10*
X279000000Y-78000000D03*
D11*
X260000000Y-132350000D03*
D10*
X279000000Y-72000000D03*
X279000000Y-112000000D03*
X259200000Y-86000000D03*
X279000000Y-68000000D03*
X279000000Y-80000000D03*
X259200000Y-60000000D03*
X279000000Y-70000000D03*
X279000000Y-62000000D03*
X279000000Y-98000000D03*
X279000000Y-76000000D03*
X279000000Y-86000000D03*
X259800000Y-113650000D03*
X279000000Y-106000000D03*
X279000000Y-90000000D03*
D11*
X273500000Y-133550000D03*
D10*
X259200000Y-66000000D03*
X259200000Y-82000000D03*
X259800000Y-120850000D03*
X279000000Y-92000000D03*
D11*
X269000000Y-133550000D03*
D10*
X279000000Y-66000000D03*
X279000000Y-100000000D03*
X259200000Y-92000000D03*
X279000000Y-102000000D03*
X279000000Y-84000000D03*
X270450000Y-107700000D03*
X279000000Y-122000000D03*
X279000000Y-118000000D03*
X279000000Y-110000000D03*
X259200000Y-76000000D03*
X279000000Y-96000000D03*
X259500000Y-124000000D03*
X279000000Y-124000000D03*
X259200000Y-104000000D03*
X259200000Y-72000000D03*
X271140000Y-106000000D03*
X275000000Y-58000000D03*
X259200000Y-94000000D03*
X279000000Y-74000000D03*
D11*
X261900000Y-133100000D03*
D10*
X279000000Y-88000000D03*
X279000000Y-94000000D03*
D11*
X272000000Y-133550000D03*
D10*
X263000000Y-58000000D03*
X261000000Y-58000000D03*
X279000000Y-82000000D03*
X259200000Y-74000000D03*
X259800000Y-108150000D03*
X270640000Y-104700000D03*
D11*
X276500000Y-133550000D03*
D10*
X259200000Y-88000000D03*
X265000000Y-58000000D03*
X268390000Y-121700000D03*
X267530000Y-104700000D03*
X279000000Y-114000000D03*
X259200000Y-68000000D03*
X259200000Y-90000000D03*
X259200000Y-58000000D03*
X259500000Y-126000000D03*
X279000000Y-130000000D03*
X259200000Y-102000000D03*
X259200000Y-64000000D03*
X279000000Y-108000000D03*
X277000000Y-58000000D03*
%TO.N,+3V3*%
X275750000Y-132150000D03*
X266300000Y-81800000D03*
X274250000Y-132150000D03*
X266190000Y-121700000D03*
X277500000Y-131500000D03*
X261250000Y-132350000D03*
X278500000Y-131500000D03*
%TO.N,~{CLKREQ}*%
X262890000Y-121700000D03*
%TO.N,~{PERST}*%
X263990000Y-121700000D03*
%TO.N,+1V8*%
X262930000Y-107700000D03*
X272600000Y-81800000D03*
%TO.N,Net-(J2-1V2)*%
X264080000Y-107700000D03*
D11*
%TO.N,PCIe_RX_CARD-*%
X268630000Y-107700000D03*
%TO.N,PCIe_RX-*%
X276206600Y-106100000D03*
%TO.N,PCIe_RX+*%
X275653400Y-106100000D03*
%TO.N,PCIe_RX_CARD+*%
X269540000Y-107700000D03*
%TO.N,PCIe_TX+*%
X266473400Y-133200000D03*
X265900000Y-107700000D03*
%TO.N,PCIe_TX-*%
X266810000Y-107700000D03*
X267026600Y-133200000D03*
%TD*%
%TA.AperFunction,Conductor*%
%TO.N,+3V3*%
G36*
X262360098Y-57295185D02*
G01*
X262405853Y-57347989D01*
X262415797Y-57417147D01*
X262386772Y-57480703D01*
X262380740Y-57487181D01*
X262378213Y-57489707D01*
X262378210Y-57489711D01*
X262290609Y-57620814D01*
X262290602Y-57620827D01*
X262230264Y-57766498D01*
X262230261Y-57766510D01*
X262199500Y-57921153D01*
X262199500Y-58078846D01*
X262230261Y-58233489D01*
X262230264Y-58233501D01*
X262290602Y-58379172D01*
X262290609Y-58379185D01*
X262378210Y-58510288D01*
X262378213Y-58510292D01*
X262489707Y-58621786D01*
X262489711Y-58621789D01*
X262620814Y-58709390D01*
X262620827Y-58709397D01*
X262766498Y-58769735D01*
X262766503Y-58769737D01*
X262912637Y-58798805D01*
X262921153Y-58800499D01*
X262921156Y-58800500D01*
X262921158Y-58800500D01*
X263078844Y-58800500D01*
X263078845Y-58800499D01*
X263233497Y-58769737D01*
X263379179Y-58709394D01*
X263510289Y-58621789D01*
X263621789Y-58510289D01*
X263709394Y-58379179D01*
X263769737Y-58233497D01*
X263800500Y-58078842D01*
X263800500Y-57921158D01*
X263800500Y-57921155D01*
X263800499Y-57921153D01*
X263796831Y-57902712D01*
X263769737Y-57766503D01*
X263756734Y-57735110D01*
X263709397Y-57620827D01*
X263709390Y-57620814D01*
X263621789Y-57489711D01*
X263621786Y-57489707D01*
X263619260Y-57487181D01*
X263618359Y-57485531D01*
X263617924Y-57485001D01*
X263618024Y-57484918D01*
X263585775Y-57425858D01*
X263590759Y-57356166D01*
X263632631Y-57300233D01*
X263698095Y-57275816D01*
X263706941Y-57275500D01*
X264293059Y-57275500D01*
X264360098Y-57295185D01*
X264405853Y-57347989D01*
X264415797Y-57417147D01*
X264386772Y-57480703D01*
X264380740Y-57487181D01*
X264378213Y-57489707D01*
X264378210Y-57489711D01*
X264290609Y-57620814D01*
X264290602Y-57620827D01*
X264230264Y-57766498D01*
X264230261Y-57766510D01*
X264199500Y-57921153D01*
X264199500Y-58078846D01*
X264230261Y-58233489D01*
X264230264Y-58233501D01*
X264290602Y-58379172D01*
X264290609Y-58379185D01*
X264378210Y-58510288D01*
X264378213Y-58510292D01*
X264489707Y-58621786D01*
X264489711Y-58621789D01*
X264620814Y-58709390D01*
X264620827Y-58709397D01*
X264766498Y-58769735D01*
X264766503Y-58769737D01*
X264912637Y-58798805D01*
X264921153Y-58800499D01*
X264921156Y-58800500D01*
X264921158Y-58800500D01*
X265078844Y-58800500D01*
X265078845Y-58800499D01*
X265233497Y-58769737D01*
X265379179Y-58709394D01*
X265510289Y-58621789D01*
X265621789Y-58510289D01*
X265709394Y-58379179D01*
X265769737Y-58233497D01*
X265800500Y-58078842D01*
X265800500Y-57921158D01*
X265800500Y-57921155D01*
X265800499Y-57921153D01*
X265796831Y-57902712D01*
X265769737Y-57766503D01*
X265756734Y-57735110D01*
X265709397Y-57620827D01*
X265709390Y-57620814D01*
X265621789Y-57489711D01*
X265621786Y-57489707D01*
X265619260Y-57487181D01*
X265618359Y-57485531D01*
X265617924Y-57485001D01*
X265618024Y-57484918D01*
X265585775Y-57425858D01*
X265590759Y-57356166D01*
X265632631Y-57300233D01*
X265698095Y-57275816D01*
X265706941Y-57275500D01*
X266958825Y-57275500D01*
X267025864Y-57295185D01*
X267071619Y-57347989D01*
X267078929Y-57368662D01*
X267105416Y-57471822D01*
X267209655Y-57735102D01*
X267209659Y-57735110D01*
X267346078Y-57983256D01*
X267346090Y-57983274D01*
X267496310Y-58190033D01*
X267512531Y-58212359D01*
X267706381Y-58418788D01*
X267924574Y-58599293D01*
X267924578Y-58599296D01*
X268024024Y-58662406D01*
X268163670Y-58751028D01*
X268419898Y-58871599D01*
X268689217Y-58959107D01*
X268967380Y-59012169D01*
X268967385Y-59012169D01*
X268967390Y-59012170D01*
X269249995Y-59029950D01*
X269250000Y-59029950D01*
X269250005Y-59029950D01*
X269532609Y-59012170D01*
X269532612Y-59012169D01*
X269532620Y-59012169D01*
X269810783Y-58959107D01*
X270080102Y-58871599D01*
X270336330Y-58751028D01*
X270575426Y-58599293D01*
X270793619Y-58418788D01*
X270987469Y-58212359D01*
X271153917Y-57983263D01*
X271290340Y-57735111D01*
X271306504Y-57694287D01*
X271366616Y-57542459D01*
X271394585Y-57471818D01*
X271421071Y-57368661D01*
X271456809Y-57308624D01*
X271519333Y-57277439D01*
X271541175Y-57275500D01*
X272293059Y-57275500D01*
X272360098Y-57295185D01*
X272405853Y-57347989D01*
X272415797Y-57417147D01*
X272386772Y-57480703D01*
X272380740Y-57487181D01*
X272378213Y-57489707D01*
X272378210Y-57489711D01*
X272290609Y-57620814D01*
X272290602Y-57620827D01*
X272230264Y-57766498D01*
X272230261Y-57766510D01*
X272199500Y-57921153D01*
X272199500Y-58078846D01*
X272230261Y-58233489D01*
X272230264Y-58233501D01*
X272290602Y-58379172D01*
X272290609Y-58379185D01*
X272378210Y-58510288D01*
X272378213Y-58510292D01*
X272489707Y-58621786D01*
X272489711Y-58621789D01*
X272620814Y-58709390D01*
X272620827Y-58709397D01*
X272766498Y-58769735D01*
X272766503Y-58769737D01*
X272912637Y-58798805D01*
X272921153Y-58800499D01*
X272921156Y-58800500D01*
X272921158Y-58800500D01*
X273078844Y-58800500D01*
X273078845Y-58800499D01*
X273233497Y-58769737D01*
X273379179Y-58709394D01*
X273510289Y-58621789D01*
X273621789Y-58510289D01*
X273709394Y-58379179D01*
X273769737Y-58233497D01*
X273800500Y-58078842D01*
X273800500Y-57921158D01*
X273800500Y-57921155D01*
X273800499Y-57921153D01*
X273796831Y-57902712D01*
X273769737Y-57766503D01*
X273756734Y-57735110D01*
X273709397Y-57620827D01*
X273709390Y-57620814D01*
X273621789Y-57489711D01*
X273621786Y-57489707D01*
X273619260Y-57487181D01*
X273618359Y-57485531D01*
X273617924Y-57485001D01*
X273618024Y-57484918D01*
X273585775Y-57425858D01*
X273590759Y-57356166D01*
X273632631Y-57300233D01*
X273698095Y-57275816D01*
X273706941Y-57275500D01*
X274293059Y-57275500D01*
X274360098Y-57295185D01*
X274405853Y-57347989D01*
X274415797Y-57417147D01*
X274386772Y-57480703D01*
X274380740Y-57487181D01*
X274378213Y-57489707D01*
X274378210Y-57489711D01*
X274290609Y-57620814D01*
X274290602Y-57620827D01*
X274230264Y-57766498D01*
X274230261Y-57766510D01*
X274199500Y-57921153D01*
X274199500Y-58078846D01*
X274230261Y-58233489D01*
X274230264Y-58233501D01*
X274290602Y-58379172D01*
X274290609Y-58379185D01*
X274378210Y-58510288D01*
X274378213Y-58510292D01*
X274489707Y-58621786D01*
X274489711Y-58621789D01*
X274620814Y-58709390D01*
X274620827Y-58709397D01*
X274766498Y-58769735D01*
X274766503Y-58769737D01*
X274912637Y-58798805D01*
X274921153Y-58800499D01*
X274921156Y-58800500D01*
X274921158Y-58800500D01*
X275078844Y-58800500D01*
X275078845Y-58800499D01*
X275233497Y-58769737D01*
X275379179Y-58709394D01*
X275510289Y-58621789D01*
X275621789Y-58510289D01*
X275709394Y-58379179D01*
X275769737Y-58233497D01*
X275800500Y-58078842D01*
X275800500Y-57921158D01*
X275800500Y-57921155D01*
X275800499Y-57921153D01*
X275796831Y-57902712D01*
X275769737Y-57766503D01*
X275756734Y-57735110D01*
X275709397Y-57620827D01*
X275709390Y-57620814D01*
X275621789Y-57489711D01*
X275621786Y-57489707D01*
X275619260Y-57487181D01*
X275618359Y-57485531D01*
X275617924Y-57485001D01*
X275618024Y-57484918D01*
X275585775Y-57425858D01*
X275590759Y-57356166D01*
X275632631Y-57300233D01*
X275698095Y-57275816D01*
X275706941Y-57275500D01*
X276293059Y-57275500D01*
X276360098Y-57295185D01*
X276405853Y-57347989D01*
X276415797Y-57417147D01*
X276386772Y-57480703D01*
X276380740Y-57487181D01*
X276378213Y-57489707D01*
X276378210Y-57489711D01*
X276290609Y-57620814D01*
X276290602Y-57620827D01*
X276230264Y-57766498D01*
X276230261Y-57766510D01*
X276199500Y-57921153D01*
X276199500Y-58078846D01*
X276230261Y-58233489D01*
X276230264Y-58233501D01*
X276290602Y-58379172D01*
X276290609Y-58379185D01*
X276378210Y-58510288D01*
X276378213Y-58510292D01*
X276489707Y-58621786D01*
X276489711Y-58621789D01*
X276620814Y-58709390D01*
X276620827Y-58709397D01*
X276766498Y-58769735D01*
X276766503Y-58769737D01*
X276912637Y-58798805D01*
X276921153Y-58800499D01*
X276921156Y-58800500D01*
X276921158Y-58800500D01*
X277078844Y-58800500D01*
X277078845Y-58800499D01*
X277233497Y-58769737D01*
X277379179Y-58709394D01*
X277510289Y-58621789D01*
X277621789Y-58510289D01*
X277709394Y-58379179D01*
X277769737Y-58233497D01*
X277800500Y-58078842D01*
X277800500Y-57921158D01*
X277800500Y-57921155D01*
X277800499Y-57921153D01*
X277796831Y-57902712D01*
X277769737Y-57766503D01*
X277756734Y-57735110D01*
X277709397Y-57620827D01*
X277709390Y-57620814D01*
X277621789Y-57489711D01*
X277621786Y-57489707D01*
X277619260Y-57487181D01*
X277618359Y-57485531D01*
X277617924Y-57485001D01*
X277618024Y-57484918D01*
X277585775Y-57425858D01*
X277590759Y-57356166D01*
X277632631Y-57300233D01*
X277698095Y-57275816D01*
X277706941Y-57275500D01*
X278293059Y-57275500D01*
X278360098Y-57295185D01*
X278405853Y-57347989D01*
X278415797Y-57417147D01*
X278386772Y-57480703D01*
X278380740Y-57487181D01*
X278378213Y-57489707D01*
X278378210Y-57489711D01*
X278290609Y-57620814D01*
X278290602Y-57620827D01*
X278230264Y-57766498D01*
X278230261Y-57766510D01*
X278199500Y-57921153D01*
X278199500Y-58078846D01*
X278230261Y-58233489D01*
X278230264Y-58233501D01*
X278290602Y-58379172D01*
X278290609Y-58379185D01*
X278378210Y-58510288D01*
X278378213Y-58510292D01*
X278489707Y-58621786D01*
X278489711Y-58621789D01*
X278620814Y-58709390D01*
X278620827Y-58709397D01*
X278766498Y-58769735D01*
X278766503Y-58769737D01*
X278912637Y-58798805D01*
X278921153Y-58800499D01*
X278921156Y-58800500D01*
X278921158Y-58800500D01*
X279078844Y-58800500D01*
X279078845Y-58800499D01*
X279233497Y-58769737D01*
X279379179Y-58709394D01*
X279510289Y-58621789D01*
X279510292Y-58621786D01*
X279537819Y-58594260D01*
X279599142Y-58560775D01*
X279668834Y-58565759D01*
X279724767Y-58607631D01*
X279749184Y-58673095D01*
X279749500Y-58681941D01*
X279749500Y-59318059D01*
X279729815Y-59385098D01*
X279677011Y-59430853D01*
X279607853Y-59440797D01*
X279544297Y-59411772D01*
X279537819Y-59405740D01*
X279510292Y-59378213D01*
X279510288Y-59378210D01*
X279379185Y-59290609D01*
X279379172Y-59290602D01*
X279233501Y-59230264D01*
X279233489Y-59230261D01*
X279078845Y-59199500D01*
X279078842Y-59199500D01*
X278921158Y-59199500D01*
X278921155Y-59199500D01*
X278766510Y-59230261D01*
X278766498Y-59230264D01*
X278620827Y-59290602D01*
X278620814Y-59290609D01*
X278489711Y-59378210D01*
X278489707Y-59378213D01*
X278378213Y-59489707D01*
X278378210Y-59489711D01*
X278290609Y-59620814D01*
X278290602Y-59620827D01*
X278230264Y-59766498D01*
X278230261Y-59766510D01*
X278199500Y-59921153D01*
X278199500Y-60078846D01*
X278230261Y-60233489D01*
X278230264Y-60233501D01*
X278290602Y-60379172D01*
X278290609Y-60379185D01*
X278378210Y-60510288D01*
X278378213Y-60510292D01*
X278489707Y-60621786D01*
X278489711Y-60621789D01*
X278620814Y-60709390D01*
X278620827Y-60709397D01*
X278766498Y-60769735D01*
X278766503Y-60769737D01*
X278912637Y-60798805D01*
X278921153Y-60800499D01*
X278921156Y-60800500D01*
X278921158Y-60800500D01*
X279078844Y-60800500D01*
X279078845Y-60800499D01*
X279233497Y-60769737D01*
X279379179Y-60709394D01*
X279510289Y-60621789D01*
X279510292Y-60621786D01*
X279537819Y-60594260D01*
X279599142Y-60560775D01*
X279668834Y-60565759D01*
X279724767Y-60607631D01*
X279749184Y-60673095D01*
X279749500Y-60681941D01*
X279749500Y-61318059D01*
X279729815Y-61385098D01*
X279677011Y-61430853D01*
X279607853Y-61440797D01*
X279544297Y-61411772D01*
X279537819Y-61405740D01*
X279510292Y-61378213D01*
X279510288Y-61378210D01*
X279379185Y-61290609D01*
X279379172Y-61290602D01*
X279233501Y-61230264D01*
X279233489Y-61230261D01*
X279078845Y-61199500D01*
X279078842Y-61199500D01*
X278921158Y-61199500D01*
X278921155Y-61199500D01*
X278766510Y-61230261D01*
X278766498Y-61230264D01*
X278620827Y-61290602D01*
X278620814Y-61290609D01*
X278489711Y-61378210D01*
X278489707Y-61378213D01*
X278378213Y-61489707D01*
X278378210Y-61489711D01*
X278290609Y-61620814D01*
X278290602Y-61620827D01*
X278230264Y-61766498D01*
X278230261Y-61766510D01*
X278199500Y-61921153D01*
X278199500Y-62078846D01*
X278230261Y-62233489D01*
X278230264Y-62233501D01*
X278290602Y-62379172D01*
X278290609Y-62379185D01*
X278378210Y-62510288D01*
X278378213Y-62510292D01*
X278489707Y-62621786D01*
X278489711Y-62621789D01*
X278620814Y-62709390D01*
X278620827Y-62709397D01*
X278766498Y-62769735D01*
X278766503Y-62769737D01*
X278912637Y-62798805D01*
X278921153Y-62800499D01*
X278921156Y-62800500D01*
X278921158Y-62800500D01*
X279078844Y-62800500D01*
X279078845Y-62800499D01*
X279233497Y-62769737D01*
X279379179Y-62709394D01*
X279510289Y-62621789D01*
X279510292Y-62621786D01*
X279537819Y-62594260D01*
X279599142Y-62560775D01*
X279668834Y-62565759D01*
X279724767Y-62607631D01*
X279749184Y-62673095D01*
X279749500Y-62681941D01*
X279749500Y-63318059D01*
X279729815Y-63385098D01*
X279677011Y-63430853D01*
X279607853Y-63440797D01*
X279544297Y-63411772D01*
X279537819Y-63405740D01*
X279510292Y-63378213D01*
X279510288Y-63378210D01*
X279379185Y-63290609D01*
X279379172Y-63290602D01*
X279233501Y-63230264D01*
X279233489Y-63230261D01*
X279078845Y-63199500D01*
X279078842Y-63199500D01*
X278921158Y-63199500D01*
X278921155Y-63199500D01*
X278766510Y-63230261D01*
X278766498Y-63230264D01*
X278620827Y-63290602D01*
X278620814Y-63290609D01*
X278489711Y-63378210D01*
X278489707Y-63378213D01*
X278378213Y-63489707D01*
X278378210Y-63489711D01*
X278290609Y-63620814D01*
X278290602Y-63620827D01*
X278230264Y-63766498D01*
X278230261Y-63766510D01*
X278199500Y-63921153D01*
X278199500Y-64078846D01*
X278230261Y-64233489D01*
X278230264Y-64233501D01*
X278290602Y-64379172D01*
X278290609Y-64379185D01*
X278378210Y-64510288D01*
X278378213Y-64510292D01*
X278489707Y-64621786D01*
X278489711Y-64621789D01*
X278620814Y-64709390D01*
X278620827Y-64709397D01*
X278766498Y-64769735D01*
X278766503Y-64769737D01*
X278912637Y-64798805D01*
X278921153Y-64800499D01*
X278921156Y-64800500D01*
X278921158Y-64800500D01*
X279078844Y-64800500D01*
X279078845Y-64800499D01*
X279233497Y-64769737D01*
X279379179Y-64709394D01*
X279510289Y-64621789D01*
X279510292Y-64621786D01*
X279537819Y-64594260D01*
X279599142Y-64560775D01*
X279668834Y-64565759D01*
X279724767Y-64607631D01*
X279749184Y-64673095D01*
X279749500Y-64681941D01*
X279749500Y-65318059D01*
X279729815Y-65385098D01*
X279677011Y-65430853D01*
X279607853Y-65440797D01*
X279544297Y-65411772D01*
X279537819Y-65405740D01*
X279510292Y-65378213D01*
X279510288Y-65378210D01*
X279379185Y-65290609D01*
X279379172Y-65290602D01*
X279233501Y-65230264D01*
X279233489Y-65230261D01*
X279078845Y-65199500D01*
X279078842Y-65199500D01*
X278921158Y-65199500D01*
X278921155Y-65199500D01*
X278766510Y-65230261D01*
X278766498Y-65230264D01*
X278620827Y-65290602D01*
X278620814Y-65290609D01*
X278489711Y-65378210D01*
X278489707Y-65378213D01*
X278378213Y-65489707D01*
X278378210Y-65489711D01*
X278290609Y-65620814D01*
X278290602Y-65620827D01*
X278230264Y-65766498D01*
X278230261Y-65766510D01*
X278199500Y-65921153D01*
X278199500Y-66078846D01*
X278230261Y-66233489D01*
X278230264Y-66233501D01*
X278290602Y-66379172D01*
X278290609Y-66379185D01*
X278378210Y-66510288D01*
X278378213Y-66510292D01*
X278489707Y-66621786D01*
X278489711Y-66621789D01*
X278620814Y-66709390D01*
X278620827Y-66709397D01*
X278766498Y-66769735D01*
X278766503Y-66769737D01*
X278912637Y-66798805D01*
X278921153Y-66800499D01*
X278921156Y-66800500D01*
X278921158Y-66800500D01*
X279078844Y-66800500D01*
X279078845Y-66800499D01*
X279233497Y-66769737D01*
X279379179Y-66709394D01*
X279510289Y-66621789D01*
X279510292Y-66621786D01*
X279537819Y-66594260D01*
X279599142Y-66560775D01*
X279668834Y-66565759D01*
X279724767Y-66607631D01*
X279749184Y-66673095D01*
X279749500Y-66681941D01*
X279749500Y-67318059D01*
X279729815Y-67385098D01*
X279677011Y-67430853D01*
X279607853Y-67440797D01*
X279544297Y-67411772D01*
X279537819Y-67405740D01*
X279510292Y-67378213D01*
X279510288Y-67378210D01*
X279379185Y-67290609D01*
X279379172Y-67290602D01*
X279233501Y-67230264D01*
X279233489Y-67230261D01*
X279078845Y-67199500D01*
X279078842Y-67199500D01*
X278921158Y-67199500D01*
X278921155Y-67199500D01*
X278766510Y-67230261D01*
X278766498Y-67230264D01*
X278620827Y-67290602D01*
X278620814Y-67290609D01*
X278489711Y-67378210D01*
X278489707Y-67378213D01*
X278378213Y-67489707D01*
X278378210Y-67489711D01*
X278290609Y-67620814D01*
X278290602Y-67620827D01*
X278230264Y-67766498D01*
X278230261Y-67766510D01*
X278199500Y-67921153D01*
X278199500Y-68078846D01*
X278230261Y-68233489D01*
X278230264Y-68233501D01*
X278290602Y-68379172D01*
X278290609Y-68379185D01*
X278378210Y-68510288D01*
X278378213Y-68510292D01*
X278489707Y-68621786D01*
X278489711Y-68621789D01*
X278620814Y-68709390D01*
X278620827Y-68709397D01*
X278766498Y-68769735D01*
X278766503Y-68769737D01*
X278912637Y-68798805D01*
X278921153Y-68800499D01*
X278921156Y-68800500D01*
X278921158Y-68800500D01*
X279078844Y-68800500D01*
X279078845Y-68800499D01*
X279233497Y-68769737D01*
X279379179Y-68709394D01*
X279510289Y-68621789D01*
X279510292Y-68621786D01*
X279537819Y-68594260D01*
X279599142Y-68560775D01*
X279668834Y-68565759D01*
X279724767Y-68607631D01*
X279749184Y-68673095D01*
X279749500Y-68681941D01*
X279749500Y-69318059D01*
X279729815Y-69385098D01*
X279677011Y-69430853D01*
X279607853Y-69440797D01*
X279544297Y-69411772D01*
X279537819Y-69405740D01*
X279510292Y-69378213D01*
X279510288Y-69378210D01*
X279379185Y-69290609D01*
X279379172Y-69290602D01*
X279233501Y-69230264D01*
X279233489Y-69230261D01*
X279078845Y-69199500D01*
X279078842Y-69199500D01*
X278921158Y-69199500D01*
X278921155Y-69199500D01*
X278766510Y-69230261D01*
X278766498Y-69230264D01*
X278620827Y-69290602D01*
X278620814Y-69290609D01*
X278489711Y-69378210D01*
X278489707Y-69378213D01*
X278378213Y-69489707D01*
X278378210Y-69489711D01*
X278290609Y-69620814D01*
X278290602Y-69620827D01*
X278230264Y-69766498D01*
X278230261Y-69766510D01*
X278199500Y-69921153D01*
X278199500Y-70078846D01*
X278230261Y-70233489D01*
X278230264Y-70233501D01*
X278290602Y-70379172D01*
X278290609Y-70379185D01*
X278378210Y-70510288D01*
X278378213Y-70510292D01*
X278489707Y-70621786D01*
X278489711Y-70621789D01*
X278620814Y-70709390D01*
X278620827Y-70709397D01*
X278766498Y-70769735D01*
X278766503Y-70769737D01*
X278912637Y-70798805D01*
X278921153Y-70800499D01*
X278921156Y-70800500D01*
X278921158Y-70800500D01*
X279078844Y-70800500D01*
X279078845Y-70800499D01*
X279233497Y-70769737D01*
X279379179Y-70709394D01*
X279510289Y-70621789D01*
X279510292Y-70621786D01*
X279537819Y-70594260D01*
X279599142Y-70560775D01*
X279668834Y-70565759D01*
X279724767Y-70607631D01*
X279749184Y-70673095D01*
X279749500Y-70681941D01*
X279749500Y-71318059D01*
X279729815Y-71385098D01*
X279677011Y-71430853D01*
X279607853Y-71440797D01*
X279544297Y-71411772D01*
X279537819Y-71405740D01*
X279510292Y-71378213D01*
X279510288Y-71378210D01*
X279379185Y-71290609D01*
X279379172Y-71290602D01*
X279233501Y-71230264D01*
X279233489Y-71230261D01*
X279078845Y-71199500D01*
X279078842Y-71199500D01*
X278921158Y-71199500D01*
X278921155Y-71199500D01*
X278766510Y-71230261D01*
X278766498Y-71230264D01*
X278620827Y-71290602D01*
X278620814Y-71290609D01*
X278489711Y-71378210D01*
X278489707Y-71378213D01*
X278378213Y-71489707D01*
X278378210Y-71489711D01*
X278290609Y-71620814D01*
X278290602Y-71620827D01*
X278230264Y-71766498D01*
X278230261Y-71766510D01*
X278199500Y-71921153D01*
X278199500Y-72078846D01*
X278230261Y-72233489D01*
X278230264Y-72233501D01*
X278290602Y-72379172D01*
X278290609Y-72379185D01*
X278378210Y-72510288D01*
X278378213Y-72510292D01*
X278489707Y-72621786D01*
X278489711Y-72621789D01*
X278620814Y-72709390D01*
X278620827Y-72709397D01*
X278766498Y-72769735D01*
X278766503Y-72769737D01*
X278912637Y-72798805D01*
X278921153Y-72800499D01*
X278921156Y-72800500D01*
X278921158Y-72800500D01*
X279078844Y-72800500D01*
X279078845Y-72800499D01*
X279233497Y-72769737D01*
X279379179Y-72709394D01*
X279510289Y-72621789D01*
X279510292Y-72621786D01*
X279537819Y-72594260D01*
X279599142Y-72560775D01*
X279668834Y-72565759D01*
X279724767Y-72607631D01*
X279749184Y-72673095D01*
X279749500Y-72681941D01*
X279749500Y-73318059D01*
X279729815Y-73385098D01*
X279677011Y-73430853D01*
X279607853Y-73440797D01*
X279544297Y-73411772D01*
X279537819Y-73405740D01*
X279510292Y-73378213D01*
X279510288Y-73378210D01*
X279379185Y-73290609D01*
X279379172Y-73290602D01*
X279233501Y-73230264D01*
X279233489Y-73230261D01*
X279078845Y-73199500D01*
X279078842Y-73199500D01*
X278921158Y-73199500D01*
X278921155Y-73199500D01*
X278766510Y-73230261D01*
X278766498Y-73230264D01*
X278620827Y-73290602D01*
X278620814Y-73290609D01*
X278489711Y-73378210D01*
X278489707Y-73378213D01*
X278378213Y-73489707D01*
X278378210Y-73489711D01*
X278290609Y-73620814D01*
X278290602Y-73620827D01*
X278230264Y-73766498D01*
X278230261Y-73766510D01*
X278199500Y-73921153D01*
X278199500Y-74078846D01*
X278230261Y-74233489D01*
X278230264Y-74233501D01*
X278290602Y-74379172D01*
X278290609Y-74379185D01*
X278378210Y-74510288D01*
X278378213Y-74510292D01*
X278489707Y-74621786D01*
X278489711Y-74621789D01*
X278620814Y-74709390D01*
X278620827Y-74709397D01*
X278766498Y-74769735D01*
X278766503Y-74769737D01*
X278912637Y-74798805D01*
X278921153Y-74800499D01*
X278921156Y-74800500D01*
X278921158Y-74800500D01*
X279078844Y-74800500D01*
X279078845Y-74800499D01*
X279233497Y-74769737D01*
X279379179Y-74709394D01*
X279510289Y-74621789D01*
X279510292Y-74621786D01*
X279537819Y-74594260D01*
X279599142Y-74560775D01*
X279668834Y-74565759D01*
X279724767Y-74607631D01*
X279749184Y-74673095D01*
X279749500Y-74681941D01*
X279749500Y-75318059D01*
X279729815Y-75385098D01*
X279677011Y-75430853D01*
X279607853Y-75440797D01*
X279544297Y-75411772D01*
X279537819Y-75405740D01*
X279510292Y-75378213D01*
X279510288Y-75378210D01*
X279379185Y-75290609D01*
X279379172Y-75290602D01*
X279233501Y-75230264D01*
X279233489Y-75230261D01*
X279078845Y-75199500D01*
X279078842Y-75199500D01*
X278921158Y-75199500D01*
X278921155Y-75199500D01*
X278766510Y-75230261D01*
X278766498Y-75230264D01*
X278620827Y-75290602D01*
X278620814Y-75290609D01*
X278489711Y-75378210D01*
X278489707Y-75378213D01*
X278378213Y-75489707D01*
X278378210Y-75489711D01*
X278290609Y-75620814D01*
X278290602Y-75620827D01*
X278230264Y-75766498D01*
X278230261Y-75766510D01*
X278199500Y-75921153D01*
X278199500Y-76078846D01*
X278230261Y-76233489D01*
X278230264Y-76233501D01*
X278290602Y-76379172D01*
X278290609Y-76379185D01*
X278378210Y-76510288D01*
X278378213Y-76510292D01*
X278489707Y-76621786D01*
X278489711Y-76621789D01*
X278620814Y-76709390D01*
X278620827Y-76709397D01*
X278766498Y-76769735D01*
X278766503Y-76769737D01*
X278912637Y-76798805D01*
X278921153Y-76800499D01*
X278921156Y-76800500D01*
X278921158Y-76800500D01*
X279078844Y-76800500D01*
X279078845Y-76800499D01*
X279233497Y-76769737D01*
X279379179Y-76709394D01*
X279510289Y-76621789D01*
X279510292Y-76621786D01*
X279537819Y-76594260D01*
X279599142Y-76560775D01*
X279668834Y-76565759D01*
X279724767Y-76607631D01*
X279749184Y-76673095D01*
X279749500Y-76681941D01*
X279749500Y-77318059D01*
X279729815Y-77385098D01*
X279677011Y-77430853D01*
X279607853Y-77440797D01*
X279544297Y-77411772D01*
X279537819Y-77405740D01*
X279510292Y-77378213D01*
X279510288Y-77378210D01*
X279379185Y-77290609D01*
X279379172Y-77290602D01*
X279233501Y-77230264D01*
X279233489Y-77230261D01*
X279078845Y-77199500D01*
X279078842Y-77199500D01*
X278921158Y-77199500D01*
X278921155Y-77199500D01*
X278766510Y-77230261D01*
X278766498Y-77230264D01*
X278620827Y-77290602D01*
X278620814Y-77290609D01*
X278489711Y-77378210D01*
X278489707Y-77378213D01*
X278378213Y-77489707D01*
X278378210Y-77489711D01*
X278290609Y-77620814D01*
X278290602Y-77620827D01*
X278230264Y-77766498D01*
X278230261Y-77766510D01*
X278199500Y-77921153D01*
X278199500Y-78078846D01*
X278230261Y-78233489D01*
X278230264Y-78233501D01*
X278290602Y-78379172D01*
X278290609Y-78379185D01*
X278378210Y-78510288D01*
X278378213Y-78510292D01*
X278489707Y-78621786D01*
X278489711Y-78621789D01*
X278620814Y-78709390D01*
X278620827Y-78709397D01*
X278766498Y-78769735D01*
X278766503Y-78769737D01*
X278912637Y-78798805D01*
X278921153Y-78800499D01*
X278921156Y-78800500D01*
X278921158Y-78800500D01*
X279078844Y-78800500D01*
X279078845Y-78800499D01*
X279233497Y-78769737D01*
X279379179Y-78709394D01*
X279510289Y-78621789D01*
X279510292Y-78621786D01*
X279537819Y-78594260D01*
X279599142Y-78560775D01*
X279668834Y-78565759D01*
X279724767Y-78607631D01*
X279749184Y-78673095D01*
X279749500Y-78681941D01*
X279749500Y-79318059D01*
X279729815Y-79385098D01*
X279677011Y-79430853D01*
X279607853Y-79440797D01*
X279544297Y-79411772D01*
X279537819Y-79405740D01*
X279510292Y-79378213D01*
X279510288Y-79378210D01*
X279379185Y-79290609D01*
X279379172Y-79290602D01*
X279233501Y-79230264D01*
X279233489Y-79230261D01*
X279078845Y-79199500D01*
X279078842Y-79199500D01*
X278921158Y-79199500D01*
X278921155Y-79199500D01*
X278766510Y-79230261D01*
X278766498Y-79230264D01*
X278620827Y-79290602D01*
X278620814Y-79290609D01*
X278489711Y-79378210D01*
X278489707Y-79378213D01*
X278378213Y-79489707D01*
X278378210Y-79489711D01*
X278290609Y-79620814D01*
X278290602Y-79620827D01*
X278230264Y-79766498D01*
X278230261Y-79766510D01*
X278199500Y-79921153D01*
X278199500Y-80078846D01*
X278230261Y-80233489D01*
X278230264Y-80233501D01*
X278290602Y-80379172D01*
X278290609Y-80379185D01*
X278378210Y-80510288D01*
X278378213Y-80510292D01*
X278489707Y-80621786D01*
X278489711Y-80621789D01*
X278620814Y-80709390D01*
X278620827Y-80709397D01*
X278766498Y-80769735D01*
X278766503Y-80769737D01*
X278912637Y-80798805D01*
X278921153Y-80800499D01*
X278921156Y-80800500D01*
X278921158Y-80800500D01*
X279078844Y-80800500D01*
X279078845Y-80800499D01*
X279233497Y-80769737D01*
X279379179Y-80709394D01*
X279510289Y-80621789D01*
X279510292Y-80621786D01*
X279537819Y-80594260D01*
X279599142Y-80560775D01*
X279668834Y-80565759D01*
X279724767Y-80607631D01*
X279749184Y-80673095D01*
X279749500Y-80681941D01*
X279749500Y-81318059D01*
X279729815Y-81385098D01*
X279677011Y-81430853D01*
X279607853Y-81440797D01*
X279544297Y-81411772D01*
X279537819Y-81405740D01*
X279510292Y-81378213D01*
X279510288Y-81378210D01*
X279379185Y-81290609D01*
X279379172Y-81290602D01*
X279233501Y-81230264D01*
X279233489Y-81230261D01*
X279078845Y-81199500D01*
X279078842Y-81199500D01*
X278921158Y-81199500D01*
X278921155Y-81199500D01*
X278766510Y-81230261D01*
X278766498Y-81230264D01*
X278620827Y-81290602D01*
X278620814Y-81290609D01*
X278489711Y-81378210D01*
X278489707Y-81378213D01*
X278378213Y-81489707D01*
X278378210Y-81489711D01*
X278290609Y-81620814D01*
X278290602Y-81620827D01*
X278230264Y-81766498D01*
X278230261Y-81766510D01*
X278199500Y-81921153D01*
X278199500Y-82078846D01*
X278230261Y-82233489D01*
X278230264Y-82233501D01*
X278290602Y-82379172D01*
X278290609Y-82379185D01*
X278378210Y-82510288D01*
X278378213Y-82510292D01*
X278489707Y-82621786D01*
X278489711Y-82621789D01*
X278620814Y-82709390D01*
X278620827Y-82709397D01*
X278766498Y-82769735D01*
X278766503Y-82769737D01*
X278912637Y-82798805D01*
X278921153Y-82800499D01*
X278921156Y-82800500D01*
X278921158Y-82800500D01*
X279078844Y-82800500D01*
X279078845Y-82800499D01*
X279233497Y-82769737D01*
X279379179Y-82709394D01*
X279510289Y-82621789D01*
X279510292Y-82621786D01*
X279537819Y-82594260D01*
X279599142Y-82560775D01*
X279668834Y-82565759D01*
X279724767Y-82607631D01*
X279749184Y-82673095D01*
X279749500Y-82681941D01*
X279749500Y-83318059D01*
X279729815Y-83385098D01*
X279677011Y-83430853D01*
X279607853Y-83440797D01*
X279544297Y-83411772D01*
X279537819Y-83405740D01*
X279510292Y-83378213D01*
X279510288Y-83378210D01*
X279379185Y-83290609D01*
X279379172Y-83290602D01*
X279233501Y-83230264D01*
X279233489Y-83230261D01*
X279078845Y-83199500D01*
X279078842Y-83199500D01*
X278921158Y-83199500D01*
X278921155Y-83199500D01*
X278766510Y-83230261D01*
X278766498Y-83230264D01*
X278620827Y-83290602D01*
X278620814Y-83290609D01*
X278489711Y-83378210D01*
X278489707Y-83378213D01*
X278378213Y-83489707D01*
X278378210Y-83489711D01*
X278290609Y-83620814D01*
X278290602Y-83620827D01*
X278230264Y-83766498D01*
X278230261Y-83766510D01*
X278199500Y-83921153D01*
X278199500Y-84078846D01*
X278230261Y-84233489D01*
X278230264Y-84233501D01*
X278290602Y-84379172D01*
X278290609Y-84379185D01*
X278378210Y-84510288D01*
X278378213Y-84510292D01*
X278489707Y-84621786D01*
X278489711Y-84621789D01*
X278620814Y-84709390D01*
X278620827Y-84709397D01*
X278766498Y-84769735D01*
X278766503Y-84769737D01*
X278912637Y-84798805D01*
X278921153Y-84800499D01*
X278921156Y-84800500D01*
X278921158Y-84800500D01*
X279078844Y-84800500D01*
X279078845Y-84800499D01*
X279233497Y-84769737D01*
X279379179Y-84709394D01*
X279510289Y-84621789D01*
X279510292Y-84621786D01*
X279537819Y-84594260D01*
X279599142Y-84560775D01*
X279668834Y-84565759D01*
X279724767Y-84607631D01*
X279749184Y-84673095D01*
X279749500Y-84681941D01*
X279749500Y-85318059D01*
X279729815Y-85385098D01*
X279677011Y-85430853D01*
X279607853Y-85440797D01*
X279544297Y-85411772D01*
X279537819Y-85405740D01*
X279510292Y-85378213D01*
X279510288Y-85378210D01*
X279379185Y-85290609D01*
X279379172Y-85290602D01*
X279233501Y-85230264D01*
X279233489Y-85230261D01*
X279078845Y-85199500D01*
X279078842Y-85199500D01*
X278921158Y-85199500D01*
X278921155Y-85199500D01*
X278766510Y-85230261D01*
X278766498Y-85230264D01*
X278620827Y-85290602D01*
X278620814Y-85290609D01*
X278489711Y-85378210D01*
X278489707Y-85378213D01*
X278378213Y-85489707D01*
X278378210Y-85489711D01*
X278290609Y-85620814D01*
X278290602Y-85620827D01*
X278230264Y-85766498D01*
X278230261Y-85766510D01*
X278199500Y-85921153D01*
X278199500Y-86078846D01*
X278230261Y-86233489D01*
X278230264Y-86233501D01*
X278290602Y-86379172D01*
X278290609Y-86379185D01*
X278378210Y-86510288D01*
X278378213Y-86510292D01*
X278489707Y-86621786D01*
X278489711Y-86621789D01*
X278620814Y-86709390D01*
X278620827Y-86709397D01*
X278766498Y-86769735D01*
X278766503Y-86769737D01*
X278912637Y-86798805D01*
X278921153Y-86800499D01*
X278921156Y-86800500D01*
X278921158Y-86800500D01*
X279078844Y-86800500D01*
X279078845Y-86800499D01*
X279233497Y-86769737D01*
X279379179Y-86709394D01*
X279510289Y-86621789D01*
X279510292Y-86621786D01*
X279537819Y-86594260D01*
X279599142Y-86560775D01*
X279668834Y-86565759D01*
X279724767Y-86607631D01*
X279749184Y-86673095D01*
X279749500Y-86681941D01*
X279749500Y-87318059D01*
X279729815Y-87385098D01*
X279677011Y-87430853D01*
X279607853Y-87440797D01*
X279544297Y-87411772D01*
X279537819Y-87405740D01*
X279510292Y-87378213D01*
X279510288Y-87378210D01*
X279379185Y-87290609D01*
X279379172Y-87290602D01*
X279233501Y-87230264D01*
X279233489Y-87230261D01*
X279078845Y-87199500D01*
X279078842Y-87199500D01*
X278921158Y-87199500D01*
X278921155Y-87199500D01*
X278766510Y-87230261D01*
X278766498Y-87230264D01*
X278620827Y-87290602D01*
X278620814Y-87290609D01*
X278489711Y-87378210D01*
X278489707Y-87378213D01*
X278378213Y-87489707D01*
X278378210Y-87489711D01*
X278290609Y-87620814D01*
X278290602Y-87620827D01*
X278230264Y-87766498D01*
X278230261Y-87766510D01*
X278199500Y-87921153D01*
X278199500Y-88078846D01*
X278230261Y-88233489D01*
X278230264Y-88233501D01*
X278290602Y-88379172D01*
X278290609Y-88379185D01*
X278378210Y-88510288D01*
X278378213Y-88510292D01*
X278489707Y-88621786D01*
X278489711Y-88621789D01*
X278620814Y-88709390D01*
X278620827Y-88709397D01*
X278766498Y-88769735D01*
X278766503Y-88769737D01*
X278912637Y-88798805D01*
X278921153Y-88800499D01*
X278921156Y-88800500D01*
X278921158Y-88800500D01*
X279078844Y-88800500D01*
X279078845Y-88800499D01*
X279233497Y-88769737D01*
X279379179Y-88709394D01*
X279510289Y-88621789D01*
X279510292Y-88621786D01*
X279537819Y-88594260D01*
X279599142Y-88560775D01*
X279668834Y-88565759D01*
X279724767Y-88607631D01*
X279749184Y-88673095D01*
X279749500Y-88681941D01*
X279749500Y-89318059D01*
X279729815Y-89385098D01*
X279677011Y-89430853D01*
X279607853Y-89440797D01*
X279544297Y-89411772D01*
X279537819Y-89405740D01*
X279510292Y-89378213D01*
X279510288Y-89378210D01*
X279379185Y-89290609D01*
X279379172Y-89290602D01*
X279233501Y-89230264D01*
X279233489Y-89230261D01*
X279078845Y-89199500D01*
X279078842Y-89199500D01*
X278921158Y-89199500D01*
X278921155Y-89199500D01*
X278766510Y-89230261D01*
X278766498Y-89230264D01*
X278620827Y-89290602D01*
X278620814Y-89290609D01*
X278489711Y-89378210D01*
X278489707Y-89378213D01*
X278378213Y-89489707D01*
X278378210Y-89489711D01*
X278290609Y-89620814D01*
X278290602Y-89620827D01*
X278230264Y-89766498D01*
X278230261Y-89766510D01*
X278199500Y-89921153D01*
X278199500Y-90078846D01*
X278230261Y-90233489D01*
X278230264Y-90233501D01*
X278290602Y-90379172D01*
X278290609Y-90379185D01*
X278378210Y-90510288D01*
X278378213Y-90510292D01*
X278489707Y-90621786D01*
X278489711Y-90621789D01*
X278620814Y-90709390D01*
X278620827Y-90709397D01*
X278766498Y-90769735D01*
X278766503Y-90769737D01*
X278912637Y-90798805D01*
X278921153Y-90800499D01*
X278921156Y-90800500D01*
X278921158Y-90800500D01*
X279078844Y-90800500D01*
X279078845Y-90800499D01*
X279233497Y-90769737D01*
X279379179Y-90709394D01*
X279510289Y-90621789D01*
X279510292Y-90621786D01*
X279537819Y-90594260D01*
X279599142Y-90560775D01*
X279668834Y-90565759D01*
X279724767Y-90607631D01*
X279749184Y-90673095D01*
X279749500Y-90681941D01*
X279749500Y-91318059D01*
X279729815Y-91385098D01*
X279677011Y-91430853D01*
X279607853Y-91440797D01*
X279544297Y-91411772D01*
X279537819Y-91405740D01*
X279510292Y-91378213D01*
X279510288Y-91378210D01*
X279379185Y-91290609D01*
X279379172Y-91290602D01*
X279233501Y-91230264D01*
X279233489Y-91230261D01*
X279078845Y-91199500D01*
X279078842Y-91199500D01*
X278921158Y-91199500D01*
X278921155Y-91199500D01*
X278766510Y-91230261D01*
X278766498Y-91230264D01*
X278620827Y-91290602D01*
X278620814Y-91290609D01*
X278489711Y-91378210D01*
X278489707Y-91378213D01*
X278378213Y-91489707D01*
X278378210Y-91489711D01*
X278290609Y-91620814D01*
X278290602Y-91620827D01*
X278230264Y-91766498D01*
X278230261Y-91766510D01*
X278199500Y-91921153D01*
X278199500Y-92078846D01*
X278230261Y-92233489D01*
X278230264Y-92233501D01*
X278290602Y-92379172D01*
X278290609Y-92379185D01*
X278378210Y-92510288D01*
X278378213Y-92510292D01*
X278489707Y-92621786D01*
X278489711Y-92621789D01*
X278620814Y-92709390D01*
X278620827Y-92709397D01*
X278766498Y-92769735D01*
X278766503Y-92769737D01*
X278912637Y-92798805D01*
X278921153Y-92800499D01*
X278921156Y-92800500D01*
X278921158Y-92800500D01*
X279078844Y-92800500D01*
X279078845Y-92800499D01*
X279233497Y-92769737D01*
X279379179Y-92709394D01*
X279510289Y-92621789D01*
X279510292Y-92621786D01*
X279537819Y-92594260D01*
X279599142Y-92560775D01*
X279668834Y-92565759D01*
X279724767Y-92607631D01*
X279749184Y-92673095D01*
X279749500Y-92681941D01*
X279749500Y-93318059D01*
X279729815Y-93385098D01*
X279677011Y-93430853D01*
X279607853Y-93440797D01*
X279544297Y-93411772D01*
X279537819Y-93405740D01*
X279510292Y-93378213D01*
X279510288Y-93378210D01*
X279379185Y-93290609D01*
X279379172Y-93290602D01*
X279233501Y-93230264D01*
X279233489Y-93230261D01*
X279078845Y-93199500D01*
X279078842Y-93199500D01*
X278921158Y-93199500D01*
X278921155Y-93199500D01*
X278766510Y-93230261D01*
X278766498Y-93230264D01*
X278620827Y-93290602D01*
X278620814Y-93290609D01*
X278489711Y-93378210D01*
X278489707Y-93378213D01*
X278378213Y-93489707D01*
X278378210Y-93489711D01*
X278290609Y-93620814D01*
X278290602Y-93620827D01*
X278230264Y-93766498D01*
X278230261Y-93766510D01*
X278199500Y-93921153D01*
X278199500Y-94078846D01*
X278230261Y-94233489D01*
X278230264Y-94233501D01*
X278290602Y-94379172D01*
X278290609Y-94379185D01*
X278378210Y-94510288D01*
X278378213Y-94510292D01*
X278489707Y-94621786D01*
X278489711Y-94621789D01*
X278620814Y-94709390D01*
X278620827Y-94709397D01*
X278766498Y-94769735D01*
X278766503Y-94769737D01*
X278912637Y-94798805D01*
X278921153Y-94800499D01*
X278921156Y-94800500D01*
X278921158Y-94800500D01*
X279078844Y-94800500D01*
X279078845Y-94800499D01*
X279233497Y-94769737D01*
X279379179Y-94709394D01*
X279510289Y-94621789D01*
X279510292Y-94621786D01*
X279537819Y-94594260D01*
X279599142Y-94560775D01*
X279668834Y-94565759D01*
X279724767Y-94607631D01*
X279749184Y-94673095D01*
X279749500Y-94681941D01*
X279749500Y-95318059D01*
X279729815Y-95385098D01*
X279677011Y-95430853D01*
X279607853Y-95440797D01*
X279544297Y-95411772D01*
X279537819Y-95405740D01*
X279510292Y-95378213D01*
X279510288Y-95378210D01*
X279379185Y-95290609D01*
X279379172Y-95290602D01*
X279233501Y-95230264D01*
X279233489Y-95230261D01*
X279078845Y-95199500D01*
X279078842Y-95199500D01*
X278921158Y-95199500D01*
X278921155Y-95199500D01*
X278766510Y-95230261D01*
X278766498Y-95230264D01*
X278620827Y-95290602D01*
X278620814Y-95290609D01*
X278489711Y-95378210D01*
X278489707Y-95378213D01*
X278378213Y-95489707D01*
X278378210Y-95489711D01*
X278290609Y-95620814D01*
X278290602Y-95620827D01*
X278230264Y-95766498D01*
X278230261Y-95766510D01*
X278199500Y-95921153D01*
X278199500Y-96078846D01*
X278230261Y-96233489D01*
X278230264Y-96233501D01*
X278290602Y-96379172D01*
X278290609Y-96379185D01*
X278378210Y-96510288D01*
X278378213Y-96510292D01*
X278489707Y-96621786D01*
X278489711Y-96621789D01*
X278620814Y-96709390D01*
X278620827Y-96709397D01*
X278766498Y-96769735D01*
X278766503Y-96769737D01*
X278912637Y-96798805D01*
X278921153Y-96800499D01*
X278921156Y-96800500D01*
X278921158Y-96800500D01*
X279078844Y-96800500D01*
X279078845Y-96800499D01*
X279233497Y-96769737D01*
X279379179Y-96709394D01*
X279510289Y-96621789D01*
X279510292Y-96621786D01*
X279537819Y-96594260D01*
X279599142Y-96560775D01*
X279668834Y-96565759D01*
X279724767Y-96607631D01*
X279749184Y-96673095D01*
X279749500Y-96681941D01*
X279749500Y-97318059D01*
X279729815Y-97385098D01*
X279677011Y-97430853D01*
X279607853Y-97440797D01*
X279544297Y-97411772D01*
X279537819Y-97405740D01*
X279510292Y-97378213D01*
X279510288Y-97378210D01*
X279379185Y-97290609D01*
X279379172Y-97290602D01*
X279233501Y-97230264D01*
X279233489Y-97230261D01*
X279078845Y-97199500D01*
X279078842Y-97199500D01*
X278921158Y-97199500D01*
X278921155Y-97199500D01*
X278766510Y-97230261D01*
X278766498Y-97230264D01*
X278620827Y-97290602D01*
X278620814Y-97290609D01*
X278489711Y-97378210D01*
X278489707Y-97378213D01*
X278378213Y-97489707D01*
X278378210Y-97489711D01*
X278290609Y-97620814D01*
X278290602Y-97620827D01*
X278230264Y-97766498D01*
X278230261Y-97766510D01*
X278199500Y-97921153D01*
X278199500Y-98078846D01*
X278230261Y-98233489D01*
X278230264Y-98233501D01*
X278290602Y-98379172D01*
X278290609Y-98379185D01*
X278378210Y-98510288D01*
X278378213Y-98510292D01*
X278489707Y-98621786D01*
X278489711Y-98621789D01*
X278620814Y-98709390D01*
X278620827Y-98709397D01*
X278766498Y-98769735D01*
X278766503Y-98769737D01*
X278912637Y-98798805D01*
X278921153Y-98800499D01*
X278921156Y-98800500D01*
X278921158Y-98800500D01*
X279078844Y-98800500D01*
X279078845Y-98800499D01*
X279233497Y-98769737D01*
X279379179Y-98709394D01*
X279510289Y-98621789D01*
X279510292Y-98621786D01*
X279537819Y-98594260D01*
X279599142Y-98560775D01*
X279668834Y-98565759D01*
X279724767Y-98607631D01*
X279749184Y-98673095D01*
X279749500Y-98681941D01*
X279749500Y-99318059D01*
X279729815Y-99385098D01*
X279677011Y-99430853D01*
X279607853Y-99440797D01*
X279544297Y-99411772D01*
X279537819Y-99405740D01*
X279510292Y-99378213D01*
X279510288Y-99378210D01*
X279379185Y-99290609D01*
X279379172Y-99290602D01*
X279233501Y-99230264D01*
X279233489Y-99230261D01*
X279078845Y-99199500D01*
X279078842Y-99199500D01*
X278921158Y-99199500D01*
X278921155Y-99199500D01*
X278766510Y-99230261D01*
X278766498Y-99230264D01*
X278620827Y-99290602D01*
X278620814Y-99290609D01*
X278489711Y-99378210D01*
X278489707Y-99378213D01*
X278378213Y-99489707D01*
X278378210Y-99489711D01*
X278290609Y-99620814D01*
X278290602Y-99620827D01*
X278230264Y-99766498D01*
X278230261Y-99766510D01*
X278199500Y-99921153D01*
X278199500Y-100078846D01*
X278230261Y-100233489D01*
X278230264Y-100233501D01*
X278290602Y-100379172D01*
X278290609Y-100379185D01*
X278378210Y-100510288D01*
X278378213Y-100510292D01*
X278489707Y-100621786D01*
X278489711Y-100621789D01*
X278620814Y-100709390D01*
X278620827Y-100709397D01*
X278766498Y-100769735D01*
X278766503Y-100769737D01*
X278912637Y-100798805D01*
X278921153Y-100800499D01*
X278921156Y-100800500D01*
X278921158Y-100800500D01*
X279078844Y-100800500D01*
X279078845Y-100800499D01*
X279233497Y-100769737D01*
X279379179Y-100709394D01*
X279510289Y-100621789D01*
X279510292Y-100621786D01*
X279537819Y-100594260D01*
X279599142Y-100560775D01*
X279668834Y-100565759D01*
X279724767Y-100607631D01*
X279749184Y-100673095D01*
X279749500Y-100681941D01*
X279749500Y-101318059D01*
X279729815Y-101385098D01*
X279677011Y-101430853D01*
X279607853Y-101440797D01*
X279544297Y-101411772D01*
X279537819Y-101405740D01*
X279510292Y-101378213D01*
X279510288Y-101378210D01*
X279379185Y-101290609D01*
X279379172Y-101290602D01*
X279233501Y-101230264D01*
X279233489Y-101230261D01*
X279078845Y-101199500D01*
X279078842Y-101199500D01*
X278921158Y-101199500D01*
X278921155Y-101199500D01*
X278766510Y-101230261D01*
X278766498Y-101230264D01*
X278620827Y-101290602D01*
X278620814Y-101290609D01*
X278489711Y-101378210D01*
X278489707Y-101378213D01*
X278378213Y-101489707D01*
X278378210Y-101489711D01*
X278290609Y-101620814D01*
X278290602Y-101620827D01*
X278230264Y-101766498D01*
X278230261Y-101766510D01*
X278199500Y-101921153D01*
X278199500Y-102078846D01*
X278230261Y-102233489D01*
X278230264Y-102233501D01*
X278290602Y-102379172D01*
X278290609Y-102379185D01*
X278378210Y-102510288D01*
X278378213Y-102510292D01*
X278489707Y-102621786D01*
X278489711Y-102621789D01*
X278620814Y-102709390D01*
X278620827Y-102709397D01*
X278766498Y-102769735D01*
X278766503Y-102769737D01*
X278912637Y-102798805D01*
X278921153Y-102800499D01*
X278921156Y-102800500D01*
X278921158Y-102800500D01*
X279078844Y-102800500D01*
X279078845Y-102800499D01*
X279233497Y-102769737D01*
X279379179Y-102709394D01*
X279510289Y-102621789D01*
X279510292Y-102621786D01*
X279537819Y-102594260D01*
X279599142Y-102560775D01*
X279668834Y-102565759D01*
X279724767Y-102607631D01*
X279749184Y-102673095D01*
X279749500Y-102681941D01*
X279749500Y-103318059D01*
X279729815Y-103385098D01*
X279677011Y-103430853D01*
X279607853Y-103440797D01*
X279544297Y-103411772D01*
X279537819Y-103405740D01*
X279510292Y-103378213D01*
X279510288Y-103378210D01*
X279379185Y-103290609D01*
X279379172Y-103290602D01*
X279233501Y-103230264D01*
X279233489Y-103230261D01*
X279078845Y-103199500D01*
X279078842Y-103199500D01*
X278921158Y-103199500D01*
X278921155Y-103199500D01*
X278766510Y-103230261D01*
X278766498Y-103230264D01*
X278620827Y-103290602D01*
X278620814Y-103290609D01*
X278489711Y-103378210D01*
X278489707Y-103378213D01*
X278378213Y-103489707D01*
X278378210Y-103489711D01*
X278290609Y-103620814D01*
X278290602Y-103620827D01*
X278230264Y-103766498D01*
X278230261Y-103766510D01*
X278199500Y-103921153D01*
X278199500Y-104078846D01*
X278230261Y-104233489D01*
X278230264Y-104233501D01*
X278290602Y-104379172D01*
X278290609Y-104379185D01*
X278378210Y-104510288D01*
X278378213Y-104510292D01*
X278489707Y-104621786D01*
X278489711Y-104621789D01*
X278620814Y-104709390D01*
X278620827Y-104709397D01*
X278766498Y-104769735D01*
X278766503Y-104769737D01*
X278912637Y-104798805D01*
X278921153Y-104800499D01*
X278921156Y-104800500D01*
X278921158Y-104800500D01*
X279078844Y-104800500D01*
X279078845Y-104800499D01*
X279233497Y-104769737D01*
X279379179Y-104709394D01*
X279510289Y-104621789D01*
X279510925Y-104621153D01*
X279537819Y-104594260D01*
X279599142Y-104560775D01*
X279668834Y-104565759D01*
X279724767Y-104607631D01*
X279749184Y-104673095D01*
X279749500Y-104681941D01*
X279749500Y-105318059D01*
X279729815Y-105385098D01*
X279677011Y-105430853D01*
X279607853Y-105440797D01*
X279544297Y-105411772D01*
X279537819Y-105405740D01*
X279510292Y-105378213D01*
X279510288Y-105378210D01*
X279379185Y-105290609D01*
X279379172Y-105290602D01*
X279233501Y-105230264D01*
X279233489Y-105230261D01*
X279078845Y-105199500D01*
X279078842Y-105199500D01*
X278921158Y-105199500D01*
X278921155Y-105199500D01*
X278766510Y-105230261D01*
X278766498Y-105230264D01*
X278620827Y-105290602D01*
X278620814Y-105290609D01*
X278489711Y-105378210D01*
X278489707Y-105378213D01*
X278378213Y-105489707D01*
X278378210Y-105489711D01*
X278290609Y-105620814D01*
X278290602Y-105620827D01*
X278230264Y-105766498D01*
X278230261Y-105766510D01*
X278199500Y-105921153D01*
X278199500Y-106078846D01*
X278230261Y-106233489D01*
X278230264Y-106233501D01*
X278290602Y-106379172D01*
X278290609Y-106379185D01*
X278378210Y-106510288D01*
X278378213Y-106510292D01*
X278489707Y-106621786D01*
X278489711Y-106621789D01*
X278620814Y-106709390D01*
X278620827Y-106709397D01*
X278717745Y-106749541D01*
X278766503Y-106769737D01*
X278921153Y-106800499D01*
X278921156Y-106800500D01*
X278921158Y-106800500D01*
X279078844Y-106800500D01*
X279078845Y-106800499D01*
X279233497Y-106769737D01*
X279379179Y-106709394D01*
X279510289Y-106621789D01*
X279510292Y-106621786D01*
X279537819Y-106594260D01*
X279599142Y-106560775D01*
X279668834Y-106565759D01*
X279724767Y-106607631D01*
X279749184Y-106673095D01*
X279749500Y-106681941D01*
X279749500Y-107318059D01*
X279729815Y-107385098D01*
X279677011Y-107430853D01*
X279607853Y-107440797D01*
X279544297Y-107411772D01*
X279537819Y-107405740D01*
X279510292Y-107378213D01*
X279510288Y-107378210D01*
X279379185Y-107290609D01*
X279379172Y-107290602D01*
X279233501Y-107230264D01*
X279233489Y-107230261D01*
X279078845Y-107199500D01*
X279078842Y-107199500D01*
X278921158Y-107199500D01*
X278921155Y-107199500D01*
X278766510Y-107230261D01*
X278766498Y-107230264D01*
X278620827Y-107290602D01*
X278620814Y-107290609D01*
X278489711Y-107378210D01*
X278489707Y-107378213D01*
X278378213Y-107489707D01*
X278378210Y-107489711D01*
X278290609Y-107620814D01*
X278290602Y-107620827D01*
X278230264Y-107766498D01*
X278230261Y-107766510D01*
X278199500Y-107921153D01*
X278199500Y-108078846D01*
X278230261Y-108233489D01*
X278230264Y-108233501D01*
X278290602Y-108379172D01*
X278290609Y-108379185D01*
X278378210Y-108510288D01*
X278378213Y-108510292D01*
X278489707Y-108621786D01*
X278489711Y-108621789D01*
X278620814Y-108709390D01*
X278620827Y-108709397D01*
X278766498Y-108769735D01*
X278766503Y-108769737D01*
X278921153Y-108800499D01*
X278921156Y-108800500D01*
X278921158Y-108800500D01*
X279078844Y-108800500D01*
X279078845Y-108800499D01*
X279233497Y-108769737D01*
X279379179Y-108709394D01*
X279510289Y-108621789D01*
X279510292Y-108621786D01*
X279537819Y-108594260D01*
X279599142Y-108560775D01*
X279668834Y-108565759D01*
X279724767Y-108607631D01*
X279749184Y-108673095D01*
X279749500Y-108681941D01*
X279749500Y-109318059D01*
X279729815Y-109385098D01*
X279677011Y-109430853D01*
X279607853Y-109440797D01*
X279544297Y-109411772D01*
X279537819Y-109405740D01*
X279510292Y-109378213D01*
X279510288Y-109378210D01*
X279379185Y-109290609D01*
X279379172Y-109290602D01*
X279233501Y-109230264D01*
X279233489Y-109230261D01*
X279078845Y-109199500D01*
X279078842Y-109199500D01*
X278921158Y-109199500D01*
X278921155Y-109199500D01*
X278766510Y-109230261D01*
X278766498Y-109230264D01*
X278620827Y-109290602D01*
X278620814Y-109290609D01*
X278489711Y-109378210D01*
X278489707Y-109378213D01*
X278378213Y-109489707D01*
X278378210Y-109489711D01*
X278290609Y-109620814D01*
X278290602Y-109620827D01*
X278230264Y-109766498D01*
X278230261Y-109766510D01*
X278199500Y-109921153D01*
X278199500Y-110078846D01*
X278230261Y-110233489D01*
X278230264Y-110233501D01*
X278290602Y-110379172D01*
X278290609Y-110379185D01*
X278378210Y-110510288D01*
X278378213Y-110510292D01*
X278489707Y-110621786D01*
X278489711Y-110621789D01*
X278620814Y-110709390D01*
X278620827Y-110709397D01*
X278766498Y-110769735D01*
X278766503Y-110769737D01*
X278921153Y-110800499D01*
X278921156Y-110800500D01*
X278921158Y-110800500D01*
X279078844Y-110800500D01*
X279078845Y-110800499D01*
X279233497Y-110769737D01*
X279379179Y-110709394D01*
X279510289Y-110621789D01*
X279510292Y-110621786D01*
X279537819Y-110594260D01*
X279599142Y-110560775D01*
X279668834Y-110565759D01*
X279724767Y-110607631D01*
X279749184Y-110673095D01*
X279749500Y-110681941D01*
X279749500Y-111318059D01*
X279729815Y-111385098D01*
X279677011Y-111430853D01*
X279607853Y-111440797D01*
X279544297Y-111411772D01*
X279537819Y-111405740D01*
X279510292Y-111378213D01*
X279510288Y-111378210D01*
X279379185Y-111290609D01*
X279379172Y-111290602D01*
X279233501Y-111230264D01*
X279233489Y-111230261D01*
X279078845Y-111199500D01*
X279078842Y-111199500D01*
X278921158Y-111199500D01*
X278921155Y-111199500D01*
X278766510Y-111230261D01*
X278766498Y-111230264D01*
X278620827Y-111290602D01*
X278620814Y-111290609D01*
X278489711Y-111378210D01*
X278489707Y-111378213D01*
X278378213Y-111489707D01*
X278378210Y-111489711D01*
X278290609Y-111620814D01*
X278290602Y-111620827D01*
X278230264Y-111766498D01*
X278230261Y-111766510D01*
X278199500Y-111921153D01*
X278199500Y-112078846D01*
X278230261Y-112233489D01*
X278230264Y-112233501D01*
X278290602Y-112379172D01*
X278290609Y-112379185D01*
X278378210Y-112510288D01*
X278378213Y-112510292D01*
X278489707Y-112621786D01*
X278489711Y-112621789D01*
X278620814Y-112709390D01*
X278620827Y-112709397D01*
X278766498Y-112769735D01*
X278766503Y-112769737D01*
X278921153Y-112800499D01*
X278921156Y-112800500D01*
X278921158Y-112800500D01*
X279078844Y-112800500D01*
X279078845Y-112800499D01*
X279233497Y-112769737D01*
X279379179Y-112709394D01*
X279510289Y-112621789D01*
X279510292Y-112621786D01*
X279537819Y-112594260D01*
X279599142Y-112560775D01*
X279668834Y-112565759D01*
X279724767Y-112607631D01*
X279749184Y-112673095D01*
X279749500Y-112681941D01*
X279749500Y-113318059D01*
X279729815Y-113385098D01*
X279677011Y-113430853D01*
X279607853Y-113440797D01*
X279544297Y-113411772D01*
X279537819Y-113405740D01*
X279510292Y-113378213D01*
X279510288Y-113378210D01*
X279379185Y-113290609D01*
X279379172Y-113290602D01*
X279233501Y-113230264D01*
X279233489Y-113230261D01*
X279078845Y-113199500D01*
X279078842Y-113199500D01*
X278921158Y-113199500D01*
X278921155Y-113199500D01*
X278766510Y-113230261D01*
X278766498Y-113230264D01*
X278620827Y-113290602D01*
X278620814Y-113290609D01*
X278489711Y-113378210D01*
X278489707Y-113378213D01*
X278378213Y-113489707D01*
X278378210Y-113489711D01*
X278290609Y-113620814D01*
X278290602Y-113620827D01*
X278230264Y-113766498D01*
X278230261Y-113766510D01*
X278199500Y-113921153D01*
X278199500Y-114078846D01*
X278230261Y-114233489D01*
X278230264Y-114233501D01*
X278290602Y-114379172D01*
X278290609Y-114379185D01*
X278378210Y-114510288D01*
X278378213Y-114510292D01*
X278489707Y-114621786D01*
X278489711Y-114621789D01*
X278620814Y-114709390D01*
X278620827Y-114709397D01*
X278766498Y-114769735D01*
X278766503Y-114769737D01*
X278921153Y-114800499D01*
X278921156Y-114800500D01*
X278921158Y-114800500D01*
X279078844Y-114800500D01*
X279078845Y-114800499D01*
X279233497Y-114769737D01*
X279379179Y-114709394D01*
X279510289Y-114621789D01*
X279510292Y-114621786D01*
X279537819Y-114594260D01*
X279599142Y-114560775D01*
X279668834Y-114565759D01*
X279724767Y-114607631D01*
X279749184Y-114673095D01*
X279749500Y-114681941D01*
X279749500Y-117318059D01*
X279729815Y-117385098D01*
X279677011Y-117430853D01*
X279607853Y-117440797D01*
X279544297Y-117411772D01*
X279537819Y-117405740D01*
X279510292Y-117378213D01*
X279510288Y-117378210D01*
X279379185Y-117290609D01*
X279379172Y-117290602D01*
X279233501Y-117230264D01*
X279233489Y-117230261D01*
X279078845Y-117199500D01*
X279078842Y-117199500D01*
X278921158Y-117199500D01*
X278921155Y-117199500D01*
X278766510Y-117230261D01*
X278766498Y-117230264D01*
X278620827Y-117290602D01*
X278620814Y-117290609D01*
X278489711Y-117378210D01*
X278489707Y-117378213D01*
X278378213Y-117489707D01*
X278378210Y-117489711D01*
X278290609Y-117620814D01*
X278290602Y-117620827D01*
X278230264Y-117766498D01*
X278230261Y-117766510D01*
X278199500Y-117921153D01*
X278199500Y-118078846D01*
X278230261Y-118233489D01*
X278230264Y-118233501D01*
X278290602Y-118379172D01*
X278290609Y-118379185D01*
X278378210Y-118510288D01*
X278378213Y-118510292D01*
X278489707Y-118621786D01*
X278489711Y-118621789D01*
X278620814Y-118709390D01*
X278620827Y-118709397D01*
X278766498Y-118769735D01*
X278766503Y-118769737D01*
X278921153Y-118800499D01*
X278921156Y-118800500D01*
X278921158Y-118800500D01*
X279078844Y-118800500D01*
X279078845Y-118800499D01*
X279233497Y-118769737D01*
X279379179Y-118709394D01*
X279510289Y-118621789D01*
X279510292Y-118621786D01*
X279537819Y-118594260D01*
X279599142Y-118560775D01*
X279668834Y-118565759D01*
X279724767Y-118607631D01*
X279749184Y-118673095D01*
X279749500Y-118681941D01*
X279749500Y-119318059D01*
X279729815Y-119385098D01*
X279677011Y-119430853D01*
X279607853Y-119440797D01*
X279544297Y-119411772D01*
X279537819Y-119405740D01*
X279510292Y-119378213D01*
X279510288Y-119378210D01*
X279379185Y-119290609D01*
X279379172Y-119290602D01*
X279233501Y-119230264D01*
X279233489Y-119230261D01*
X279078845Y-119199500D01*
X279078842Y-119199500D01*
X278921158Y-119199500D01*
X278921155Y-119199500D01*
X278766510Y-119230261D01*
X278766498Y-119230264D01*
X278620827Y-119290602D01*
X278620814Y-119290609D01*
X278489711Y-119378210D01*
X278489707Y-119378213D01*
X278378213Y-119489707D01*
X278378210Y-119489711D01*
X278290609Y-119620814D01*
X278290602Y-119620827D01*
X278230264Y-119766498D01*
X278230261Y-119766510D01*
X278199500Y-119921153D01*
X278199500Y-120078846D01*
X278230261Y-120233489D01*
X278230264Y-120233501D01*
X278290602Y-120379172D01*
X278290609Y-120379185D01*
X278378210Y-120510288D01*
X278378213Y-120510292D01*
X278489707Y-120621786D01*
X278489711Y-120621789D01*
X278620814Y-120709390D01*
X278620827Y-120709397D01*
X278766498Y-120769735D01*
X278766503Y-120769737D01*
X278921153Y-120800499D01*
X278921156Y-120800500D01*
X278921158Y-120800500D01*
X279078844Y-120800500D01*
X279078845Y-120800499D01*
X279233497Y-120769737D01*
X279379179Y-120709394D01*
X279510289Y-120621789D01*
X279515580Y-120616498D01*
X279537819Y-120594260D01*
X279599142Y-120560775D01*
X279668834Y-120565759D01*
X279724767Y-120607631D01*
X279749184Y-120673095D01*
X279749500Y-120681941D01*
X279749500Y-121318059D01*
X279729815Y-121385098D01*
X279677011Y-121430853D01*
X279607853Y-121440797D01*
X279544297Y-121411772D01*
X279537819Y-121405740D01*
X279510292Y-121378213D01*
X279510288Y-121378210D01*
X279379185Y-121290609D01*
X279379172Y-121290602D01*
X279233501Y-121230264D01*
X279233489Y-121230261D01*
X279078845Y-121199500D01*
X279078842Y-121199500D01*
X278921158Y-121199500D01*
X278921155Y-121199500D01*
X278766510Y-121230261D01*
X278766498Y-121230264D01*
X278620827Y-121290602D01*
X278620814Y-121290609D01*
X278489711Y-121378210D01*
X278489707Y-121378213D01*
X278378213Y-121489707D01*
X278378210Y-121489711D01*
X278290609Y-121620814D01*
X278290602Y-121620827D01*
X278230264Y-121766498D01*
X278230261Y-121766510D01*
X278199500Y-121921153D01*
X278199500Y-122078846D01*
X278230261Y-122233489D01*
X278230264Y-122233501D01*
X278290602Y-122379172D01*
X278290609Y-122379185D01*
X278378210Y-122510288D01*
X278378213Y-122510292D01*
X278489707Y-122621786D01*
X278489711Y-122621789D01*
X278620814Y-122709390D01*
X278620827Y-122709397D01*
X278766498Y-122769735D01*
X278766503Y-122769737D01*
X278921153Y-122800499D01*
X278921156Y-122800500D01*
X278921158Y-122800500D01*
X279078844Y-122800500D01*
X279078845Y-122800499D01*
X279233497Y-122769737D01*
X279379179Y-122709394D01*
X279510289Y-122621789D01*
X279510292Y-122621786D01*
X279537819Y-122594260D01*
X279599142Y-122560775D01*
X279668834Y-122565759D01*
X279724767Y-122607631D01*
X279749184Y-122673095D01*
X279749500Y-122681941D01*
X279749500Y-123318059D01*
X279729815Y-123385098D01*
X279677011Y-123430853D01*
X279607853Y-123440797D01*
X279544297Y-123411772D01*
X279537819Y-123405740D01*
X279510292Y-123378213D01*
X279510288Y-123378210D01*
X279379185Y-123290609D01*
X279379172Y-123290602D01*
X279233501Y-123230264D01*
X279233489Y-123230261D01*
X279078845Y-123199500D01*
X279078842Y-123199500D01*
X278921158Y-123199500D01*
X278921155Y-123199500D01*
X278766510Y-123230261D01*
X278766498Y-123230264D01*
X278620827Y-123290602D01*
X278620814Y-123290609D01*
X278489711Y-123378210D01*
X278489707Y-123378213D01*
X278378213Y-123489707D01*
X278378210Y-123489711D01*
X278290609Y-123620814D01*
X278290602Y-123620827D01*
X278230264Y-123766498D01*
X278230261Y-123766510D01*
X278199500Y-123921153D01*
X278199500Y-124078846D01*
X278230261Y-124233489D01*
X278230264Y-124233501D01*
X278290602Y-124379172D01*
X278290609Y-124379185D01*
X278378210Y-124510288D01*
X278378213Y-124510292D01*
X278489707Y-124621786D01*
X278489711Y-124621789D01*
X278620814Y-124709390D01*
X278620827Y-124709397D01*
X278766498Y-124769735D01*
X278766503Y-124769737D01*
X278921153Y-124800499D01*
X278921156Y-124800500D01*
X278921158Y-124800500D01*
X279078844Y-124800500D01*
X279078845Y-124800499D01*
X279233497Y-124769737D01*
X279379179Y-124709394D01*
X279510289Y-124621789D01*
X279517176Y-124614902D01*
X279537819Y-124594260D01*
X279599142Y-124560775D01*
X279668834Y-124565759D01*
X279724767Y-124607631D01*
X279749184Y-124673095D01*
X279749500Y-124681941D01*
X279749500Y-125318059D01*
X279729815Y-125385098D01*
X279677011Y-125430853D01*
X279607853Y-125440797D01*
X279544297Y-125411772D01*
X279537819Y-125405740D01*
X279510292Y-125378213D01*
X279510288Y-125378210D01*
X279379185Y-125290609D01*
X279379172Y-125290602D01*
X279233501Y-125230264D01*
X279233489Y-125230261D01*
X279078845Y-125199500D01*
X279078842Y-125199500D01*
X278921158Y-125199500D01*
X278921155Y-125199500D01*
X278766510Y-125230261D01*
X278766498Y-125230264D01*
X278620827Y-125290602D01*
X278620814Y-125290609D01*
X278489711Y-125378210D01*
X278489707Y-125378213D01*
X278378213Y-125489707D01*
X278378210Y-125489711D01*
X278290609Y-125620814D01*
X278290602Y-125620827D01*
X278230264Y-125766498D01*
X278230261Y-125766510D01*
X278199500Y-125921153D01*
X278199500Y-126078846D01*
X278230261Y-126233489D01*
X278230264Y-126233501D01*
X278290602Y-126379172D01*
X278290609Y-126379185D01*
X278378210Y-126510288D01*
X278378213Y-126510292D01*
X278489707Y-126621786D01*
X278489711Y-126621789D01*
X278620814Y-126709390D01*
X278620827Y-126709397D01*
X278766498Y-126769735D01*
X278766503Y-126769737D01*
X278921153Y-126800499D01*
X278921156Y-126800500D01*
X278921158Y-126800500D01*
X279078844Y-126800500D01*
X279078845Y-126800499D01*
X279233497Y-126769737D01*
X279379179Y-126709394D01*
X279510289Y-126621789D01*
X279517176Y-126614902D01*
X279537819Y-126594260D01*
X279599142Y-126560775D01*
X279668834Y-126565759D01*
X279724767Y-126607631D01*
X279749184Y-126673095D01*
X279749500Y-126681941D01*
X279749500Y-127318059D01*
X279729815Y-127385098D01*
X279677011Y-127430853D01*
X279607853Y-127440797D01*
X279544297Y-127411772D01*
X279537819Y-127405740D01*
X279510292Y-127378213D01*
X279510288Y-127378210D01*
X279379185Y-127290609D01*
X279379172Y-127290602D01*
X279233501Y-127230264D01*
X279233489Y-127230261D01*
X279078845Y-127199500D01*
X279078842Y-127199500D01*
X278921158Y-127199500D01*
X278921155Y-127199500D01*
X278766510Y-127230261D01*
X278766498Y-127230264D01*
X278620827Y-127290602D01*
X278620814Y-127290609D01*
X278489711Y-127378210D01*
X278489707Y-127378213D01*
X278378213Y-127489707D01*
X278378210Y-127489711D01*
X278290609Y-127620814D01*
X278290602Y-127620827D01*
X278230264Y-127766498D01*
X278230261Y-127766510D01*
X278199500Y-127921153D01*
X278199500Y-128078846D01*
X278230261Y-128233489D01*
X278230264Y-128233501D01*
X278290602Y-128379172D01*
X278290609Y-128379185D01*
X278378210Y-128510288D01*
X278378213Y-128510292D01*
X278489707Y-128621786D01*
X278489711Y-128621789D01*
X278620814Y-128709390D01*
X278620827Y-128709397D01*
X278766498Y-128769735D01*
X278766503Y-128769737D01*
X278921153Y-128800499D01*
X278921156Y-128800500D01*
X278921158Y-128800500D01*
X279078844Y-128800500D01*
X279078845Y-128800499D01*
X279233497Y-128769737D01*
X279379179Y-128709394D01*
X279510289Y-128621789D01*
X279517176Y-128614902D01*
X279537819Y-128594260D01*
X279599142Y-128560775D01*
X279668834Y-128565759D01*
X279724767Y-128607631D01*
X279749184Y-128673095D01*
X279749500Y-128681941D01*
X279749500Y-129318059D01*
X279729815Y-129385098D01*
X279677011Y-129430853D01*
X279607853Y-129440797D01*
X279544297Y-129411772D01*
X279537819Y-129405740D01*
X279510292Y-129378213D01*
X279510288Y-129378210D01*
X279379185Y-129290609D01*
X279379172Y-129290602D01*
X279233501Y-129230264D01*
X279233489Y-129230261D01*
X279078845Y-129199500D01*
X279078842Y-129199500D01*
X278921158Y-129199500D01*
X278921155Y-129199500D01*
X278766510Y-129230261D01*
X278766498Y-129230264D01*
X278620827Y-129290602D01*
X278620814Y-129290609D01*
X278489711Y-129378210D01*
X278489707Y-129378213D01*
X278378213Y-129489707D01*
X278378210Y-129489711D01*
X278290609Y-129620814D01*
X278290602Y-129620827D01*
X278230264Y-129766498D01*
X278230261Y-129766510D01*
X278199500Y-129921153D01*
X278199500Y-130078846D01*
X278230261Y-130233489D01*
X278230264Y-130233501D01*
X278290602Y-130379172D01*
X278290609Y-130379185D01*
X278378210Y-130510288D01*
X278378213Y-130510292D01*
X278489707Y-130621786D01*
X278489711Y-130621789D01*
X278620814Y-130709390D01*
X278620827Y-130709397D01*
X278766498Y-130769735D01*
X278766503Y-130769737D01*
X278921153Y-130800499D01*
X278921156Y-130800500D01*
X278921158Y-130800500D01*
X279078844Y-130800500D01*
X279078845Y-130800499D01*
X279233497Y-130769737D01*
X279379179Y-130709394D01*
X279510289Y-130621789D01*
X279510292Y-130621786D01*
X279537819Y-130594260D01*
X279599142Y-130560775D01*
X279668834Y-130565759D01*
X279724767Y-130607631D01*
X279749184Y-130673095D01*
X279749500Y-130681941D01*
X279749500Y-132153563D01*
X279729815Y-132220602D01*
X279677011Y-132266357D01*
X279647032Y-132275679D01*
X279464082Y-132307937D01*
X279283134Y-132373797D01*
X279283127Y-132373800D01*
X279116369Y-132470078D01*
X279116366Y-132470080D01*
X278968855Y-132593855D01*
X278845080Y-132741366D01*
X278845078Y-132741369D01*
X278748800Y-132908127D01*
X278748797Y-132908134D01*
X278682937Y-133089082D01*
X278649500Y-133278716D01*
X278649500Y-136150500D01*
X278629815Y-136217539D01*
X278577011Y-136263294D01*
X278525500Y-136274500D01*
X264349500Y-136274500D01*
X264282461Y-136254815D01*
X264236706Y-136202011D01*
X264225500Y-136150500D01*
X264225500Y-133773025D01*
X264221110Y-133749540D01*
X264188024Y-133572544D01*
X264114348Y-133382363D01*
X264050176Y-133278721D01*
X264042630Y-133266533D01*
X265797899Y-133266533D01*
X265823858Y-133397030D01*
X265823861Y-133397040D01*
X265874776Y-133519961D01*
X265874786Y-133519979D01*
X265948701Y-133630601D01*
X265948707Y-133630609D01*
X266042790Y-133724692D01*
X266042798Y-133724698D01*
X266153420Y-133798613D01*
X266153423Y-133798614D01*
X266153431Y-133798620D01*
X266153437Y-133798622D01*
X266153438Y-133798623D01*
X266276359Y-133849538D01*
X266276364Y-133849540D01*
X266276368Y-133849540D01*
X266276369Y-133849541D01*
X266406866Y-133875500D01*
X266406869Y-133875500D01*
X266539933Y-133875500D01*
X266627725Y-133858035D01*
X266670436Y-133849540D01*
X266702547Y-133836238D01*
X266772014Y-133828769D01*
X266797448Y-133836237D01*
X266829564Y-133849540D01*
X266829568Y-133849540D01*
X266829569Y-133849541D01*
X266960066Y-133875500D01*
X266960069Y-133875500D01*
X267093133Y-133875500D01*
X267180925Y-133858035D01*
X267223636Y-133849540D01*
X267346569Y-133798620D01*
X267457206Y-133724695D01*
X267551295Y-133630606D01*
X267560698Y-133616533D01*
X268324499Y-133616533D01*
X268350458Y-133747030D01*
X268350461Y-133747040D01*
X268401376Y-133869961D01*
X268401386Y-133869979D01*
X268475301Y-133980601D01*
X268475307Y-133980609D01*
X268569390Y-134074692D01*
X268569398Y-134074698D01*
X268680020Y-134148613D01*
X268680023Y-134148614D01*
X268680031Y-134148620D01*
X268802964Y-134199540D01*
X268802968Y-134199540D01*
X268802969Y-134199541D01*
X268933466Y-134225500D01*
X268933469Y-134225500D01*
X269066533Y-134225500D01*
X269154325Y-134208035D01*
X269197036Y-134199540D01*
X269319969Y-134148620D01*
X269430606Y-134074695D01*
X269524695Y-133980606D01*
X269598620Y-133869969D01*
X269635439Y-133781078D01*
X269679279Y-133726675D01*
X269745573Y-133704610D01*
X269813273Y-133721889D01*
X269860884Y-133773026D01*
X269864561Y-133781079D01*
X269901376Y-133869961D01*
X269901386Y-133869979D01*
X269975301Y-133980601D01*
X269975307Y-133980609D01*
X270069390Y-134074692D01*
X270069398Y-134074698D01*
X270180020Y-134148613D01*
X270180023Y-134148614D01*
X270180031Y-134148620D01*
X270302964Y-134199540D01*
X270302968Y-134199540D01*
X270302969Y-134199541D01*
X270433466Y-134225500D01*
X270433469Y-134225500D01*
X270566533Y-134225500D01*
X270654325Y-134208035D01*
X270697036Y-134199540D01*
X270819969Y-134148620D01*
X270930606Y-134074695D01*
X271024695Y-133980606D01*
X271098620Y-133869969D01*
X271135439Y-133781078D01*
X271179279Y-133726675D01*
X271245573Y-133704610D01*
X271313273Y-133721889D01*
X271360884Y-133773026D01*
X271364561Y-133781079D01*
X271401376Y-133869961D01*
X271401386Y-133869979D01*
X271475301Y-133980601D01*
X271475307Y-133980609D01*
X271569390Y-134074692D01*
X271569398Y-134074698D01*
X271680020Y-134148613D01*
X271680023Y-134148614D01*
X271680031Y-134148620D01*
X271802964Y-134199540D01*
X271802968Y-134199540D01*
X271802969Y-134199541D01*
X271933466Y-134225500D01*
X271933469Y-134225500D01*
X272066533Y-134225500D01*
X272154325Y-134208035D01*
X272197036Y-134199540D01*
X272319969Y-134148620D01*
X272430606Y-134074695D01*
X272524695Y-133980606D01*
X272598620Y-133869969D01*
X272635439Y-133781078D01*
X272679279Y-133726675D01*
X272745573Y-133704610D01*
X272813273Y-133721889D01*
X272860884Y-133773026D01*
X272864561Y-133781079D01*
X272901376Y-133869961D01*
X272901386Y-133869979D01*
X272975301Y-133980601D01*
X272975307Y-133980609D01*
X273069390Y-134074692D01*
X273069398Y-134074698D01*
X273180020Y-134148613D01*
X273180023Y-134148614D01*
X273180031Y-134148620D01*
X273302964Y-134199540D01*
X273302968Y-134199540D01*
X273302969Y-134199541D01*
X273433466Y-134225500D01*
X273433469Y-134225500D01*
X273566533Y-134225500D01*
X273654325Y-134208035D01*
X273697036Y-134199540D01*
X273819969Y-134148620D01*
X273930606Y-134074695D01*
X274024695Y-133980606D01*
X274098620Y-133869969D01*
X274149540Y-133747036D01*
X274172700Y-133630609D01*
X274175500Y-133616533D01*
X275824499Y-133616533D01*
X275850458Y-133747030D01*
X275850461Y-133747040D01*
X275901376Y-133869961D01*
X275901386Y-133869979D01*
X275975301Y-133980601D01*
X275975307Y-133980609D01*
X276069390Y-134074692D01*
X276069398Y-134074698D01*
X276180020Y-134148613D01*
X276180023Y-134148614D01*
X276180031Y-134148620D01*
X276302964Y-134199540D01*
X276302968Y-134199540D01*
X276302969Y-134199541D01*
X276433466Y-134225500D01*
X276433469Y-134225500D01*
X276566533Y-134225500D01*
X276654325Y-134208035D01*
X276697036Y-134199540D01*
X276819969Y-134148620D01*
X276930606Y-134074695D01*
X277024695Y-133980606D01*
X277098620Y-133869969D01*
X277149540Y-133747036D01*
X277172700Y-133630609D01*
X277175500Y-133616533D01*
X277175500Y-133483466D01*
X277149541Y-133352969D01*
X277149540Y-133352968D01*
X277149540Y-133352964D01*
X277135439Y-133318921D01*
X277098623Y-133230038D01*
X277098621Y-133230034D01*
X277098620Y-133230031D01*
X277084540Y-133208959D01*
X277024698Y-133119398D01*
X277024692Y-133119390D01*
X276930609Y-133025307D01*
X276930601Y-133025301D01*
X276819979Y-132951386D01*
X276819972Y-132951382D01*
X276819969Y-132951380D01*
X276819965Y-132951378D01*
X276819961Y-132951376D01*
X276697040Y-132900461D01*
X276697030Y-132900458D01*
X276566533Y-132874500D01*
X276566531Y-132874500D01*
X276433469Y-132874500D01*
X276433467Y-132874500D01*
X276302969Y-132900458D01*
X276302959Y-132900461D01*
X276180038Y-132951376D01*
X276180020Y-132951386D01*
X276069398Y-133025301D01*
X276069390Y-133025307D01*
X275975307Y-133119390D01*
X275975301Y-133119398D01*
X275901386Y-133230020D01*
X275901376Y-133230038D01*
X275850461Y-133352959D01*
X275850458Y-133352969D01*
X275824500Y-133483466D01*
X275824500Y-133483469D01*
X275824500Y-133616531D01*
X275824500Y-133616533D01*
X275824499Y-133616533D01*
X274175500Y-133616533D01*
X274175500Y-133483466D01*
X274149541Y-133352969D01*
X274149540Y-133352968D01*
X274149540Y-133352964D01*
X274135439Y-133318921D01*
X274098623Y-133230038D01*
X274098621Y-133230034D01*
X274098620Y-133230031D01*
X274084540Y-133208959D01*
X274024698Y-133119398D01*
X274024692Y-133119390D01*
X273930609Y-133025307D01*
X273930601Y-133025301D01*
X273819979Y-132951386D01*
X273819972Y-132951382D01*
X273819969Y-132951380D01*
X273819965Y-132951378D01*
X273819961Y-132951376D01*
X273697040Y-132900461D01*
X273697030Y-132900458D01*
X273566533Y-132874500D01*
X273566531Y-132874500D01*
X273433469Y-132874500D01*
X273433467Y-132874500D01*
X273302969Y-132900458D01*
X273302959Y-132900461D01*
X273180038Y-132951376D01*
X273180020Y-132951386D01*
X273069398Y-133025301D01*
X273069390Y-133025307D01*
X272975307Y-133119390D01*
X272975301Y-133119398D01*
X272901386Y-133230020D01*
X272901378Y-133230034D01*
X272864561Y-133318921D01*
X272820720Y-133373324D01*
X272754426Y-133395389D01*
X272686727Y-133378110D01*
X272639116Y-133326973D01*
X272635439Y-133318921D01*
X272613739Y-133266533D01*
X272598620Y-133230031D01*
X272584540Y-133208959D01*
X272524698Y-133119398D01*
X272524692Y-133119390D01*
X272430609Y-133025307D01*
X272430601Y-133025301D01*
X272319979Y-132951386D01*
X272319972Y-132951382D01*
X272319969Y-132951380D01*
X272319965Y-132951378D01*
X272319961Y-132951376D01*
X272197040Y-132900461D01*
X272197030Y-132900458D01*
X272066533Y-132874500D01*
X272066531Y-132874500D01*
X271933469Y-132874500D01*
X271933467Y-132874500D01*
X271802969Y-132900458D01*
X271802959Y-132900461D01*
X271680038Y-132951376D01*
X271680020Y-132951386D01*
X271569398Y-133025301D01*
X271569390Y-133025307D01*
X271475307Y-133119390D01*
X271475301Y-133119398D01*
X271401386Y-133230020D01*
X271401378Y-133230034D01*
X271364561Y-133318921D01*
X271320720Y-133373324D01*
X271254426Y-133395389D01*
X271186727Y-133378110D01*
X271139116Y-133326973D01*
X271135439Y-133318921D01*
X271113739Y-133266533D01*
X271098620Y-133230031D01*
X271084540Y-133208959D01*
X271024698Y-133119398D01*
X271024692Y-133119390D01*
X270930609Y-133025307D01*
X270930601Y-133025301D01*
X270819979Y-132951386D01*
X270819972Y-132951382D01*
X270819969Y-132951380D01*
X270819965Y-132951378D01*
X270819961Y-132951376D01*
X270697040Y-132900461D01*
X270697030Y-132900458D01*
X270566533Y-132874500D01*
X270566531Y-132874500D01*
X270433469Y-132874500D01*
X270433467Y-132874500D01*
X270302969Y-132900458D01*
X270302959Y-132900461D01*
X270180038Y-132951376D01*
X270180020Y-132951386D01*
X270069398Y-133025301D01*
X270069390Y-133025307D01*
X269975307Y-133119390D01*
X269975301Y-133119398D01*
X269901386Y-133230020D01*
X269901378Y-133230034D01*
X269864561Y-133318921D01*
X269820720Y-133373324D01*
X269754426Y-133395389D01*
X269686727Y-133378110D01*
X269639116Y-133326973D01*
X269635439Y-133318921D01*
X269613739Y-133266533D01*
X269598620Y-133230031D01*
X269584540Y-133208959D01*
X269524698Y-133119398D01*
X269524692Y-133119390D01*
X269430609Y-133025307D01*
X269430601Y-133025301D01*
X269319979Y-132951386D01*
X269319972Y-132951382D01*
X269319969Y-132951380D01*
X269319965Y-132951378D01*
X269319961Y-132951376D01*
X269197040Y-132900461D01*
X269197030Y-132900458D01*
X269066533Y-132874500D01*
X269066531Y-132874500D01*
X268933469Y-132874500D01*
X268933467Y-132874500D01*
X268802969Y-132900458D01*
X268802959Y-132900461D01*
X268680038Y-132951376D01*
X268680020Y-132951386D01*
X268569398Y-133025301D01*
X268569390Y-133025307D01*
X268475307Y-133119390D01*
X268475301Y-133119398D01*
X268401386Y-133230020D01*
X268401376Y-133230038D01*
X268350461Y-133352959D01*
X268350458Y-133352969D01*
X268324500Y-133483466D01*
X268324500Y-133483469D01*
X268324500Y-133616531D01*
X268324500Y-133616533D01*
X268324499Y-133616533D01*
X267560698Y-133616533D01*
X267625220Y-133519969D01*
X267676140Y-133397036D01*
X267696033Y-133297030D01*
X267702100Y-133266533D01*
X267702100Y-133133466D01*
X267676141Y-133002969D01*
X267676140Y-133002968D01*
X267676140Y-133002964D01*
X267654776Y-132951386D01*
X267625223Y-132880038D01*
X267625222Y-132880037D01*
X267625220Y-132880031D01*
X267621524Y-132874500D01*
X267551298Y-132769398D01*
X267551292Y-132769390D01*
X267457209Y-132675307D01*
X267457201Y-132675301D01*
X267346579Y-132601386D01*
X267346572Y-132601382D01*
X267346569Y-132601380D01*
X267346565Y-132601378D01*
X267346561Y-132601376D01*
X267223640Y-132550461D01*
X267223630Y-132550458D01*
X267093133Y-132524500D01*
X267093131Y-132524500D01*
X266960069Y-132524500D01*
X266960067Y-132524500D01*
X266829570Y-132550458D01*
X266829566Y-132550459D01*
X266829564Y-132550460D01*
X266797448Y-132563762D01*
X266727982Y-132571230D01*
X266702556Y-132563764D01*
X266670436Y-132550460D01*
X266670429Y-132550458D01*
X266539933Y-132524500D01*
X266539931Y-132524500D01*
X266406869Y-132524500D01*
X266406867Y-132524500D01*
X266276369Y-132550458D01*
X266276359Y-132550461D01*
X266153438Y-132601376D01*
X266153420Y-132601386D01*
X266042798Y-132675301D01*
X266042790Y-132675307D01*
X265948707Y-132769390D01*
X265948701Y-132769398D01*
X265874786Y-132880020D01*
X265874776Y-132880038D01*
X265823861Y-133002959D01*
X265823858Y-133002969D01*
X265797900Y-133133466D01*
X265797900Y-133133469D01*
X265797900Y-133266531D01*
X265797900Y-133266533D01*
X265797899Y-133266533D01*
X264042630Y-133266533D01*
X264006982Y-133208960D01*
X264006978Y-133208955D01*
X263869581Y-133058237D01*
X263706821Y-132935327D01*
X263524260Y-132844422D01*
X263524247Y-132844417D01*
X263328081Y-132788602D01*
X263328082Y-132788602D01*
X263125001Y-132769785D01*
X263124999Y-132769785D01*
X262921917Y-132788602D01*
X262750801Y-132837290D01*
X262725750Y-132844418D01*
X262725749Y-132844418D01*
X262725747Y-132844419D01*
X262678536Y-132867927D01*
X262609751Y-132880187D01*
X262545256Y-132853313D01*
X262508705Y-132804379D01*
X262498620Y-132780031D01*
X262491515Y-132769398D01*
X262424698Y-132669398D01*
X262424692Y-132669390D01*
X262330609Y-132575307D01*
X262330601Y-132575301D01*
X262219979Y-132501386D01*
X262219972Y-132501382D01*
X262219969Y-132501380D01*
X262219965Y-132501378D01*
X262219961Y-132501376D01*
X262097040Y-132450461D01*
X262097030Y-132450458D01*
X261966533Y-132424500D01*
X261966531Y-132424500D01*
X261833469Y-132424500D01*
X261833467Y-132424500D01*
X261702969Y-132450458D01*
X261702959Y-132450461D01*
X261580038Y-132501376D01*
X261580020Y-132501386D01*
X261469398Y-132575301D01*
X261469390Y-132575307D01*
X261375307Y-132669390D01*
X261375301Y-132669398D01*
X261301386Y-132780020D01*
X261301376Y-132780038D01*
X261250461Y-132902959D01*
X261250458Y-132902969D01*
X261224500Y-133033466D01*
X261224500Y-133033469D01*
X261224500Y-133166531D01*
X261224500Y-133166533D01*
X261224499Y-133166533D01*
X261250458Y-133297030D01*
X261250461Y-133297040D01*
X261301376Y-133419961D01*
X261301386Y-133419979D01*
X261375301Y-133530601D01*
X261375307Y-133530609D01*
X261469390Y-133624692D01*
X261469398Y-133624698D01*
X261580020Y-133698613D01*
X261580023Y-133698614D01*
X261580031Y-133698620D01*
X261702964Y-133749540D01*
X261702968Y-133749540D01*
X261702969Y-133749541D01*
X261833466Y-133775500D01*
X261900500Y-133775500D01*
X261967539Y-133795185D01*
X262013294Y-133847989D01*
X262024500Y-133899500D01*
X262024500Y-136150500D01*
X262004815Y-136217539D01*
X261952011Y-136263294D01*
X261900500Y-136274500D01*
X259974500Y-136274500D01*
X259907461Y-136254815D01*
X259861706Y-136202011D01*
X259850500Y-136150500D01*
X259850500Y-133278721D01*
X259850499Y-133278716D01*
X259841915Y-133230034D01*
X259831512Y-133171032D01*
X259839256Y-133101593D01*
X259883313Y-133047364D01*
X259949694Y-133025562D01*
X259953628Y-133025500D01*
X260066533Y-133025500D01*
X260154325Y-133008035D01*
X260197036Y-132999540D01*
X260319969Y-132948620D01*
X260430606Y-132874695D01*
X260524695Y-132780606D01*
X260598620Y-132669969D01*
X260649540Y-132547036D01*
X260664848Y-132470079D01*
X260675500Y-132416533D01*
X260675500Y-132283466D01*
X260649541Y-132152969D01*
X260649540Y-132152968D01*
X260649540Y-132152964D01*
X260598620Y-132030031D01*
X260524695Y-131919394D01*
X260524692Y-131919390D01*
X260430609Y-131825307D01*
X260430601Y-131825301D01*
X260319979Y-131751386D01*
X260319972Y-131751382D01*
X260319969Y-131751380D01*
X260319965Y-131751378D01*
X260319961Y-131751376D01*
X260197040Y-131700461D01*
X260197030Y-131700458D01*
X260066533Y-131674500D01*
X260066531Y-131674500D01*
X259933469Y-131674500D01*
X259933467Y-131674500D01*
X259802969Y-131700458D01*
X259802959Y-131700461D01*
X259680038Y-131751376D01*
X259680020Y-131751386D01*
X259569398Y-131825301D01*
X259569390Y-131825307D01*
X259475307Y-131919390D01*
X259475301Y-131919398D01*
X259401386Y-132030020D01*
X259401376Y-132030038D01*
X259350461Y-132152959D01*
X259350458Y-132152969D01*
X259328678Y-132262462D01*
X259296292Y-132324373D01*
X259235576Y-132358947D01*
X259165807Y-132355206D01*
X259164651Y-132354792D01*
X259035919Y-132307938D01*
X258852968Y-132275679D01*
X258790365Y-132244652D01*
X258754474Y-132184705D01*
X258750500Y-132153563D01*
X258750500Y-128681941D01*
X258770185Y-128614902D01*
X258822989Y-128569147D01*
X258892147Y-128559203D01*
X258955703Y-128588228D01*
X258962181Y-128594260D01*
X258989707Y-128621786D01*
X258989711Y-128621789D01*
X259120814Y-128709390D01*
X259120827Y-128709397D01*
X259266498Y-128769735D01*
X259266503Y-128769737D01*
X259421153Y-128800499D01*
X259421156Y-128800500D01*
X259421158Y-128800500D01*
X259578844Y-128800500D01*
X259578845Y-128800499D01*
X259733497Y-128769737D01*
X259879179Y-128709394D01*
X260010289Y-128621789D01*
X260121789Y-128510289D01*
X260209394Y-128379179D01*
X260269737Y-128233497D01*
X260300500Y-128078842D01*
X260300500Y-127921158D01*
X260300500Y-127921155D01*
X260300499Y-127921153D01*
X260269738Y-127766510D01*
X260269737Y-127766503D01*
X260249500Y-127717646D01*
X260209397Y-127620827D01*
X260209390Y-127620814D01*
X260121789Y-127489711D01*
X260121786Y-127489707D01*
X260010292Y-127378213D01*
X260010288Y-127378210D01*
X259879185Y-127290609D01*
X259879172Y-127290602D01*
X259733501Y-127230264D01*
X259733489Y-127230261D01*
X259578845Y-127199500D01*
X259578842Y-127199500D01*
X259421158Y-127199500D01*
X259421155Y-127199500D01*
X259266510Y-127230261D01*
X259266498Y-127230264D01*
X259120827Y-127290602D01*
X259120814Y-127290609D01*
X258989711Y-127378210D01*
X258989707Y-127378213D01*
X258962181Y-127405740D01*
X258900858Y-127439225D01*
X258831166Y-127434241D01*
X258775233Y-127392369D01*
X258750816Y-127326905D01*
X258750500Y-127318059D01*
X258750500Y-126681941D01*
X258770185Y-126614902D01*
X258822989Y-126569147D01*
X258892147Y-126559203D01*
X258955703Y-126588228D01*
X258962181Y-126594260D01*
X258989707Y-126621786D01*
X258989711Y-126621789D01*
X259120814Y-126709390D01*
X259120827Y-126709397D01*
X259266498Y-126769735D01*
X259266503Y-126769737D01*
X259421153Y-126800499D01*
X259421156Y-126800500D01*
X259421158Y-126800500D01*
X259578844Y-126800500D01*
X259578845Y-126800499D01*
X259733497Y-126769737D01*
X259879179Y-126709394D01*
X260010289Y-126621789D01*
X260121789Y-126510289D01*
X260209394Y-126379179D01*
X260269737Y-126233497D01*
X260300500Y-126078842D01*
X260300500Y-125921158D01*
X260300500Y-125921155D01*
X260300499Y-125921153D01*
X260269738Y-125766510D01*
X260269737Y-125766503D01*
X260249500Y-125717646D01*
X260209397Y-125620827D01*
X260209390Y-125620814D01*
X260121789Y-125489711D01*
X260121786Y-125489707D01*
X260010292Y-125378213D01*
X260010288Y-125378210D01*
X259879185Y-125290609D01*
X259879172Y-125290602D01*
X259733501Y-125230264D01*
X259733489Y-125230261D01*
X259578845Y-125199500D01*
X259578842Y-125199500D01*
X259421158Y-125199500D01*
X259421155Y-125199500D01*
X259266510Y-125230261D01*
X259266498Y-125230264D01*
X259120827Y-125290602D01*
X259120814Y-125290609D01*
X258989711Y-125378210D01*
X258989707Y-125378213D01*
X258962181Y-125405740D01*
X258900858Y-125439225D01*
X258831166Y-125434241D01*
X258775233Y-125392369D01*
X258750816Y-125326905D01*
X258750500Y-125318059D01*
X258750500Y-124681941D01*
X258770185Y-124614902D01*
X258822989Y-124569147D01*
X258892147Y-124559203D01*
X258955703Y-124588228D01*
X258962181Y-124594260D01*
X258989707Y-124621786D01*
X258989711Y-124621789D01*
X259120814Y-124709390D01*
X259120827Y-124709397D01*
X259266498Y-124769735D01*
X259266503Y-124769737D01*
X259421153Y-124800499D01*
X259421156Y-124800500D01*
X259421158Y-124800500D01*
X259578844Y-124800500D01*
X259578845Y-124800499D01*
X259733497Y-124769737D01*
X259879179Y-124709394D01*
X260010289Y-124621789D01*
X260121789Y-124510289D01*
X260209394Y-124379179D01*
X260269737Y-124233497D01*
X260300500Y-124078842D01*
X260300500Y-123921158D01*
X260300500Y-123921155D01*
X260300499Y-123921153D01*
X260269738Y-123766510D01*
X260269737Y-123766503D01*
X260249500Y-123717646D01*
X260209397Y-123620827D01*
X260209390Y-123620814D01*
X260121789Y-123489711D01*
X260121786Y-123489707D01*
X260010292Y-123378213D01*
X260010288Y-123378210D01*
X259879185Y-123290609D01*
X259879172Y-123290602D01*
X259733501Y-123230264D01*
X259733489Y-123230261D01*
X259578845Y-123199500D01*
X259578842Y-123199500D01*
X259421158Y-123199500D01*
X259421155Y-123199500D01*
X259266510Y-123230261D01*
X259266498Y-123230264D01*
X259120827Y-123290602D01*
X259120814Y-123290609D01*
X258989711Y-123378210D01*
X258989707Y-123378213D01*
X258962181Y-123405740D01*
X258900858Y-123439225D01*
X258831166Y-123434241D01*
X258775233Y-123392369D01*
X258750816Y-123326905D01*
X258750500Y-123318059D01*
X258750500Y-120771153D01*
X258999500Y-120771153D01*
X258999500Y-120928846D01*
X259030261Y-121083489D01*
X259030264Y-121083501D01*
X259090602Y-121229172D01*
X259090609Y-121229185D01*
X259178210Y-121360288D01*
X259178213Y-121360292D01*
X259289707Y-121471786D01*
X259289711Y-121471789D01*
X259420814Y-121559390D01*
X259420827Y-121559397D01*
X259566498Y-121619735D01*
X259566503Y-121619737D01*
X259721153Y-121650499D01*
X259721156Y-121650500D01*
X259721158Y-121650500D01*
X259878844Y-121650500D01*
X259878845Y-121650499D01*
X260026378Y-121621153D01*
X262089500Y-121621153D01*
X262089500Y-121778846D01*
X262120261Y-121933489D01*
X262120264Y-121933501D01*
X262180602Y-122079172D01*
X262180609Y-122079185D01*
X262268210Y-122210288D01*
X262268213Y-122210292D01*
X262379707Y-122321786D01*
X262379711Y-122321789D01*
X262510814Y-122409390D01*
X262510827Y-122409397D01*
X262656498Y-122469735D01*
X262656503Y-122469737D01*
X262811153Y-122500499D01*
X262811156Y-122500500D01*
X262811158Y-122500500D01*
X262968844Y-122500500D01*
X262968845Y-122500499D01*
X263123497Y-122469737D01*
X263269179Y-122409394D01*
X263371111Y-122341284D01*
X263437786Y-122320408D01*
X263505166Y-122338892D01*
X263508847Y-122341257D01*
X263610821Y-122409394D01*
X263610823Y-122409395D01*
X263610827Y-122409397D01*
X263756498Y-122469735D01*
X263756503Y-122469737D01*
X263911153Y-122500499D01*
X263911156Y-122500500D01*
X263911158Y-122500500D01*
X264068844Y-122500500D01*
X264068845Y-122500499D01*
X264223497Y-122469737D01*
X264369179Y-122409394D01*
X264500289Y-122321789D01*
X264611789Y-122210289D01*
X264699394Y-122079179D01*
X264759737Y-121933497D01*
X264790500Y-121778842D01*
X264790500Y-121621158D01*
X264790500Y-121621155D01*
X264790499Y-121621153D01*
X267589500Y-121621153D01*
X267589500Y-121778846D01*
X267620261Y-121933489D01*
X267620264Y-121933501D01*
X267680602Y-122079172D01*
X267680609Y-122079185D01*
X267768210Y-122210288D01*
X267768213Y-122210292D01*
X267879707Y-122321786D01*
X267879711Y-122321789D01*
X268010814Y-122409390D01*
X268010827Y-122409397D01*
X268156498Y-122469735D01*
X268156503Y-122469737D01*
X268311153Y-122500499D01*
X268311156Y-122500500D01*
X268311158Y-122500500D01*
X268468844Y-122500500D01*
X268468845Y-122500499D01*
X268623497Y-122469737D01*
X268769179Y-122409394D01*
X268900289Y-122321789D01*
X269011789Y-122210289D01*
X269099394Y-122079179D01*
X269159737Y-121933497D01*
X269190500Y-121778842D01*
X269190500Y-121621158D01*
X269190500Y-121621155D01*
X269190499Y-121621153D01*
X269164353Y-121489711D01*
X269159737Y-121466503D01*
X269149089Y-121440797D01*
X269099397Y-121320827D01*
X269099390Y-121320814D01*
X269011789Y-121189711D01*
X269011786Y-121189707D01*
X268900292Y-121078213D01*
X268900288Y-121078210D01*
X268769185Y-120990609D01*
X268769172Y-120990602D01*
X268623501Y-120930264D01*
X268623489Y-120930261D01*
X268468845Y-120899500D01*
X268468842Y-120899500D01*
X268311158Y-120899500D01*
X268311155Y-120899500D01*
X268156510Y-120930261D01*
X268156498Y-120930264D01*
X268010827Y-120990602D01*
X268010814Y-120990609D01*
X267879711Y-121078210D01*
X267879707Y-121078213D01*
X267768213Y-121189707D01*
X267768210Y-121189711D01*
X267680609Y-121320814D01*
X267680602Y-121320827D01*
X267620264Y-121466498D01*
X267620261Y-121466510D01*
X267589500Y-121621153D01*
X264790499Y-121621153D01*
X264764353Y-121489711D01*
X264759737Y-121466503D01*
X264749089Y-121440797D01*
X264699397Y-121320827D01*
X264699390Y-121320814D01*
X264611789Y-121189711D01*
X264611786Y-121189707D01*
X264500292Y-121078213D01*
X264500288Y-121078210D01*
X264369185Y-120990609D01*
X264369172Y-120990602D01*
X264223501Y-120930264D01*
X264223489Y-120930261D01*
X264068845Y-120899500D01*
X264068842Y-120899500D01*
X263911158Y-120899500D01*
X263911155Y-120899500D01*
X263756510Y-120930261D01*
X263756498Y-120930264D01*
X263610827Y-120990602D01*
X263610814Y-120990609D01*
X263508891Y-121058713D01*
X263442213Y-121079591D01*
X263374833Y-121061107D01*
X263371109Y-121058713D01*
X263269185Y-120990609D01*
X263269172Y-120990602D01*
X263123501Y-120930264D01*
X263123489Y-120930261D01*
X262968845Y-120899500D01*
X262968842Y-120899500D01*
X262811158Y-120899500D01*
X262811155Y-120899500D01*
X262656510Y-120930261D01*
X262656498Y-120930264D01*
X262510827Y-120990602D01*
X262510814Y-120990609D01*
X262379711Y-121078210D01*
X262379707Y-121078213D01*
X262268213Y-121189707D01*
X262268210Y-121189711D01*
X262180609Y-121320814D01*
X262180602Y-121320827D01*
X262120264Y-121466498D01*
X262120261Y-121466510D01*
X262089500Y-121621153D01*
X260026378Y-121621153D01*
X260033497Y-121619737D01*
X260179179Y-121559394D01*
X260179185Y-121559390D01*
X260250164Y-121511964D01*
X260283473Y-121489707D01*
X260310289Y-121471789D01*
X260421789Y-121360289D01*
X260509394Y-121229179D01*
X260569737Y-121083497D01*
X260600500Y-120928842D01*
X260600500Y-120771158D01*
X260600500Y-120771155D01*
X260600499Y-120771153D01*
X260588213Y-120709390D01*
X260569737Y-120616503D01*
X260560524Y-120594260D01*
X260509397Y-120470827D01*
X260509390Y-120470814D01*
X260421789Y-120339711D01*
X260421786Y-120339707D01*
X260310292Y-120228213D01*
X260310288Y-120228210D01*
X260179185Y-120140609D01*
X260179172Y-120140602D01*
X260033501Y-120080264D01*
X260033489Y-120080261D01*
X259878845Y-120049500D01*
X259878842Y-120049500D01*
X259721158Y-120049500D01*
X259721155Y-120049500D01*
X259566510Y-120080261D01*
X259566498Y-120080264D01*
X259420827Y-120140602D01*
X259420814Y-120140609D01*
X259289711Y-120228210D01*
X259289707Y-120228213D01*
X259178213Y-120339707D01*
X259178210Y-120339711D01*
X259090609Y-120470814D01*
X259090602Y-120470827D01*
X259030264Y-120616498D01*
X259030261Y-120616510D01*
X258999500Y-120771153D01*
X258750500Y-120771153D01*
X258750500Y-113571153D01*
X258999500Y-113571153D01*
X258999500Y-113728846D01*
X259030261Y-113883489D01*
X259030264Y-113883501D01*
X259090602Y-114029172D01*
X259090609Y-114029185D01*
X259178210Y-114160288D01*
X259178213Y-114160292D01*
X259289707Y-114271786D01*
X259289711Y-114271789D01*
X259420814Y-114359390D01*
X259420827Y-114359397D01*
X259566498Y-114419735D01*
X259566503Y-114419737D01*
X259721153Y-114450499D01*
X259721156Y-114450500D01*
X259721158Y-114450500D01*
X259878844Y-114450500D01*
X259878845Y-114450499D01*
X260033497Y-114419737D01*
X260179179Y-114359394D01*
X260310289Y-114271789D01*
X260421789Y-114160289D01*
X260509394Y-114029179D01*
X260569737Y-113883497D01*
X260600500Y-113728842D01*
X260600500Y-113571158D01*
X260600500Y-113571155D01*
X260600499Y-113571153D01*
X260569738Y-113416510D01*
X260569737Y-113416503D01*
X260553876Y-113378210D01*
X260509397Y-113270827D01*
X260509390Y-113270814D01*
X260421789Y-113139711D01*
X260421786Y-113139707D01*
X260310292Y-113028213D01*
X260310288Y-113028210D01*
X260179185Y-112940609D01*
X260179172Y-112940602D01*
X260033501Y-112880264D01*
X260033489Y-112880261D01*
X259878845Y-112849500D01*
X259878842Y-112849500D01*
X259721158Y-112849500D01*
X259721155Y-112849500D01*
X259566510Y-112880261D01*
X259566498Y-112880264D01*
X259420827Y-112940602D01*
X259420814Y-112940609D01*
X259289711Y-113028210D01*
X259289707Y-113028213D01*
X259178213Y-113139707D01*
X259178210Y-113139711D01*
X259090609Y-113270814D01*
X259090602Y-113270827D01*
X259030264Y-113416498D01*
X259030261Y-113416510D01*
X258999500Y-113571153D01*
X258750500Y-113571153D01*
X258750500Y-108071153D01*
X258999500Y-108071153D01*
X258999500Y-108228846D01*
X259030261Y-108383489D01*
X259030264Y-108383501D01*
X259090602Y-108529172D01*
X259090609Y-108529185D01*
X259178210Y-108660288D01*
X259178213Y-108660292D01*
X259289707Y-108771786D01*
X259289711Y-108771789D01*
X259420814Y-108859390D01*
X259420827Y-108859397D01*
X259566498Y-108919735D01*
X259566503Y-108919737D01*
X259721153Y-108950499D01*
X259721156Y-108950500D01*
X259721158Y-108950500D01*
X259878844Y-108950500D01*
X259878845Y-108950499D01*
X260033497Y-108919737D01*
X260179179Y-108859394D01*
X260310289Y-108771789D01*
X260421789Y-108660289D01*
X260509394Y-108529179D01*
X260569737Y-108383497D01*
X260600500Y-108228842D01*
X260600500Y-108071158D01*
X260600500Y-108071155D01*
X260600499Y-108071153D01*
X260573117Y-107933497D01*
X260569737Y-107916503D01*
X260569735Y-107916498D01*
X260509397Y-107770827D01*
X260509390Y-107770814D01*
X260451354Y-107683957D01*
X260421789Y-107639711D01*
X260421786Y-107639707D01*
X260403232Y-107621153D01*
X262129500Y-107621153D01*
X262129500Y-107778846D01*
X262160261Y-107933489D01*
X262160264Y-107933501D01*
X262220602Y-108079172D01*
X262220609Y-108079185D01*
X262308210Y-108210288D01*
X262308213Y-108210292D01*
X262419707Y-108321786D01*
X262419711Y-108321789D01*
X262550814Y-108409390D01*
X262550827Y-108409397D01*
X262696498Y-108469735D01*
X262696503Y-108469737D01*
X262851153Y-108500499D01*
X262851156Y-108500500D01*
X262851158Y-108500500D01*
X263008844Y-108500500D01*
X263008845Y-108500499D01*
X263163497Y-108469737D01*
X263309179Y-108409394D01*
X263436109Y-108324582D01*
X263502786Y-108303704D01*
X263570166Y-108322188D01*
X263573891Y-108324582D01*
X263700814Y-108409390D01*
X263700827Y-108409397D01*
X263846498Y-108469735D01*
X263846503Y-108469737D01*
X264001153Y-108500499D01*
X264001156Y-108500500D01*
X264001158Y-108500500D01*
X264158844Y-108500500D01*
X264158845Y-108500499D01*
X264313497Y-108469737D01*
X264459179Y-108409394D01*
X264466108Y-108404763D01*
X264532785Y-108383885D01*
X264600166Y-108402369D01*
X264603888Y-108404761D01*
X264610821Y-108409394D01*
X264610823Y-108409395D01*
X264610825Y-108409396D01*
X264756498Y-108469735D01*
X264756503Y-108469737D01*
X264911153Y-108500499D01*
X264911156Y-108500500D01*
X264911158Y-108500500D01*
X265068844Y-108500500D01*
X265068845Y-108500499D01*
X265223497Y-108469737D01*
X265369179Y-108409394D01*
X265497101Y-108323918D01*
X265563778Y-108303041D01*
X265613443Y-108312459D01*
X265702964Y-108349540D01*
X265702968Y-108349540D01*
X265702969Y-108349541D01*
X265833466Y-108375500D01*
X265833469Y-108375500D01*
X265966533Y-108375500D01*
X266054325Y-108358035D01*
X266097036Y-108349540D01*
X266219969Y-108298620D01*
X266238213Y-108286429D01*
X266286110Y-108254427D01*
X266352787Y-108233549D01*
X266420167Y-108252034D01*
X266423890Y-108254427D01*
X266490020Y-108298613D01*
X266490023Y-108298614D01*
X266490031Y-108298620D01*
X266612964Y-108349540D01*
X266612968Y-108349540D01*
X266612969Y-108349541D01*
X266743466Y-108375500D01*
X266743469Y-108375500D01*
X266876533Y-108375500D01*
X266964325Y-108358035D01*
X267007036Y-108349540D01*
X267096556Y-108312459D01*
X267166023Y-108304991D01*
X267212898Y-108323919D01*
X267340814Y-108409390D01*
X267340827Y-108409397D01*
X267486498Y-108469735D01*
X267486503Y-108469737D01*
X267641153Y-108500499D01*
X267641156Y-108500500D01*
X267641158Y-108500500D01*
X267798844Y-108500500D01*
X267798845Y-108500499D01*
X267953497Y-108469737D01*
X268099179Y-108409394D01*
X268227101Y-108323918D01*
X268293778Y-108303041D01*
X268343443Y-108312459D01*
X268432964Y-108349540D01*
X268432968Y-108349540D01*
X268432969Y-108349541D01*
X268563466Y-108375500D01*
X268563469Y-108375500D01*
X268696533Y-108375500D01*
X268784325Y-108358035D01*
X268827036Y-108349540D01*
X268949969Y-108298620D01*
X268968213Y-108286429D01*
X269016110Y-108254427D01*
X269082787Y-108233549D01*
X269150167Y-108252034D01*
X269153890Y-108254427D01*
X269220020Y-108298613D01*
X269220023Y-108298614D01*
X269220031Y-108298620D01*
X269342964Y-108349540D01*
X269342968Y-108349540D01*
X269342969Y-108349541D01*
X269473466Y-108375500D01*
X269473469Y-108375500D01*
X269606533Y-108375500D01*
X269694325Y-108358035D01*
X269737036Y-108349540D01*
X269826556Y-108312459D01*
X269896023Y-108304991D01*
X269942898Y-108323919D01*
X270070814Y-108409390D01*
X270070827Y-108409397D01*
X270216498Y-108469735D01*
X270216503Y-108469737D01*
X270371153Y-108500499D01*
X270371156Y-108500500D01*
X270371158Y-108500500D01*
X270528844Y-108500500D01*
X270528845Y-108500499D01*
X270683497Y-108469737D01*
X270829179Y-108409394D01*
X270960289Y-108321789D01*
X271071789Y-108210289D01*
X271159394Y-108079179D01*
X271162719Y-108071153D01*
X271219735Y-107933501D01*
X271219737Y-107933497D01*
X271250500Y-107778842D01*
X271250500Y-107621158D01*
X271250500Y-107621155D01*
X271250499Y-107621153D01*
X271232012Y-107528213D01*
X271219737Y-107466503D01*
X271209089Y-107440797D01*
X271159397Y-107320827D01*
X271159390Y-107320814D01*
X271071789Y-107189711D01*
X271071786Y-107189707D01*
X270960292Y-107078213D01*
X270960288Y-107078210D01*
X270844065Y-107000552D01*
X270799260Y-106946940D01*
X270790553Y-106877615D01*
X270820708Y-106814587D01*
X270880151Y-106777868D01*
X270937148Y-106775833D01*
X271061155Y-106800500D01*
X271061158Y-106800500D01*
X271218844Y-106800500D01*
X271218845Y-106800499D01*
X271373497Y-106769737D01*
X271519179Y-106709394D01*
X271650289Y-106621789D01*
X271761789Y-106510289D01*
X271849394Y-106379179D01*
X271909737Y-106233497D01*
X271923057Y-106166533D01*
X274977899Y-106166533D01*
X275003858Y-106297030D01*
X275003861Y-106297040D01*
X275054776Y-106419961D01*
X275054786Y-106419979D01*
X275128701Y-106530601D01*
X275128707Y-106530609D01*
X275222790Y-106624692D01*
X275222798Y-106624698D01*
X275333420Y-106698613D01*
X275333423Y-106698614D01*
X275333431Y-106698620D01*
X275333437Y-106698622D01*
X275333438Y-106698623D01*
X275359432Y-106709390D01*
X275456364Y-106749540D01*
X275456368Y-106749540D01*
X275456369Y-106749541D01*
X275586866Y-106775500D01*
X275586869Y-106775500D01*
X275719933Y-106775500D01*
X275832745Y-106753059D01*
X275850436Y-106749540D01*
X275882547Y-106736238D01*
X275952014Y-106728769D01*
X275977448Y-106736237D01*
X276009564Y-106749540D01*
X276009568Y-106749540D01*
X276009569Y-106749541D01*
X276140066Y-106775500D01*
X276140069Y-106775500D01*
X276273133Y-106775500D01*
X276385945Y-106753059D01*
X276403636Y-106749540D01*
X276526569Y-106698620D01*
X276637206Y-106624695D01*
X276731295Y-106530606D01*
X276805220Y-106419969D01*
X276856140Y-106297036D01*
X276882100Y-106166531D01*
X276882100Y-106033469D01*
X276882100Y-106033466D01*
X276856141Y-105902969D01*
X276856140Y-105902968D01*
X276856140Y-105902964D01*
X276805220Y-105780031D01*
X276731295Y-105669394D01*
X276731292Y-105669390D01*
X276637209Y-105575307D01*
X276637201Y-105575301D01*
X276526579Y-105501386D01*
X276526572Y-105501382D01*
X276526569Y-105501380D01*
X276526565Y-105501378D01*
X276526561Y-105501376D01*
X276403640Y-105450461D01*
X276403630Y-105450458D01*
X276273133Y-105424500D01*
X276273131Y-105424500D01*
X276140069Y-105424500D01*
X276140067Y-105424500D01*
X276009570Y-105450458D01*
X276009566Y-105450459D01*
X276009564Y-105450460D01*
X275977448Y-105463762D01*
X275907982Y-105471230D01*
X275882556Y-105463764D01*
X275850436Y-105450460D01*
X275850429Y-105450458D01*
X275719933Y-105424500D01*
X275719931Y-105424500D01*
X275586869Y-105424500D01*
X275586867Y-105424500D01*
X275456369Y-105450458D01*
X275456359Y-105450461D01*
X275333438Y-105501376D01*
X275333420Y-105501386D01*
X275222798Y-105575301D01*
X275222790Y-105575307D01*
X275128707Y-105669390D01*
X275128701Y-105669398D01*
X275054786Y-105780020D01*
X275054776Y-105780038D01*
X275003861Y-105902959D01*
X275003858Y-105902969D01*
X274977900Y-106033466D01*
X274977900Y-106033469D01*
X274977900Y-106166531D01*
X274977900Y-106166533D01*
X274977899Y-106166533D01*
X271923057Y-106166533D01*
X271940500Y-106078842D01*
X271940500Y-105921158D01*
X271940500Y-105921155D01*
X271940499Y-105921153D01*
X271912428Y-105780031D01*
X271909737Y-105766503D01*
X271869515Y-105669398D01*
X271849397Y-105620827D01*
X271849390Y-105620814D01*
X271761789Y-105489711D01*
X271761786Y-105489707D01*
X271650292Y-105378213D01*
X271650288Y-105378210D01*
X271519185Y-105290609D01*
X271519172Y-105290602D01*
X271414045Y-105247058D01*
X271359641Y-105203217D01*
X271337576Y-105136923D01*
X271349445Y-105085794D01*
X271347063Y-105084808D01*
X271409735Y-104933501D01*
X271409737Y-104933497D01*
X271440500Y-104778842D01*
X271440500Y-104621158D01*
X271440500Y-104621155D01*
X271440499Y-104621153D01*
X271418447Y-104510292D01*
X271409737Y-104466503D01*
X271373569Y-104379185D01*
X271349397Y-104320827D01*
X271349390Y-104320814D01*
X271261789Y-104189711D01*
X271261786Y-104189707D01*
X271150292Y-104078213D01*
X271150288Y-104078210D01*
X271019185Y-103990609D01*
X271019172Y-103990602D01*
X270873501Y-103930264D01*
X270873489Y-103930261D01*
X270718845Y-103899500D01*
X270718842Y-103899500D01*
X270561158Y-103899500D01*
X270561155Y-103899500D01*
X270406510Y-103930261D01*
X270406498Y-103930264D01*
X270260827Y-103990602D01*
X270260814Y-103990609D01*
X270129711Y-104078210D01*
X270129707Y-104078213D01*
X270018213Y-104189707D01*
X270018210Y-104189711D01*
X269930609Y-104320814D01*
X269930602Y-104320827D01*
X269870264Y-104466498D01*
X269870261Y-104466510D01*
X269839500Y-104621153D01*
X269839500Y-104778846D01*
X269870261Y-104933489D01*
X269870264Y-104933501D01*
X269930602Y-105079172D01*
X269930609Y-105079185D01*
X270018210Y-105210288D01*
X270018213Y-105210292D01*
X270129707Y-105321786D01*
X270129711Y-105321789D01*
X270260814Y-105409390D01*
X270260821Y-105409394D01*
X270365957Y-105452942D01*
X270420358Y-105496781D01*
X270442424Y-105563075D01*
X270430639Y-105614241D01*
X270432937Y-105615193D01*
X270370264Y-105766498D01*
X270370261Y-105766510D01*
X270339500Y-105921153D01*
X270339500Y-106078846D01*
X270370261Y-106233489D01*
X270370264Y-106233501D01*
X270430602Y-106379172D01*
X270430609Y-106379185D01*
X270518210Y-106510288D01*
X270518213Y-106510292D01*
X270629707Y-106621786D01*
X270629711Y-106621789D01*
X270745934Y-106699447D01*
X270790739Y-106753059D01*
X270799446Y-106822384D01*
X270769292Y-106885411D01*
X270709849Y-106922131D01*
X270652852Y-106924166D01*
X270528846Y-106899500D01*
X270528842Y-106899500D01*
X270371158Y-106899500D01*
X270371155Y-106899500D01*
X270216510Y-106930261D01*
X270216498Y-106930264D01*
X270070827Y-106990602D01*
X270070809Y-106990612D01*
X269942897Y-107076080D01*
X269876220Y-107096958D01*
X269826555Y-107087539D01*
X269737040Y-107050461D01*
X269737030Y-107050458D01*
X269606533Y-107024500D01*
X269606531Y-107024500D01*
X269473469Y-107024500D01*
X269473467Y-107024500D01*
X269342969Y-107050458D01*
X269342959Y-107050461D01*
X269220038Y-107101376D01*
X269220022Y-107101385D01*
X269153889Y-107145573D01*
X269087212Y-107166450D01*
X269019832Y-107147965D01*
X269016111Y-107145573D01*
X268949977Y-107101385D01*
X268949973Y-107101383D01*
X268949969Y-107101380D01*
X268949965Y-107101378D01*
X268949961Y-107101376D01*
X268827040Y-107050461D01*
X268827030Y-107050458D01*
X268696533Y-107024500D01*
X268696531Y-107024500D01*
X268563469Y-107024500D01*
X268563467Y-107024500D01*
X268432969Y-107050458D01*
X268432968Y-107050459D01*
X268432967Y-107050459D01*
X268432964Y-107050460D01*
X268365962Y-107078213D01*
X268343444Y-107087540D01*
X268273974Y-107095008D01*
X268227101Y-107076080D01*
X268099185Y-106990609D01*
X268099172Y-106990602D01*
X267953501Y-106930264D01*
X267953489Y-106930261D01*
X267798845Y-106899500D01*
X267798842Y-106899500D01*
X267641158Y-106899500D01*
X267641153Y-106899500D01*
X267517147Y-106924166D01*
X267447555Y-106917939D01*
X267392378Y-106875075D01*
X267369134Y-106809185D01*
X267385202Y-106741189D01*
X267424063Y-106699448D01*
X267540289Y-106621789D01*
X267651789Y-106510289D01*
X267739394Y-106379179D01*
X267799737Y-106233497D01*
X267830500Y-106078842D01*
X267830500Y-105921158D01*
X267830500Y-105921155D01*
X267830499Y-105921153D01*
X267802428Y-105780031D01*
X267799737Y-105766503D01*
X267779500Y-105717646D01*
X267737063Y-105615192D01*
X267739657Y-105614117D01*
X267727904Y-105557466D01*
X267752950Y-105492240D01*
X267804042Y-105452942D01*
X267909179Y-105409394D01*
X268040289Y-105321789D01*
X268151789Y-105210289D01*
X268239394Y-105079179D01*
X268299737Y-104933497D01*
X268330500Y-104778842D01*
X268330500Y-104621158D01*
X268330500Y-104621155D01*
X268330499Y-104621153D01*
X268308447Y-104510292D01*
X268299737Y-104466503D01*
X268263569Y-104379185D01*
X268239397Y-104320827D01*
X268239390Y-104320814D01*
X268151789Y-104189711D01*
X268151786Y-104189707D01*
X268040292Y-104078213D01*
X268040288Y-104078210D01*
X267909185Y-103990609D01*
X267909172Y-103990602D01*
X267763501Y-103930264D01*
X267763489Y-103930261D01*
X267608845Y-103899500D01*
X267608842Y-103899500D01*
X267451158Y-103899500D01*
X267451155Y-103899500D01*
X267296510Y-103930261D01*
X267296498Y-103930264D01*
X267150827Y-103990602D01*
X267150814Y-103990609D01*
X267019711Y-104078210D01*
X267019707Y-104078213D01*
X266908213Y-104189707D01*
X266908210Y-104189711D01*
X266820609Y-104320814D01*
X266820602Y-104320827D01*
X266760264Y-104466498D01*
X266760261Y-104466510D01*
X266729500Y-104621153D01*
X266729500Y-104778846D01*
X266760261Y-104933489D01*
X266760264Y-104933501D01*
X266822937Y-105084808D01*
X266820374Y-105085869D01*
X266832080Y-105142722D01*
X266806934Y-105207910D01*
X266755955Y-105247058D01*
X266650823Y-105290604D01*
X266650814Y-105290609D01*
X266519711Y-105378210D01*
X266519707Y-105378213D01*
X266408213Y-105489707D01*
X266408210Y-105489711D01*
X266320609Y-105620814D01*
X266320602Y-105620827D01*
X266260264Y-105766498D01*
X266260261Y-105766510D01*
X266229500Y-105921153D01*
X266229500Y-106078846D01*
X266260261Y-106233489D01*
X266260264Y-106233501D01*
X266320602Y-106379172D01*
X266320609Y-106379185D01*
X266408210Y-106510288D01*
X266408213Y-106510292D01*
X266519707Y-106621786D01*
X266519711Y-106621789D01*
X266650814Y-106709390D01*
X266650827Y-106709397D01*
X266747745Y-106749541D01*
X266796503Y-106769737D01*
X266815767Y-106773568D01*
X266842480Y-106778883D01*
X266904391Y-106811268D01*
X266938965Y-106871984D01*
X266935226Y-106941753D01*
X266894359Y-106998425D01*
X266829341Y-107024006D01*
X266818289Y-107024500D01*
X266743467Y-107024500D01*
X266612969Y-107050458D01*
X266612959Y-107050461D01*
X266490038Y-107101376D01*
X266490022Y-107101385D01*
X266423889Y-107145573D01*
X266357212Y-107166450D01*
X266289832Y-107147965D01*
X266286111Y-107145573D01*
X266219977Y-107101385D01*
X266219973Y-107101383D01*
X266219969Y-107101380D01*
X266219965Y-107101378D01*
X266219961Y-107101376D01*
X266097040Y-107050461D01*
X266097030Y-107050458D01*
X265966533Y-107024500D01*
X265966531Y-107024500D01*
X265833469Y-107024500D01*
X265833467Y-107024500D01*
X265702969Y-107050458D01*
X265702968Y-107050459D01*
X265702967Y-107050459D01*
X265702964Y-107050460D01*
X265635962Y-107078213D01*
X265613444Y-107087540D01*
X265543974Y-107095008D01*
X265497101Y-107076080D01*
X265369185Y-106990609D01*
X265369172Y-106990602D01*
X265223501Y-106930264D01*
X265223489Y-106930261D01*
X265068845Y-106899500D01*
X265068842Y-106899500D01*
X264911158Y-106899500D01*
X264911155Y-106899500D01*
X264756510Y-106930261D01*
X264756498Y-106930264D01*
X264610827Y-106990602D01*
X264610809Y-106990612D01*
X264603886Y-106995238D01*
X264537208Y-107016113D01*
X264469828Y-106997625D01*
X264466114Y-106995238D01*
X264459190Y-106990612D01*
X264459172Y-106990602D01*
X264313501Y-106930264D01*
X264313489Y-106930261D01*
X264158845Y-106899500D01*
X264158842Y-106899500D01*
X264001158Y-106899500D01*
X264001155Y-106899500D01*
X263846510Y-106930261D01*
X263846498Y-106930264D01*
X263700827Y-106990602D01*
X263700814Y-106990609D01*
X263573891Y-107075417D01*
X263507213Y-107096295D01*
X263439833Y-107077810D01*
X263436109Y-107075417D01*
X263309185Y-106990609D01*
X263309172Y-106990602D01*
X263163501Y-106930264D01*
X263163489Y-106930261D01*
X263008845Y-106899500D01*
X263008842Y-106899500D01*
X262851158Y-106899500D01*
X262851155Y-106899500D01*
X262696510Y-106930261D01*
X262696498Y-106930264D01*
X262550827Y-106990602D01*
X262550814Y-106990609D01*
X262419711Y-107078210D01*
X262419707Y-107078213D01*
X262308213Y-107189707D01*
X262308210Y-107189711D01*
X262220609Y-107320814D01*
X262220602Y-107320827D01*
X262160264Y-107466498D01*
X262160261Y-107466510D01*
X262129500Y-107621153D01*
X260403232Y-107621153D01*
X260310292Y-107528213D01*
X260310288Y-107528210D01*
X260179185Y-107440609D01*
X260179172Y-107440602D01*
X260033501Y-107380264D01*
X260033489Y-107380261D01*
X259878845Y-107349500D01*
X259878842Y-107349500D01*
X259721158Y-107349500D01*
X259721155Y-107349500D01*
X259566510Y-107380261D01*
X259566498Y-107380264D01*
X259420827Y-107440602D01*
X259420814Y-107440609D01*
X259289711Y-107528210D01*
X259289707Y-107528213D01*
X259178213Y-107639707D01*
X259178210Y-107639711D01*
X259090609Y-107770814D01*
X259090602Y-107770827D01*
X259030264Y-107916498D01*
X259030261Y-107916510D01*
X258999500Y-108071153D01*
X258750500Y-108071153D01*
X258750500Y-104865844D01*
X258770185Y-104798805D01*
X258822989Y-104753050D01*
X258892147Y-104743106D01*
X258921944Y-104751280D01*
X258966503Y-104769737D01*
X259112637Y-104798805D01*
X259121153Y-104800499D01*
X259121156Y-104800500D01*
X259121158Y-104800500D01*
X259278844Y-104800500D01*
X259278845Y-104800499D01*
X259433497Y-104769737D01*
X259579179Y-104709394D01*
X259710289Y-104621789D01*
X259821789Y-104510289D01*
X259909394Y-104379179D01*
X259969737Y-104233497D01*
X260000500Y-104078842D01*
X260000500Y-103921158D01*
X260000500Y-103921155D01*
X260000499Y-103921153D01*
X259969738Y-103766510D01*
X259969737Y-103766503D01*
X259949500Y-103717646D01*
X259909397Y-103620827D01*
X259909390Y-103620814D01*
X259821789Y-103489711D01*
X259821786Y-103489707D01*
X259710292Y-103378213D01*
X259710288Y-103378210D01*
X259579185Y-103290609D01*
X259579172Y-103290602D01*
X259433501Y-103230264D01*
X259433489Y-103230261D01*
X259278845Y-103199500D01*
X259278842Y-103199500D01*
X259121158Y-103199500D01*
X259121155Y-103199500D01*
X258966510Y-103230261D01*
X258966498Y-103230264D01*
X258921952Y-103248716D01*
X258852483Y-103256185D01*
X258790004Y-103224909D01*
X258754352Y-103164820D01*
X258750500Y-103134155D01*
X258750500Y-102865844D01*
X258770185Y-102798805D01*
X258822989Y-102753050D01*
X258892147Y-102743106D01*
X258921944Y-102751280D01*
X258966503Y-102769737D01*
X259112637Y-102798805D01*
X259121153Y-102800499D01*
X259121156Y-102800500D01*
X259121158Y-102800500D01*
X259278844Y-102800500D01*
X259278845Y-102800499D01*
X259433497Y-102769737D01*
X259579179Y-102709394D01*
X259710289Y-102621789D01*
X259821789Y-102510289D01*
X259909394Y-102379179D01*
X259969737Y-102233497D01*
X260000500Y-102078842D01*
X260000500Y-101921158D01*
X260000500Y-101921155D01*
X260000499Y-101921153D01*
X259969738Y-101766510D01*
X259969737Y-101766503D01*
X259949500Y-101717646D01*
X259909397Y-101620827D01*
X259909390Y-101620814D01*
X259821789Y-101489711D01*
X259821786Y-101489707D01*
X259710292Y-101378213D01*
X259710288Y-101378210D01*
X259579185Y-101290609D01*
X259579172Y-101290602D01*
X259433501Y-101230264D01*
X259433489Y-101230261D01*
X259278845Y-101199500D01*
X259278842Y-101199500D01*
X259121158Y-101199500D01*
X259121155Y-101199500D01*
X258966510Y-101230261D01*
X258966498Y-101230264D01*
X258921952Y-101248716D01*
X258852483Y-101256185D01*
X258790004Y-101224909D01*
X258754352Y-101164820D01*
X258750500Y-101134155D01*
X258750500Y-100865844D01*
X258770185Y-100798805D01*
X258822989Y-100753050D01*
X258892147Y-100743106D01*
X258921944Y-100751280D01*
X258966503Y-100769737D01*
X259112637Y-100798805D01*
X259121153Y-100800499D01*
X259121156Y-100800500D01*
X259121158Y-100800500D01*
X259278844Y-100800500D01*
X259278845Y-100800499D01*
X259433497Y-100769737D01*
X259579179Y-100709394D01*
X259710289Y-100621789D01*
X259821789Y-100510289D01*
X259909394Y-100379179D01*
X259969737Y-100233497D01*
X260000500Y-100078842D01*
X260000500Y-99921158D01*
X260000500Y-99921155D01*
X260000499Y-99921153D01*
X259969738Y-99766510D01*
X259969737Y-99766503D01*
X259949500Y-99717646D01*
X259909397Y-99620827D01*
X259909390Y-99620814D01*
X259821789Y-99489711D01*
X259821786Y-99489707D01*
X259710292Y-99378213D01*
X259710288Y-99378210D01*
X259579185Y-99290609D01*
X259579172Y-99290602D01*
X259433501Y-99230264D01*
X259433489Y-99230261D01*
X259278845Y-99199500D01*
X259278842Y-99199500D01*
X259121158Y-99199500D01*
X259121155Y-99199500D01*
X258966510Y-99230261D01*
X258966498Y-99230264D01*
X258921952Y-99248716D01*
X258852483Y-99256185D01*
X258790004Y-99224909D01*
X258754352Y-99164820D01*
X258750500Y-99134155D01*
X258750500Y-98865844D01*
X258770185Y-98798805D01*
X258822989Y-98753050D01*
X258892147Y-98743106D01*
X258921944Y-98751280D01*
X258966503Y-98769737D01*
X259112637Y-98798805D01*
X259121153Y-98800499D01*
X259121156Y-98800500D01*
X259121158Y-98800500D01*
X259278844Y-98800500D01*
X259278845Y-98800499D01*
X259433497Y-98769737D01*
X259579179Y-98709394D01*
X259710289Y-98621789D01*
X259821789Y-98510289D01*
X259909394Y-98379179D01*
X259969737Y-98233497D01*
X260000500Y-98078842D01*
X260000500Y-97921158D01*
X260000500Y-97921155D01*
X260000499Y-97921153D01*
X259969738Y-97766510D01*
X259969737Y-97766503D01*
X259949500Y-97717646D01*
X259909397Y-97620827D01*
X259909390Y-97620814D01*
X259821789Y-97489711D01*
X259821786Y-97489707D01*
X259710292Y-97378213D01*
X259710288Y-97378210D01*
X259579185Y-97290609D01*
X259579172Y-97290602D01*
X259433501Y-97230264D01*
X259433489Y-97230261D01*
X259278845Y-97199500D01*
X259278842Y-97199500D01*
X259121158Y-97199500D01*
X259121155Y-97199500D01*
X258966510Y-97230261D01*
X258966498Y-97230264D01*
X258921952Y-97248716D01*
X258852483Y-97256185D01*
X258790004Y-97224909D01*
X258754352Y-97164820D01*
X258750500Y-97134155D01*
X258750500Y-96865844D01*
X258770185Y-96798805D01*
X258822989Y-96753050D01*
X258892147Y-96743106D01*
X258921944Y-96751280D01*
X258966503Y-96769737D01*
X259112637Y-96798805D01*
X259121153Y-96800499D01*
X259121156Y-96800500D01*
X259121158Y-96800500D01*
X259278844Y-96800500D01*
X259278845Y-96800499D01*
X259433497Y-96769737D01*
X259579179Y-96709394D01*
X259710289Y-96621789D01*
X259821789Y-96510289D01*
X259909394Y-96379179D01*
X259969737Y-96233497D01*
X260000500Y-96078842D01*
X260000500Y-95921158D01*
X260000500Y-95921155D01*
X260000499Y-95921153D01*
X259969738Y-95766510D01*
X259969737Y-95766503D01*
X259949500Y-95717646D01*
X259909397Y-95620827D01*
X259909390Y-95620814D01*
X259821789Y-95489711D01*
X259821786Y-95489707D01*
X259710292Y-95378213D01*
X259710288Y-95378210D01*
X259579185Y-95290609D01*
X259579172Y-95290602D01*
X259433501Y-95230264D01*
X259433489Y-95230261D01*
X259278845Y-95199500D01*
X259278842Y-95199500D01*
X259121158Y-95199500D01*
X259121155Y-95199500D01*
X258966510Y-95230261D01*
X258966498Y-95230264D01*
X258921952Y-95248716D01*
X258852483Y-95256185D01*
X258790004Y-95224909D01*
X258754352Y-95164820D01*
X258750500Y-95134155D01*
X258750500Y-94865844D01*
X258770185Y-94798805D01*
X258822989Y-94753050D01*
X258892147Y-94743106D01*
X258921944Y-94751280D01*
X258966503Y-94769737D01*
X259112637Y-94798805D01*
X259121153Y-94800499D01*
X259121156Y-94800500D01*
X259121158Y-94800500D01*
X259278844Y-94800500D01*
X259278845Y-94800499D01*
X259433497Y-94769737D01*
X259579179Y-94709394D01*
X259710289Y-94621789D01*
X259821789Y-94510289D01*
X259909394Y-94379179D01*
X259969737Y-94233497D01*
X260000500Y-94078842D01*
X260000500Y-93921158D01*
X260000500Y-93921155D01*
X260000499Y-93921153D01*
X259969738Y-93766510D01*
X259969737Y-93766503D01*
X259949500Y-93717646D01*
X259909397Y-93620827D01*
X259909390Y-93620814D01*
X259821789Y-93489711D01*
X259821786Y-93489707D01*
X259710292Y-93378213D01*
X259710288Y-93378210D01*
X259579185Y-93290609D01*
X259579172Y-93290602D01*
X259433501Y-93230264D01*
X259433489Y-93230261D01*
X259278845Y-93199500D01*
X259278842Y-93199500D01*
X259121158Y-93199500D01*
X259121155Y-93199500D01*
X258966510Y-93230261D01*
X258966498Y-93230264D01*
X258921952Y-93248716D01*
X258852483Y-93256185D01*
X258790004Y-93224909D01*
X258754352Y-93164820D01*
X258750500Y-93134155D01*
X258750500Y-92865844D01*
X258770185Y-92798805D01*
X258822989Y-92753050D01*
X258892147Y-92743106D01*
X258921944Y-92751280D01*
X258966503Y-92769737D01*
X259112637Y-92798805D01*
X259121153Y-92800499D01*
X259121156Y-92800500D01*
X259121158Y-92800500D01*
X259278844Y-92800500D01*
X259278845Y-92800499D01*
X259433497Y-92769737D01*
X259579179Y-92709394D01*
X259710289Y-92621789D01*
X259821789Y-92510289D01*
X259909394Y-92379179D01*
X259969737Y-92233497D01*
X260000500Y-92078842D01*
X260000500Y-91921158D01*
X260000500Y-91921155D01*
X260000499Y-91921153D01*
X259969738Y-91766510D01*
X259969737Y-91766503D01*
X259949500Y-91717646D01*
X259909397Y-91620827D01*
X259909390Y-91620814D01*
X259821789Y-91489711D01*
X259821786Y-91489707D01*
X259710292Y-91378213D01*
X259710288Y-91378210D01*
X259579185Y-91290609D01*
X259579172Y-91290602D01*
X259433501Y-91230264D01*
X259433489Y-91230261D01*
X259278845Y-91199500D01*
X259278842Y-91199500D01*
X259121158Y-91199500D01*
X259121155Y-91199500D01*
X258966510Y-91230261D01*
X258966498Y-91230264D01*
X258921952Y-91248716D01*
X258852483Y-91256185D01*
X258790004Y-91224909D01*
X258754352Y-91164820D01*
X258750500Y-91134155D01*
X258750500Y-90865844D01*
X258770185Y-90798805D01*
X258822989Y-90753050D01*
X258892147Y-90743106D01*
X258921944Y-90751280D01*
X258966503Y-90769737D01*
X259112637Y-90798805D01*
X259121153Y-90800499D01*
X259121156Y-90800500D01*
X259121158Y-90800500D01*
X259278844Y-90800500D01*
X259278845Y-90800499D01*
X259433497Y-90769737D01*
X259579179Y-90709394D01*
X259710289Y-90621789D01*
X259821789Y-90510289D01*
X259909394Y-90379179D01*
X259969737Y-90233497D01*
X260000500Y-90078842D01*
X260000500Y-89921158D01*
X260000500Y-89921155D01*
X260000499Y-89921153D01*
X259969738Y-89766510D01*
X259969737Y-89766503D01*
X259949500Y-89717646D01*
X259909397Y-89620827D01*
X259909390Y-89620814D01*
X259821789Y-89489711D01*
X259821786Y-89489707D01*
X259710292Y-89378213D01*
X259710288Y-89378210D01*
X259579185Y-89290609D01*
X259579172Y-89290602D01*
X259433501Y-89230264D01*
X259433489Y-89230261D01*
X259278845Y-89199500D01*
X259278842Y-89199500D01*
X259121158Y-89199500D01*
X259121155Y-89199500D01*
X258966510Y-89230261D01*
X258966498Y-89230264D01*
X258921952Y-89248716D01*
X258852483Y-89256185D01*
X258790004Y-89224909D01*
X258754352Y-89164820D01*
X258750500Y-89134155D01*
X258750500Y-88865844D01*
X258770185Y-88798805D01*
X258822989Y-88753050D01*
X258892147Y-88743106D01*
X258921944Y-88751280D01*
X258966503Y-88769737D01*
X259112637Y-88798805D01*
X259121153Y-88800499D01*
X259121156Y-88800500D01*
X259121158Y-88800500D01*
X259278844Y-88800500D01*
X259278845Y-88800499D01*
X259433497Y-88769737D01*
X259579179Y-88709394D01*
X259710289Y-88621789D01*
X259821789Y-88510289D01*
X259909394Y-88379179D01*
X259969737Y-88233497D01*
X260000500Y-88078842D01*
X260000500Y-87921158D01*
X260000500Y-87921155D01*
X260000499Y-87921153D01*
X259969738Y-87766510D01*
X259969737Y-87766503D01*
X259949500Y-87717646D01*
X259909397Y-87620827D01*
X259909390Y-87620814D01*
X259821789Y-87489711D01*
X259821786Y-87489707D01*
X259710292Y-87378213D01*
X259710288Y-87378210D01*
X259579185Y-87290609D01*
X259579172Y-87290602D01*
X259433501Y-87230264D01*
X259433489Y-87230261D01*
X259278845Y-87199500D01*
X259278842Y-87199500D01*
X259121158Y-87199500D01*
X259121155Y-87199500D01*
X258966510Y-87230261D01*
X258966498Y-87230264D01*
X258921952Y-87248716D01*
X258852483Y-87256185D01*
X258790004Y-87224909D01*
X258754352Y-87164820D01*
X258750500Y-87134155D01*
X258750500Y-86865844D01*
X258770185Y-86798805D01*
X258822989Y-86753050D01*
X258892147Y-86743106D01*
X258921944Y-86751280D01*
X258966503Y-86769737D01*
X259112637Y-86798805D01*
X259121153Y-86800499D01*
X259121156Y-86800500D01*
X259121158Y-86800500D01*
X259278844Y-86800500D01*
X259278845Y-86800499D01*
X259433497Y-86769737D01*
X259579179Y-86709394D01*
X259710289Y-86621789D01*
X259821789Y-86510289D01*
X259909394Y-86379179D01*
X259969737Y-86233497D01*
X260000500Y-86078842D01*
X260000500Y-85921158D01*
X260000500Y-85921155D01*
X260000499Y-85921153D01*
X259969738Y-85766510D01*
X259969737Y-85766503D01*
X259949500Y-85717646D01*
X259909397Y-85620827D01*
X259909390Y-85620814D01*
X259821789Y-85489711D01*
X259821786Y-85489707D01*
X259710292Y-85378213D01*
X259710288Y-85378210D01*
X259579185Y-85290609D01*
X259579172Y-85290602D01*
X259433501Y-85230264D01*
X259433489Y-85230261D01*
X259278845Y-85199500D01*
X259278842Y-85199500D01*
X259121158Y-85199500D01*
X259121155Y-85199500D01*
X258966510Y-85230261D01*
X258966498Y-85230264D01*
X258921952Y-85248716D01*
X258852483Y-85256185D01*
X258790004Y-85224909D01*
X258754352Y-85164820D01*
X258750500Y-85134155D01*
X258750500Y-84865844D01*
X258770185Y-84798805D01*
X258822989Y-84753050D01*
X258892147Y-84743106D01*
X258921944Y-84751280D01*
X258966503Y-84769737D01*
X259112637Y-84798805D01*
X259121153Y-84800499D01*
X259121156Y-84800500D01*
X259121158Y-84800500D01*
X259278844Y-84800500D01*
X259278845Y-84800499D01*
X259433497Y-84769737D01*
X259579179Y-84709394D01*
X259710289Y-84621789D01*
X259821789Y-84510289D01*
X259909394Y-84379179D01*
X259969737Y-84233497D01*
X260000500Y-84078842D01*
X260000500Y-83921158D01*
X260000500Y-83921155D01*
X260000499Y-83921153D01*
X259969738Y-83766510D01*
X259969737Y-83766503D01*
X259949500Y-83717646D01*
X259909397Y-83620827D01*
X259909390Y-83620814D01*
X259821789Y-83489711D01*
X259821786Y-83489707D01*
X259710292Y-83378213D01*
X259710288Y-83378210D01*
X259579185Y-83290609D01*
X259579172Y-83290602D01*
X259433501Y-83230264D01*
X259433489Y-83230261D01*
X259278845Y-83199500D01*
X259278842Y-83199500D01*
X259121158Y-83199500D01*
X259121155Y-83199500D01*
X258966510Y-83230261D01*
X258966498Y-83230264D01*
X258921952Y-83248716D01*
X258852483Y-83256185D01*
X258790004Y-83224909D01*
X258754352Y-83164820D01*
X258750500Y-83134155D01*
X258750500Y-82865844D01*
X258770185Y-82798805D01*
X258822989Y-82753050D01*
X258892147Y-82743106D01*
X258921944Y-82751280D01*
X258966503Y-82769737D01*
X259112637Y-82798805D01*
X259121153Y-82800499D01*
X259121156Y-82800500D01*
X259121158Y-82800500D01*
X259278844Y-82800500D01*
X259278845Y-82800499D01*
X259433497Y-82769737D01*
X259579179Y-82709394D01*
X259710289Y-82621789D01*
X259821789Y-82510289D01*
X259909394Y-82379179D01*
X259969737Y-82233497D01*
X260000500Y-82078842D01*
X260000500Y-81921158D01*
X260000500Y-81921155D01*
X260000499Y-81921153D01*
X259969737Y-81766503D01*
X259950955Y-81721158D01*
X259950953Y-81721153D01*
X271799500Y-81721153D01*
X271799500Y-81878846D01*
X271830261Y-82033489D01*
X271830264Y-82033501D01*
X271890602Y-82179172D01*
X271890609Y-82179185D01*
X271978210Y-82310288D01*
X271978213Y-82310292D01*
X272089707Y-82421786D01*
X272089711Y-82421789D01*
X272220814Y-82509390D01*
X272220827Y-82509397D01*
X272356899Y-82565759D01*
X272366503Y-82569737D01*
X272489788Y-82594260D01*
X272521153Y-82600499D01*
X272521156Y-82600500D01*
X272521158Y-82600500D01*
X272678844Y-82600500D01*
X272678845Y-82600499D01*
X272833497Y-82569737D01*
X272979179Y-82509394D01*
X273110289Y-82421789D01*
X273221789Y-82310289D01*
X273309394Y-82179179D01*
X273369737Y-82033497D01*
X273400500Y-81878842D01*
X273400500Y-81721158D01*
X273400500Y-81721155D01*
X273400499Y-81721153D01*
X273380543Y-81620827D01*
X273369737Y-81566503D01*
X273337929Y-81489711D01*
X273309397Y-81420827D01*
X273309390Y-81420814D01*
X273221789Y-81289711D01*
X273221786Y-81289707D01*
X273110292Y-81178213D01*
X273110288Y-81178210D01*
X272979185Y-81090609D01*
X272979172Y-81090602D01*
X272833501Y-81030264D01*
X272833489Y-81030261D01*
X272678845Y-80999500D01*
X272678842Y-80999500D01*
X272521158Y-80999500D01*
X272521155Y-80999500D01*
X272366510Y-81030261D01*
X272366498Y-81030264D01*
X272220827Y-81090602D01*
X272220814Y-81090609D01*
X272089711Y-81178210D01*
X272089707Y-81178213D01*
X271978213Y-81289707D01*
X271978210Y-81289711D01*
X271890609Y-81420814D01*
X271890602Y-81420827D01*
X271830264Y-81566498D01*
X271830261Y-81566510D01*
X271799500Y-81721153D01*
X259950953Y-81721153D01*
X259909397Y-81620827D01*
X259909390Y-81620814D01*
X259821789Y-81489711D01*
X259821786Y-81489707D01*
X259710292Y-81378213D01*
X259710288Y-81378210D01*
X259579185Y-81290609D01*
X259579172Y-81290602D01*
X259433501Y-81230264D01*
X259433489Y-81230261D01*
X259278845Y-81199500D01*
X259278842Y-81199500D01*
X259121158Y-81199500D01*
X259121155Y-81199500D01*
X258966510Y-81230261D01*
X258966498Y-81230264D01*
X258921952Y-81248716D01*
X258852483Y-81256185D01*
X258790004Y-81224909D01*
X258754352Y-81164820D01*
X258750500Y-81134155D01*
X258750500Y-80865844D01*
X258770185Y-80798805D01*
X258822989Y-80753050D01*
X258892147Y-80743106D01*
X258921944Y-80751280D01*
X258966503Y-80769737D01*
X259112637Y-80798805D01*
X259121153Y-80800499D01*
X259121156Y-80800500D01*
X259121158Y-80800500D01*
X259278844Y-80800500D01*
X259278845Y-80800499D01*
X259433497Y-80769737D01*
X259579179Y-80709394D01*
X259710289Y-80621789D01*
X259821789Y-80510289D01*
X259909394Y-80379179D01*
X259969737Y-80233497D01*
X260000500Y-80078842D01*
X260000500Y-79921158D01*
X260000500Y-79921155D01*
X260000499Y-79921153D01*
X259969738Y-79766510D01*
X259969737Y-79766503D01*
X259949500Y-79717646D01*
X259909397Y-79620827D01*
X259909390Y-79620814D01*
X259821789Y-79489711D01*
X259821786Y-79489707D01*
X259710292Y-79378213D01*
X259710288Y-79378210D01*
X259579185Y-79290609D01*
X259579172Y-79290602D01*
X259433501Y-79230264D01*
X259433489Y-79230261D01*
X259278845Y-79199500D01*
X259278842Y-79199500D01*
X259121158Y-79199500D01*
X259121155Y-79199500D01*
X258966510Y-79230261D01*
X258966498Y-79230264D01*
X258921952Y-79248716D01*
X258852483Y-79256185D01*
X258790004Y-79224909D01*
X258754352Y-79164820D01*
X258750500Y-79134155D01*
X258750500Y-78865844D01*
X258770185Y-78798805D01*
X258822989Y-78753050D01*
X258892147Y-78743106D01*
X258921944Y-78751280D01*
X258966503Y-78769737D01*
X259112637Y-78798805D01*
X259121153Y-78800499D01*
X259121156Y-78800500D01*
X259121158Y-78800500D01*
X259278844Y-78800500D01*
X259278845Y-78800499D01*
X259433497Y-78769737D01*
X259579179Y-78709394D01*
X259710289Y-78621789D01*
X259821789Y-78510289D01*
X259909394Y-78379179D01*
X259969737Y-78233497D01*
X260000500Y-78078842D01*
X260000500Y-77921158D01*
X260000500Y-77921155D01*
X260000499Y-77921153D01*
X259969738Y-77766510D01*
X259969737Y-77766503D01*
X259949500Y-77717646D01*
X259909397Y-77620827D01*
X259909390Y-77620814D01*
X259821789Y-77489711D01*
X259821786Y-77489707D01*
X259710292Y-77378213D01*
X259710288Y-77378210D01*
X259579185Y-77290609D01*
X259579172Y-77290602D01*
X259433501Y-77230264D01*
X259433489Y-77230261D01*
X259278845Y-77199500D01*
X259278842Y-77199500D01*
X259121158Y-77199500D01*
X259121155Y-77199500D01*
X258966510Y-77230261D01*
X258966498Y-77230264D01*
X258921952Y-77248716D01*
X258852483Y-77256185D01*
X258790004Y-77224909D01*
X258754352Y-77164820D01*
X258750500Y-77134155D01*
X258750500Y-76865844D01*
X258770185Y-76798805D01*
X258822989Y-76753050D01*
X258892147Y-76743106D01*
X258921944Y-76751280D01*
X258966503Y-76769737D01*
X259112637Y-76798805D01*
X259121153Y-76800499D01*
X259121156Y-76800500D01*
X259121158Y-76800500D01*
X259278844Y-76800500D01*
X259278845Y-76800499D01*
X259433497Y-76769737D01*
X259579179Y-76709394D01*
X259710289Y-76621789D01*
X259821789Y-76510289D01*
X259909394Y-76379179D01*
X259969737Y-76233497D01*
X260000500Y-76078842D01*
X260000500Y-75921158D01*
X260000500Y-75921155D01*
X260000499Y-75921153D01*
X259969738Y-75766510D01*
X259969737Y-75766503D01*
X259949500Y-75717646D01*
X259909397Y-75620827D01*
X259909390Y-75620814D01*
X259821789Y-75489711D01*
X259821786Y-75489707D01*
X259710292Y-75378213D01*
X259710288Y-75378210D01*
X259579185Y-75290609D01*
X259579172Y-75290602D01*
X259433501Y-75230264D01*
X259433489Y-75230261D01*
X259278845Y-75199500D01*
X259278842Y-75199500D01*
X259121158Y-75199500D01*
X259121155Y-75199500D01*
X258966510Y-75230261D01*
X258966498Y-75230264D01*
X258921952Y-75248716D01*
X258852483Y-75256185D01*
X258790004Y-75224909D01*
X258754352Y-75164820D01*
X258750500Y-75134155D01*
X258750500Y-74865844D01*
X258770185Y-74798805D01*
X258822989Y-74753050D01*
X258892147Y-74743106D01*
X258921944Y-74751280D01*
X258966503Y-74769737D01*
X259112637Y-74798805D01*
X259121153Y-74800499D01*
X259121156Y-74800500D01*
X259121158Y-74800500D01*
X259278844Y-74800500D01*
X259278845Y-74800499D01*
X259433497Y-74769737D01*
X259579179Y-74709394D01*
X259710289Y-74621789D01*
X259821789Y-74510289D01*
X259909394Y-74379179D01*
X259969737Y-74233497D01*
X260000500Y-74078842D01*
X260000500Y-73921158D01*
X260000500Y-73921155D01*
X260000499Y-73921153D01*
X259969738Y-73766510D01*
X259969737Y-73766503D01*
X259949500Y-73717646D01*
X259909397Y-73620827D01*
X259909390Y-73620814D01*
X259821789Y-73489711D01*
X259821786Y-73489707D01*
X259710292Y-73378213D01*
X259710288Y-73378210D01*
X259579185Y-73290609D01*
X259579172Y-73290602D01*
X259433501Y-73230264D01*
X259433489Y-73230261D01*
X259278845Y-73199500D01*
X259278842Y-73199500D01*
X259121158Y-73199500D01*
X259121155Y-73199500D01*
X258966510Y-73230261D01*
X258966498Y-73230264D01*
X258921952Y-73248716D01*
X258852483Y-73256185D01*
X258790004Y-73224909D01*
X258754352Y-73164820D01*
X258750500Y-73134155D01*
X258750500Y-72865844D01*
X258770185Y-72798805D01*
X258822989Y-72753050D01*
X258892147Y-72743106D01*
X258921944Y-72751280D01*
X258966503Y-72769737D01*
X259112637Y-72798805D01*
X259121153Y-72800499D01*
X259121156Y-72800500D01*
X259121158Y-72800500D01*
X259278844Y-72800500D01*
X259278845Y-72800499D01*
X259433497Y-72769737D01*
X259579179Y-72709394D01*
X259710289Y-72621789D01*
X259821789Y-72510289D01*
X259909394Y-72379179D01*
X259969737Y-72233497D01*
X260000500Y-72078842D01*
X260000500Y-71921158D01*
X260000500Y-71921155D01*
X260000499Y-71921153D01*
X259969738Y-71766510D01*
X259969737Y-71766503D01*
X259949500Y-71717646D01*
X259909397Y-71620827D01*
X259909390Y-71620814D01*
X259821789Y-71489711D01*
X259821786Y-71489707D01*
X259710292Y-71378213D01*
X259710288Y-71378210D01*
X259579185Y-71290609D01*
X259579172Y-71290602D01*
X259433501Y-71230264D01*
X259433489Y-71230261D01*
X259278845Y-71199500D01*
X259278842Y-71199500D01*
X259121158Y-71199500D01*
X259121155Y-71199500D01*
X258966510Y-71230261D01*
X258966498Y-71230264D01*
X258921952Y-71248716D01*
X258852483Y-71256185D01*
X258790004Y-71224909D01*
X258754352Y-71164820D01*
X258750500Y-71134155D01*
X258750500Y-70865844D01*
X258770185Y-70798805D01*
X258822989Y-70753050D01*
X258892147Y-70743106D01*
X258921944Y-70751280D01*
X258966503Y-70769737D01*
X259112637Y-70798805D01*
X259121153Y-70800499D01*
X259121156Y-70800500D01*
X259121158Y-70800500D01*
X259278844Y-70800500D01*
X259278845Y-70800499D01*
X259433497Y-70769737D01*
X259579179Y-70709394D01*
X259710289Y-70621789D01*
X259821789Y-70510289D01*
X259909394Y-70379179D01*
X259969737Y-70233497D01*
X260000500Y-70078842D01*
X260000500Y-69921158D01*
X260000500Y-69921155D01*
X260000499Y-69921153D01*
X259969738Y-69766510D01*
X259969737Y-69766503D01*
X259949500Y-69717646D01*
X259909397Y-69620827D01*
X259909390Y-69620814D01*
X259821789Y-69489711D01*
X259821786Y-69489707D01*
X259710292Y-69378213D01*
X259710288Y-69378210D01*
X259579185Y-69290609D01*
X259579172Y-69290602D01*
X259433501Y-69230264D01*
X259433489Y-69230261D01*
X259278845Y-69199500D01*
X259278842Y-69199500D01*
X259121158Y-69199500D01*
X259121155Y-69199500D01*
X258966510Y-69230261D01*
X258966498Y-69230264D01*
X258921952Y-69248716D01*
X258852483Y-69256185D01*
X258790004Y-69224909D01*
X258754352Y-69164820D01*
X258750500Y-69134155D01*
X258750500Y-68865844D01*
X258770185Y-68798805D01*
X258822989Y-68753050D01*
X258892147Y-68743106D01*
X258921944Y-68751280D01*
X258966503Y-68769737D01*
X259112637Y-68798805D01*
X259121153Y-68800499D01*
X259121156Y-68800500D01*
X259121158Y-68800500D01*
X259278844Y-68800500D01*
X259278845Y-68800499D01*
X259433497Y-68769737D01*
X259579179Y-68709394D01*
X259710289Y-68621789D01*
X259821789Y-68510289D01*
X259909394Y-68379179D01*
X259969737Y-68233497D01*
X260000500Y-68078842D01*
X260000500Y-67921158D01*
X260000500Y-67921155D01*
X260000499Y-67921153D01*
X259969738Y-67766510D01*
X259969737Y-67766503D01*
X259949500Y-67717646D01*
X259909397Y-67620827D01*
X259909390Y-67620814D01*
X259821789Y-67489711D01*
X259821786Y-67489707D01*
X259710292Y-67378213D01*
X259710288Y-67378210D01*
X259579185Y-67290609D01*
X259579172Y-67290602D01*
X259433501Y-67230264D01*
X259433489Y-67230261D01*
X259278845Y-67199500D01*
X259278842Y-67199500D01*
X259121158Y-67199500D01*
X259121155Y-67199500D01*
X258966510Y-67230261D01*
X258966498Y-67230264D01*
X258921952Y-67248716D01*
X258852483Y-67256185D01*
X258790004Y-67224909D01*
X258754352Y-67164820D01*
X258750500Y-67134155D01*
X258750500Y-66865844D01*
X258770185Y-66798805D01*
X258822989Y-66753050D01*
X258892147Y-66743106D01*
X258921944Y-66751280D01*
X258966503Y-66769737D01*
X259112637Y-66798805D01*
X259121153Y-66800499D01*
X259121156Y-66800500D01*
X259121158Y-66800500D01*
X259278844Y-66800500D01*
X259278845Y-66800499D01*
X259433497Y-66769737D01*
X259579179Y-66709394D01*
X259710289Y-66621789D01*
X259821789Y-66510289D01*
X259909394Y-66379179D01*
X259969737Y-66233497D01*
X260000500Y-66078842D01*
X260000500Y-65921158D01*
X260000500Y-65921155D01*
X260000499Y-65921153D01*
X259969738Y-65766510D01*
X259969737Y-65766503D01*
X259949500Y-65717646D01*
X259909397Y-65620827D01*
X259909390Y-65620814D01*
X259821789Y-65489711D01*
X259821786Y-65489707D01*
X259710292Y-65378213D01*
X259710288Y-65378210D01*
X259579185Y-65290609D01*
X259579172Y-65290602D01*
X259433501Y-65230264D01*
X259433489Y-65230261D01*
X259278845Y-65199500D01*
X259278842Y-65199500D01*
X259121158Y-65199500D01*
X259121155Y-65199500D01*
X258966510Y-65230261D01*
X258966498Y-65230264D01*
X258921952Y-65248716D01*
X258852483Y-65256185D01*
X258790004Y-65224909D01*
X258754352Y-65164820D01*
X258750500Y-65134155D01*
X258750500Y-64865844D01*
X258770185Y-64798805D01*
X258822989Y-64753050D01*
X258892147Y-64743106D01*
X258921944Y-64751280D01*
X258966503Y-64769737D01*
X259112637Y-64798805D01*
X259121153Y-64800499D01*
X259121156Y-64800500D01*
X259121158Y-64800500D01*
X259278844Y-64800500D01*
X259278845Y-64800499D01*
X259433497Y-64769737D01*
X259579179Y-64709394D01*
X259710289Y-64621789D01*
X259821789Y-64510289D01*
X259909394Y-64379179D01*
X259969737Y-64233497D01*
X260000500Y-64078842D01*
X260000500Y-63921158D01*
X260000500Y-63921155D01*
X260000499Y-63921153D01*
X259969738Y-63766510D01*
X259969737Y-63766503D01*
X259949500Y-63717646D01*
X259909397Y-63620827D01*
X259909390Y-63620814D01*
X259821789Y-63489711D01*
X259821786Y-63489707D01*
X259710292Y-63378213D01*
X259710288Y-63378210D01*
X259579185Y-63290609D01*
X259579172Y-63290602D01*
X259433501Y-63230264D01*
X259433489Y-63230261D01*
X259278845Y-63199500D01*
X259278842Y-63199500D01*
X259121158Y-63199500D01*
X259121155Y-63199500D01*
X258966510Y-63230261D01*
X258966498Y-63230264D01*
X258921952Y-63248716D01*
X258852483Y-63256185D01*
X258790004Y-63224909D01*
X258754352Y-63164820D01*
X258750500Y-63134155D01*
X258750500Y-62865844D01*
X258770185Y-62798805D01*
X258822989Y-62753050D01*
X258892147Y-62743106D01*
X258921944Y-62751280D01*
X258966503Y-62769737D01*
X259112637Y-62798805D01*
X259121153Y-62800499D01*
X259121156Y-62800500D01*
X259121158Y-62800500D01*
X259278844Y-62800500D01*
X259278845Y-62800499D01*
X259433497Y-62769737D01*
X259579179Y-62709394D01*
X259710289Y-62621789D01*
X259821789Y-62510289D01*
X259909394Y-62379179D01*
X259969737Y-62233497D01*
X260000500Y-62078842D01*
X260000500Y-61921158D01*
X260000500Y-61921155D01*
X260000499Y-61921153D01*
X259969738Y-61766510D01*
X259969737Y-61766503D01*
X259949500Y-61717646D01*
X259909397Y-61620827D01*
X259909390Y-61620814D01*
X259821789Y-61489711D01*
X259821786Y-61489707D01*
X259710292Y-61378213D01*
X259710288Y-61378210D01*
X259579185Y-61290609D01*
X259579172Y-61290602D01*
X259433501Y-61230264D01*
X259433489Y-61230261D01*
X259278845Y-61199500D01*
X259278842Y-61199500D01*
X259121158Y-61199500D01*
X259121155Y-61199500D01*
X258966510Y-61230261D01*
X258966498Y-61230264D01*
X258921952Y-61248716D01*
X258852483Y-61256185D01*
X258790004Y-61224909D01*
X258754352Y-61164820D01*
X258750500Y-61134155D01*
X258750500Y-60865844D01*
X258770185Y-60798805D01*
X258822989Y-60753050D01*
X258892147Y-60743106D01*
X258921944Y-60751280D01*
X258966503Y-60769737D01*
X259112637Y-60798805D01*
X259121153Y-60800499D01*
X259121156Y-60800500D01*
X259121158Y-60800500D01*
X259278844Y-60800500D01*
X259278845Y-60800499D01*
X259433497Y-60769737D01*
X259579179Y-60709394D01*
X259710289Y-60621789D01*
X259821789Y-60510289D01*
X259909394Y-60379179D01*
X259969737Y-60233497D01*
X260000500Y-60078842D01*
X260000500Y-59921158D01*
X260000500Y-59921155D01*
X260000499Y-59921153D01*
X259969738Y-59766510D01*
X259969737Y-59766503D01*
X259949500Y-59717646D01*
X259909397Y-59620827D01*
X259909390Y-59620814D01*
X259821789Y-59489711D01*
X259821786Y-59489707D01*
X259710292Y-59378213D01*
X259710288Y-59378210D01*
X259579185Y-59290609D01*
X259579172Y-59290602D01*
X259433501Y-59230264D01*
X259433489Y-59230261D01*
X259278845Y-59199500D01*
X259278842Y-59199500D01*
X259121158Y-59199500D01*
X259121155Y-59199500D01*
X258966510Y-59230261D01*
X258966498Y-59230264D01*
X258921952Y-59248716D01*
X258852483Y-59256185D01*
X258790004Y-59224909D01*
X258754352Y-59164820D01*
X258750500Y-59134155D01*
X258750500Y-58865844D01*
X258770185Y-58798805D01*
X258822989Y-58753050D01*
X258892147Y-58743106D01*
X258921944Y-58751280D01*
X258966503Y-58769737D01*
X259112637Y-58798805D01*
X259121153Y-58800499D01*
X259121156Y-58800500D01*
X259121158Y-58800500D01*
X259278844Y-58800500D01*
X259278845Y-58800499D01*
X259433497Y-58769737D01*
X259579179Y-58709394D01*
X259710289Y-58621789D01*
X259821789Y-58510289D01*
X259909394Y-58379179D01*
X259969737Y-58233497D01*
X259978383Y-58190033D01*
X260010768Y-58128122D01*
X260071483Y-58093548D01*
X260141253Y-58097287D01*
X260197925Y-58138154D01*
X260221617Y-58190033D01*
X260230261Y-58233489D01*
X260230264Y-58233501D01*
X260290602Y-58379172D01*
X260290609Y-58379185D01*
X260378210Y-58510288D01*
X260378213Y-58510292D01*
X260489707Y-58621786D01*
X260489711Y-58621789D01*
X260620814Y-58709390D01*
X260620827Y-58709397D01*
X260766498Y-58769735D01*
X260766503Y-58769737D01*
X260912637Y-58798805D01*
X260921153Y-58800499D01*
X260921156Y-58800500D01*
X260921158Y-58800500D01*
X261078844Y-58800500D01*
X261078845Y-58800499D01*
X261233497Y-58769737D01*
X261379179Y-58709394D01*
X261510289Y-58621789D01*
X261621789Y-58510289D01*
X261709394Y-58379179D01*
X261769737Y-58233497D01*
X261800500Y-58078842D01*
X261800500Y-57921158D01*
X261800500Y-57921155D01*
X261800499Y-57921153D01*
X261796831Y-57902712D01*
X261769737Y-57766503D01*
X261756734Y-57735110D01*
X261709397Y-57620827D01*
X261709390Y-57620814D01*
X261621789Y-57489711D01*
X261621786Y-57489707D01*
X261619260Y-57487181D01*
X261618359Y-57485531D01*
X261617924Y-57485001D01*
X261618024Y-57484918D01*
X261585775Y-57425858D01*
X261590759Y-57356166D01*
X261632631Y-57300233D01*
X261698095Y-57275816D01*
X261706941Y-57275500D01*
X262293059Y-57275500D01*
X262360098Y-57295185D01*
G37*
%TD.AperFunction*%
%TD*%
M02*
