%TF.GenerationSoftware,KiCad,Pcbnew,9.0.1*%
%TF.CreationDate,2025-04-25T13:26:34+02:00*%
%TF.ProjectId,m2-e-usdex,6d322d65-2d75-4736-9465-782e6b696361,rev?*%
%TF.SameCoordinates,Original*%
%TF.FileFunction,Legend,Top*%
%TF.FilePolarity,Positive*%
%FSLAX46Y46*%
G04 Gerber Fmt 4.6, Leading zero omitted, Abs format (unit mm)*
G04 Created by KiCad (PCBNEW 9.0.1) date 2025-04-25 13:26:34*
%MOMM*%
%LPD*%
G01*
G04 APERTURE LIST*
G04 Aperture macros list*
%AMRoundRect*
0 Rectangle with rounded corners*
0 $1 Rounding radius*
0 $2 $3 $4 $5 $6 $7 $8 $9 X,Y pos of 4 corners*
0 Add a 4 corners polygon primitive as box body*
4,1,4,$2,$3,$4,$5,$6,$7,$8,$9,$2,$3,0*
0 Add four circle primitives for the rounded corners*
1,1,$1+$1,$2,$3*
1,1,$1+$1,$4,$5*
1,1,$1+$1,$6,$7*
1,1,$1+$1,$8,$9*
0 Add four rect primitives between the rounded corners*
20,1,$1+$1,$2,$3,$4,$5,0*
20,1,$1+$1,$4,$5,$6,$7,0*
20,1,$1+$1,$6,$7,$8,$9,0*
20,1,$1+$1,$8,$9,$2,$3,0*%
G04 Aperture macros list end*
%ADD10C,0.187500*%
%ADD11C,0.150000*%
%ADD12C,0.100000*%
%ADD13C,0.120000*%
%ADD14RoundRect,0.250000X-0.250000X-0.475000X0.250000X-0.475000X0.250000X0.475000X-0.250000X0.475000X0*%
%ADD15RoundRect,0.135000X-0.185000X0.135000X-0.185000X-0.135000X0.185000X-0.135000X0.185000X0.135000X0*%
%ADD16RoundRect,0.375000X-0.625000X-0.375000X0.625000X-0.375000X0.625000X0.375000X-0.625000X0.375000X0*%
%ADD17RoundRect,0.500000X-0.500000X-1.400000X0.500000X-1.400000X0.500000X1.400000X-0.500000X1.400000X0*%
%ADD18R,0.350000X1.450000*%
%ADD19C,5.000000*%
%ADD20RoundRect,0.250000X0.250000X0.475000X-0.250000X0.475000X-0.250000X-0.475000X0.250000X-0.475000X0*%
%ADD21R,0.700000X1.200000*%
%ADD22R,1.100000X2.100000*%
G04 APERTURE END LIST*
D10*
X260142857Y-64476846D02*
X260142857Y-63476846D01*
X260142857Y-63619703D02*
X260214286Y-63548275D01*
X260214286Y-63548275D02*
X260357143Y-63476846D01*
X260357143Y-63476846D02*
X260571429Y-63476846D01*
X260571429Y-63476846D02*
X260714286Y-63548275D01*
X260714286Y-63548275D02*
X260785715Y-63691132D01*
X260785715Y-63691132D02*
X260785715Y-64476846D01*
X260785715Y-63691132D02*
X260857143Y-63548275D01*
X260857143Y-63548275D02*
X261000000Y-63476846D01*
X261000000Y-63476846D02*
X261214286Y-63476846D01*
X261214286Y-63476846D02*
X261357143Y-63548275D01*
X261357143Y-63548275D02*
X261428572Y-63691132D01*
X261428572Y-63691132D02*
X261428572Y-64476846D01*
X262142857Y-64476846D02*
X262142857Y-63476846D01*
X262142857Y-62976846D02*
X262071429Y-63048275D01*
X262071429Y-63048275D02*
X262142857Y-63119703D01*
X262142857Y-63119703D02*
X262214286Y-63048275D01*
X262214286Y-63048275D02*
X262142857Y-62976846D01*
X262142857Y-62976846D02*
X262142857Y-63119703D01*
X263500001Y-64405418D02*
X263357143Y-64476846D01*
X263357143Y-64476846D02*
X263071429Y-64476846D01*
X263071429Y-64476846D02*
X262928572Y-64405418D01*
X262928572Y-64405418D02*
X262857143Y-64333989D01*
X262857143Y-64333989D02*
X262785715Y-64191132D01*
X262785715Y-64191132D02*
X262785715Y-63762560D01*
X262785715Y-63762560D02*
X262857143Y-63619703D01*
X262857143Y-63619703D02*
X262928572Y-63548275D01*
X262928572Y-63548275D02*
X263071429Y-63476846D01*
X263071429Y-63476846D02*
X263357143Y-63476846D01*
X263357143Y-63476846D02*
X263500001Y-63548275D01*
X264142857Y-64476846D02*
X264142857Y-63476846D01*
X264142857Y-63762560D02*
X264214286Y-63619703D01*
X264214286Y-63619703D02*
X264285715Y-63548275D01*
X264285715Y-63548275D02*
X264428572Y-63476846D01*
X264428572Y-63476846D02*
X264571429Y-63476846D01*
X265285714Y-64476846D02*
X265142857Y-64405418D01*
X265142857Y-64405418D02*
X265071428Y-64333989D01*
X265071428Y-64333989D02*
X265000000Y-64191132D01*
X265000000Y-64191132D02*
X265000000Y-63762560D01*
X265000000Y-63762560D02*
X265071428Y-63619703D01*
X265071428Y-63619703D02*
X265142857Y-63548275D01*
X265142857Y-63548275D02*
X265285714Y-63476846D01*
X265285714Y-63476846D02*
X265500000Y-63476846D01*
X265500000Y-63476846D02*
X265642857Y-63548275D01*
X265642857Y-63548275D02*
X265714286Y-63619703D01*
X265714286Y-63619703D02*
X265785714Y-63762560D01*
X265785714Y-63762560D02*
X265785714Y-64191132D01*
X265785714Y-64191132D02*
X265714286Y-64333989D01*
X265714286Y-64333989D02*
X265642857Y-64405418D01*
X265642857Y-64405418D02*
X265500000Y-64476846D01*
X265500000Y-64476846D02*
X265285714Y-64476846D01*
X266357143Y-64405418D02*
X266571429Y-64476846D01*
X266571429Y-64476846D02*
X266928571Y-64476846D01*
X266928571Y-64476846D02*
X267071429Y-64405418D01*
X267071429Y-64405418D02*
X267142857Y-64333989D01*
X267142857Y-64333989D02*
X267214286Y-64191132D01*
X267214286Y-64191132D02*
X267214286Y-64048275D01*
X267214286Y-64048275D02*
X267142857Y-63905418D01*
X267142857Y-63905418D02*
X267071429Y-63833989D01*
X267071429Y-63833989D02*
X266928571Y-63762560D01*
X266928571Y-63762560D02*
X266642857Y-63691132D01*
X266642857Y-63691132D02*
X266500000Y-63619703D01*
X266500000Y-63619703D02*
X266428571Y-63548275D01*
X266428571Y-63548275D02*
X266357143Y-63405418D01*
X266357143Y-63405418D02*
X266357143Y-63262560D01*
X266357143Y-63262560D02*
X266428571Y-63119703D01*
X266428571Y-63119703D02*
X266500000Y-63048275D01*
X266500000Y-63048275D02*
X266642857Y-62976846D01*
X266642857Y-62976846D02*
X267000000Y-62976846D01*
X267000000Y-62976846D02*
X267214286Y-63048275D01*
X267857142Y-64476846D02*
X267857142Y-62976846D01*
X267857142Y-62976846D02*
X268214285Y-62976846D01*
X268214285Y-62976846D02*
X268428571Y-63048275D01*
X268428571Y-63048275D02*
X268571428Y-63191132D01*
X268571428Y-63191132D02*
X268642857Y-63333989D01*
X268642857Y-63333989D02*
X268714285Y-63619703D01*
X268714285Y-63619703D02*
X268714285Y-63833989D01*
X268714285Y-63833989D02*
X268642857Y-64119703D01*
X268642857Y-64119703D02*
X268571428Y-64262560D01*
X268571428Y-64262560D02*
X268428571Y-64405418D01*
X268428571Y-64405418D02*
X268214285Y-64476846D01*
X268214285Y-64476846D02*
X267857142Y-64476846D01*
X270499999Y-63691132D02*
X270999999Y-63691132D01*
X271214285Y-64476846D02*
X270499999Y-64476846D01*
X270499999Y-64476846D02*
X270499999Y-62976846D01*
X270499999Y-62976846D02*
X271214285Y-62976846D01*
X271714285Y-64476846D02*
X272500000Y-63476846D01*
X271714285Y-63476846D02*
X272500000Y-64476846D01*
X273071428Y-63476846D02*
X273071428Y-64976846D01*
X273071428Y-63548275D02*
X273214286Y-63476846D01*
X273214286Y-63476846D02*
X273500000Y-63476846D01*
X273500000Y-63476846D02*
X273642857Y-63548275D01*
X273642857Y-63548275D02*
X273714286Y-63619703D01*
X273714286Y-63619703D02*
X273785714Y-63762560D01*
X273785714Y-63762560D02*
X273785714Y-64191132D01*
X273785714Y-64191132D02*
X273714286Y-64333989D01*
X273714286Y-64333989D02*
X273642857Y-64405418D01*
X273642857Y-64405418D02*
X273500000Y-64476846D01*
X273500000Y-64476846D02*
X273214286Y-64476846D01*
X273214286Y-64476846D02*
X273071428Y-64405418D01*
X274428571Y-64476846D02*
X274428571Y-63476846D01*
X274428571Y-63762560D02*
X274500000Y-63619703D01*
X274500000Y-63619703D02*
X274571429Y-63548275D01*
X274571429Y-63548275D02*
X274714286Y-63476846D01*
X274714286Y-63476846D02*
X274857143Y-63476846D01*
X275928571Y-64405418D02*
X275785714Y-64476846D01*
X275785714Y-64476846D02*
X275500000Y-64476846D01*
X275500000Y-64476846D02*
X275357142Y-64405418D01*
X275357142Y-64405418D02*
X275285714Y-64262560D01*
X275285714Y-64262560D02*
X275285714Y-63691132D01*
X275285714Y-63691132D02*
X275357142Y-63548275D01*
X275357142Y-63548275D02*
X275500000Y-63476846D01*
X275500000Y-63476846D02*
X275785714Y-63476846D01*
X275785714Y-63476846D02*
X275928571Y-63548275D01*
X275928571Y-63548275D02*
X276000000Y-63691132D01*
X276000000Y-63691132D02*
X276000000Y-63833989D01*
X276000000Y-63833989D02*
X275285714Y-63976846D01*
X276571428Y-64405418D02*
X276714285Y-64476846D01*
X276714285Y-64476846D02*
X276999999Y-64476846D01*
X276999999Y-64476846D02*
X277142856Y-64405418D01*
X277142856Y-64405418D02*
X277214285Y-64262560D01*
X277214285Y-64262560D02*
X277214285Y-64191132D01*
X277214285Y-64191132D02*
X277142856Y-64048275D01*
X277142856Y-64048275D02*
X276999999Y-63976846D01*
X276999999Y-63976846D02*
X276785714Y-63976846D01*
X276785714Y-63976846D02*
X276642856Y-63905418D01*
X276642856Y-63905418D02*
X276571428Y-63762560D01*
X276571428Y-63762560D02*
X276571428Y-63691132D01*
X276571428Y-63691132D02*
X276642856Y-63548275D01*
X276642856Y-63548275D02*
X276785714Y-63476846D01*
X276785714Y-63476846D02*
X276999999Y-63476846D01*
X276999999Y-63476846D02*
X277142856Y-63548275D01*
X277785714Y-64405418D02*
X277928571Y-64476846D01*
X277928571Y-64476846D02*
X278214285Y-64476846D01*
X278214285Y-64476846D02*
X278357142Y-64405418D01*
X278357142Y-64405418D02*
X278428571Y-64262560D01*
X278428571Y-64262560D02*
X278428571Y-64191132D01*
X278428571Y-64191132D02*
X278357142Y-64048275D01*
X278357142Y-64048275D02*
X278214285Y-63976846D01*
X278214285Y-63976846D02*
X278000000Y-63976846D01*
X278000000Y-63976846D02*
X277857142Y-63905418D01*
X277857142Y-63905418D02*
X277785714Y-63762560D01*
X277785714Y-63762560D02*
X277785714Y-63691132D01*
X277785714Y-63691132D02*
X277857142Y-63548275D01*
X277857142Y-63548275D02*
X278000000Y-63476846D01*
X278000000Y-63476846D02*
X278214285Y-63476846D01*
X278214285Y-63476846D02*
X278357142Y-63548275D01*
X269250000Y-65748905D02*
X269250000Y-66891762D01*
X269535714Y-66606048D02*
X269250000Y-66891762D01*
X269250000Y-66891762D02*
X268964286Y-66606048D01*
X261107142Y-69306678D02*
X261107142Y-67806678D01*
X261107142Y-67806678D02*
X261678571Y-67806678D01*
X261678571Y-67806678D02*
X261821428Y-67878107D01*
X261821428Y-67878107D02*
X261892857Y-67949535D01*
X261892857Y-67949535D02*
X261964285Y-68092392D01*
X261964285Y-68092392D02*
X261964285Y-68306678D01*
X261964285Y-68306678D02*
X261892857Y-68449535D01*
X261892857Y-68449535D02*
X261821428Y-68520964D01*
X261821428Y-68520964D02*
X261678571Y-68592392D01*
X261678571Y-68592392D02*
X261107142Y-68592392D01*
X263464285Y-69163821D02*
X263392857Y-69235250D01*
X263392857Y-69235250D02*
X263178571Y-69306678D01*
X263178571Y-69306678D02*
X263035714Y-69306678D01*
X263035714Y-69306678D02*
X262821428Y-69235250D01*
X262821428Y-69235250D02*
X262678571Y-69092392D01*
X262678571Y-69092392D02*
X262607142Y-68949535D01*
X262607142Y-68949535D02*
X262535714Y-68663821D01*
X262535714Y-68663821D02*
X262535714Y-68449535D01*
X262535714Y-68449535D02*
X262607142Y-68163821D01*
X262607142Y-68163821D02*
X262678571Y-68020964D01*
X262678571Y-68020964D02*
X262821428Y-67878107D01*
X262821428Y-67878107D02*
X263035714Y-67806678D01*
X263035714Y-67806678D02*
X263178571Y-67806678D01*
X263178571Y-67806678D02*
X263392857Y-67878107D01*
X263392857Y-67878107D02*
X263464285Y-67949535D01*
X264107142Y-69306678D02*
X264107142Y-67806678D01*
X265392857Y-69235250D02*
X265250000Y-69306678D01*
X265250000Y-69306678D02*
X264964286Y-69306678D01*
X264964286Y-69306678D02*
X264821428Y-69235250D01*
X264821428Y-69235250D02*
X264750000Y-69092392D01*
X264750000Y-69092392D02*
X264750000Y-68520964D01*
X264750000Y-68520964D02*
X264821428Y-68378107D01*
X264821428Y-68378107D02*
X264964286Y-68306678D01*
X264964286Y-68306678D02*
X265250000Y-68306678D01*
X265250000Y-68306678D02*
X265392857Y-68378107D01*
X265392857Y-68378107D02*
X265464286Y-68520964D01*
X265464286Y-68520964D02*
X265464286Y-68663821D01*
X265464286Y-68663821D02*
X264750000Y-68806678D01*
X267249999Y-69306678D02*
X267249999Y-67806678D01*
X267249999Y-67806678D02*
X268107142Y-69306678D01*
X268107142Y-69306678D02*
X268107142Y-67806678D01*
X268607143Y-67806678D02*
X269107143Y-69306678D01*
X269107143Y-69306678D02*
X269607143Y-67806678D01*
X270107142Y-69306678D02*
X270107142Y-67806678D01*
X270107142Y-67806678D02*
X270607142Y-68878107D01*
X270607142Y-68878107D02*
X271107142Y-67806678D01*
X271107142Y-67806678D02*
X271107142Y-69306678D01*
X272392857Y-69235250D02*
X272250000Y-69306678D01*
X272250000Y-69306678D02*
X271964286Y-69306678D01*
X271964286Y-69306678D02*
X271821428Y-69235250D01*
X271821428Y-69235250D02*
X271750000Y-69092392D01*
X271750000Y-69092392D02*
X271750000Y-68520964D01*
X271750000Y-68520964D02*
X271821428Y-68378107D01*
X271821428Y-68378107D02*
X271964286Y-68306678D01*
X271964286Y-68306678D02*
X272250000Y-68306678D01*
X272250000Y-68306678D02*
X272392857Y-68378107D01*
X272392857Y-68378107D02*
X272464286Y-68520964D01*
X272464286Y-68520964D02*
X272464286Y-68663821D01*
X272464286Y-68663821D02*
X271750000Y-68806678D01*
X274249999Y-69306678D02*
X274249999Y-67806678D01*
X274249999Y-67806678D02*
X274749999Y-68878107D01*
X274749999Y-68878107D02*
X275249999Y-67806678D01*
X275249999Y-67806678D02*
X275249999Y-69306678D01*
X275964285Y-69163821D02*
X276035714Y-69235250D01*
X276035714Y-69235250D02*
X275964285Y-69306678D01*
X275964285Y-69306678D02*
X275892857Y-69235250D01*
X275892857Y-69235250D02*
X275964285Y-69163821D01*
X275964285Y-69163821D02*
X275964285Y-69306678D01*
X276607143Y-67949535D02*
X276678571Y-67878107D01*
X276678571Y-67878107D02*
X276821429Y-67806678D01*
X276821429Y-67806678D02*
X277178571Y-67806678D01*
X277178571Y-67806678D02*
X277321429Y-67878107D01*
X277321429Y-67878107D02*
X277392857Y-67949535D01*
X277392857Y-67949535D02*
X277464286Y-68092392D01*
X277464286Y-68092392D02*
X277464286Y-68235250D01*
X277464286Y-68235250D02*
X277392857Y-68449535D01*
X277392857Y-68449535D02*
X276535714Y-69306678D01*
X276535714Y-69306678D02*
X277464286Y-69306678D01*
D11*
X276083333Y-75309580D02*
X276035714Y-75357200D01*
X276035714Y-75357200D02*
X275892857Y-75404819D01*
X275892857Y-75404819D02*
X275797619Y-75404819D01*
X275797619Y-75404819D02*
X275654762Y-75357200D01*
X275654762Y-75357200D02*
X275559524Y-75261961D01*
X275559524Y-75261961D02*
X275511905Y-75166723D01*
X275511905Y-75166723D02*
X275464286Y-74976247D01*
X275464286Y-74976247D02*
X275464286Y-74833390D01*
X275464286Y-74833390D02*
X275511905Y-74642914D01*
X275511905Y-74642914D02*
X275559524Y-74547676D01*
X275559524Y-74547676D02*
X275654762Y-74452438D01*
X275654762Y-74452438D02*
X275797619Y-74404819D01*
X275797619Y-74404819D02*
X275892857Y-74404819D01*
X275892857Y-74404819D02*
X276035714Y-74452438D01*
X276035714Y-74452438D02*
X276083333Y-74500057D01*
X276464286Y-74500057D02*
X276511905Y-74452438D01*
X276511905Y-74452438D02*
X276607143Y-74404819D01*
X276607143Y-74404819D02*
X276845238Y-74404819D01*
X276845238Y-74404819D02*
X276940476Y-74452438D01*
X276940476Y-74452438D02*
X276988095Y-74500057D01*
X276988095Y-74500057D02*
X277035714Y-74595295D01*
X277035714Y-74595295D02*
X277035714Y-74690533D01*
X277035714Y-74690533D02*
X276988095Y-74833390D01*
X276988095Y-74833390D02*
X276416667Y-75404819D01*
X276416667Y-75404819D02*
X277035714Y-75404819D01*
X260954819Y-128566666D02*
X260478628Y-128899999D01*
X260954819Y-129138094D02*
X259954819Y-129138094D01*
X259954819Y-129138094D02*
X259954819Y-128757142D01*
X259954819Y-128757142D02*
X260002438Y-128661904D01*
X260002438Y-128661904D02*
X260050057Y-128614285D01*
X260050057Y-128614285D02*
X260145295Y-128566666D01*
X260145295Y-128566666D02*
X260288152Y-128566666D01*
X260288152Y-128566666D02*
X260383390Y-128614285D01*
X260383390Y-128614285D02*
X260431009Y-128661904D01*
X260431009Y-128661904D02*
X260478628Y-128757142D01*
X260478628Y-128757142D02*
X260478628Y-129138094D01*
X260954819Y-127614285D02*
X260954819Y-128185713D01*
X260954819Y-127899999D02*
X259954819Y-127899999D01*
X259954819Y-127899999D02*
X260097676Y-127995237D01*
X260097676Y-127995237D02*
X260192914Y-128090475D01*
X260192914Y-128090475D02*
X260240533Y-128185713D01*
X268688095Y-81304819D02*
X268688095Y-82114342D01*
X268688095Y-82114342D02*
X268735714Y-82209580D01*
X268735714Y-82209580D02*
X268783333Y-82257200D01*
X268783333Y-82257200D02*
X268878571Y-82304819D01*
X268878571Y-82304819D02*
X269069047Y-82304819D01*
X269069047Y-82304819D02*
X269164285Y-82257200D01*
X269164285Y-82257200D02*
X269211904Y-82209580D01*
X269211904Y-82209580D02*
X269259523Y-82114342D01*
X269259523Y-82114342D02*
X269259523Y-81304819D01*
X270259523Y-82304819D02*
X269688095Y-82304819D01*
X269973809Y-82304819D02*
X269973809Y-81304819D01*
X269973809Y-81304819D02*
X269878571Y-81447676D01*
X269878571Y-81447676D02*
X269783333Y-81542914D01*
X269783333Y-81542914D02*
X269688095Y-81590533D01*
X261883333Y-77809580D02*
X261835714Y-77857200D01*
X261835714Y-77857200D02*
X261692857Y-77904819D01*
X261692857Y-77904819D02*
X261597619Y-77904819D01*
X261597619Y-77904819D02*
X261454762Y-77857200D01*
X261454762Y-77857200D02*
X261359524Y-77761961D01*
X261359524Y-77761961D02*
X261311905Y-77666723D01*
X261311905Y-77666723D02*
X261264286Y-77476247D01*
X261264286Y-77476247D02*
X261264286Y-77333390D01*
X261264286Y-77333390D02*
X261311905Y-77142914D01*
X261311905Y-77142914D02*
X261359524Y-77047676D01*
X261359524Y-77047676D02*
X261454762Y-76952438D01*
X261454762Y-76952438D02*
X261597619Y-76904819D01*
X261597619Y-76904819D02*
X261692857Y-76904819D01*
X261692857Y-76904819D02*
X261835714Y-76952438D01*
X261835714Y-76952438D02*
X261883333Y-77000057D01*
X262835714Y-77904819D02*
X262264286Y-77904819D01*
X262550000Y-77904819D02*
X262550000Y-76904819D01*
X262550000Y-76904819D02*
X262454762Y-77047676D01*
X262454762Y-77047676D02*
X262359524Y-77142914D01*
X262359524Y-77142914D02*
X262264286Y-77190533D01*
D12*
X262266666Y-123457419D02*
X262266666Y-124171704D01*
X262266666Y-124171704D02*
X262219047Y-124314561D01*
X262219047Y-124314561D02*
X262123809Y-124409800D01*
X262123809Y-124409800D02*
X261980952Y-124457419D01*
X261980952Y-124457419D02*
X261885714Y-124457419D01*
X262695238Y-123552657D02*
X262742857Y-123505038D01*
X262742857Y-123505038D02*
X262838095Y-123457419D01*
X262838095Y-123457419D02*
X263076190Y-123457419D01*
X263076190Y-123457419D02*
X263171428Y-123505038D01*
X263171428Y-123505038D02*
X263219047Y-123552657D01*
X263219047Y-123552657D02*
X263266666Y-123647895D01*
X263266666Y-123647895D02*
X263266666Y-123743133D01*
X263266666Y-123743133D02*
X263219047Y-123885990D01*
X263219047Y-123885990D02*
X262647619Y-124457419D01*
X262647619Y-124457419D02*
X263266666Y-124457419D01*
D13*
%TO.C,C2*%
X275988748Y-76215000D02*
X276511252Y-76215000D01*
X275988748Y-77685000D02*
X276511252Y-77685000D01*
%TO.C,R1*%
X260120000Y-130486359D02*
X260120000Y-130793641D01*
X260880000Y-130486359D02*
X260880000Y-130793641D01*
%TO.C,U1*%
X267600000Y-73740000D02*
X271360000Y-73740000D01*
X267600000Y-80560000D02*
X271360000Y-80560000D01*
X271360000Y-73740000D02*
X271360000Y-75000000D01*
X271360000Y-80560000D02*
X271360000Y-79300000D01*
X266320000Y-73840000D02*
X266080000Y-73510000D01*
X266560000Y-73510000D01*
X266320000Y-73840000D01*
G36*
X266320000Y-73840000D02*
G01*
X266080000Y-73510000D01*
X266560000Y-73510000D01*
X266320000Y-73840000D01*
G37*
%TO.C,C1*%
X262311252Y-78715000D02*
X261788748Y-78715000D01*
X262311252Y-80185000D02*
X261788748Y-80185000D01*
%TD*%
%LPC*%
D14*
%TO.C,C2*%
X275300000Y-76950000D03*
X277200000Y-76950000D03*
%TD*%
D15*
%TO.C,R1*%
X260500000Y-130130000D03*
X260500000Y-131150000D03*
%TD*%
D16*
%TO.C,U1*%
X266300000Y-74850000D03*
X266300000Y-77150000D03*
D17*
X272600000Y-77150000D03*
D16*
X266300000Y-79450000D03*
%TD*%
D18*
%TO.C,J1*%
X278500000Y-135500000D03*
X278000000Y-135500000D03*
X277500000Y-135500000D03*
X277000000Y-135500000D03*
X276500000Y-135500000D03*
X276000000Y-135500000D03*
X275500000Y-135500000D03*
X275000000Y-135500000D03*
X274500000Y-135500000D03*
X274000000Y-135500000D03*
X273500000Y-135500000D03*
X273000000Y-135500000D03*
X272500000Y-135500000D03*
X272000000Y-135500000D03*
X271500000Y-135500000D03*
X271000000Y-135500000D03*
X270500000Y-135500000D03*
X270000000Y-135500000D03*
X269500000Y-135500000D03*
X269000000Y-135500000D03*
X268500000Y-135500000D03*
X268000000Y-135500000D03*
X267500000Y-135500000D03*
X267000000Y-135500000D03*
X266500000Y-135500000D03*
X266000000Y-135500000D03*
X265500000Y-135500000D03*
X265000000Y-135500000D03*
X264500000Y-135500000D03*
X262000000Y-135500000D03*
X261500000Y-135500000D03*
X261000000Y-135500000D03*
X260500000Y-135500000D03*
X260000000Y-135500000D03*
D19*
X269250000Y-56775000D03*
%TD*%
D20*
%TO.C,C1*%
X263000000Y-79450000D03*
X261100000Y-79450000D03*
%TD*%
D21*
%TO.C,J2*%
X262890000Y-121700000D03*
X263990000Y-121700000D03*
X265090000Y-121700000D03*
X266190000Y-121700000D03*
X267290000Y-121700000D03*
D22*
X273500000Y-120850000D03*
X273500000Y-113650000D03*
X273500000Y-108150000D03*
D21*
X268390000Y-121700000D03*
D22*
X259800000Y-120850000D03*
X259800000Y-113650000D03*
X259800000Y-108150000D03*
D21*
X269490000Y-121700000D03*
X270590000Y-121700000D03*
X262930000Y-107700000D03*
X264990000Y-107700000D03*
X265900000Y-107700000D03*
X266810000Y-107700000D03*
X267720000Y-107700000D03*
X268630000Y-107700000D03*
X269540000Y-107700000D03*
X270450000Y-107700000D03*
X264080000Y-107700000D03*
X271690000Y-121700000D03*
%TD*%
%LPD*%
M02*
