%TF.GenerationSoftware,KiCad,Pcbnew,9.0.1*%
%TF.CreationDate,2025-04-25T13:26:35+02:00*%
%TF.ProjectId,m2-e-usdex,6d322d65-2d75-4736-9465-782e6b696361,rev?*%
%TF.SameCoordinates,Original*%
%TF.FileFunction,Soldermask,Bot*%
%TF.FilePolarity,Negative*%
%FSLAX46Y46*%
G04 Gerber Fmt 4.6, Leading zero omitted, Abs format (unit mm)*
G04 Created by KiCad (PCBNEW 9.0.1) date 2025-04-25 13:26:35*
%MOMM*%
%LPD*%
G01*
G04 APERTURE LIST*
G04 Aperture macros list*
%AMRoundRect*
0 Rectangle with rounded corners*
0 $1 Rounding radius*
0 $2 $3 $4 $5 $6 $7 $8 $9 X,Y pos of 4 corners*
0 Add a 4 corners polygon primitive as box body*
4,1,4,$2,$3,$4,$5,$6,$7,$8,$9,$2,$3,0*
0 Add four circle primitives for the rounded corners*
1,1,$1+$1,$2,$3*
1,1,$1+$1,$4,$5*
1,1,$1+$1,$6,$7*
1,1,$1+$1,$8,$9*
0 Add four rect primitives between the rounded corners*
20,1,$1+$1,$2,$3,$4,$5,0*
20,1,$1+$1,$4,$5,$6,$7,0*
20,1,$1+$1,$6,$7,$8,$9,0*
20,1,$1+$1,$8,$9,$2,$3,0*%
G04 Aperture macros list end*
%ADD10R,0.350000X1.950000*%
%ADD11O,5.000000X6.000000*%
%ADD12C,1.000000*%
%ADD13RoundRect,0.250000X-0.475000X0.250000X-0.475000X-0.250000X0.475000X-0.250000X0.475000X0.250000X0*%
%ADD14RoundRect,0.140000X0.170000X-0.140000X0.170000X0.140000X-0.170000X0.140000X-0.170000X-0.140000X0*%
%ADD15RoundRect,0.140000X-0.170000X0.140000X-0.170000X-0.140000X0.170000X-0.140000X0.170000X0.140000X0*%
%ADD16RoundRect,0.250000X0.475000X-0.250000X0.475000X0.250000X-0.475000X0.250000X-0.475000X-0.250000X0*%
G04 APERTURE END LIST*
D10*
%TO.C,J1*%
X278250000Y-135250000D03*
X277750000Y-135250000D03*
X277250000Y-135250000D03*
X276750000Y-135250000D03*
X276250000Y-135250000D03*
X275750000Y-135250000D03*
X275250000Y-135250000D03*
X274750000Y-135250000D03*
X274250000Y-135250000D03*
X273750000Y-135250000D03*
X273250000Y-135250000D03*
X272750000Y-135250000D03*
X272250000Y-135250000D03*
X271750000Y-135250000D03*
X271250000Y-135250000D03*
X270750000Y-135250000D03*
X270250000Y-135250000D03*
X269750000Y-135250000D03*
X269250000Y-135250000D03*
X268750000Y-135250000D03*
X268250000Y-135250000D03*
X267750000Y-135250000D03*
X267250000Y-135250000D03*
X266750000Y-135250000D03*
X266250000Y-135250000D03*
X265750000Y-135250000D03*
X265250000Y-135250000D03*
X264750000Y-135250000D03*
X264250000Y-135250000D03*
X261750000Y-135250000D03*
X261250000Y-135250000D03*
X260750000Y-135250000D03*
X260250000Y-135250000D03*
D11*
X269250000Y-57275000D03*
%TD*%
D12*
%TO.C,TP1*%
X266200000Y-93400000D03*
%TD*%
D13*
%TO.C,C6*%
X262100000Y-110300000D03*
X262100000Y-112200000D03*
%TD*%
D14*
%TO.C,C5*%
X269640000Y-106480000D03*
X269640000Y-105520000D03*
%TD*%
D15*
%TO.C,C4*%
X268530000Y-105520000D03*
X268530000Y-106480000D03*
%TD*%
D16*
%TO.C,C3*%
X262100000Y-118900000D03*
X262100000Y-117000000D03*
%TD*%
M02*
