%TF.GenerationSoftware,KiCad,Pcbnew,9.0.1*%
%TF.CreationDate,2025-04-25T13:26:34+02:00*%
%TF.ProjectId,m2-e-usdex,6d322d65-2d75-4736-9465-782e6b696361,rev?*%
%TF.SameCoordinates,Original*%
%TF.FileFunction,Copper,L5,Inr*%
%TF.FilePolarity,Positive*%
%FSLAX46Y46*%
G04 Gerber Fmt 4.6, Leading zero omitted, Abs format (unit mm)*
G04 Created by KiCad (PCBNEW 9.0.1) date 2025-04-25 13:26:34*
%MOMM*%
%LPD*%
G01*
G04 APERTURE LIST*
%TA.AperFunction,ViaPad*%
%ADD10C,0.600000*%
%TD*%
%TA.AperFunction,ViaPad*%
%ADD11C,0.350000*%
%TD*%
G04 APERTURE END LIST*
D10*
%TO.N,GND*%
X259200000Y-84000000D03*
X279000000Y-58000000D03*
X279000000Y-128000000D03*
X273000000Y-58000000D03*
X267720000Y-107700000D03*
X259200000Y-62000000D03*
X259200000Y-80000000D03*
X259200000Y-70000000D03*
X259500000Y-128000000D03*
X264990000Y-107700000D03*
X279000000Y-104000000D03*
X279000000Y-64000000D03*
X259200000Y-98000000D03*
X259200000Y-100000000D03*
X279000000Y-126000000D03*
X279000000Y-120000000D03*
X259200000Y-96000000D03*
X279000000Y-60000000D03*
X259200000Y-78000000D03*
X267030000Y-106000000D03*
D11*
X270500000Y-133550000D03*
D10*
X279000000Y-78000000D03*
D11*
X260000000Y-132350000D03*
D10*
X279000000Y-72000000D03*
X279000000Y-112000000D03*
X259200000Y-86000000D03*
X279000000Y-68000000D03*
X279000000Y-80000000D03*
X259200000Y-60000000D03*
X279000000Y-70000000D03*
X279000000Y-62000000D03*
X279000000Y-98000000D03*
X279000000Y-76000000D03*
X279000000Y-86000000D03*
X259800000Y-113650000D03*
X279000000Y-106000000D03*
X279000000Y-90000000D03*
D11*
X273500000Y-133550000D03*
D10*
X259200000Y-66000000D03*
X259200000Y-82000000D03*
X259800000Y-120850000D03*
X279000000Y-92000000D03*
D11*
X269000000Y-133550000D03*
D10*
X279000000Y-66000000D03*
X279000000Y-100000000D03*
X259200000Y-92000000D03*
X279000000Y-102000000D03*
X279000000Y-84000000D03*
X270450000Y-107700000D03*
X279000000Y-122000000D03*
X279000000Y-118000000D03*
X279000000Y-110000000D03*
X259200000Y-76000000D03*
X279000000Y-96000000D03*
X259500000Y-124000000D03*
X279000000Y-124000000D03*
X259200000Y-104000000D03*
X259200000Y-72000000D03*
X271140000Y-106000000D03*
X275000000Y-58000000D03*
X259200000Y-94000000D03*
X279000000Y-74000000D03*
D11*
X261900000Y-133100000D03*
D10*
X279000000Y-88000000D03*
X279000000Y-94000000D03*
D11*
X272000000Y-133550000D03*
D10*
X263000000Y-58000000D03*
X261000000Y-58000000D03*
X279000000Y-82000000D03*
X259200000Y-74000000D03*
X259800000Y-108150000D03*
X270640000Y-104700000D03*
D11*
X276500000Y-133550000D03*
D10*
X259200000Y-88000000D03*
X265000000Y-58000000D03*
X268390000Y-121700000D03*
X267530000Y-104700000D03*
X279000000Y-114000000D03*
X259200000Y-68000000D03*
X259200000Y-90000000D03*
X259200000Y-58000000D03*
X259500000Y-126000000D03*
X279000000Y-130000000D03*
X259200000Y-102000000D03*
X259200000Y-64000000D03*
X279000000Y-108000000D03*
X277000000Y-58000000D03*
%TO.N,+3V3*%
X275750000Y-132150000D03*
X266300000Y-81800000D03*
X274250000Y-132150000D03*
X266190000Y-121700000D03*
X277500000Y-131500000D03*
X261250000Y-132350000D03*
X278500000Y-131500000D03*
%TO.N,~{CLKREQ}*%
X262890000Y-121700000D03*
%TO.N,~{PERST}*%
X263990000Y-121700000D03*
%TO.N,+1V8*%
X262930000Y-107700000D03*
X272600000Y-81800000D03*
%TO.N,Net-(J2-1V2)*%
X264080000Y-107700000D03*
D11*
%TO.N,PCIe_RX_CARD-*%
X268630000Y-107700000D03*
%TO.N,PCIe_RX-*%
X276206600Y-106100000D03*
%TO.N,PCIe_RX+*%
X275653400Y-106100000D03*
%TO.N,PCIe_RX_CARD+*%
X269540000Y-107700000D03*
%TO.N,PCIe_TX+*%
X266473400Y-133200000D03*
X265900000Y-107700000D03*
%TO.N,PCIe_TX-*%
X266810000Y-107700000D03*
X267026600Y-133200000D03*
%TD*%
%TA.AperFunction,Conductor*%
%TO.N,GND*%
G36*
X267025864Y-57295185D02*
G01*
X267071619Y-57347989D01*
X267078929Y-57368662D01*
X267105416Y-57471822D01*
X267209655Y-57735102D01*
X267209659Y-57735110D01*
X267346078Y-57983256D01*
X267346090Y-57983274D01*
X267512524Y-58212350D01*
X267512532Y-58212360D01*
X267706379Y-58418786D01*
X267924578Y-58599296D01*
X268071711Y-58692669D01*
X268163670Y-58751028D01*
X268419898Y-58871599D01*
X268689217Y-58959107D01*
X268967380Y-59012169D01*
X268967385Y-59012169D01*
X268967390Y-59012170D01*
X269249995Y-59029950D01*
X269250000Y-59029950D01*
X269250005Y-59029950D01*
X269532609Y-59012170D01*
X269532612Y-59012169D01*
X269532620Y-59012169D01*
X269810783Y-58959107D01*
X270080102Y-58871599D01*
X270336330Y-58751028D01*
X270575426Y-58599293D01*
X270793619Y-58418788D01*
X270987469Y-58212359D01*
X271153917Y-57983263D01*
X271290340Y-57735111D01*
X271306504Y-57694287D01*
X271394583Y-57471822D01*
X271394585Y-57471818D01*
X271421071Y-57368661D01*
X271456809Y-57308624D01*
X271519333Y-57277439D01*
X271541175Y-57275500D01*
X279625500Y-57275500D01*
X279692539Y-57295185D01*
X279738294Y-57347989D01*
X279749500Y-57399500D01*
X279749500Y-132153563D01*
X279729815Y-132220602D01*
X279677011Y-132266357D01*
X279647032Y-132275679D01*
X279464082Y-132307937D01*
X279283134Y-132373797D01*
X279283127Y-132373800D01*
X279116369Y-132470078D01*
X279116366Y-132470080D01*
X278968855Y-132593855D01*
X278845080Y-132741366D01*
X278845078Y-132741369D01*
X278748800Y-132908127D01*
X278748797Y-132908134D01*
X278682937Y-133089082D01*
X278649500Y-133278716D01*
X278649500Y-136150500D01*
X278629815Y-136217539D01*
X278577011Y-136263294D01*
X278525500Y-136274500D01*
X264349500Y-136274500D01*
X264282461Y-136254815D01*
X264236706Y-136202011D01*
X264225500Y-136150500D01*
X264225500Y-133773025D01*
X264216466Y-133724698D01*
X264188024Y-133572544D01*
X264114348Y-133382363D01*
X264050176Y-133278721D01*
X264042630Y-133266533D01*
X265797899Y-133266533D01*
X265823858Y-133397030D01*
X265823861Y-133397040D01*
X265874776Y-133519961D01*
X265874786Y-133519979D01*
X265948701Y-133630601D01*
X265948707Y-133630609D01*
X266042790Y-133724692D01*
X266042798Y-133724698D01*
X266153420Y-133798613D01*
X266153423Y-133798614D01*
X266153431Y-133798620D01*
X266153437Y-133798622D01*
X266153438Y-133798623D01*
X266196798Y-133816583D01*
X266276364Y-133849540D01*
X266276368Y-133849540D01*
X266276369Y-133849541D01*
X266406866Y-133875500D01*
X266406869Y-133875500D01*
X266539933Y-133875500D01*
X266627725Y-133858035D01*
X266670436Y-133849540D01*
X266702547Y-133836238D01*
X266772014Y-133828769D01*
X266797448Y-133836237D01*
X266829564Y-133849540D01*
X266829568Y-133849540D01*
X266829569Y-133849541D01*
X266960066Y-133875500D01*
X266960069Y-133875500D01*
X267093133Y-133875500D01*
X267180925Y-133858035D01*
X267223636Y-133849540D01*
X267346569Y-133798620D01*
X267457206Y-133724695D01*
X267551295Y-133630606D01*
X267625220Y-133519969D01*
X267676140Y-133397036D01*
X267693631Y-133309108D01*
X267702100Y-133266533D01*
X267702100Y-133133466D01*
X267676141Y-133002969D01*
X267676140Y-133002968D01*
X267676140Y-133002964D01*
X267625220Y-132880031D01*
X267612028Y-132860288D01*
X267551298Y-132769398D01*
X267551292Y-132769390D01*
X267457209Y-132675307D01*
X267457201Y-132675301D01*
X267346579Y-132601386D01*
X267346572Y-132601382D01*
X267346569Y-132601380D01*
X267346565Y-132601378D01*
X267346561Y-132601376D01*
X267223640Y-132550461D01*
X267223630Y-132550458D01*
X267093133Y-132524500D01*
X267093131Y-132524500D01*
X266960069Y-132524500D01*
X266960067Y-132524500D01*
X266829570Y-132550458D01*
X266829566Y-132550459D01*
X266829564Y-132550460D01*
X266797448Y-132563762D01*
X266727982Y-132571230D01*
X266702556Y-132563764D01*
X266670436Y-132550460D01*
X266670429Y-132550458D01*
X266539933Y-132524500D01*
X266539931Y-132524500D01*
X266406869Y-132524500D01*
X266406867Y-132524500D01*
X266276369Y-132550458D01*
X266276359Y-132550461D01*
X266153438Y-132601376D01*
X266153420Y-132601386D01*
X266042798Y-132675301D01*
X266042790Y-132675307D01*
X265948707Y-132769390D01*
X265948701Y-132769398D01*
X265874786Y-132880020D01*
X265874776Y-132880038D01*
X265823861Y-133002959D01*
X265823858Y-133002969D01*
X265797900Y-133133466D01*
X265797900Y-133133469D01*
X265797900Y-133266531D01*
X265797900Y-133266533D01*
X265797899Y-133266533D01*
X264042630Y-133266533D01*
X264006982Y-133208960D01*
X264006978Y-133208955D01*
X263869581Y-133058237D01*
X263706821Y-132935327D01*
X263524260Y-132844422D01*
X263524247Y-132844417D01*
X263328081Y-132788602D01*
X263328082Y-132788602D01*
X263125001Y-132769785D01*
X263124999Y-132769785D01*
X262921917Y-132788602D01*
X262725752Y-132844417D01*
X262725739Y-132844422D01*
X262543178Y-132935327D01*
X262380418Y-133058237D01*
X262243019Y-133208958D01*
X262243017Y-133208960D01*
X262135655Y-133382357D01*
X262135651Y-133382364D01*
X262061977Y-133572541D01*
X262061976Y-133572544D01*
X262051122Y-133630609D01*
X262024500Y-133773025D01*
X262024500Y-136150500D01*
X262004815Y-136217539D01*
X261952011Y-136263294D01*
X261900500Y-136274500D01*
X259974500Y-136274500D01*
X259907461Y-136254815D01*
X259861706Y-136202011D01*
X259850500Y-136150500D01*
X259850500Y-133278721D01*
X259850499Y-133278716D01*
X259848350Y-133266531D01*
X259817062Y-133089082D01*
X259751202Y-132908132D01*
X259654921Y-132741368D01*
X259620608Y-132700475D01*
X259531144Y-132593855D01*
X259383633Y-132470080D01*
X259383632Y-132470079D01*
X259312207Y-132428842D01*
X259216872Y-132373800D01*
X259216869Y-132373799D01*
X259216868Y-132373798D01*
X259194019Y-132365482D01*
X259035917Y-132307937D01*
X258852968Y-132275679D01*
X258843836Y-132271153D01*
X260449500Y-132271153D01*
X260449500Y-132428846D01*
X260480261Y-132583489D01*
X260480264Y-132583501D01*
X260540602Y-132729172D01*
X260540609Y-132729185D01*
X260628210Y-132860288D01*
X260628213Y-132860292D01*
X260739707Y-132971786D01*
X260739711Y-132971789D01*
X260870814Y-133059390D01*
X260870827Y-133059397D01*
X261016498Y-133119735D01*
X261016503Y-133119737D01*
X261171153Y-133150499D01*
X261171156Y-133150500D01*
X261171158Y-133150500D01*
X261328844Y-133150500D01*
X261328845Y-133150499D01*
X261483497Y-133119737D01*
X261629179Y-133059394D01*
X261760289Y-132971789D01*
X261871789Y-132860289D01*
X261959394Y-132729179D01*
X262019737Y-132583497D01*
X262050500Y-132428842D01*
X262050500Y-132271158D01*
X262050500Y-132271155D01*
X262050499Y-132271153D01*
X262045228Y-132244652D01*
X262019737Y-132116503D01*
X262000955Y-132071158D01*
X262000953Y-132071153D01*
X273449500Y-132071153D01*
X273449500Y-132228846D01*
X273480261Y-132383489D01*
X273480264Y-132383501D01*
X273540602Y-132529172D01*
X273540609Y-132529185D01*
X273628210Y-132660288D01*
X273628213Y-132660292D01*
X273739707Y-132771786D01*
X273739711Y-132771789D01*
X273870814Y-132859390D01*
X273870827Y-132859397D01*
X274016498Y-132919735D01*
X274016503Y-132919737D01*
X274171153Y-132950499D01*
X274171156Y-132950500D01*
X274171158Y-132950500D01*
X274328844Y-132950500D01*
X274328845Y-132950499D01*
X274483497Y-132919737D01*
X274629179Y-132859394D01*
X274760289Y-132771789D01*
X274871789Y-132660289D01*
X274879145Y-132649279D01*
X274896898Y-132622712D01*
X274950510Y-132577906D01*
X275019835Y-132569199D01*
X275082862Y-132599353D01*
X275103102Y-132622712D01*
X275128207Y-132660284D01*
X275128213Y-132660292D01*
X275239707Y-132771786D01*
X275239711Y-132771789D01*
X275370814Y-132859390D01*
X275370827Y-132859397D01*
X275516498Y-132919735D01*
X275516503Y-132919737D01*
X275671153Y-132950499D01*
X275671156Y-132950500D01*
X275671158Y-132950500D01*
X275828844Y-132950500D01*
X275828845Y-132950499D01*
X275983497Y-132919737D01*
X276129179Y-132859394D01*
X276260289Y-132771789D01*
X276371789Y-132660289D01*
X276459394Y-132529179D01*
X276519737Y-132383497D01*
X276550500Y-132228842D01*
X276550500Y-132071158D01*
X276550500Y-132071155D01*
X276550499Y-132071153D01*
X276530543Y-131970827D01*
X276519737Y-131916503D01*
X276519735Y-131916498D01*
X276459397Y-131770827D01*
X276459390Y-131770814D01*
X276371789Y-131639711D01*
X276371786Y-131639707D01*
X276260289Y-131528210D01*
X276245259Y-131518168D01*
X276129185Y-131440609D01*
X276129172Y-131440602D01*
X276082217Y-131421153D01*
X276699500Y-131421153D01*
X276699500Y-131578846D01*
X276730261Y-131733489D01*
X276730264Y-131733501D01*
X276790602Y-131879172D01*
X276790609Y-131879185D01*
X276878210Y-132010288D01*
X276878213Y-132010292D01*
X276989707Y-132121786D01*
X276989711Y-132121789D01*
X277120814Y-132209390D01*
X277120827Y-132209397D01*
X277258343Y-132266357D01*
X277266503Y-132269737D01*
X277421153Y-132300499D01*
X277421156Y-132300500D01*
X277421158Y-132300500D01*
X277578844Y-132300500D01*
X277578845Y-132300499D01*
X277733497Y-132269737D01*
X277879179Y-132209394D01*
X277931110Y-132174694D01*
X277997785Y-132153816D01*
X278065165Y-132172300D01*
X278068863Y-132174676D01*
X278120821Y-132209394D01*
X278120823Y-132209395D01*
X278120825Y-132209396D01*
X278205942Y-132244652D01*
X278266503Y-132269737D01*
X278421153Y-132300499D01*
X278421156Y-132300500D01*
X278421158Y-132300500D01*
X278578844Y-132300500D01*
X278578845Y-132300499D01*
X278733497Y-132269737D01*
X278879179Y-132209394D01*
X279010289Y-132121789D01*
X279121789Y-132010289D01*
X279209394Y-131879179D01*
X279269737Y-131733497D01*
X279300500Y-131578842D01*
X279300500Y-131421158D01*
X279300500Y-131421155D01*
X279300499Y-131421153D01*
X279269738Y-131266510D01*
X279269737Y-131266503D01*
X279269735Y-131266498D01*
X279209397Y-131120827D01*
X279209390Y-131120814D01*
X279121789Y-130989711D01*
X279121786Y-130989707D01*
X279010292Y-130878213D01*
X279010288Y-130878210D01*
X278879185Y-130790609D01*
X278879172Y-130790602D01*
X278733501Y-130730264D01*
X278733489Y-130730261D01*
X278578845Y-130699500D01*
X278578842Y-130699500D01*
X278421158Y-130699500D01*
X278421155Y-130699500D01*
X278266510Y-130730261D01*
X278266498Y-130730264D01*
X278120827Y-130790602D01*
X278120814Y-130790609D01*
X278068891Y-130825304D01*
X278002214Y-130846182D01*
X277934833Y-130827698D01*
X277931109Y-130825304D01*
X277879185Y-130790609D01*
X277879172Y-130790602D01*
X277733501Y-130730264D01*
X277733489Y-130730261D01*
X277578845Y-130699500D01*
X277578842Y-130699500D01*
X277421158Y-130699500D01*
X277421155Y-130699500D01*
X277266510Y-130730261D01*
X277266498Y-130730264D01*
X277120827Y-130790602D01*
X277120814Y-130790609D01*
X276989711Y-130878210D01*
X276989707Y-130878213D01*
X276878213Y-130989707D01*
X276878210Y-130989711D01*
X276790609Y-131120814D01*
X276790602Y-131120827D01*
X276730264Y-131266498D01*
X276730261Y-131266510D01*
X276699500Y-131421153D01*
X276082217Y-131421153D01*
X275983501Y-131380264D01*
X275983489Y-131380261D01*
X275828845Y-131349500D01*
X275828842Y-131349500D01*
X275671158Y-131349500D01*
X275671155Y-131349500D01*
X275516510Y-131380261D01*
X275516498Y-131380264D01*
X275370827Y-131440602D01*
X275370814Y-131440609D01*
X275239711Y-131528210D01*
X275239707Y-131528213D01*
X275128213Y-131639707D01*
X275103102Y-131677289D01*
X275049489Y-131722093D01*
X274980164Y-131730800D01*
X274917137Y-131700645D01*
X274896898Y-131677289D01*
X274871786Y-131639707D01*
X274760292Y-131528213D01*
X274760288Y-131528210D01*
X274629185Y-131440609D01*
X274629172Y-131440602D01*
X274483501Y-131380264D01*
X274483489Y-131380261D01*
X274328845Y-131349500D01*
X274328842Y-131349500D01*
X274171158Y-131349500D01*
X274171155Y-131349500D01*
X274016510Y-131380261D01*
X274016498Y-131380264D01*
X273870827Y-131440602D01*
X273870814Y-131440609D01*
X273739711Y-131528210D01*
X273739707Y-131528213D01*
X273628213Y-131639707D01*
X273628210Y-131639711D01*
X273540609Y-131770814D01*
X273540602Y-131770827D01*
X273480264Y-131916498D01*
X273480261Y-131916510D01*
X273449500Y-132071153D01*
X262000953Y-132071153D01*
X261959397Y-131970827D01*
X261959390Y-131970814D01*
X261871789Y-131839711D01*
X261871786Y-131839707D01*
X261760292Y-131728213D01*
X261760288Y-131728210D01*
X261629185Y-131640609D01*
X261629172Y-131640602D01*
X261483501Y-131580264D01*
X261483489Y-131580261D01*
X261328845Y-131549500D01*
X261328842Y-131549500D01*
X261171158Y-131549500D01*
X261171155Y-131549500D01*
X261016510Y-131580261D01*
X261016498Y-131580264D01*
X260870827Y-131640602D01*
X260870814Y-131640609D01*
X260739711Y-131728210D01*
X260739707Y-131728213D01*
X260628213Y-131839707D01*
X260628210Y-131839711D01*
X260540609Y-131970814D01*
X260540602Y-131970827D01*
X260480264Y-132116498D01*
X260480261Y-132116510D01*
X260449500Y-132271153D01*
X258843836Y-132271153D01*
X258790365Y-132244652D01*
X258754474Y-132184705D01*
X258750500Y-132153563D01*
X258750500Y-121621153D01*
X262089500Y-121621153D01*
X262089500Y-121778846D01*
X262120261Y-121933489D01*
X262120264Y-121933501D01*
X262180602Y-122079172D01*
X262180609Y-122079185D01*
X262268210Y-122210288D01*
X262268213Y-122210292D01*
X262379707Y-122321786D01*
X262379711Y-122321789D01*
X262510814Y-122409390D01*
X262510827Y-122409397D01*
X262656498Y-122469735D01*
X262656503Y-122469737D01*
X262811153Y-122500499D01*
X262811156Y-122500500D01*
X262811158Y-122500500D01*
X262968844Y-122500500D01*
X262968845Y-122500499D01*
X263123497Y-122469737D01*
X263269179Y-122409394D01*
X263371111Y-122341284D01*
X263437786Y-122320408D01*
X263505166Y-122338892D01*
X263508847Y-122341257D01*
X263610821Y-122409394D01*
X263610823Y-122409395D01*
X263610827Y-122409397D01*
X263756498Y-122469735D01*
X263756503Y-122469737D01*
X263911153Y-122500499D01*
X263911156Y-122500500D01*
X263911158Y-122500500D01*
X264068844Y-122500500D01*
X264068845Y-122500499D01*
X264223497Y-122469737D01*
X264369179Y-122409394D01*
X264500289Y-122321789D01*
X264611789Y-122210289D01*
X264699394Y-122079179D01*
X264759737Y-121933497D01*
X264790500Y-121778842D01*
X264790500Y-121621158D01*
X264790500Y-121621155D01*
X264790499Y-121621153D01*
X265389500Y-121621153D01*
X265389500Y-121778846D01*
X265420261Y-121933489D01*
X265420264Y-121933501D01*
X265480602Y-122079172D01*
X265480609Y-122079185D01*
X265568210Y-122210288D01*
X265568213Y-122210292D01*
X265679707Y-122321786D01*
X265679711Y-122321789D01*
X265810814Y-122409390D01*
X265810827Y-122409397D01*
X265956498Y-122469735D01*
X265956503Y-122469737D01*
X266111153Y-122500499D01*
X266111156Y-122500500D01*
X266111158Y-122500500D01*
X266268844Y-122500500D01*
X266268845Y-122500499D01*
X266423497Y-122469737D01*
X266569179Y-122409394D01*
X266700289Y-122321789D01*
X266811789Y-122210289D01*
X266899394Y-122079179D01*
X266959737Y-121933497D01*
X266990500Y-121778842D01*
X266990500Y-121621158D01*
X266990500Y-121621155D01*
X266990499Y-121621153D01*
X266959738Y-121466510D01*
X266959737Y-121466503D01*
X266959735Y-121466498D01*
X266899397Y-121320827D01*
X266899390Y-121320814D01*
X266811789Y-121189711D01*
X266811786Y-121189707D01*
X266700292Y-121078213D01*
X266700288Y-121078210D01*
X266569185Y-120990609D01*
X266569172Y-120990602D01*
X266423501Y-120930264D01*
X266423489Y-120930261D01*
X266268845Y-120899500D01*
X266268842Y-120899500D01*
X266111158Y-120899500D01*
X266111155Y-120899500D01*
X265956510Y-120930261D01*
X265956498Y-120930264D01*
X265810827Y-120990602D01*
X265810814Y-120990609D01*
X265679711Y-121078210D01*
X265679707Y-121078213D01*
X265568213Y-121189707D01*
X265568210Y-121189711D01*
X265480609Y-121320814D01*
X265480602Y-121320827D01*
X265420264Y-121466498D01*
X265420261Y-121466510D01*
X265389500Y-121621153D01*
X264790499Y-121621153D01*
X264759738Y-121466510D01*
X264759737Y-121466503D01*
X264759735Y-121466498D01*
X264699397Y-121320827D01*
X264699390Y-121320814D01*
X264611789Y-121189711D01*
X264611786Y-121189707D01*
X264500292Y-121078213D01*
X264500288Y-121078210D01*
X264369185Y-120990609D01*
X264369172Y-120990602D01*
X264223501Y-120930264D01*
X264223489Y-120930261D01*
X264068845Y-120899500D01*
X264068842Y-120899500D01*
X263911158Y-120899500D01*
X263911155Y-120899500D01*
X263756510Y-120930261D01*
X263756498Y-120930264D01*
X263610827Y-120990602D01*
X263610814Y-120990609D01*
X263508891Y-121058713D01*
X263442213Y-121079591D01*
X263374833Y-121061107D01*
X263371109Y-121058713D01*
X263269185Y-120990609D01*
X263269172Y-120990602D01*
X263123501Y-120930264D01*
X263123489Y-120930261D01*
X262968845Y-120899500D01*
X262968842Y-120899500D01*
X262811158Y-120899500D01*
X262811155Y-120899500D01*
X262656510Y-120930261D01*
X262656498Y-120930264D01*
X262510827Y-120990602D01*
X262510814Y-120990609D01*
X262379711Y-121078210D01*
X262379707Y-121078213D01*
X262268213Y-121189707D01*
X262268210Y-121189711D01*
X262180609Y-121320814D01*
X262180602Y-121320827D01*
X262120264Y-121466498D01*
X262120261Y-121466510D01*
X262089500Y-121621153D01*
X258750500Y-121621153D01*
X258750500Y-107621153D01*
X262129500Y-107621153D01*
X262129500Y-107778846D01*
X262160261Y-107933489D01*
X262160264Y-107933501D01*
X262220602Y-108079172D01*
X262220609Y-108079185D01*
X262308210Y-108210288D01*
X262308213Y-108210292D01*
X262419707Y-108321786D01*
X262419711Y-108321789D01*
X262550814Y-108409390D01*
X262550827Y-108409397D01*
X262696498Y-108469735D01*
X262696503Y-108469737D01*
X262851153Y-108500499D01*
X262851156Y-108500500D01*
X262851158Y-108500500D01*
X263008844Y-108500500D01*
X263008845Y-108500499D01*
X263163497Y-108469737D01*
X263309179Y-108409394D01*
X263436109Y-108324582D01*
X263502786Y-108303704D01*
X263570166Y-108322188D01*
X263573891Y-108324582D01*
X263700814Y-108409390D01*
X263700827Y-108409397D01*
X263846498Y-108469735D01*
X263846503Y-108469737D01*
X264001153Y-108500499D01*
X264001156Y-108500500D01*
X264001158Y-108500500D01*
X264158844Y-108500500D01*
X264158845Y-108500499D01*
X264313497Y-108469737D01*
X264459179Y-108409394D01*
X264590289Y-108321789D01*
X264701789Y-108210289D01*
X264789394Y-108079179D01*
X264849737Y-107933497D01*
X264880500Y-107778842D01*
X264880500Y-107766533D01*
X265224499Y-107766533D01*
X265250458Y-107897030D01*
X265250461Y-107897040D01*
X265301376Y-108019961D01*
X265301386Y-108019979D01*
X265375301Y-108130601D01*
X265375307Y-108130609D01*
X265469390Y-108224692D01*
X265469398Y-108224698D01*
X265580020Y-108298613D01*
X265580023Y-108298614D01*
X265580031Y-108298620D01*
X265702964Y-108349540D01*
X265702968Y-108349540D01*
X265702969Y-108349541D01*
X265833466Y-108375500D01*
X265833469Y-108375500D01*
X265966533Y-108375500D01*
X266054325Y-108358035D01*
X266097036Y-108349540D01*
X266219969Y-108298620D01*
X266238213Y-108286429D01*
X266286110Y-108254427D01*
X266352787Y-108233549D01*
X266420167Y-108252034D01*
X266423890Y-108254427D01*
X266490020Y-108298613D01*
X266490023Y-108298614D01*
X266490031Y-108298620D01*
X266612964Y-108349540D01*
X266612968Y-108349540D01*
X266612969Y-108349541D01*
X266743466Y-108375500D01*
X266743469Y-108375500D01*
X266876533Y-108375500D01*
X266964325Y-108358035D01*
X267007036Y-108349540D01*
X267129969Y-108298620D01*
X267240606Y-108224695D01*
X267334695Y-108130606D01*
X267408620Y-108019969D01*
X267459540Y-107897036D01*
X267468035Y-107854325D01*
X267485500Y-107766533D01*
X267954499Y-107766533D01*
X267980458Y-107897030D01*
X267980461Y-107897040D01*
X268031376Y-108019961D01*
X268031386Y-108019979D01*
X268105301Y-108130601D01*
X268105307Y-108130609D01*
X268199390Y-108224692D01*
X268199398Y-108224698D01*
X268310020Y-108298613D01*
X268310023Y-108298614D01*
X268310031Y-108298620D01*
X268432964Y-108349540D01*
X268432968Y-108349540D01*
X268432969Y-108349541D01*
X268563466Y-108375500D01*
X268563469Y-108375500D01*
X268696533Y-108375500D01*
X268784325Y-108358035D01*
X268827036Y-108349540D01*
X268949969Y-108298620D01*
X268968213Y-108286429D01*
X269016110Y-108254427D01*
X269082787Y-108233549D01*
X269150167Y-108252034D01*
X269153890Y-108254427D01*
X269220020Y-108298613D01*
X269220023Y-108298614D01*
X269220031Y-108298620D01*
X269342964Y-108349540D01*
X269342968Y-108349540D01*
X269342969Y-108349541D01*
X269473466Y-108375500D01*
X269473469Y-108375500D01*
X269606533Y-108375500D01*
X269694325Y-108358035D01*
X269737036Y-108349540D01*
X269859969Y-108298620D01*
X269970606Y-108224695D01*
X270064695Y-108130606D01*
X270138620Y-108019969D01*
X270189540Y-107897036D01*
X270198035Y-107854325D01*
X270215500Y-107766533D01*
X270215500Y-107633466D01*
X270189541Y-107502969D01*
X270189540Y-107502968D01*
X270189540Y-107502964D01*
X270174438Y-107466503D01*
X270138623Y-107380038D01*
X270138622Y-107380037D01*
X270138620Y-107380031D01*
X270099061Y-107320827D01*
X270064698Y-107269398D01*
X270064692Y-107269390D01*
X269970609Y-107175307D01*
X269970601Y-107175301D01*
X269859979Y-107101386D01*
X269859972Y-107101382D01*
X269859969Y-107101380D01*
X269859965Y-107101378D01*
X269859961Y-107101376D01*
X269737040Y-107050461D01*
X269737030Y-107050458D01*
X269712691Y-107045617D01*
X269650780Y-107013232D01*
X269616206Y-106952516D01*
X269619947Y-106882746D01*
X269660813Y-106826075D01*
X269725831Y-106800493D01*
X269736883Y-106800000D01*
X269990000Y-106800000D01*
X269990000Y-106166533D01*
X274977899Y-106166533D01*
X275003858Y-106297030D01*
X275003861Y-106297040D01*
X275054776Y-106419961D01*
X275054786Y-106419979D01*
X275128701Y-106530601D01*
X275128707Y-106530609D01*
X275222790Y-106624692D01*
X275222798Y-106624698D01*
X275333420Y-106698613D01*
X275333423Y-106698614D01*
X275333431Y-106698620D01*
X275456364Y-106749540D01*
X275456368Y-106749540D01*
X275456369Y-106749541D01*
X275586866Y-106775500D01*
X275586869Y-106775500D01*
X275719933Y-106775500D01*
X275807725Y-106758035D01*
X275850436Y-106749540D01*
X275882547Y-106736238D01*
X275952014Y-106728769D01*
X275977448Y-106736237D01*
X276009564Y-106749540D01*
X276009568Y-106749540D01*
X276009569Y-106749541D01*
X276140066Y-106775500D01*
X276140069Y-106775500D01*
X276273133Y-106775500D01*
X276360925Y-106758035D01*
X276403636Y-106749540D01*
X276526569Y-106698620D01*
X276637206Y-106624695D01*
X276731295Y-106530606D01*
X276805220Y-106419969D01*
X276856140Y-106297036D01*
X276882100Y-106166531D01*
X276882100Y-106033469D01*
X276882100Y-106033466D01*
X276856141Y-105902969D01*
X276856140Y-105902968D01*
X276856140Y-105902964D01*
X276805220Y-105780031D01*
X276731295Y-105669394D01*
X276731292Y-105669390D01*
X276637209Y-105575307D01*
X276637201Y-105575301D01*
X276526579Y-105501386D01*
X276526572Y-105501382D01*
X276526569Y-105501380D01*
X276526565Y-105501378D01*
X276526561Y-105501376D01*
X276403640Y-105450461D01*
X276403630Y-105450458D01*
X276273133Y-105424500D01*
X276273131Y-105424500D01*
X276140069Y-105424500D01*
X276140067Y-105424500D01*
X276009570Y-105450458D01*
X276009566Y-105450459D01*
X276009564Y-105450460D01*
X275977448Y-105463762D01*
X275907982Y-105471230D01*
X275882556Y-105463764D01*
X275850436Y-105450460D01*
X275850429Y-105450458D01*
X275719933Y-105424500D01*
X275719931Y-105424500D01*
X275586869Y-105424500D01*
X275586867Y-105424500D01*
X275456369Y-105450458D01*
X275456359Y-105450461D01*
X275333438Y-105501376D01*
X275333420Y-105501386D01*
X275222798Y-105575301D01*
X275222790Y-105575307D01*
X275128707Y-105669390D01*
X275128701Y-105669398D01*
X275054786Y-105780020D01*
X275054776Y-105780038D01*
X275003861Y-105902959D01*
X275003858Y-105902969D01*
X274977900Y-106033466D01*
X274977900Y-106033469D01*
X274977900Y-106166531D01*
X274977900Y-106166533D01*
X274977899Y-106166533D01*
X269990000Y-106166533D01*
X269990000Y-105200000D01*
X269300000Y-105200000D01*
X269300000Y-106800000D01*
X269343117Y-106800000D01*
X269410156Y-106819685D01*
X269455911Y-106872489D01*
X269465855Y-106941647D01*
X269436830Y-107005203D01*
X269378052Y-107042977D01*
X269367309Y-107045617D01*
X269342969Y-107050458D01*
X269342959Y-107050461D01*
X269220038Y-107101376D01*
X269220022Y-107101385D01*
X269153889Y-107145573D01*
X269087212Y-107166450D01*
X269019832Y-107147965D01*
X269016111Y-107145573D01*
X268949977Y-107101385D01*
X268949973Y-107101383D01*
X268949969Y-107101380D01*
X268949965Y-107101378D01*
X268949961Y-107101376D01*
X268827040Y-107050461D01*
X268827030Y-107050458D01*
X268802691Y-107045617D01*
X268740780Y-107013232D01*
X268706206Y-106952516D01*
X268709947Y-106882746D01*
X268750813Y-106826075D01*
X268815831Y-106800493D01*
X268826883Y-106800000D01*
X268870000Y-106800000D01*
X268870000Y-105200000D01*
X268190000Y-105200000D01*
X268190000Y-106800000D01*
X268433117Y-106800000D01*
X268500156Y-106819685D01*
X268545911Y-106872489D01*
X268555855Y-106941647D01*
X268526830Y-107005203D01*
X268468052Y-107042977D01*
X268457309Y-107045617D01*
X268432969Y-107050458D01*
X268432959Y-107050461D01*
X268310038Y-107101376D01*
X268310020Y-107101386D01*
X268199398Y-107175301D01*
X268199390Y-107175307D01*
X268105307Y-107269390D01*
X268105301Y-107269398D01*
X268031386Y-107380020D01*
X268031376Y-107380038D01*
X267980461Y-107502959D01*
X267980458Y-107502969D01*
X267954500Y-107633466D01*
X267954500Y-107633469D01*
X267954500Y-107766531D01*
X267954500Y-107766533D01*
X267954499Y-107766533D01*
X267485500Y-107766533D01*
X267485500Y-107633466D01*
X267459541Y-107502969D01*
X267459540Y-107502968D01*
X267459540Y-107502964D01*
X267444438Y-107466503D01*
X267408623Y-107380038D01*
X267408622Y-107380037D01*
X267408620Y-107380031D01*
X267369061Y-107320827D01*
X267334698Y-107269398D01*
X267334692Y-107269390D01*
X267240609Y-107175307D01*
X267240601Y-107175301D01*
X267129979Y-107101386D01*
X267129972Y-107101382D01*
X267129969Y-107101380D01*
X267129965Y-107101378D01*
X267129961Y-107101376D01*
X267007040Y-107050461D01*
X267007030Y-107050458D01*
X266876533Y-107024500D01*
X266876531Y-107024500D01*
X266743469Y-107024500D01*
X266743467Y-107024500D01*
X266612969Y-107050458D01*
X266612959Y-107050461D01*
X266490038Y-107101376D01*
X266490022Y-107101385D01*
X266423889Y-107145573D01*
X266357212Y-107166450D01*
X266289832Y-107147965D01*
X266286111Y-107145573D01*
X266219977Y-107101385D01*
X266219973Y-107101383D01*
X266219969Y-107101380D01*
X266219965Y-107101378D01*
X266219961Y-107101376D01*
X266097040Y-107050461D01*
X266097030Y-107050458D01*
X265966533Y-107024500D01*
X265966531Y-107024500D01*
X265833469Y-107024500D01*
X265833467Y-107024500D01*
X265702969Y-107050458D01*
X265702959Y-107050461D01*
X265580038Y-107101376D01*
X265580020Y-107101386D01*
X265469398Y-107175301D01*
X265469390Y-107175307D01*
X265375307Y-107269390D01*
X265375301Y-107269398D01*
X265301386Y-107380020D01*
X265301376Y-107380038D01*
X265250461Y-107502959D01*
X265250458Y-107502969D01*
X265224500Y-107633466D01*
X265224500Y-107633469D01*
X265224500Y-107766531D01*
X265224500Y-107766533D01*
X265224499Y-107766533D01*
X264880500Y-107766533D01*
X264880500Y-107621158D01*
X264880500Y-107621155D01*
X264880499Y-107621153D01*
X264849737Y-107466503D01*
X264849735Y-107466498D01*
X264789397Y-107320827D01*
X264789390Y-107320814D01*
X264701789Y-107189711D01*
X264701786Y-107189707D01*
X264590292Y-107078213D01*
X264590288Y-107078210D01*
X264459185Y-106990609D01*
X264459172Y-106990602D01*
X264313501Y-106930264D01*
X264313489Y-106930261D01*
X264158845Y-106899500D01*
X264158842Y-106899500D01*
X264001158Y-106899500D01*
X264001155Y-106899500D01*
X263846510Y-106930261D01*
X263846498Y-106930264D01*
X263700827Y-106990602D01*
X263700814Y-106990609D01*
X263573891Y-107075417D01*
X263507213Y-107096295D01*
X263439833Y-107077810D01*
X263436109Y-107075417D01*
X263309185Y-106990609D01*
X263309172Y-106990602D01*
X263163501Y-106930264D01*
X263163489Y-106930261D01*
X263008845Y-106899500D01*
X263008842Y-106899500D01*
X262851158Y-106899500D01*
X262851155Y-106899500D01*
X262696510Y-106930261D01*
X262696498Y-106930264D01*
X262550827Y-106990602D01*
X262550814Y-106990609D01*
X262419711Y-107078210D01*
X262419707Y-107078213D01*
X262308213Y-107189707D01*
X262308210Y-107189711D01*
X262220609Y-107320814D01*
X262220602Y-107320827D01*
X262160264Y-107466498D01*
X262160261Y-107466510D01*
X262129500Y-107621153D01*
X258750500Y-107621153D01*
X258750500Y-81721153D01*
X265499500Y-81721153D01*
X265499500Y-81878846D01*
X265530261Y-82033489D01*
X265530264Y-82033501D01*
X265590602Y-82179172D01*
X265590609Y-82179185D01*
X265678210Y-82310288D01*
X265678213Y-82310292D01*
X265789707Y-82421786D01*
X265789711Y-82421789D01*
X265920814Y-82509390D01*
X265920827Y-82509397D01*
X266066498Y-82569735D01*
X266066503Y-82569737D01*
X266221153Y-82600499D01*
X266221156Y-82600500D01*
X266221158Y-82600500D01*
X266378844Y-82600500D01*
X266378845Y-82600499D01*
X266533497Y-82569737D01*
X266679179Y-82509394D01*
X266810289Y-82421789D01*
X266921789Y-82310289D01*
X267009394Y-82179179D01*
X267069737Y-82033497D01*
X267100500Y-81878842D01*
X267100500Y-81721158D01*
X267100500Y-81721155D01*
X267100499Y-81721153D01*
X271799500Y-81721153D01*
X271799500Y-81878846D01*
X271830261Y-82033489D01*
X271830264Y-82033501D01*
X271890602Y-82179172D01*
X271890609Y-82179185D01*
X271978210Y-82310288D01*
X271978213Y-82310292D01*
X272089707Y-82421786D01*
X272089711Y-82421789D01*
X272220814Y-82509390D01*
X272220827Y-82509397D01*
X272366498Y-82569735D01*
X272366503Y-82569737D01*
X272521153Y-82600499D01*
X272521156Y-82600500D01*
X272521158Y-82600500D01*
X272678844Y-82600500D01*
X272678845Y-82600499D01*
X272833497Y-82569737D01*
X272979179Y-82509394D01*
X273110289Y-82421789D01*
X273221789Y-82310289D01*
X273309394Y-82179179D01*
X273369737Y-82033497D01*
X273400500Y-81878842D01*
X273400500Y-81721158D01*
X273400500Y-81721155D01*
X273400499Y-81721153D01*
X273369738Y-81566510D01*
X273369737Y-81566503D01*
X273369735Y-81566498D01*
X273309397Y-81420827D01*
X273309390Y-81420814D01*
X273221789Y-81289711D01*
X273221786Y-81289707D01*
X273110292Y-81178213D01*
X273110288Y-81178210D01*
X272979185Y-81090609D01*
X272979172Y-81090602D01*
X272833501Y-81030264D01*
X272833489Y-81030261D01*
X272678845Y-80999500D01*
X272678842Y-80999500D01*
X272521158Y-80999500D01*
X272521155Y-80999500D01*
X272366510Y-81030261D01*
X272366498Y-81030264D01*
X272220827Y-81090602D01*
X272220814Y-81090609D01*
X272089711Y-81178210D01*
X272089707Y-81178213D01*
X271978213Y-81289707D01*
X271978210Y-81289711D01*
X271890609Y-81420814D01*
X271890602Y-81420827D01*
X271830264Y-81566498D01*
X271830261Y-81566510D01*
X271799500Y-81721153D01*
X267100499Y-81721153D01*
X267069738Y-81566510D01*
X267069737Y-81566503D01*
X267069735Y-81566498D01*
X267009397Y-81420827D01*
X267009390Y-81420814D01*
X266921789Y-81289711D01*
X266921786Y-81289707D01*
X266810292Y-81178213D01*
X266810288Y-81178210D01*
X266679185Y-81090609D01*
X266679172Y-81090602D01*
X266533501Y-81030264D01*
X266533489Y-81030261D01*
X266378845Y-80999500D01*
X266378842Y-80999500D01*
X266221158Y-80999500D01*
X266221155Y-80999500D01*
X266066510Y-81030261D01*
X266066498Y-81030264D01*
X265920827Y-81090602D01*
X265920814Y-81090609D01*
X265789711Y-81178210D01*
X265789707Y-81178213D01*
X265678213Y-81289707D01*
X265678210Y-81289711D01*
X265590609Y-81420814D01*
X265590602Y-81420827D01*
X265530264Y-81566498D01*
X265530261Y-81566510D01*
X265499500Y-81721153D01*
X258750500Y-81721153D01*
X258750500Y-57399500D01*
X258770185Y-57332461D01*
X258822989Y-57286706D01*
X258874500Y-57275500D01*
X266958825Y-57275500D01*
X267025864Y-57295185D01*
G37*
%TD.AperFunction*%
%TD*%
M02*
