%TF.GenerationSoftware,KiCad,Pcbnew,9.0.1*%
%TF.CreationDate,2025-04-25T13:26:33+02:00*%
%TF.ProjectId,m2-e-usdex,6d322d65-2d75-4736-9465-782e6b696361,rev?*%
%TF.SameCoordinates,Original*%
%TF.FileFunction,Copper,L1,Top*%
%TF.FilePolarity,Positive*%
%FSLAX46Y46*%
G04 Gerber Fmt 4.6, Leading zero omitted, Abs format (unit mm)*
G04 Created by KiCad (PCBNEW 9.0.1) date 2025-04-25 13:26:33*
%MOMM*%
%LPD*%
G01*
G04 APERTURE LIST*
G04 Aperture macros list*
%AMRoundRect*
0 Rectangle with rounded corners*
0 $1 Rounding radius*
0 $2 $3 $4 $5 $6 $7 $8 $9 X,Y pos of 4 corners*
0 Add a 4 corners polygon primitive as box body*
4,1,4,$2,$3,$4,$5,$6,$7,$8,$9,$2,$3,0*
0 Add four circle primitives for the rounded corners*
1,1,$1+$1,$2,$3*
1,1,$1+$1,$4,$5*
1,1,$1+$1,$6,$7*
1,1,$1+$1,$8,$9*
0 Add four rect primitives between the rounded corners*
20,1,$1+$1,$2,$3,$4,$5,0*
20,1,$1+$1,$4,$5,$6,$7,0*
20,1,$1+$1,$6,$7,$8,$9,0*
20,1,$1+$1,$8,$9,$2,$3,0*%
G04 Aperture macros list end*
%TA.AperFunction,SMDPad,CuDef*%
%ADD10RoundRect,0.250000X-0.250000X-0.475000X0.250000X-0.475000X0.250000X0.475000X-0.250000X0.475000X0*%
%TD*%
%TA.AperFunction,SMDPad,CuDef*%
%ADD11RoundRect,0.135000X-0.185000X0.135000X-0.185000X-0.135000X0.185000X-0.135000X0.185000X0.135000X0*%
%TD*%
%TA.AperFunction,SMDPad,CuDef*%
%ADD12RoundRect,0.375000X-0.625000X-0.375000X0.625000X-0.375000X0.625000X0.375000X-0.625000X0.375000X0*%
%TD*%
%TA.AperFunction,SMDPad,CuDef*%
%ADD13RoundRect,0.500000X-0.500000X-1.400000X0.500000X-1.400000X0.500000X1.400000X-0.500000X1.400000X0*%
%TD*%
%TA.AperFunction,ConnectorPad*%
%ADD14R,0.350000X1.450000*%
%TD*%
%TA.AperFunction,ConnectorPad*%
%ADD15C,5.000000*%
%TD*%
%TA.AperFunction,SMDPad,CuDef*%
%ADD16RoundRect,0.250000X0.250000X0.475000X-0.250000X0.475000X-0.250000X-0.475000X0.250000X-0.475000X0*%
%TD*%
%TA.AperFunction,SMDPad,CuDef*%
%ADD17R,0.700000X1.200000*%
%TD*%
%TA.AperFunction,SMDPad,CuDef*%
%ADD18R,1.100000X2.100000*%
%TD*%
%TA.AperFunction,ViaPad*%
%ADD19C,0.600000*%
%TD*%
%TA.AperFunction,ViaPad*%
%ADD20C,0.350000*%
%TD*%
%TA.AperFunction,Conductor*%
%ADD21C,0.350000*%
%TD*%
%TA.AperFunction,Conductor*%
%ADD22C,0.250000*%
%TD*%
%TA.AperFunction,Conductor*%
%ADD23C,0.200000*%
%TD*%
%TA.AperFunction,Conductor*%
%ADD24C,0.205232*%
%TD*%
G04 APERTURE END LIST*
D10*
%TO.P,C2,1*%
%TO.N,+1V8*%
X275300000Y-76950000D03*
%TO.P,C2,2*%
%TO.N,GND*%
X277200000Y-76950000D03*
%TD*%
D11*
%TO.P,R1,1*%
%TO.N,GND*%
X260500000Y-130130000D03*
%TO.P,R1,2*%
%TO.N,Net-(J1-VIO_CFG{slash}GND)*%
X260500000Y-131150000D03*
%TD*%
D12*
%TO.P,U1,1,GND*%
%TO.N,GND*%
X266300000Y-74850000D03*
%TO.P,U1,2,VO*%
%TO.N,+1V8*%
X266300000Y-77150000D03*
D13*
X272600000Y-77150000D03*
D12*
%TO.P,U1,3,VI*%
%TO.N,+3V3*%
X266300000Y-79450000D03*
%TD*%
D14*
%TO.P,J1,1,GND*%
%TO.N,GND*%
X278500000Y-135500000D03*
%TO.P,J1,3,GND*%
X278000000Y-135500000D03*
%TO.P,J1,5,PETn3*%
%TO.N,unconnected-(J1-PETn3-Pad5)*%
X277500000Y-135500000D03*
%TO.P,J1,7,PETp3*%
%TO.N,unconnected-(J1-PETp3-Pad7)*%
X277000000Y-135500000D03*
%TO.P,J1,9,GND*%
%TO.N,GND*%
X276500000Y-135500000D03*
%TO.P,J1,11,PERn3*%
%TO.N,unconnected-(J1-PERn3-Pad11)*%
X276000000Y-135500000D03*
%TO.P,J1,13,PERp3*%
%TO.N,unconnected-(J1-PERp3-Pad13)*%
X275500000Y-135500000D03*
%TO.P,J1,15,GND*%
%TO.N,GND*%
X275000000Y-135500000D03*
%TO.P,J1,17,PETn2*%
%TO.N,unconnected-(J1-PETn2-Pad17)*%
X274500000Y-135500000D03*
%TO.P,J1,19,PETp2*%
%TO.N,unconnected-(J1-PETp2-Pad19)*%
X274000000Y-135500000D03*
%TO.P,J1,21,GND*%
%TO.N,GND*%
X273500000Y-135500000D03*
%TO.P,J1,23,PERn2*%
%TO.N,unconnected-(J1-PERn2-Pad23)*%
X273000000Y-135500000D03*
%TO.P,J1,25,PERp2*%
%TO.N,unconnected-(J1-PERp2-Pad25)*%
X272500000Y-135500000D03*
%TO.P,J1,27,GND*%
%TO.N,GND*%
X272000000Y-135500000D03*
%TO.P,J1,29,PETn1*%
%TO.N,unconnected-(J1-PETn1-Pad29)*%
X271500000Y-135500000D03*
%TO.P,J1,31,PETp1*%
%TO.N,unconnected-(J1-PETp1-Pad31)*%
X271000000Y-135500000D03*
%TO.P,J1,33,GND*%
%TO.N,GND*%
X270500000Y-135500000D03*
%TO.P,J1,35,PERn1*%
%TO.N,unconnected-(J1-PERn1-Pad35)*%
X270000000Y-135500000D03*
%TO.P,J1,37,PERp1*%
%TO.N,unconnected-(J1-PERp1-Pad37)*%
X269500000Y-135500000D03*
%TO.P,J1,39,GND*%
%TO.N,GND*%
X269000000Y-135500000D03*
%TO.P,J1,41,PETn0/SATA-B+*%
%TO.N,PCIe_RX-*%
X268500000Y-135500000D03*
%TO.P,J1,43,PETp0/SATA-B-*%
%TO.N,PCIe_RX+*%
X268000000Y-135500000D03*
%TO.P,J1,45,GND*%
%TO.N,GND*%
X267500000Y-135500000D03*
%TO.P,J1,47,PERn0/SATA-A-*%
%TO.N,PCIe_TX-*%
X267000000Y-135500000D03*
%TO.P,J1,49,PERp0/SATA-A+*%
%TO.N,PCIe_TX+*%
X266500000Y-135500000D03*
%TO.P,J1,51,GND*%
%TO.N,GND*%
X266000000Y-135500000D03*
%TO.P,J1,53,REFCLKn*%
%TO.N,REFCLK-*%
X265500000Y-135500000D03*
%TO.P,J1,55,REFCLKp*%
%TO.N,REFCLK+*%
X265000000Y-135500000D03*
%TO.P,J1,57,GND*%
%TO.N,GND*%
X264500000Y-135500000D03*
%TO.P,J1,67,NC*%
%TO.N,unconnected-(J1-NC-Pad67)*%
X262000000Y-135500000D03*
%TO.P,J1,69,PEDET*%
%TO.N,unconnected-(J1-PEDET-Pad69)*%
X261500000Y-135500000D03*
%TO.P,J1,71,GND*%
%TO.N,GND*%
X261000000Y-135500000D03*
%TO.P,J1,73,VIO_CFG/GND*%
%TO.N,Net-(J1-VIO_CFG{slash}GND)*%
X260500000Y-135500000D03*
%TO.P,J1,75,GND*%
%TO.N,GND*%
X260000000Y-135500000D03*
D15*
%TO.P,J1,76,GND*%
X269250000Y-56775000D03*
%TD*%
D16*
%TO.P,C1,1*%
%TO.N,+3V3*%
X263000000Y-79450000D03*
%TO.P,C1,2*%
%TO.N,GND*%
X261100000Y-79450000D03*
%TD*%
D17*
%TO.P,J2,1,~{CLKREQ}/DAT2*%
%TO.N,~{CLKREQ}*%
X262890000Y-121700000D03*
%TO.P,J2,2,~{PERST}/DAT3/CD*%
%TO.N,~{PERST}*%
X263990000Y-121700000D03*
%TO.P,J2,3,CMD*%
%TO.N,unconnected-(J2-CMD-Pad3)*%
X265090000Y-121700000D03*
%TO.P,J2,4,3V3*%
%TO.N,+3V3*%
X266190000Y-121700000D03*
%TO.P,J2,5,CLK*%
%TO.N,unconnected-(J2-CLK-Pad5)*%
X267290000Y-121700000D03*
D18*
%TO.P,J2,6,VSS1*%
%TO.N,GND*%
X273500000Y-120850000D03*
X273500000Y-113650000D03*
X273500000Y-108150000D03*
D17*
X268390000Y-121700000D03*
D18*
X259800000Y-120850000D03*
X259800000Y-113650000D03*
X259800000Y-108150000D03*
D17*
%TO.P,J2,7,REFCLK+/DAT0*%
%TO.N,REFCLK+*%
X269490000Y-121700000D03*
%TO.P,J2,8,REFCLK-/DAT1*%
%TO.N,REFCLK-*%
X270590000Y-121700000D03*
%TO.P,J2,9,1V8*%
%TO.N,+1V8*%
X262930000Y-107700000D03*
%TO.P,J2,10,VSS2*%
%TO.N,GND*%
X264990000Y-107700000D03*
%TO.P,J2,11,PCIe_TX+*%
%TO.N,PCIe_TX+*%
X265900000Y-107700000D03*
%TO.P,J2,12,PCIe_TX-*%
%TO.N,PCIe_TX-*%
X266810000Y-107700000D03*
%TO.P,J2,13,VSS3*%
%TO.N,GND*%
X267720000Y-107700000D03*
%TO.P,J2,14,PCIe_RX-*%
%TO.N,PCIe_RX_CARD-*%
X268630000Y-107700000D03*
%TO.P,J2,15,PCIe_RX+*%
%TO.N,PCIe_RX_CARD+*%
X269540000Y-107700000D03*
%TO.P,J2,16,VSS4*%
%TO.N,GND*%
X270450000Y-107700000D03*
%TO.P,J2,17,1V2*%
%TO.N,Net-(J2-1V2)*%
X264080000Y-107700000D03*
%TO.P,J2,18,DET*%
%TO.N,unconnected-(J2-DET-Pad18)*%
X271690000Y-121700000D03*
%TD*%
D19*
%TO.N,GND*%
X259200000Y-84000000D03*
X279000000Y-58000000D03*
X279000000Y-128000000D03*
X273000000Y-58000000D03*
X267720000Y-107700000D03*
X259200000Y-62000000D03*
X259200000Y-80000000D03*
X259200000Y-70000000D03*
X259500000Y-128000000D03*
X264990000Y-107700000D03*
X279000000Y-104000000D03*
X279000000Y-64000000D03*
X259200000Y-98000000D03*
X259200000Y-100000000D03*
X279000000Y-126000000D03*
X279000000Y-120000000D03*
X259200000Y-96000000D03*
X279000000Y-60000000D03*
X259200000Y-78000000D03*
X267030000Y-106000000D03*
D20*
X270500000Y-133550000D03*
D19*
X279000000Y-78000000D03*
D20*
X260000000Y-132350000D03*
D19*
X279000000Y-72000000D03*
X279000000Y-112000000D03*
X259200000Y-86000000D03*
X279000000Y-68000000D03*
X279000000Y-80000000D03*
X259200000Y-60000000D03*
X279000000Y-70000000D03*
X279000000Y-62000000D03*
X279000000Y-98000000D03*
X279000000Y-76000000D03*
X279000000Y-86000000D03*
X259800000Y-113650000D03*
X279000000Y-106000000D03*
X279000000Y-90000000D03*
D20*
X273500000Y-133550000D03*
D19*
X259200000Y-66000000D03*
X259200000Y-82000000D03*
X259800000Y-120850000D03*
X279000000Y-92000000D03*
D20*
X269000000Y-133550000D03*
D19*
X279000000Y-66000000D03*
X279000000Y-100000000D03*
X259200000Y-92000000D03*
X279000000Y-102000000D03*
X279000000Y-84000000D03*
X270450000Y-107700000D03*
X279000000Y-122000000D03*
X279000000Y-118000000D03*
X279000000Y-110000000D03*
X259200000Y-76000000D03*
X279000000Y-96000000D03*
X259500000Y-124000000D03*
X279000000Y-124000000D03*
X259200000Y-104000000D03*
X259200000Y-72000000D03*
X271140000Y-106000000D03*
X275000000Y-58000000D03*
X259200000Y-94000000D03*
X279000000Y-74000000D03*
D20*
X261900000Y-133100000D03*
D19*
X279000000Y-88000000D03*
X279000000Y-94000000D03*
D20*
X272000000Y-133550000D03*
D19*
X263000000Y-58000000D03*
X261000000Y-58000000D03*
X279000000Y-82000000D03*
X259200000Y-74000000D03*
X259800000Y-108150000D03*
X270640000Y-104700000D03*
D20*
X276500000Y-133550000D03*
D19*
X259200000Y-88000000D03*
X265000000Y-58000000D03*
X268390000Y-121700000D03*
X267530000Y-104700000D03*
X279000000Y-114000000D03*
X259200000Y-68000000D03*
X259200000Y-90000000D03*
X259200000Y-58000000D03*
X259500000Y-126000000D03*
X279000000Y-130000000D03*
X259200000Y-102000000D03*
X259200000Y-64000000D03*
X279000000Y-108000000D03*
X277000000Y-58000000D03*
%TO.N,+3V3*%
X275750000Y-132150000D03*
X266300000Y-81800000D03*
X274250000Y-132150000D03*
X266190000Y-121700000D03*
X277500000Y-131500000D03*
X261250000Y-132350000D03*
X278500000Y-131500000D03*
%TO.N,~{CLKREQ}*%
X262890000Y-121700000D03*
%TO.N,~{PERST}*%
X263990000Y-121700000D03*
%TO.N,+1V8*%
X262930000Y-107700000D03*
X272600000Y-81800000D03*
%TO.N,Net-(J2-1V2)*%
X264080000Y-107700000D03*
D20*
%TO.N,PCIe_RX_CARD-*%
X268630000Y-107700000D03*
%TO.N,PCIe_RX-*%
X276206600Y-106100000D03*
%TO.N,PCIe_RX+*%
X275653400Y-106100000D03*
%TO.N,PCIe_RX_CARD+*%
X269540000Y-107700000D03*
%TO.N,PCIe_TX+*%
X266473400Y-133200000D03*
X265900000Y-107700000D03*
%TO.N,PCIe_TX-*%
X266810000Y-107700000D03*
X267026600Y-133200000D03*
%TD*%
D21*
%TO.N,GND*%
X275000000Y-135500000D02*
X275000000Y-133550000D01*
D22*
X264500000Y-135500000D02*
X264500000Y-133500000D01*
D21*
X273500000Y-135500000D02*
X273500000Y-133550000D01*
X276500000Y-135500000D02*
X276500000Y-133550000D01*
D22*
X266000000Y-135500000D02*
X266000000Y-130500000D01*
D21*
X259800000Y-108150000D02*
X259800000Y-107700000D01*
D22*
X267500000Y-135500000D02*
X267500000Y-132000000D01*
D23*
X260000000Y-132350000D02*
X259990000Y-132340000D01*
D21*
X278000000Y-135500000D02*
X278000000Y-133550000D01*
D22*
X266000000Y-130500000D02*
X266750000Y-129750000D01*
D21*
X272000000Y-135500000D02*
X272000000Y-133550000D01*
X259100000Y-107000000D02*
X259100000Y-106000000D01*
D22*
X260000000Y-135500000D02*
X260000000Y-132350000D01*
D21*
X259250000Y-107150000D02*
X259100000Y-107000000D01*
D23*
X278500000Y-135500000D02*
X278500000Y-133550000D01*
D21*
X261000000Y-135500000D02*
X261000000Y-133550000D01*
X269000000Y-135500000D02*
X269000000Y-133550000D01*
X270500000Y-135500000D02*
X270500000Y-133550000D01*
X259800000Y-107700000D02*
X259250000Y-107150000D01*
D24*
%TO.N,REFCLK-*%
X270590000Y-122600001D02*
X270590000Y-121700000D01*
X264204216Y-131001196D02*
X264204216Y-130998804D01*
X264748802Y-131959996D02*
X264497109Y-131708303D01*
X265500000Y-134412499D02*
X265454216Y-134366715D01*
X270244216Y-122945785D02*
X270590000Y-122600001D01*
X265454216Y-134366715D02*
X265454216Y-133663015D01*
X270244216Y-123546985D02*
X270244216Y-122945785D01*
X264497109Y-130291697D02*
X269538803Y-125250003D01*
X265500000Y-135500000D02*
X265500000Y-134412499D01*
X264204216Y-130998804D02*
G75*
G02*
X264497111Y-130291699I999984J4D01*
G01*
X264748802Y-131959996D02*
G75*
G02*
X265454210Y-133663015I-1703002J-1703004D01*
G01*
X264204216Y-131001196D02*
G75*
G03*
X264497111Y-131708301I999984J-4D01*
G01*
X270244216Y-123546985D02*
G75*
G02*
X269538807Y-125250007I-2408416J-15D01*
G01*
D21*
%TO.N,+3V3*%
X266300000Y-79450000D02*
X266300000Y-81800000D01*
X266300000Y-79450000D02*
X263000000Y-79450000D01*
D24*
%TO.N,REFCLK+*%
X263795784Y-131001198D02*
X263795784Y-130998802D01*
X269490000Y-122600001D02*
X269490000Y-121700000D01*
X265000000Y-134412499D02*
X265045784Y-134366715D01*
X269835784Y-123546983D02*
X269835784Y-122945785D01*
X265045784Y-134366715D02*
X265045784Y-133663017D01*
X265000000Y-135500000D02*
X265000000Y-134412499D01*
X264208304Y-130002890D02*
X269249998Y-124961196D01*
X269835784Y-122945785D02*
X269490000Y-122600001D01*
X264459997Y-132248803D02*
X264208304Y-131997110D01*
X263795784Y-130998802D02*
G75*
G02*
X264208306Y-130002892I1408416J2D01*
G01*
X265045784Y-133663017D02*
G75*
G03*
X264460002Y-132248798I-1999984J17D01*
G01*
X269835784Y-123546983D02*
G75*
G02*
X269250003Y-124961201I-1999984J-17D01*
G01*
X263795784Y-131001198D02*
G75*
G03*
X264208306Y-131997108I1408416J-2D01*
G01*
D23*
%TO.N,Net-(J1-VIO_CFG{slash}GND)*%
X260500000Y-135500000D02*
X260500000Y-131150000D01*
D21*
%TO.N,+1V8*%
X272600000Y-77150000D02*
X272600000Y-81800000D01*
D23*
X272600000Y-77150000D02*
X272800000Y-76950000D01*
D21*
X266300000Y-77150000D02*
X272600000Y-77150000D01*
X275300000Y-76950000D02*
X272800000Y-76950000D01*
D23*
X273000000Y-77150000D02*
X272600000Y-77150000D01*
D24*
%TO.N,PCIe_RX-*%
X268500000Y-134412499D02*
X268454216Y-134366715D01*
X276182285Y-107180956D02*
X277541764Y-115870963D01*
X269039831Y-132708833D02*
X275579269Y-126167810D01*
X276134217Y-106562709D02*
X276134217Y-106172383D01*
X268454216Y-134366715D02*
X268454216Y-134122875D01*
X276255534Y-124837250D02*
X277541764Y-116615467D01*
X276134217Y-106172383D02*
X276206600Y-106100000D01*
X268500000Y-135500000D02*
X268500000Y-134412499D01*
X269039831Y-132708833D02*
G75*
G03*
X268454194Y-134122875I1414369J-1414067D01*
G01*
X275579269Y-126167810D02*
G75*
G03*
X276255521Y-124837248I-1703269J1702810D01*
G01*
X276182285Y-107180956D02*
G75*
G02*
X276134215Y-106562709I3951815J618256D01*
G01*
X277541764Y-115870963D02*
G75*
G02*
X277541759Y-116615466I-2379464J-372237D01*
G01*
%TO.N,PCIe_RX+*%
X275725783Y-106172383D02*
X275653400Y-106100000D01*
X268000000Y-134412499D02*
X268045784Y-134366715D01*
X268000000Y-135500000D02*
X268000000Y-134412499D01*
X275778759Y-107244071D02*
X277138240Y-115934091D01*
X268045784Y-134366715D02*
X268045784Y-134123015D01*
X275851690Y-124776167D02*
X277138240Y-116552339D01*
X268751198Y-132419996D02*
X275289938Y-125881256D01*
X275725783Y-106562696D02*
X275725783Y-106172383D01*
X275851690Y-124776167D02*
G75*
G02*
X275289926Y-125881244I-1975990J309167D01*
G01*
X275778759Y-107244071D02*
G75*
G02*
X275725784Y-106562696I4355441J681371D01*
G01*
X268045784Y-134123015D02*
G75*
G02*
X268751194Y-132419992I2408416J15D01*
G01*
X277138240Y-115934091D02*
G75*
G02*
X277138235Y-116552338I-1975940J-309109D01*
G01*
%TO.N,PCIe_TX+*%
X266545783Y-133272383D02*
X266473400Y-133200000D01*
X266500000Y-135500000D02*
X266545783Y-135454217D01*
X266545783Y-135454217D02*
X266545783Y-133272383D01*
%TO.N,PCIe_TX-*%
X267000000Y-135500000D02*
X266954217Y-135454217D01*
X266954217Y-135454217D02*
X266954217Y-133272383D01*
X266954217Y-133272383D02*
X267026600Y-133200000D01*
%TD*%
%TA.AperFunction,Conductor*%
%TO.N,GND*%
G36*
X267025864Y-57295185D02*
G01*
X267071619Y-57347989D01*
X267078929Y-57368662D01*
X267105416Y-57471822D01*
X267209655Y-57735102D01*
X267209659Y-57735110D01*
X267346078Y-57983256D01*
X267346090Y-57983274D01*
X267512524Y-58212350D01*
X267512532Y-58212360D01*
X267706379Y-58418786D01*
X267924578Y-58599296D01*
X268071711Y-58692669D01*
X268163670Y-58751028D01*
X268419898Y-58871599D01*
X268689217Y-58959107D01*
X268967380Y-59012169D01*
X268967385Y-59012169D01*
X268967390Y-59012170D01*
X269249995Y-59029950D01*
X269250000Y-59029950D01*
X269250005Y-59029950D01*
X269532609Y-59012170D01*
X269532612Y-59012169D01*
X269532620Y-59012169D01*
X269810783Y-58959107D01*
X270080102Y-58871599D01*
X270336330Y-58751028D01*
X270575426Y-58599293D01*
X270793619Y-58418788D01*
X270987469Y-58212359D01*
X271153917Y-57983263D01*
X271290340Y-57735111D01*
X271306504Y-57694287D01*
X271394583Y-57471822D01*
X271394585Y-57471818D01*
X271421071Y-57368661D01*
X271456809Y-57308624D01*
X271519333Y-57277439D01*
X271541175Y-57275500D01*
X279625500Y-57275500D01*
X279692539Y-57295185D01*
X279738294Y-57347989D01*
X279749500Y-57399500D01*
X279749500Y-132153563D01*
X279729815Y-132220602D01*
X279677011Y-132266357D01*
X279647032Y-132275679D01*
X279464082Y-132307937D01*
X279283134Y-132373797D01*
X279283127Y-132373800D01*
X279116369Y-132470078D01*
X279116366Y-132470080D01*
X278968855Y-132593855D01*
X278845080Y-132741366D01*
X278845078Y-132741369D01*
X278748800Y-132908127D01*
X278748797Y-132908134D01*
X278682937Y-133089082D01*
X278649500Y-133278716D01*
X278649500Y-134151000D01*
X278629815Y-134218039D01*
X278577011Y-134263794D01*
X278525500Y-134275000D01*
X278277167Y-134275000D01*
X278263253Y-134276496D01*
X278236747Y-134276496D01*
X278222832Y-134275000D01*
X277777169Y-134275000D01*
X277765594Y-134276244D01*
X277739100Y-134276243D01*
X277722889Y-134274501D01*
X277722875Y-134274500D01*
X277722873Y-134274500D01*
X277722870Y-134274500D01*
X277277133Y-134274500D01*
X277277121Y-134274501D01*
X277263248Y-134275992D01*
X277236756Y-134275991D01*
X277222889Y-134274501D01*
X277222875Y-134274500D01*
X277222873Y-134274500D01*
X277222870Y-134274500D01*
X276777130Y-134274500D01*
X276777116Y-134274501D01*
X276760906Y-134276244D01*
X276734404Y-134276244D01*
X276722835Y-134275000D01*
X276277169Y-134275000D01*
X276265594Y-134276244D01*
X276239100Y-134276243D01*
X276222889Y-134274501D01*
X276222875Y-134274500D01*
X276222873Y-134274500D01*
X276222870Y-134274500D01*
X275777133Y-134274500D01*
X275777121Y-134274501D01*
X275763248Y-134275992D01*
X275736756Y-134275991D01*
X275722889Y-134274501D01*
X275722875Y-134274500D01*
X275722873Y-134274500D01*
X275722870Y-134274500D01*
X275277130Y-134274500D01*
X275277116Y-134274501D01*
X275260906Y-134276244D01*
X275234404Y-134276244D01*
X275222835Y-134275000D01*
X274777169Y-134275000D01*
X274765594Y-134276244D01*
X274739100Y-134276243D01*
X274722889Y-134274501D01*
X274722875Y-134274500D01*
X274722873Y-134274500D01*
X274722870Y-134274500D01*
X274277133Y-134274500D01*
X274277121Y-134274501D01*
X274263248Y-134275992D01*
X274236756Y-134275991D01*
X274222889Y-134274501D01*
X274222875Y-134274500D01*
X274222873Y-134274500D01*
X274222870Y-134274500D01*
X273777130Y-134274500D01*
X273777116Y-134274501D01*
X273760906Y-134276244D01*
X273734404Y-134276244D01*
X273722835Y-134275000D01*
X273277169Y-134275000D01*
X273265594Y-134276244D01*
X273239100Y-134276243D01*
X273222889Y-134274501D01*
X273222875Y-134274500D01*
X273222873Y-134274500D01*
X273222870Y-134274500D01*
X272777133Y-134274500D01*
X272777121Y-134274501D01*
X272763248Y-134275992D01*
X272736756Y-134275991D01*
X272722889Y-134274501D01*
X272722875Y-134274500D01*
X272722873Y-134274500D01*
X272722870Y-134274500D01*
X272277130Y-134274500D01*
X272277116Y-134274501D01*
X272260906Y-134276244D01*
X272234404Y-134276244D01*
X272222835Y-134275000D01*
X271777169Y-134275000D01*
X271765594Y-134276244D01*
X271739100Y-134276243D01*
X271722889Y-134274501D01*
X271722875Y-134274500D01*
X271722873Y-134274500D01*
X271722870Y-134274500D01*
X271277133Y-134274500D01*
X271277121Y-134274501D01*
X271263248Y-134275992D01*
X271236756Y-134275991D01*
X271222889Y-134274501D01*
X271222875Y-134274500D01*
X271222873Y-134274500D01*
X271222870Y-134274500D01*
X270777130Y-134274500D01*
X270777116Y-134274501D01*
X270760906Y-134276244D01*
X270734404Y-134276244D01*
X270722835Y-134275000D01*
X270277169Y-134275000D01*
X270265594Y-134276244D01*
X270239100Y-134276243D01*
X270222889Y-134274501D01*
X270222875Y-134274500D01*
X270222873Y-134274500D01*
X270222870Y-134274500D01*
X269777133Y-134274500D01*
X269777121Y-134274501D01*
X269763248Y-134275992D01*
X269736756Y-134275991D01*
X269722889Y-134274501D01*
X269722875Y-134274500D01*
X269722873Y-134274500D01*
X269722870Y-134274500D01*
X269277130Y-134274500D01*
X269277116Y-134274501D01*
X269260906Y-134276244D01*
X269243928Y-134276898D01*
X269178969Y-134274944D01*
X269147444Y-134264648D01*
X269115658Y-134255315D01*
X269114392Y-134253854D01*
X269112551Y-134253253D01*
X269091589Y-134227538D01*
X269069903Y-134202511D01*
X269068888Y-134199690D01*
X269068405Y-134199097D01*
X269068280Y-134197999D01*
X269062924Y-134183101D01*
X269061559Y-134178008D01*
X269057332Y-134145907D01*
X269057332Y-134126934D01*
X269057598Y-134118824D01*
X269068749Y-133948696D01*
X269070865Y-133932618D01*
X269082325Y-133875000D01*
X269103336Y-133769359D01*
X269107525Y-133753720D01*
X269161031Y-133596080D01*
X269167226Y-133581122D01*
X269240839Y-133431829D01*
X269248940Y-133417796D01*
X269341404Y-133279391D01*
X269351268Y-133266532D01*
X269463925Y-133138047D01*
X269469454Y-133132144D01*
X269518121Y-133083467D01*
X269518124Y-133083461D01*
X270530187Y-132071153D01*
X273449500Y-132071153D01*
X273449500Y-132228846D01*
X273480261Y-132383489D01*
X273480264Y-132383501D01*
X273540602Y-132529172D01*
X273540609Y-132529185D01*
X273628210Y-132660288D01*
X273628213Y-132660292D01*
X273739707Y-132771786D01*
X273739711Y-132771789D01*
X273870814Y-132859390D01*
X273870827Y-132859397D01*
X274016498Y-132919735D01*
X274016503Y-132919737D01*
X274171153Y-132950499D01*
X274171156Y-132950500D01*
X274171158Y-132950500D01*
X274328844Y-132950500D01*
X274328845Y-132950499D01*
X274483497Y-132919737D01*
X274629179Y-132859394D01*
X274760289Y-132771789D01*
X274871789Y-132660289D01*
X274896379Y-132623488D01*
X274896898Y-132622712D01*
X274950510Y-132577906D01*
X275019835Y-132569199D01*
X275082862Y-132599353D01*
X275103102Y-132622712D01*
X275128207Y-132660284D01*
X275128213Y-132660292D01*
X275239707Y-132771786D01*
X275239711Y-132771789D01*
X275370814Y-132859390D01*
X275370827Y-132859397D01*
X275516498Y-132919735D01*
X275516503Y-132919737D01*
X275671153Y-132950499D01*
X275671156Y-132950500D01*
X275671158Y-132950500D01*
X275828844Y-132950500D01*
X275828845Y-132950499D01*
X275983497Y-132919737D01*
X276129179Y-132859394D01*
X276260289Y-132771789D01*
X276371789Y-132660289D01*
X276459394Y-132529179D01*
X276519737Y-132383497D01*
X276550500Y-132228842D01*
X276550500Y-132071158D01*
X276550500Y-132071155D01*
X276550499Y-132071153D01*
X276535058Y-131993528D01*
X276519737Y-131916503D01*
X276519735Y-131916498D01*
X276459397Y-131770827D01*
X276459390Y-131770814D01*
X276371789Y-131639711D01*
X276371786Y-131639707D01*
X276260289Y-131528210D01*
X276245259Y-131518168D01*
X276129185Y-131440609D01*
X276129172Y-131440602D01*
X276082217Y-131421153D01*
X276699500Y-131421153D01*
X276699500Y-131578846D01*
X276730261Y-131733489D01*
X276730264Y-131733501D01*
X276790602Y-131879172D01*
X276790609Y-131879185D01*
X276878210Y-132010288D01*
X276878213Y-132010292D01*
X276989707Y-132121786D01*
X276989711Y-132121789D01*
X277120814Y-132209390D01*
X277120827Y-132209397D01*
X277258343Y-132266357D01*
X277266503Y-132269737D01*
X277421153Y-132300499D01*
X277421156Y-132300500D01*
X277421158Y-132300500D01*
X277578844Y-132300500D01*
X277578845Y-132300499D01*
X277733497Y-132269737D01*
X277879179Y-132209394D01*
X277931110Y-132174694D01*
X277997785Y-132153816D01*
X278065165Y-132172300D01*
X278068863Y-132174676D01*
X278120821Y-132209394D01*
X278120823Y-132209395D01*
X278120825Y-132209396D01*
X278205942Y-132244652D01*
X278266503Y-132269737D01*
X278421153Y-132300499D01*
X278421156Y-132300500D01*
X278421158Y-132300500D01*
X278578844Y-132300500D01*
X278578845Y-132300499D01*
X278733497Y-132269737D01*
X278879179Y-132209394D01*
X279010289Y-132121789D01*
X279121789Y-132010289D01*
X279209394Y-131879179D01*
X279214491Y-131866875D01*
X279253709Y-131772192D01*
X279269737Y-131733497D01*
X279300500Y-131578842D01*
X279300500Y-131421158D01*
X279300500Y-131421155D01*
X279300499Y-131421153D01*
X279286183Y-131349181D01*
X279269737Y-131266503D01*
X279269735Y-131266498D01*
X279209397Y-131120827D01*
X279209390Y-131120814D01*
X279121789Y-130989711D01*
X279121786Y-130989707D01*
X279010292Y-130878213D01*
X279010288Y-130878210D01*
X278879185Y-130790609D01*
X278879172Y-130790602D01*
X278733501Y-130730264D01*
X278733489Y-130730261D01*
X278578845Y-130699500D01*
X278578842Y-130699500D01*
X278421158Y-130699500D01*
X278421155Y-130699500D01*
X278266510Y-130730261D01*
X278266498Y-130730264D01*
X278120827Y-130790602D01*
X278120814Y-130790609D01*
X278068891Y-130825304D01*
X278002214Y-130846182D01*
X277934833Y-130827698D01*
X277931109Y-130825304D01*
X277879185Y-130790609D01*
X277879172Y-130790602D01*
X277733501Y-130730264D01*
X277733489Y-130730261D01*
X277578845Y-130699500D01*
X277578842Y-130699500D01*
X277421158Y-130699500D01*
X277421155Y-130699500D01*
X277266510Y-130730261D01*
X277266498Y-130730264D01*
X277120827Y-130790602D01*
X277120814Y-130790609D01*
X276989711Y-130878210D01*
X276989707Y-130878213D01*
X276878213Y-130989707D01*
X276878210Y-130989711D01*
X276790609Y-131120814D01*
X276790602Y-131120827D01*
X276730264Y-131266498D01*
X276730261Y-131266510D01*
X276699500Y-131421153D01*
X276082217Y-131421153D01*
X275983501Y-131380264D01*
X275983489Y-131380261D01*
X275828845Y-131349500D01*
X275828842Y-131349500D01*
X275671158Y-131349500D01*
X275671155Y-131349500D01*
X275516510Y-131380261D01*
X275516498Y-131380264D01*
X275370827Y-131440602D01*
X275370814Y-131440609D01*
X275239711Y-131528210D01*
X275239707Y-131528213D01*
X275128213Y-131639707D01*
X275103102Y-131677289D01*
X275049489Y-131722093D01*
X274980164Y-131730800D01*
X274917137Y-131700645D01*
X274896898Y-131677289D01*
X274871786Y-131639707D01*
X274760292Y-131528213D01*
X274760288Y-131528210D01*
X274629185Y-131440609D01*
X274629172Y-131440602D01*
X274483501Y-131380264D01*
X274483489Y-131380261D01*
X274328845Y-131349500D01*
X274328842Y-131349500D01*
X274171158Y-131349500D01*
X274171155Y-131349500D01*
X274016510Y-131380261D01*
X274016498Y-131380264D01*
X273870827Y-131440602D01*
X273870814Y-131440609D01*
X273739711Y-131528210D01*
X273739707Y-131528213D01*
X273628213Y-131639707D01*
X273628210Y-131639711D01*
X273540609Y-131770814D01*
X273540602Y-131770827D01*
X273480264Y-131916498D01*
X273480261Y-131916510D01*
X273449500Y-132071153D01*
X270530187Y-132071153D01*
X275946942Y-126653085D01*
X275954012Y-126646013D01*
X275954019Y-126646010D01*
X275969480Y-126630545D01*
X275969539Y-126630512D01*
X276005802Y-126594228D01*
X276005803Y-126594229D01*
X276117688Y-126482282D01*
X276316792Y-126236193D01*
X276489004Y-125970589D01*
X276632427Y-125688398D01*
X276745480Y-125392727D01*
X276824181Y-125097111D01*
X276826913Y-125086851D01*
X276826915Y-125086842D01*
X276826917Y-125086835D01*
X276839111Y-125008957D01*
X276839130Y-125008917D01*
X276853150Y-124919298D01*
X276862722Y-124858115D01*
X276862721Y-124858114D01*
X276865710Y-124839014D01*
X276865710Y-124839004D01*
X276866158Y-124836141D01*
X278149905Y-116630238D01*
X278149904Y-116630233D01*
X278151294Y-116621351D01*
X278151300Y-116621279D01*
X278155694Y-116593199D01*
X278173817Y-116360113D01*
X278173819Y-116126324D01*
X278155698Y-115893237D01*
X278151331Y-115865318D01*
X278149904Y-115856196D01*
X278149905Y-115856192D01*
X278141352Y-115801521D01*
X278137633Y-115777743D01*
X278124835Y-115695938D01*
X278124832Y-115695930D01*
X276788915Y-107156529D01*
X276778399Y-107089310D01*
X276777948Y-107086159D01*
X276755908Y-106916682D01*
X276755246Y-106910304D01*
X276742124Y-106741546D01*
X276741792Y-106735140D01*
X276737374Y-106564369D01*
X276737333Y-106561162D01*
X276737333Y-106559184D01*
X276757018Y-106492145D01*
X276758231Y-106490293D01*
X276767781Y-106476000D01*
X276805220Y-106419969D01*
X276856140Y-106297036D01*
X276882100Y-106166531D01*
X276882100Y-106033469D01*
X276882100Y-106033466D01*
X276856141Y-105902969D01*
X276856140Y-105902968D01*
X276856140Y-105902964D01*
X276805220Y-105780031D01*
X276731295Y-105669394D01*
X276731292Y-105669390D01*
X276637209Y-105575307D01*
X276637201Y-105575301D01*
X276526579Y-105501386D01*
X276526572Y-105501382D01*
X276526569Y-105501380D01*
X276526565Y-105501378D01*
X276526561Y-105501376D01*
X276403640Y-105450461D01*
X276403630Y-105450458D01*
X276273133Y-105424500D01*
X276273131Y-105424500D01*
X276140069Y-105424500D01*
X276140067Y-105424500D01*
X276009570Y-105450458D01*
X276009566Y-105450459D01*
X276009564Y-105450460D01*
X275977448Y-105463762D01*
X275907982Y-105471230D01*
X275882556Y-105463764D01*
X275850436Y-105450460D01*
X275850429Y-105450458D01*
X275719933Y-105424500D01*
X275719931Y-105424500D01*
X275586869Y-105424500D01*
X275586867Y-105424500D01*
X275456369Y-105450458D01*
X275456359Y-105450461D01*
X275333438Y-105501376D01*
X275333420Y-105501386D01*
X275222798Y-105575301D01*
X275222790Y-105575307D01*
X275128707Y-105669390D01*
X275128701Y-105669398D01*
X275054786Y-105780020D01*
X275054776Y-105780038D01*
X275003861Y-105902959D01*
X275003858Y-105902969D01*
X274977900Y-106033466D01*
X274977900Y-106033469D01*
X274977900Y-106166531D01*
X274977900Y-106166533D01*
X274977899Y-106166533D01*
X275003858Y-106297030D01*
X275003861Y-106297040D01*
X275054780Y-106419969D01*
X275054781Y-106419971D01*
X275101769Y-106490293D01*
X275107419Y-106508339D01*
X275117644Y-106524249D01*
X275122095Y-106555208D01*
X275122647Y-106556970D01*
X275122667Y-106559184D01*
X275122667Y-106572679D01*
X275122655Y-106692326D01*
X275122656Y-106692361D01*
X275136061Y-106951292D01*
X275136062Y-106951309D01*
X275162837Y-107209190D01*
X275162839Y-107209200D01*
X275181951Y-107331285D01*
X275181953Y-107331297D01*
X276530307Y-115950196D01*
X276530308Y-115950201D01*
X276541873Y-116024127D01*
X276542700Y-116030488D01*
X276556623Y-116164599D01*
X276557286Y-116177403D01*
X276557286Y-116309013D01*
X276556623Y-116321821D01*
X276542687Y-116456025D01*
X276541860Y-116462381D01*
X276531053Y-116531466D01*
X276531053Y-116531468D01*
X275261463Y-124646886D01*
X275261462Y-124646890D01*
X275256424Y-124679086D01*
X275254974Y-124686761D01*
X275219424Y-124847075D01*
X275215089Y-124862080D01*
X275160988Y-125012973D01*
X275154801Y-125027315D01*
X275082159Y-125170212D01*
X275074219Y-125183661D01*
X274984191Y-125316293D01*
X274974623Y-125328638D01*
X274865861Y-125452050D01*
X274860513Y-125457745D01*
X274811688Y-125506570D01*
X268361054Y-131957205D01*
X268361038Y-131957213D01*
X268220106Y-132098144D01*
X268220105Y-132098145D01*
X268032400Y-132326865D01*
X268032390Y-132326879D01*
X267868009Y-132572893D01*
X267867998Y-132572911D01*
X267766422Y-132762948D01*
X267717460Y-132812792D01*
X267649322Y-132828253D01*
X267583642Y-132804421D01*
X267553958Y-132773380D01*
X267551293Y-132769391D01*
X267457209Y-132675307D01*
X267457201Y-132675301D01*
X267346579Y-132601386D01*
X267346572Y-132601382D01*
X267346569Y-132601380D01*
X267346565Y-132601378D01*
X267346561Y-132601376D01*
X267223640Y-132550461D01*
X267223630Y-132550458D01*
X267093133Y-132524500D01*
X267093131Y-132524500D01*
X266960069Y-132524500D01*
X266960067Y-132524500D01*
X266829570Y-132550458D01*
X266829566Y-132550459D01*
X266829564Y-132550460D01*
X266797448Y-132563762D01*
X266727982Y-132571230D01*
X266702556Y-132563764D01*
X266670436Y-132550460D01*
X266670429Y-132550458D01*
X266539933Y-132524500D01*
X266539931Y-132524500D01*
X266406869Y-132524500D01*
X266406867Y-132524500D01*
X266276369Y-132550458D01*
X266276359Y-132550461D01*
X266153438Y-132601376D01*
X266153427Y-132601382D01*
X266053712Y-132668009D01*
X265987034Y-132688886D01*
X265919654Y-132670401D01*
X265872965Y-132618421D01*
X265870261Y-132612358D01*
X265794247Y-132428844D01*
X265771473Y-132373861D01*
X265636737Y-132121786D01*
X265631995Y-132112915D01*
X265631994Y-132112913D01*
X265631989Y-132112904D01*
X265467598Y-131866875D01*
X265467594Y-131866869D01*
X265356838Y-131731913D01*
X265279884Y-131638144D01*
X265230434Y-131588694D01*
X265175268Y-131533528D01*
X265175269Y-131533528D01*
X265123487Y-131481746D01*
X265123485Y-131481744D01*
X265050326Y-131408585D01*
X264985568Y-131343827D01*
X264985566Y-131343824D01*
X264975356Y-131333614D01*
X264929312Y-131287570D01*
X264918624Y-131275383D01*
X264911806Y-131266498D01*
X264870439Y-131212587D01*
X264854254Y-131184554D01*
X264827100Y-131118999D01*
X264818722Y-131087732D01*
X264809303Y-131016184D01*
X264809303Y-130983829D01*
X264818724Y-130912264D01*
X264827102Y-130881001D01*
X264831106Y-130871336D01*
X264854256Y-130815444D01*
X264870442Y-130787412D01*
X264891008Y-130760611D01*
X264918637Y-130724604D01*
X264929324Y-130712417D01*
X264975356Y-130666386D01*
X264975356Y-130666384D01*
X264985561Y-130656180D01*
X264985565Y-130656175D01*
X269928946Y-125712794D01*
X269928965Y-125712783D01*
X269965274Y-125676474D01*
X269965275Y-125676475D01*
X270069890Y-125571860D01*
X270197543Y-125416313D01*
X270257598Y-125343137D01*
X270257599Y-125343134D01*
X270257605Y-125343128D01*
X270421995Y-125097099D01*
X270561479Y-124836141D01*
X270674713Y-124562768D01*
X270760606Y-124279613D01*
X270818332Y-123989401D01*
X270847333Y-123694930D01*
X270847332Y-123546981D01*
X270847332Y-123473750D01*
X270847332Y-123246966D01*
X270867017Y-123179927D01*
X270883651Y-123159285D01*
X271072613Y-122970323D01*
X271137392Y-122858120D01*
X271187955Y-122809908D01*
X271256562Y-122796684D01*
X271257949Y-122796825D01*
X271292127Y-122800500D01*
X272087872Y-122800499D01*
X272147483Y-122794091D01*
X272282331Y-122743796D01*
X272397546Y-122657546D01*
X272483796Y-122542331D01*
X272533364Y-122409431D01*
X272575235Y-122353498D01*
X272640699Y-122329081D01*
X272699035Y-122341770D01*
X272699601Y-122340254D01*
X272842620Y-122393596D01*
X272842627Y-122393598D01*
X272902155Y-122399999D01*
X272902172Y-122400000D01*
X274097828Y-122400000D01*
X274097844Y-122399999D01*
X274157372Y-122393598D01*
X274157379Y-122393596D01*
X274292086Y-122343354D01*
X274292088Y-122343352D01*
X274407186Y-122257190D01*
X274407187Y-122257189D01*
X274469885Y-122173436D01*
X273410905Y-121114456D01*
X273377420Y-121053133D01*
X273382404Y-120983441D01*
X273410905Y-120939093D01*
X273499999Y-120849999D01*
X273853552Y-120849999D01*
X273853552Y-120850000D01*
X274549999Y-121546448D01*
X274550000Y-121546447D01*
X274550000Y-120153552D01*
X274549999Y-120153551D01*
X273853552Y-120849999D01*
X273499999Y-120849999D01*
X273410905Y-120760905D01*
X273377420Y-120699582D01*
X273382404Y-120629890D01*
X273410905Y-120585543D01*
X274469884Y-119526563D01*
X274407186Y-119442809D01*
X274292093Y-119356649D01*
X274292086Y-119356645D01*
X274157379Y-119306403D01*
X274157372Y-119306401D01*
X274097844Y-119300000D01*
X273524000Y-119300000D01*
X273456961Y-119280315D01*
X273411206Y-119227511D01*
X273400000Y-119176000D01*
X273400000Y-115324000D01*
X273419685Y-115256961D01*
X273472489Y-115211206D01*
X273524000Y-115200000D01*
X274097828Y-115200000D01*
X274097844Y-115199999D01*
X274157372Y-115193598D01*
X274157379Y-115193596D01*
X274292086Y-115143354D01*
X274292088Y-115143352D01*
X274407186Y-115057190D01*
X274407187Y-115057189D01*
X274469885Y-114973436D01*
X273410905Y-113914456D01*
X273377420Y-113853133D01*
X273382404Y-113783441D01*
X273410905Y-113739093D01*
X273499999Y-113649999D01*
X273853552Y-113649999D01*
X273853552Y-113650000D01*
X274549999Y-114346448D01*
X274550000Y-114346447D01*
X274550000Y-112953552D01*
X274549999Y-112953551D01*
X273853552Y-113649999D01*
X273499999Y-113649999D01*
X273410905Y-113560905D01*
X273377420Y-113499582D01*
X273382404Y-113429890D01*
X273410905Y-113385543D01*
X274469884Y-112326563D01*
X274407186Y-112242809D01*
X274292093Y-112156649D01*
X274292086Y-112156645D01*
X274157379Y-112106403D01*
X274157372Y-112106401D01*
X274097844Y-112100000D01*
X273524000Y-112100000D01*
X273456961Y-112080315D01*
X273411206Y-112027511D01*
X273400000Y-111976000D01*
X273400000Y-109824000D01*
X273419685Y-109756961D01*
X273472489Y-109711206D01*
X273524000Y-109700000D01*
X274097828Y-109700000D01*
X274097844Y-109699999D01*
X274157372Y-109693598D01*
X274157379Y-109693596D01*
X274292086Y-109643354D01*
X274292088Y-109643352D01*
X274407186Y-109557190D01*
X274407187Y-109557189D01*
X274469885Y-109473436D01*
X273410905Y-108414456D01*
X273377420Y-108353133D01*
X273382404Y-108283441D01*
X273410905Y-108239093D01*
X273499999Y-108149999D01*
X273853552Y-108149999D01*
X273853552Y-108150000D01*
X274549999Y-108846448D01*
X274550000Y-108846447D01*
X274550000Y-107453552D01*
X274549999Y-107453551D01*
X273853552Y-108149999D01*
X273499999Y-108149999D01*
X273410905Y-108060905D01*
X273377420Y-107999582D01*
X273382404Y-107929890D01*
X273410905Y-107885543D01*
X274469884Y-106826563D01*
X274407186Y-106742809D01*
X274292093Y-106656649D01*
X274292086Y-106656645D01*
X274157379Y-106606403D01*
X274157372Y-106606401D01*
X274097844Y-106600000D01*
X273624000Y-106600000D01*
X273556961Y-106580315D01*
X273511206Y-106527511D01*
X273500000Y-106476000D01*
X273500000Y-88500000D01*
X259500000Y-88500000D01*
X259500000Y-106476000D01*
X259480315Y-106543039D01*
X259427511Y-106588794D01*
X259376000Y-106600000D01*
X259202155Y-106600000D01*
X259142627Y-106606401D01*
X259142620Y-106606403D01*
X259007913Y-106656645D01*
X259007910Y-106656647D01*
X258948811Y-106700889D01*
X258883346Y-106725306D01*
X258815073Y-106710454D01*
X258765668Y-106661049D01*
X258750500Y-106601622D01*
X258750500Y-79974986D01*
X260100001Y-79974986D01*
X260110494Y-80077697D01*
X260165641Y-80244119D01*
X260165643Y-80244124D01*
X260257684Y-80393345D01*
X260381654Y-80517315D01*
X260530875Y-80609356D01*
X260530880Y-80609358D01*
X260697302Y-80664505D01*
X260697309Y-80664506D01*
X260800019Y-80674999D01*
X260849999Y-80674998D01*
X260850000Y-80674998D01*
X260850000Y-79700000D01*
X260100001Y-79700000D01*
X260100001Y-79974986D01*
X258750500Y-79974986D01*
X258750500Y-78925013D01*
X260100000Y-78925013D01*
X260100000Y-79200000D01*
X260850000Y-79200000D01*
X260850000Y-78225000D01*
X261350000Y-78225000D01*
X261350000Y-80674999D01*
X261399972Y-80674999D01*
X261399986Y-80674998D01*
X261502697Y-80664505D01*
X261669119Y-80609358D01*
X261669124Y-80609356D01*
X261818345Y-80517315D01*
X261942318Y-80393342D01*
X261944165Y-80390348D01*
X261945969Y-80388724D01*
X261946798Y-80387677D01*
X261946976Y-80387818D01*
X261996110Y-80343621D01*
X262065073Y-80332396D01*
X262129156Y-80360236D01*
X262155243Y-80390341D01*
X262157288Y-80393656D01*
X262281344Y-80517712D01*
X262430666Y-80609814D01*
X262597203Y-80664999D01*
X262699991Y-80675500D01*
X263300008Y-80675499D01*
X263300016Y-80675498D01*
X263300019Y-80675498D01*
X263356302Y-80669748D01*
X263402797Y-80664999D01*
X263569334Y-80609814D01*
X263718656Y-80517712D01*
X263842712Y-80393656D01*
X263934814Y-80244334D01*
X263946028Y-80210494D01*
X263985801Y-80153050D01*
X264050317Y-80126228D01*
X264063733Y-80125500D01*
X264769861Y-80125500D01*
X264836900Y-80145185D01*
X264880949Y-80194406D01*
X264932967Y-80299292D01*
X264932969Y-80299295D01*
X265052277Y-80447721D01*
X265052278Y-80447722D01*
X265200704Y-80567030D01*
X265200707Y-80567032D01*
X265286966Y-80609812D01*
X265371307Y-80651641D01*
X265530427Y-80691212D01*
X265590733Y-80726494D01*
X265622392Y-80788780D01*
X265624500Y-80811547D01*
X265624500Y-81332479D01*
X265604815Y-81399518D01*
X265603602Y-81401370D01*
X265590609Y-81420814D01*
X265590602Y-81420827D01*
X265530264Y-81566498D01*
X265530261Y-81566510D01*
X265499500Y-81721153D01*
X265499500Y-81878846D01*
X265530261Y-82033489D01*
X265530264Y-82033501D01*
X265590602Y-82179172D01*
X265590609Y-82179185D01*
X265678210Y-82310288D01*
X265678213Y-82310292D01*
X265789707Y-82421786D01*
X265789711Y-82421789D01*
X265920814Y-82509390D01*
X265920827Y-82509397D01*
X266066498Y-82569735D01*
X266066503Y-82569737D01*
X266221153Y-82600499D01*
X266221156Y-82600500D01*
X266221158Y-82600500D01*
X266378844Y-82600500D01*
X266378845Y-82600499D01*
X266533497Y-82569737D01*
X266679179Y-82509394D01*
X266810289Y-82421789D01*
X266921789Y-82310289D01*
X267009394Y-82179179D01*
X267069737Y-82033497D01*
X267100500Y-81878842D01*
X267100500Y-81721158D01*
X267100500Y-81721155D01*
X267100499Y-81721153D01*
X267069738Y-81566510D01*
X267069737Y-81566503D01*
X267069735Y-81566498D01*
X267009397Y-81420827D01*
X267009390Y-81420814D01*
X266996398Y-81401370D01*
X266975520Y-81334692D01*
X266975500Y-81332479D01*
X266975500Y-80811547D01*
X266995185Y-80744508D01*
X267047989Y-80698753D01*
X267069570Y-80691213D01*
X267228693Y-80651641D01*
X267399296Y-80567030D01*
X267547722Y-80447722D01*
X267667030Y-80299296D01*
X267751641Y-80128693D01*
X267797600Y-79943889D01*
X267800500Y-79901123D01*
X267800499Y-78998878D01*
X267797600Y-78956111D01*
X267751641Y-78771307D01*
X267729872Y-78727413D01*
X267667032Y-78600707D01*
X267667030Y-78600704D01*
X267547722Y-78452278D01*
X267547721Y-78452277D01*
X267478514Y-78396647D01*
X267438595Y-78339304D01*
X267436015Y-78269482D01*
X267471594Y-78209349D01*
X267478514Y-78203353D01*
X267487909Y-78195800D01*
X267547722Y-78147722D01*
X267667030Y-77999296D01*
X267667032Y-77999292D01*
X267719051Y-77894406D01*
X267766472Y-77843093D01*
X267830139Y-77825500D01*
X270975501Y-77825500D01*
X271042540Y-77845185D01*
X271088295Y-77897989D01*
X271099501Y-77949500D01*
X271099501Y-78608034D01*
X271110113Y-78727415D01*
X271166089Y-78923045D01*
X271166090Y-78923048D01*
X271166091Y-78923049D01*
X271260302Y-79103407D01*
X271260304Y-79103409D01*
X271388890Y-79261109D01*
X271482803Y-79337684D01*
X271546593Y-79389698D01*
X271726951Y-79483909D01*
X271834612Y-79514714D01*
X271893649Y-79552081D01*
X271923113Y-79615435D01*
X271924500Y-79633930D01*
X271924500Y-81332479D01*
X271904815Y-81399518D01*
X271903602Y-81401370D01*
X271890609Y-81420814D01*
X271890602Y-81420827D01*
X271830264Y-81566498D01*
X271830261Y-81566510D01*
X271799500Y-81721153D01*
X271799500Y-81878846D01*
X271830261Y-82033489D01*
X271830264Y-82033501D01*
X271890602Y-82179172D01*
X271890609Y-82179185D01*
X271978210Y-82310288D01*
X271978213Y-82310292D01*
X272089707Y-82421786D01*
X272089711Y-82421789D01*
X272220814Y-82509390D01*
X272220827Y-82509397D01*
X272366498Y-82569735D01*
X272366503Y-82569737D01*
X272521153Y-82600499D01*
X272521156Y-82600500D01*
X272521158Y-82600500D01*
X272678844Y-82600500D01*
X272678845Y-82600499D01*
X272833497Y-82569737D01*
X272979179Y-82509394D01*
X273110289Y-82421789D01*
X273221789Y-82310289D01*
X273309394Y-82179179D01*
X273369737Y-82033497D01*
X273400500Y-81878842D01*
X273400500Y-81721158D01*
X273400500Y-81721155D01*
X273400499Y-81721153D01*
X273369738Y-81566510D01*
X273369737Y-81566503D01*
X273369735Y-81566498D01*
X273309397Y-81420827D01*
X273309390Y-81420814D01*
X273296398Y-81401370D01*
X273275520Y-81334692D01*
X273275500Y-81332479D01*
X273275500Y-79633930D01*
X273295185Y-79566891D01*
X273347989Y-79521136D01*
X273365384Y-79514715D01*
X273473049Y-79483909D01*
X273653407Y-79389698D01*
X273811109Y-79261109D01*
X273939698Y-79103407D01*
X274033909Y-78923049D01*
X274089886Y-78727418D01*
X274100500Y-78608037D01*
X274100500Y-77749500D01*
X274103050Y-77740814D01*
X274101762Y-77731853D01*
X274112740Y-77707812D01*
X274120185Y-77682461D01*
X274127025Y-77676533D01*
X274130787Y-77668297D01*
X274153021Y-77654007D01*
X274172989Y-77636706D01*
X274183503Y-77634418D01*
X274189565Y-77630523D01*
X274224500Y-77625500D01*
X274236267Y-77625500D01*
X274303306Y-77645185D01*
X274349061Y-77697989D01*
X274353972Y-77710494D01*
X274365186Y-77744334D01*
X274457288Y-77893656D01*
X274581344Y-78017712D01*
X274730666Y-78109814D01*
X274897203Y-78164999D01*
X274999991Y-78175500D01*
X275600008Y-78175499D01*
X275600016Y-78175498D01*
X275600019Y-78175498D01*
X275656302Y-78169748D01*
X275702797Y-78164999D01*
X275869334Y-78109814D01*
X276018656Y-78017712D01*
X276142712Y-77893656D01*
X276144752Y-77890347D01*
X276146745Y-77888555D01*
X276147193Y-77887989D01*
X276147289Y-77888065D01*
X276196694Y-77843623D01*
X276265656Y-77832395D01*
X276329740Y-77860234D01*
X276355829Y-77890339D01*
X276357681Y-77893341D01*
X276357683Y-77893344D01*
X276481654Y-78017315D01*
X276630875Y-78109356D01*
X276630880Y-78109358D01*
X276797302Y-78164505D01*
X276797309Y-78164506D01*
X276900019Y-78174999D01*
X277450000Y-78174999D01*
X277499972Y-78174999D01*
X277499986Y-78174998D01*
X277602697Y-78164505D01*
X277769119Y-78109358D01*
X277769124Y-78109356D01*
X277918345Y-78017315D01*
X278042315Y-77893345D01*
X278134356Y-77744124D01*
X278134358Y-77744119D01*
X278189505Y-77577697D01*
X278189506Y-77577690D01*
X278199999Y-77474986D01*
X278200000Y-77474973D01*
X278200000Y-77200000D01*
X277450000Y-77200000D01*
X277450000Y-78174999D01*
X276900019Y-78174999D01*
X276949999Y-78174998D01*
X276950000Y-78174998D01*
X276950000Y-76700000D01*
X277450000Y-76700000D01*
X278199999Y-76700000D01*
X278199999Y-76425028D01*
X278199998Y-76425013D01*
X278189505Y-76322302D01*
X278134358Y-76155880D01*
X278134356Y-76155875D01*
X278042315Y-76006654D01*
X277918345Y-75882684D01*
X277769124Y-75790643D01*
X277769119Y-75790641D01*
X277602697Y-75735494D01*
X277602690Y-75735493D01*
X277499986Y-75725000D01*
X277450000Y-75725000D01*
X277450000Y-76700000D01*
X276950000Y-76700000D01*
X276950000Y-75725000D01*
X276949999Y-75724999D01*
X276900029Y-75725000D01*
X276900011Y-75725001D01*
X276797302Y-75735494D01*
X276630880Y-75790641D01*
X276630875Y-75790643D01*
X276481654Y-75882684D01*
X276357683Y-76006655D01*
X276357679Y-76006660D01*
X276355826Y-76009665D01*
X276354018Y-76011290D01*
X276353202Y-76012323D01*
X276353025Y-76012183D01*
X276303874Y-76056385D01*
X276234911Y-76067601D01*
X276170831Y-76039752D01*
X276144753Y-76009653D01*
X276144737Y-76009628D01*
X276142712Y-76006344D01*
X276018656Y-75882288D01*
X275869334Y-75790186D01*
X275702797Y-75735001D01*
X275702795Y-75735000D01*
X275600010Y-75724500D01*
X274999998Y-75724500D01*
X274999980Y-75724501D01*
X274897203Y-75735000D01*
X274897200Y-75735001D01*
X274730668Y-75790185D01*
X274730663Y-75790187D01*
X274581342Y-75882289D01*
X274457289Y-76006342D01*
X274365187Y-76155663D01*
X274365184Y-76155671D01*
X274353972Y-76189506D01*
X274340102Y-76209537D01*
X274329980Y-76231703D01*
X274320567Y-76237751D01*
X274314199Y-76246950D01*
X274291700Y-76256303D01*
X274271202Y-76269477D01*
X274254098Y-76271936D01*
X274249683Y-76273772D01*
X274236267Y-76274500D01*
X274224499Y-76274500D01*
X274157460Y-76254815D01*
X274111705Y-76202011D01*
X274100499Y-76150500D01*
X274100499Y-75691971D01*
X274100499Y-75691964D01*
X274089886Y-75572582D01*
X274033909Y-75376951D01*
X273939698Y-75196593D01*
X273860937Y-75100000D01*
X273811109Y-75038890D01*
X273653409Y-74910304D01*
X273653410Y-74910304D01*
X273653407Y-74910302D01*
X273473049Y-74816091D01*
X273473048Y-74816090D01*
X273473045Y-74816089D01*
X273355829Y-74782550D01*
X273277418Y-74760114D01*
X273277415Y-74760113D01*
X273277413Y-74760113D01*
X273211102Y-74754217D01*
X273158037Y-74749500D01*
X273158032Y-74749500D01*
X272041971Y-74749500D01*
X272041965Y-74749500D01*
X272041964Y-74749501D01*
X272030316Y-74750536D01*
X271922584Y-74760113D01*
X271726954Y-74816089D01*
X271636772Y-74863196D01*
X271546593Y-74910302D01*
X271546591Y-74910303D01*
X271546590Y-74910304D01*
X271388890Y-75038890D01*
X271260304Y-75196590D01*
X271166089Y-75376954D01*
X271110114Y-75572583D01*
X271110113Y-75572586D01*
X271099500Y-75691966D01*
X271099500Y-76350500D01*
X271079815Y-76417539D01*
X271027011Y-76463294D01*
X270975500Y-76474500D01*
X267830139Y-76474500D01*
X267763100Y-76454815D01*
X267719051Y-76405594D01*
X267667032Y-76300707D01*
X267667030Y-76300704D01*
X267547724Y-76152280D01*
X267545510Y-76150500D01*
X267478112Y-76096324D01*
X267438196Y-76038985D01*
X267435616Y-75969163D01*
X267471194Y-75909030D01*
X267478115Y-75903033D01*
X267547366Y-75847367D01*
X267547367Y-75847366D01*
X267666607Y-75699025D01*
X267666609Y-75699022D01*
X267751168Y-75528523D01*
X267797102Y-75343824D01*
X267800000Y-75301096D01*
X267800000Y-75100000D01*
X264800000Y-75100000D01*
X264800000Y-75301096D01*
X264802897Y-75343824D01*
X264848831Y-75528523D01*
X264933390Y-75699022D01*
X264933392Y-75699025D01*
X265052630Y-75847364D01*
X265121884Y-75903031D01*
X265161803Y-75960375D01*
X265164383Y-76030197D01*
X265128805Y-76090329D01*
X265121885Y-76096326D01*
X265052276Y-76152280D01*
X264932969Y-76300704D01*
X264932967Y-76300707D01*
X264848360Y-76471302D01*
X264802400Y-76656107D01*
X264799500Y-76698879D01*
X264799500Y-77601122D01*
X264799501Y-77601125D01*
X264802399Y-77643886D01*
X264802399Y-77643887D01*
X264848360Y-77828696D01*
X264932967Y-77999292D01*
X264932969Y-77999295D01*
X265052277Y-78147721D01*
X265052278Y-78147722D01*
X265121486Y-78203353D01*
X265161405Y-78260696D01*
X265163985Y-78330518D01*
X265128406Y-78390651D01*
X265121486Y-78396647D01*
X265052278Y-78452277D01*
X265052277Y-78452278D01*
X264932969Y-78600704D01*
X264932967Y-78600707D01*
X264880949Y-78705594D01*
X264833528Y-78756907D01*
X264769861Y-78774500D01*
X264063733Y-78774500D01*
X263996694Y-78754815D01*
X263950939Y-78702011D01*
X263946028Y-78689506D01*
X263941495Y-78675829D01*
X263934814Y-78655666D01*
X263842712Y-78506344D01*
X263718656Y-78382288D01*
X263569334Y-78290186D01*
X263402797Y-78235001D01*
X263402795Y-78235000D01*
X263300010Y-78224500D01*
X262699998Y-78224500D01*
X262699980Y-78224501D01*
X262597203Y-78235000D01*
X262597200Y-78235001D01*
X262430668Y-78290185D01*
X262430663Y-78290187D01*
X262281342Y-78382289D01*
X262157288Y-78506343D01*
X262157283Y-78506349D01*
X262155241Y-78509661D01*
X262153247Y-78511453D01*
X262152807Y-78512011D01*
X262152711Y-78511935D01*
X262103291Y-78556383D01*
X262034328Y-78567602D01*
X261970247Y-78539755D01*
X261944168Y-78509656D01*
X261942319Y-78506659D01*
X261942316Y-78506655D01*
X261818345Y-78382684D01*
X261669124Y-78290643D01*
X261669119Y-78290641D01*
X261502697Y-78235494D01*
X261502690Y-78235493D01*
X261399986Y-78225000D01*
X261350000Y-78225000D01*
X260850000Y-78225000D01*
X260849999Y-78224999D01*
X260800029Y-78225000D01*
X260800011Y-78225001D01*
X260697302Y-78235494D01*
X260530880Y-78290641D01*
X260530875Y-78290643D01*
X260381654Y-78382684D01*
X260257684Y-78506654D01*
X260165643Y-78655875D01*
X260165641Y-78655880D01*
X260110494Y-78822302D01*
X260110493Y-78822309D01*
X260100000Y-78925013D01*
X258750500Y-78925013D01*
X258750500Y-74398903D01*
X264800000Y-74398903D01*
X264800000Y-74600000D01*
X266050000Y-74600000D01*
X266550000Y-74600000D01*
X267800000Y-74600000D01*
X267800000Y-74398903D01*
X267797102Y-74356175D01*
X267751168Y-74171476D01*
X267666609Y-74000977D01*
X267666607Y-74000974D01*
X267547367Y-73852633D01*
X267547366Y-73852632D01*
X267399025Y-73733392D01*
X267399022Y-73733390D01*
X267228523Y-73648831D01*
X267043824Y-73602897D01*
X267001097Y-73600000D01*
X266550000Y-73600000D01*
X266550000Y-74600000D01*
X266050000Y-74600000D01*
X266050000Y-73600000D01*
X265598903Y-73600000D01*
X265556175Y-73602897D01*
X265371476Y-73648831D01*
X265200977Y-73733390D01*
X265200974Y-73733392D01*
X265052633Y-73852632D01*
X265052632Y-73852633D01*
X264933392Y-74000974D01*
X264933390Y-74000977D01*
X264848831Y-74171476D01*
X264802897Y-74356175D01*
X264800000Y-74398903D01*
X258750500Y-74398903D01*
X258750500Y-57399500D01*
X258770185Y-57332461D01*
X258822989Y-57286706D01*
X258874500Y-57275500D01*
X266958825Y-57275500D01*
X267025864Y-57295185D01*
G37*
%TD.AperFunction*%
%TA.AperFunction,Conductor*%
G36*
X260020109Y-120732404D02*
G01*
X260064456Y-120760905D01*
X260849999Y-121546448D01*
X260850000Y-121546447D01*
X260850000Y-120974000D01*
X260869685Y-120906961D01*
X260922489Y-120861206D01*
X260974000Y-120850000D01*
X261923185Y-120850000D01*
X261990224Y-120869685D01*
X262035979Y-120922489D01*
X262046475Y-120987254D01*
X262045909Y-120992516D01*
X262045909Y-120992517D01*
X262039500Y-121052127D01*
X262039500Y-121052128D01*
X262039500Y-121052132D01*
X262039500Y-122347870D01*
X262039501Y-122347876D01*
X262045908Y-122407483D01*
X262096202Y-122542328D01*
X262096206Y-122542335D01*
X262182452Y-122657544D01*
X262182455Y-122657547D01*
X262297664Y-122743793D01*
X262297671Y-122743797D01*
X262432517Y-122794091D01*
X262432516Y-122794091D01*
X262439444Y-122794835D01*
X262492127Y-122800500D01*
X263287872Y-122800499D01*
X263347483Y-122794091D01*
X263396665Y-122775746D01*
X263466355Y-122770761D01*
X263483333Y-122775747D01*
X263532508Y-122794088D01*
X263532511Y-122794088D01*
X263532517Y-122794091D01*
X263592127Y-122800500D01*
X264387872Y-122800499D01*
X264447483Y-122794091D01*
X264496665Y-122775746D01*
X264566355Y-122770761D01*
X264583333Y-122775747D01*
X264632508Y-122794088D01*
X264632511Y-122794088D01*
X264632517Y-122794091D01*
X264692127Y-122800500D01*
X265487872Y-122800499D01*
X265547483Y-122794091D01*
X265596665Y-122775746D01*
X265666355Y-122770761D01*
X265683333Y-122775747D01*
X265732508Y-122794088D01*
X265732511Y-122794088D01*
X265732517Y-122794091D01*
X265792127Y-122800500D01*
X266587872Y-122800499D01*
X266647483Y-122794091D01*
X266696665Y-122775746D01*
X266766355Y-122770761D01*
X266783333Y-122775747D01*
X266832508Y-122794088D01*
X266832511Y-122794088D01*
X266832517Y-122794091D01*
X266892127Y-122800500D01*
X267687872Y-122800499D01*
X267747483Y-122794091D01*
X267797382Y-122775479D01*
X267867069Y-122770494D01*
X267884048Y-122775479D01*
X267932628Y-122793598D01*
X267932627Y-122793598D01*
X267992155Y-122799999D01*
X267992172Y-122800000D01*
X268787828Y-122800000D01*
X268787836Y-122799999D01*
X268821688Y-122796359D01*
X268890448Y-122808762D01*
X268941587Y-122856371D01*
X268942334Y-122857648D01*
X269007384Y-122970319D01*
X269007388Y-122970324D01*
X269196349Y-123159285D01*
X269211052Y-123186212D01*
X269227645Y-123212031D01*
X269228536Y-123218231D01*
X269229834Y-123220608D01*
X269232668Y-123246966D01*
X269232668Y-123467623D01*
X269232667Y-123467645D01*
X269232667Y-123542923D01*
X269232402Y-123551032D01*
X269221250Y-123721208D01*
X269219133Y-123737289D01*
X269186657Y-123900562D01*
X269182460Y-123916223D01*
X269128949Y-124073863D01*
X269122745Y-124088841D01*
X269049122Y-124238135D01*
X269041013Y-124252182D01*
X268948526Y-124390600D01*
X268938651Y-124403469D01*
X268826287Y-124531595D01*
X268820740Y-124537517D01*
X263720913Y-129637345D01*
X263720878Y-129637384D01*
X263701966Y-129656296D01*
X263561093Y-129832943D01*
X263440890Y-130024243D01*
X263342864Y-130227794D01*
X263342858Y-130227808D01*
X263268243Y-130441044D01*
X263268239Y-130441056D01*
X263217965Y-130661324D01*
X263217963Y-130661336D01*
X263192668Y-130885831D01*
X263192668Y-130949831D01*
X263192664Y-130949841D01*
X263192664Y-131114167D01*
X263217959Y-131338663D01*
X263217961Y-131338679D01*
X263268234Y-131558940D01*
X263268239Y-131558956D01*
X263342854Y-131772192D01*
X263342856Y-131772196D01*
X263342857Y-131772199D01*
X263440887Y-131975758D01*
X263561092Y-132167061D01*
X263561096Y-132167066D01*
X263561098Y-132167069D01*
X263610363Y-132228844D01*
X263701960Y-132343701D01*
X263725690Y-132367431D01*
X263725691Y-132367432D01*
X263981745Y-132623486D01*
X263981747Y-132623488D01*
X264005492Y-132647233D01*
X264023259Y-132664999D01*
X264030638Y-132672378D01*
X264036187Y-132678302D01*
X264148648Y-132806539D01*
X264158522Y-132819408D01*
X264251000Y-132957812D01*
X264259110Y-132971858D01*
X264332737Y-133121158D01*
X264338945Y-133136145D01*
X264392454Y-133293782D01*
X264396651Y-133309448D01*
X264429124Y-133472705D01*
X264431242Y-133488787D01*
X264435278Y-133550375D01*
X264420019Y-133618559D01*
X264370320Y-133667669D01*
X264301960Y-133682113D01*
X264236642Y-133657306D01*
X264195105Y-133601124D01*
X264189654Y-133581266D01*
X264189625Y-133581110D01*
X264188024Y-133572544D01*
X264114348Y-133382363D01*
X264050591Y-133279391D01*
X264006982Y-133208960D01*
X264006980Y-133208958D01*
X263869581Y-133058237D01*
X263706821Y-132935327D01*
X263524260Y-132844422D01*
X263524247Y-132844417D01*
X263328081Y-132788602D01*
X263328082Y-132788602D01*
X263125001Y-132769785D01*
X263124999Y-132769785D01*
X262921917Y-132788602D01*
X262725752Y-132844417D01*
X262725739Y-132844422D01*
X262543178Y-132935327D01*
X262380418Y-133058237D01*
X262243019Y-133208958D01*
X262243017Y-133208960D01*
X262135655Y-133382357D01*
X262135651Y-133382364D01*
X262097563Y-133480683D01*
X262061976Y-133572544D01*
X262026673Y-133761401D01*
X262024500Y-133773025D01*
X262024500Y-134150500D01*
X262022206Y-134158309D01*
X262023483Y-134166350D01*
X262012505Y-134191347D01*
X262004815Y-134217539D01*
X261998663Y-134222869D01*
X261995390Y-134230324D01*
X261972637Y-134245420D01*
X261952011Y-134263294D01*
X261942458Y-134265445D01*
X261937171Y-134268954D01*
X261905841Y-134273692D01*
X261902313Y-134274487D01*
X261901390Y-134274500D01*
X261777128Y-134274501D01*
X261757557Y-134276604D01*
X261751817Y-134276688D01*
X261749309Y-134275991D01*
X261736756Y-134275991D01*
X261722889Y-134274501D01*
X261722875Y-134274500D01*
X261722873Y-134274500D01*
X261722870Y-134274500D01*
X261277130Y-134274500D01*
X261277116Y-134274501D01*
X261260906Y-134276244D01*
X261237229Y-134276515D01*
X261214073Y-134274561D01*
X261186167Y-134263744D01*
X261157461Y-134255315D01*
X261153940Y-134251252D01*
X261148927Y-134249309D01*
X261131298Y-134225122D01*
X261111706Y-134202511D01*
X261110381Y-134196422D01*
X261107774Y-134192845D01*
X261107098Y-134181330D01*
X261100500Y-134151000D01*
X261100500Y-133274500D01*
X261120185Y-133207461D01*
X261172989Y-133161706D01*
X261224500Y-133150500D01*
X261328844Y-133150500D01*
X261328845Y-133150499D01*
X261483497Y-133119737D01*
X261629179Y-133059394D01*
X261760289Y-132971789D01*
X261871789Y-132860289D01*
X261959394Y-132729179D01*
X262019737Y-132583497D01*
X262050500Y-132428842D01*
X262050500Y-132271158D01*
X262050500Y-132271155D01*
X262050499Y-132271153D01*
X262045228Y-132244652D01*
X262019737Y-132116503D01*
X262012133Y-132098144D01*
X261959397Y-131970827D01*
X261959390Y-131970814D01*
X261871789Y-131839711D01*
X261871786Y-131839707D01*
X261760292Y-131728213D01*
X261760288Y-131728210D01*
X261629185Y-131640609D01*
X261629172Y-131640602D01*
X261483501Y-131580264D01*
X261483492Y-131580261D01*
X261405755Y-131564798D01*
X261343845Y-131532412D01*
X261309271Y-131471696D01*
X261310872Y-131408585D01*
X261317665Y-131385204D01*
X261320500Y-131349181D01*
X261320499Y-130950820D01*
X261317665Y-130914796D01*
X261272869Y-130760607D01*
X261238581Y-130702629D01*
X261221398Y-130634905D01*
X261238582Y-130576386D01*
X261272404Y-130519196D01*
X261272405Y-130519194D01*
X261312844Y-130380000D01*
X260760409Y-130380000D01*
X260750680Y-130379618D01*
X260749186Y-130379500D01*
X260250830Y-130379500D01*
X260250813Y-130379501D01*
X260249692Y-130379589D01*
X260249330Y-130379618D01*
X260239607Y-130380000D01*
X259687156Y-130380000D01*
X259727594Y-130519193D01*
X259761419Y-130576388D01*
X259778601Y-130644112D01*
X259761419Y-130702628D01*
X259727130Y-130760607D01*
X259727129Y-130760611D01*
X259682335Y-130914791D01*
X259682334Y-130914797D01*
X259679500Y-130950811D01*
X259679500Y-131349169D01*
X259679501Y-131349191D01*
X259682335Y-131385205D01*
X259727129Y-131539388D01*
X259727131Y-131539393D01*
X259808865Y-131677598D01*
X259863182Y-131731915D01*
X259896666Y-131793236D01*
X259899500Y-131819595D01*
X259899500Y-132702217D01*
X259879815Y-132769256D01*
X259827011Y-132815011D01*
X259757853Y-132824955D01*
X259694297Y-132795930D01*
X259668113Y-132764217D01*
X259665297Y-132759341D01*
X259654921Y-132741368D01*
X259620608Y-132700475D01*
X259531144Y-132593855D01*
X259383633Y-132470080D01*
X259383632Y-132470079D01*
X259312207Y-132428842D01*
X259216872Y-132373800D01*
X259216869Y-132373799D01*
X259216868Y-132373798D01*
X259194019Y-132365482D01*
X259035917Y-132307937D01*
X258852968Y-132275679D01*
X258790365Y-132244652D01*
X258754474Y-132184705D01*
X258750500Y-132153563D01*
X258750500Y-129880000D01*
X259687156Y-129880000D01*
X260250000Y-129880000D01*
X260750000Y-129880000D01*
X261312844Y-129880000D01*
X261272404Y-129740805D01*
X261190738Y-129602714D01*
X261190731Y-129602705D01*
X261077294Y-129489268D01*
X261077285Y-129489261D01*
X260939191Y-129407593D01*
X260939188Y-129407592D01*
X260785130Y-129362834D01*
X260750000Y-129360068D01*
X260750000Y-129880000D01*
X260250000Y-129880000D01*
X260250000Y-129360068D01*
X260249999Y-129360068D01*
X260214869Y-129362834D01*
X260214868Y-129362834D01*
X260060811Y-129407592D01*
X260060808Y-129407593D01*
X259922714Y-129489261D01*
X259922705Y-129489268D01*
X259809268Y-129602705D01*
X259809261Y-129602714D01*
X259727595Y-129740805D01*
X259687156Y-129880000D01*
X258750500Y-129880000D01*
X258750500Y-122398377D01*
X258770185Y-122331338D01*
X258822989Y-122285583D01*
X258892147Y-122275639D01*
X258948812Y-122299111D01*
X259007910Y-122343352D01*
X259007913Y-122343354D01*
X259142620Y-122393596D01*
X259142627Y-122393598D01*
X259202155Y-122399999D01*
X259202172Y-122400000D01*
X260397828Y-122400000D01*
X260397844Y-122399999D01*
X260457372Y-122393598D01*
X260457379Y-122393596D01*
X260592086Y-122343354D01*
X260592088Y-122343352D01*
X260707186Y-122257190D01*
X260707187Y-122257189D01*
X260769885Y-122173436D01*
X259710905Y-121114456D01*
X259677420Y-121053133D01*
X259682404Y-120983441D01*
X259710905Y-120939094D01*
X259889094Y-120760905D01*
X259950417Y-120727420D01*
X260020109Y-120732404D01*
G37*
%TD.AperFunction*%
%TD*%
M02*
