%TF.GenerationSoftware,KiCad,Pcbnew,9.0.1*%
%TF.CreationDate,2025-04-25T13:26:34+02:00*%
%TF.ProjectId,m2-e-usdex,6d322d65-2d75-4736-9465-782e6b696361,rev?*%
%TF.SameCoordinates,Original*%
%TF.FileFunction,Copper,L6,Bot*%
%TF.FilePolarity,Positive*%
%FSLAX46Y46*%
G04 Gerber Fmt 4.6, Leading zero omitted, Abs format (unit mm)*
G04 Created by KiCad (PCBNEW 9.0.1) date 2025-04-25 13:26:34*
%MOMM*%
%LPD*%
G01*
G04 APERTURE LIST*
G04 Aperture macros list*
%AMRoundRect*
0 Rectangle with rounded corners*
0 $1 Rounding radius*
0 $2 $3 $4 $5 $6 $7 $8 $9 X,Y pos of 4 corners*
0 Add a 4 corners polygon primitive as box body*
4,1,4,$2,$3,$4,$5,$6,$7,$8,$9,$2,$3,0*
0 Add four circle primitives for the rounded corners*
1,1,$1+$1,$2,$3*
1,1,$1+$1,$4,$5*
1,1,$1+$1,$6,$7*
1,1,$1+$1,$8,$9*
0 Add four rect primitives between the rounded corners*
20,1,$1+$1,$2,$3,$4,$5,0*
20,1,$1+$1,$4,$5,$6,$7,0*
20,1,$1+$1,$6,$7,$8,$9,0*
20,1,$1+$1,$8,$9,$2,$3,0*%
G04 Aperture macros list end*
%TA.AperFunction,ConnectorPad*%
%ADD10R,0.350000X1.950000*%
%TD*%
%TA.AperFunction,ConnectorPad*%
%ADD11O,5.000000X6.000000*%
%TD*%
%TA.AperFunction,SMDPad,CuDef*%
%ADD12C,1.000000*%
%TD*%
%TA.AperFunction,SMDPad,CuDef*%
%ADD13RoundRect,0.250000X-0.475000X0.250000X-0.475000X-0.250000X0.475000X-0.250000X0.475000X0.250000X0*%
%TD*%
%TA.AperFunction,SMDPad,CuDef*%
%ADD14RoundRect,0.140000X0.170000X-0.140000X0.170000X0.140000X-0.170000X0.140000X-0.170000X-0.140000X0*%
%TD*%
%TA.AperFunction,SMDPad,CuDef*%
%ADD15RoundRect,0.140000X-0.170000X0.140000X-0.170000X-0.140000X0.170000X-0.140000X0.170000X0.140000X0*%
%TD*%
%TA.AperFunction,SMDPad,CuDef*%
%ADD16RoundRect,0.250000X0.475000X-0.250000X0.475000X0.250000X-0.475000X0.250000X-0.475000X-0.250000X0*%
%TD*%
%TA.AperFunction,ViaPad*%
%ADD17C,0.600000*%
%TD*%
%TA.AperFunction,ViaPad*%
%ADD18C,0.350000*%
%TD*%
%TA.AperFunction,Conductor*%
%ADD19C,0.350000*%
%TD*%
%TA.AperFunction,Conductor*%
%ADD20C,0.200000*%
%TD*%
%TA.AperFunction,Conductor*%
%ADD21C,0.205232*%
%TD*%
G04 APERTURE END LIST*
D10*
%TO.P,J1,2,3.3V*%
%TO.N,+3V3*%
X278250000Y-135250000D03*
%TO.P,J1,4,3.3V*%
X277750000Y-135250000D03*
%TO.P,J1,6,PWRDIS/NC*%
%TO.N,unconnected-(J1-PWRDIS{slash}NC-Pad6)*%
X277250000Y-135250000D03*
%TO.P,J1,8,~{PLN}/NC*%
%TO.N,unconnected-(J1-~{PLN}{slash}NC-Pad8)*%
X276750000Y-135250000D03*
%TO.P,J1,10,~{LED1}/DAS/~{DSS}*%
%TO.N,unconnected-(J1-~{LED1}{slash}DAS{slash}~{DSS}-Pad10)*%
X276250000Y-135250000D03*
%TO.P,J1,12,3.3V*%
%TO.N,+3V3*%
X275750000Y-135250000D03*
%TO.P,J1,14,3.3V*%
X275250000Y-135250000D03*
%TO.P,J1,16,3.3V*%
X274750000Y-135250000D03*
%TO.P,J1,18,3.3V*%
X274250000Y-135250000D03*
%TO.P,J1,20,NC*%
%TO.N,unconnected-(J1-NC-Pad20)*%
X273750000Y-135250000D03*
%TO.P,J1,22,VIO-1.8V/NC*%
%TO.N,unconnected-(J1-VIO-1.8V{slash}NC-Pad22)*%
X273250000Y-135250000D03*
%TO.P,J1,24,NC*%
%TO.N,unconnected-(J1-NC-Pad24)*%
X272750000Y-135250000D03*
%TO.P,J1,26,NC*%
%TO.N,unconnected-(J1-NC-Pad26)*%
X272250000Y-135250000D03*
%TO.P,J1,28,NC*%
%TO.N,unconnected-(J1-NC-Pad28)*%
X271750000Y-135250000D03*
%TO.P,J1,30,~{PLA_S3}/NC*%
%TO.N,unconnected-(J1-~{PLA_S3}{slash}NC-Pad30)*%
X271250000Y-135250000D03*
%TO.P,J1,32,GND/NC*%
%TO.N,GND*%
X270750000Y-135250000D03*
%TO.P,J1,34,USB_D+/NC*%
%TO.N,unconnected-(J1-USB_D+{slash}NC-Pad34)*%
X270250000Y-135250000D03*
%TO.P,J1,36,USB_D-/NC*%
%TO.N,unconnected-(J1-USB_D-{slash}NC-Pad36)*%
X269750000Y-135250000D03*
%TO.P,J1,38,GND/DEVSLP*%
%TO.N,GND*%
X269250000Y-135250000D03*
%TO.P,J1,40,SMB_CLK*%
%TO.N,unconnected-(J1-SMB_CLK-Pad40)*%
X268750000Y-135250000D03*
%TO.P,J1,42,SMB_DATA*%
%TO.N,unconnected-(J1-SMB_DATA-Pad42)*%
X268250000Y-135250000D03*
%TO.P,J1,44,~{ALERT}*%
%TO.N,unconnected-(J1-~{ALERT}-Pad44)*%
X267750000Y-135250000D03*
%TO.P,J1,46,NC*%
%TO.N,unconnected-(J1-NC-Pad46)*%
X267250000Y-135250000D03*
%TO.P,J1,48,NC*%
%TO.N,unconnected-(J1-NC-Pad48)*%
X266750000Y-135250000D03*
%TO.P,J1,50,~{PERST}*%
%TO.N,~{PERST}*%
X266250000Y-135250000D03*
%TO.P,J1,52,~{CLKREQ}*%
%TO.N,~{CLKREQ}*%
X265750000Y-135250000D03*
%TO.P,J1,54,~{PEWAKE}*%
%TO.N,unconnected-(J1-~{PEWAKE}-Pad54)*%
X265250000Y-135250000D03*
%TO.P,J1,56,MFG_DATA*%
%TO.N,unconnected-(J1-MFG_DATA-Pad56)*%
X264750000Y-135250000D03*
%TO.P,J1,58,MFG_CLOCK*%
%TO.N,unconnected-(J1-MFG_CLOCK-Pad58)*%
X264250000Y-135250000D03*
%TO.P,J1,68,SUSCLK*%
%TO.N,unconnected-(J1-SUSCLK-Pad68)*%
X261750000Y-135250000D03*
%TO.P,J1,70,3.3V*%
%TO.N,+3V3*%
X261250000Y-135250000D03*
%TO.P,J1,72,3.3V*%
X260750000Y-135250000D03*
%TO.P,J1,74,3.3V*%
X260250000Y-135250000D03*
D11*
%TO.P,J1,77,GND*%
%TO.N,GND*%
X269250000Y-57275000D03*
%TD*%
D12*
%TO.P,TP1,1,1*%
%TO.N,Net-(J2-1V2)*%
X266200000Y-93400000D03*
%TD*%
D13*
%TO.P,C6,1*%
%TO.N,+1V8*%
X262100000Y-110300000D03*
%TO.P,C6,2*%
%TO.N,GND*%
X262100000Y-112200000D03*
%TD*%
D14*
%TO.P,C5,1*%
%TO.N,PCIe_RX_CARD+*%
X269640000Y-106480000D03*
%TO.P,C5,2*%
%TO.N,PCIe_RX+*%
X269640000Y-105520000D03*
%TD*%
D15*
%TO.P,C4,1*%
%TO.N,PCIe_RX-*%
X268530000Y-105520000D03*
%TO.P,C4,2*%
%TO.N,PCIe_RX_CARD-*%
X268530000Y-106480000D03*
%TD*%
D16*
%TO.P,C3,1*%
%TO.N,+3V3*%
X262100000Y-118900000D03*
%TO.P,C3,2*%
%TO.N,GND*%
X262100000Y-117000000D03*
%TD*%
D17*
%TO.N,GND*%
X259200000Y-84000000D03*
X279000000Y-58000000D03*
X279000000Y-128000000D03*
X273000000Y-58000000D03*
X267720000Y-107700000D03*
X259200000Y-62000000D03*
X259200000Y-80000000D03*
X259200000Y-70000000D03*
X259500000Y-128000000D03*
X264990000Y-107700000D03*
X279000000Y-104000000D03*
X279000000Y-64000000D03*
X259200000Y-98000000D03*
X259200000Y-100000000D03*
X279000000Y-126000000D03*
X279000000Y-120000000D03*
X259200000Y-96000000D03*
X279000000Y-60000000D03*
X259200000Y-78000000D03*
X267030000Y-106000000D03*
D18*
X270500000Y-133550000D03*
D17*
X279000000Y-78000000D03*
D18*
X260000000Y-132350000D03*
D17*
X279000000Y-72000000D03*
X279000000Y-112000000D03*
X259200000Y-86000000D03*
X279000000Y-68000000D03*
X279000000Y-80000000D03*
X259200000Y-60000000D03*
X279000000Y-70000000D03*
X279000000Y-62000000D03*
X279000000Y-98000000D03*
X279000000Y-76000000D03*
X279000000Y-86000000D03*
X259800000Y-113650000D03*
X279000000Y-106000000D03*
X279000000Y-90000000D03*
D18*
X273500000Y-133550000D03*
D17*
X259200000Y-66000000D03*
X259200000Y-82000000D03*
X259800000Y-120850000D03*
X279000000Y-92000000D03*
D18*
X269000000Y-133550000D03*
D17*
X279000000Y-66000000D03*
X279000000Y-100000000D03*
X259200000Y-92000000D03*
X279000000Y-102000000D03*
X279000000Y-84000000D03*
X270450000Y-107700000D03*
X279000000Y-122000000D03*
X279000000Y-118000000D03*
X279000000Y-110000000D03*
X259200000Y-76000000D03*
X279000000Y-96000000D03*
X259500000Y-124000000D03*
X279000000Y-124000000D03*
X259200000Y-104000000D03*
X259200000Y-72000000D03*
X271140000Y-106000000D03*
X275000000Y-58000000D03*
X259200000Y-94000000D03*
X279000000Y-74000000D03*
D18*
X261900000Y-133100000D03*
D17*
X279000000Y-88000000D03*
X279000000Y-94000000D03*
D18*
X272000000Y-133550000D03*
D17*
X263000000Y-58000000D03*
X261000000Y-58000000D03*
X279000000Y-82000000D03*
X259200000Y-74000000D03*
X259800000Y-108150000D03*
X270640000Y-104700000D03*
D18*
X276500000Y-133550000D03*
D17*
X259200000Y-88000000D03*
X265000000Y-58000000D03*
X268390000Y-121700000D03*
X267530000Y-104700000D03*
X279000000Y-114000000D03*
X259200000Y-68000000D03*
X259200000Y-90000000D03*
X259200000Y-58000000D03*
X259500000Y-126000000D03*
X279000000Y-130000000D03*
X259200000Y-102000000D03*
X259200000Y-64000000D03*
X279000000Y-108000000D03*
X277000000Y-58000000D03*
%TO.N,+3V3*%
X275750000Y-132150000D03*
X266300000Y-81800000D03*
X274250000Y-132150000D03*
X266190000Y-121700000D03*
X277500000Y-131500000D03*
X261250000Y-132350000D03*
X278500000Y-131500000D03*
%TO.N,~{CLKREQ}*%
X262890000Y-121700000D03*
%TO.N,~{PERST}*%
X263990000Y-121700000D03*
%TO.N,+1V8*%
X262930000Y-107700000D03*
X272600000Y-81800000D03*
%TO.N,Net-(J2-1V2)*%
X264080000Y-107700000D03*
D18*
%TO.N,PCIe_RX_CARD-*%
X268630000Y-107700000D03*
%TO.N,PCIe_RX-*%
X276206600Y-106100000D03*
%TO.N,PCIe_RX+*%
X275653400Y-106100000D03*
%TO.N,PCIe_RX_CARD+*%
X269540000Y-107700000D03*
%TO.N,PCIe_TX+*%
X266473400Y-133200000D03*
X265900000Y-107700000D03*
%TO.N,PCIe_TX-*%
X266810000Y-107700000D03*
X267026600Y-133200000D03*
%TD*%
D19*
%TO.N,GND*%
X269250000Y-133800000D02*
X269000000Y-133550000D01*
X270750000Y-133800000D02*
X270500000Y-133550000D01*
X269250000Y-135250000D02*
X269250000Y-133800000D01*
X270750000Y-135250000D02*
X270750000Y-133800000D01*
%TO.N,+3V3*%
X274750000Y-132650000D02*
X274250000Y-132150000D01*
X275750000Y-135250000D02*
X275750000Y-132100000D01*
X260250000Y-135250000D02*
X260250000Y-133350000D01*
X260750000Y-135250000D02*
X260750000Y-132850000D01*
X260750000Y-132850000D02*
X261250000Y-132350000D01*
X266190000Y-120590000D02*
X264500000Y-118900000D01*
X266190000Y-121700000D02*
X266190000Y-120590000D01*
X274750000Y-135250000D02*
X274750000Y-132650000D01*
X274250000Y-135250000D02*
X274250000Y-132150000D01*
X277750000Y-135250000D02*
X277750000Y-131750000D01*
X275250000Y-132650000D02*
X275750000Y-132150000D01*
X278250000Y-135250000D02*
X278250000Y-131750000D01*
X277750000Y-131750000D02*
X277500000Y-131500000D01*
X278250000Y-131750000D02*
X278500000Y-131500000D01*
X264500000Y-118900000D02*
X262100000Y-118900000D01*
X260250000Y-133350000D02*
X261250000Y-132350000D01*
X275250000Y-135250000D02*
X275250000Y-132650000D01*
X261250000Y-135250000D02*
X261250000Y-132550000D01*
D20*
%TO.N,~{CLKREQ}*%
X262890000Y-131280000D02*
X262890000Y-121700000D01*
X265750000Y-134140000D02*
X262890000Y-131280000D01*
X265750000Y-135250000D02*
X265750000Y-134140000D01*
%TO.N,~{PERST}*%
X266176000Y-135046000D02*
X266176000Y-134024000D01*
X263241000Y-122449000D02*
X263990000Y-121700000D01*
X263241000Y-131134612D02*
X263241000Y-122449000D01*
X266101000Y-134024000D02*
X266101000Y-133994612D01*
X266176000Y-134024000D02*
X266101000Y-134024000D01*
X266101000Y-133994612D02*
X263241000Y-131134612D01*
X266250000Y-135250000D02*
X266250000Y-135120000D01*
X266250000Y-135120000D02*
X266176000Y-135046000D01*
D19*
%TO.N,+1V8*%
X262930000Y-107700000D02*
X262930000Y-91470000D01*
X262930000Y-107700000D02*
X262930000Y-109470000D01*
X262930000Y-91470000D02*
X272600000Y-81800000D01*
X262930000Y-109470000D02*
X262100000Y-110300000D01*
%TO.N,Net-(J2-1V2)*%
X266200000Y-93400000D02*
X264080000Y-95520000D01*
X264080000Y-95520000D02*
X264080000Y-107700000D01*
D21*
%TO.N,PCIe_RX_CARD-*%
X268530000Y-106480000D02*
X268880783Y-106830783D01*
X268880783Y-106830783D02*
X268880783Y-107449217D01*
X268880783Y-107449217D02*
X268630000Y-107700000D01*
%TO.N,PCIe_RX-*%
X276134217Y-106027617D02*
X276134217Y-105878803D01*
X272041198Y-101785784D02*
X271468802Y-101785784D01*
X268880784Y-104704215D02*
X268530000Y-105054999D01*
X268530000Y-105054999D02*
X268530000Y-105520000D01*
X276206600Y-106100000D02*
X276134217Y-106027617D01*
X275721697Y-104882891D02*
X273037110Y-102198304D01*
X270472890Y-102198304D02*
X269293304Y-103377890D01*
X268880784Y-104373802D02*
X268880784Y-104704215D01*
X271468802Y-101785784D02*
G75*
G03*
X270472892Y-102198306I-2J-1408416D01*
G01*
X272041198Y-101785784D02*
G75*
G02*
X273037108Y-102198306I2J-1408416D01*
G01*
X276134217Y-105878803D02*
G75*
G03*
X275721695Y-104882893I-1408417J3D01*
G01*
X269293304Y-103377890D02*
G75*
G03*
X268880780Y-104373802I995896J-995910D01*
G01*
%TO.N,PCIe_RX+*%
X274378339Y-104456557D02*
X274118537Y-104716356D01*
X272041196Y-102194216D02*
X271468804Y-102194216D01*
X269640000Y-105054999D02*
X269640000Y-105520000D01*
X273954073Y-103692879D02*
X273869222Y-103608028D01*
X269289216Y-104373804D02*
X269289216Y-104704215D01*
X275653400Y-106100000D02*
X275725783Y-106027617D01*
X275432890Y-105171696D02*
X274717751Y-104456557D01*
X273694272Y-104292091D02*
X273954073Y-104032291D01*
X275725783Y-106027617D02*
X275725783Y-105878803D01*
X273869222Y-103608028D02*
X273283474Y-103022280D01*
X270761697Y-102487109D02*
X269582109Y-103666697D01*
X273779125Y-104716356D02*
X273694272Y-104631503D01*
X273283474Y-103022280D02*
X272748303Y-102487109D01*
X269289216Y-104704215D02*
X269640000Y-105054999D01*
X271468804Y-102194216D02*
G75*
G03*
X270761699Y-102487111I-4J-999984D01*
G01*
X274717751Y-104456557D02*
G75*
G03*
X274378339Y-104456557I-169706J-169701D01*
G01*
X274118537Y-104716356D02*
G75*
G02*
X273779125Y-104716356I-169706J169701D01*
G01*
X269582109Y-103666697D02*
G75*
G03*
X269289214Y-104373804I707091J-707103D01*
G01*
X275725783Y-105878803D02*
G75*
G03*
X275432888Y-105171698I-999983J3D01*
G01*
X272748303Y-102487109D02*
G75*
G03*
X272041196Y-102194214I-707103J-707091D01*
G01*
X273694272Y-104631503D02*
G75*
G02*
X273694275Y-104292094I169728J169703D01*
G01*
X273954073Y-104032291D02*
G75*
G03*
X273954058Y-103692894I-169673J169691D01*
G01*
%TO.N,PCIe_RX_CARD+*%
X269640000Y-106480000D02*
X269289217Y-106830783D01*
X269289217Y-106830783D02*
X269289217Y-107449217D01*
X269289217Y-107449217D02*
X269540000Y-107700000D01*
%TO.N,PCIe_TX+*%
X272842113Y-124999962D02*
X273921153Y-121189995D01*
X266473400Y-133200000D02*
X266545783Y-133127617D01*
X266545783Y-133127617D02*
X266545783Y-132653016D01*
X266150783Y-107950783D02*
X265900000Y-107700000D01*
X272332013Y-115420819D02*
X266856196Y-109945002D01*
X267251197Y-130949997D02*
X272332014Y-125869180D01*
X266150783Y-108241984D02*
X266150783Y-107950783D01*
X272842113Y-116290038D02*
X273921153Y-120100005D01*
X266856196Y-109945002D02*
G75*
G02*
X266150790Y-108241984I1703004J1703002D01*
G01*
X273921153Y-121189995D02*
G75*
G03*
X273921153Y-120100005I-1924353J544995D01*
G01*
X266545783Y-132653016D02*
G75*
G02*
X267251192Y-130949992I2408417J16D01*
G01*
X272332013Y-115420819D02*
G75*
G02*
X272842099Y-116290042I-1414213J-1414181D01*
G01*
X272842113Y-124999962D02*
G75*
G02*
X272332024Y-125869190I-1924313J544962D01*
G01*
%TO.N,PCIe_TX-*%
X267540004Y-131238802D02*
X272620818Y-126157988D01*
X266954217Y-133127617D02*
X266954217Y-132653016D01*
X266559217Y-107950783D02*
X266810000Y-107700000D01*
X266559217Y-108241984D02*
X266559217Y-107950783D01*
X273235088Y-116178740D02*
X274314129Y-119988709D01*
X272620818Y-115132012D02*
X267145003Y-109656197D01*
X273235088Y-125111261D02*
X274314129Y-121301291D01*
X267026600Y-133200000D02*
X266954217Y-133127617D01*
X266559217Y-108241984D02*
G75*
G03*
X267144998Y-109656202I1999983J-16D01*
G01*
X273235088Y-116178740D02*
G75*
G03*
X272620827Y-115132003I-2317288J-656260D01*
G01*
X274314129Y-119988709D02*
G75*
G02*
X274314129Y-121301291I-2317329J-656291D01*
G01*
X267540004Y-131238802D02*
G75*
G03*
X266954223Y-132653016I1414196J-1414198D01*
G01*
X272620818Y-126157988D02*
G75*
G03*
X273235075Y-125111257I-1703018J1702988D01*
G01*
%TD*%
%TA.AperFunction,Conductor*%
%TO.N,GND*%
G36*
X267025864Y-57295185D02*
G01*
X267071619Y-57347989D01*
X267078929Y-57368662D01*
X267105416Y-57471822D01*
X267209655Y-57735102D01*
X267209659Y-57735110D01*
X267346078Y-57983256D01*
X267346090Y-57983274D01*
X267512524Y-58212350D01*
X267512532Y-58212360D01*
X267706379Y-58418786D01*
X267924578Y-58599296D01*
X268071711Y-58692669D01*
X268163670Y-58751028D01*
X268419898Y-58871599D01*
X268689217Y-58959107D01*
X268967380Y-59012169D01*
X268967385Y-59012169D01*
X268967390Y-59012170D01*
X269249995Y-59029950D01*
X269250000Y-59029950D01*
X269250005Y-59029950D01*
X269532609Y-59012170D01*
X269532612Y-59012169D01*
X269532620Y-59012169D01*
X269810783Y-58959107D01*
X270080102Y-58871599D01*
X270336330Y-58751028D01*
X270575426Y-58599293D01*
X270793619Y-58418788D01*
X270987469Y-58212359D01*
X271153917Y-57983263D01*
X271290340Y-57735111D01*
X271306504Y-57694287D01*
X271394583Y-57471822D01*
X271394585Y-57471818D01*
X271421071Y-57368661D01*
X271456809Y-57308624D01*
X271519333Y-57277439D01*
X271541175Y-57275500D01*
X279625500Y-57275500D01*
X279692539Y-57295185D01*
X279738294Y-57347989D01*
X279749500Y-57399500D01*
X279749500Y-132153563D01*
X279729815Y-132220602D01*
X279677011Y-132266357D01*
X279647032Y-132275679D01*
X279464082Y-132307937D01*
X279283134Y-132373797D01*
X279283127Y-132373800D01*
X279111679Y-132472786D01*
X279110404Y-132470577D01*
X279109652Y-132470830D01*
X279101011Y-132478318D01*
X279077134Y-132481751D01*
X279054261Y-132489433D01*
X279043171Y-132486634D01*
X279031853Y-132488262D01*
X279009906Y-132478239D01*
X278986515Y-132472336D01*
X278978700Y-132463988D01*
X278968297Y-132459237D01*
X278955253Y-132438940D01*
X278938766Y-132421328D01*
X278935731Y-132408563D01*
X278930523Y-132400459D01*
X278925500Y-132365524D01*
X278925500Y-132244722D01*
X278945185Y-132177683D01*
X278980611Y-132141619D01*
X279003774Y-132126142D01*
X279010289Y-132121789D01*
X279121789Y-132010289D01*
X279209394Y-131879179D01*
X279269737Y-131733497D01*
X279300500Y-131578842D01*
X279300500Y-131421158D01*
X279300500Y-131421155D01*
X279300499Y-131421153D01*
X279269738Y-131266510D01*
X279269737Y-131266503D01*
X279269735Y-131266498D01*
X279209397Y-131120827D01*
X279209390Y-131120814D01*
X279121789Y-130989711D01*
X279121786Y-130989707D01*
X279010292Y-130878213D01*
X279010288Y-130878210D01*
X278879185Y-130790609D01*
X278879172Y-130790602D01*
X278733501Y-130730264D01*
X278733489Y-130730261D01*
X278578845Y-130699500D01*
X278578842Y-130699500D01*
X278421158Y-130699500D01*
X278421155Y-130699500D01*
X278266510Y-130730261D01*
X278266498Y-130730264D01*
X278120827Y-130790602D01*
X278120814Y-130790609D01*
X278068891Y-130825304D01*
X278002214Y-130846182D01*
X277934833Y-130827698D01*
X277931109Y-130825304D01*
X277879185Y-130790609D01*
X277879172Y-130790602D01*
X277733501Y-130730264D01*
X277733489Y-130730261D01*
X277578845Y-130699500D01*
X277578842Y-130699500D01*
X277421158Y-130699500D01*
X277421155Y-130699500D01*
X277266510Y-130730261D01*
X277266498Y-130730264D01*
X277120827Y-130790602D01*
X277120814Y-130790609D01*
X276989711Y-130878210D01*
X276989707Y-130878213D01*
X276878213Y-130989707D01*
X276878210Y-130989711D01*
X276790609Y-131120814D01*
X276790602Y-131120827D01*
X276730264Y-131266498D01*
X276730261Y-131266510D01*
X276699500Y-131421153D01*
X276699500Y-131578846D01*
X276730261Y-131733489D01*
X276730264Y-131733501D01*
X276790602Y-131879172D01*
X276790609Y-131879185D01*
X276878210Y-132010288D01*
X276878213Y-132010292D01*
X276989707Y-132121786D01*
X276989712Y-132121790D01*
X277019389Y-132141619D01*
X277064195Y-132195230D01*
X277074500Y-132244722D01*
X277074500Y-133650500D01*
X277054815Y-133717539D01*
X277002011Y-133763294D01*
X276950500Y-133774500D01*
X276549500Y-133774500D01*
X276482461Y-133754815D01*
X276436706Y-133702011D01*
X276425500Y-133650500D01*
X276425500Y-132617519D01*
X276445185Y-132550480D01*
X276446398Y-132548628D01*
X276459394Y-132529179D01*
X276519737Y-132383497D01*
X276550500Y-132228842D01*
X276550500Y-132071158D01*
X276550500Y-132071155D01*
X276550499Y-132071153D01*
X276530543Y-131970827D01*
X276519737Y-131916503D01*
X276519735Y-131916498D01*
X276459397Y-131770827D01*
X276459390Y-131770814D01*
X276371789Y-131639711D01*
X276371786Y-131639707D01*
X276260292Y-131528213D01*
X276260288Y-131528210D01*
X276129185Y-131440609D01*
X276129172Y-131440602D01*
X275983501Y-131380264D01*
X275983489Y-131380261D01*
X275828845Y-131349500D01*
X275828842Y-131349500D01*
X275671158Y-131349500D01*
X275671155Y-131349500D01*
X275516510Y-131380261D01*
X275516498Y-131380264D01*
X275370827Y-131440602D01*
X275370814Y-131440609D01*
X275239711Y-131528210D01*
X275239707Y-131528213D01*
X275128213Y-131639707D01*
X275103102Y-131677289D01*
X275049489Y-131722093D01*
X274980164Y-131730800D01*
X274917137Y-131700645D01*
X274896898Y-131677289D01*
X274886992Y-131662464D01*
X274871789Y-131639711D01*
X274871788Y-131639710D01*
X274871786Y-131639707D01*
X274760292Y-131528213D01*
X274760288Y-131528210D01*
X274629185Y-131440609D01*
X274629172Y-131440602D01*
X274483501Y-131380264D01*
X274483489Y-131380261D01*
X274328845Y-131349500D01*
X274328842Y-131349500D01*
X274171158Y-131349500D01*
X274171155Y-131349500D01*
X274016510Y-131380261D01*
X274016498Y-131380264D01*
X273870827Y-131440602D01*
X273870814Y-131440609D01*
X273739711Y-131528210D01*
X273739707Y-131528213D01*
X273628213Y-131639707D01*
X273628210Y-131639711D01*
X273540609Y-131770814D01*
X273540602Y-131770827D01*
X273480264Y-131916498D01*
X273480261Y-131916510D01*
X273449500Y-132071153D01*
X273449500Y-132228846D01*
X273480261Y-132383489D01*
X273480264Y-132383501D01*
X273540603Y-132529174D01*
X273540604Y-132529175D01*
X273540606Y-132529179D01*
X273553602Y-132548628D01*
X273574480Y-132615305D01*
X273574500Y-132617519D01*
X273574500Y-133650500D01*
X273554815Y-133717539D01*
X273502011Y-133763294D01*
X273450500Y-133774500D01*
X273027133Y-133774500D01*
X273027121Y-133774501D01*
X273013248Y-133775992D01*
X272986756Y-133775991D01*
X272972889Y-133774501D01*
X272972875Y-133774500D01*
X272972873Y-133774500D01*
X272972870Y-133774500D01*
X272527133Y-133774500D01*
X272527121Y-133774501D01*
X272513248Y-133775992D01*
X272486756Y-133775991D01*
X272472889Y-133774501D01*
X272472875Y-133774500D01*
X272472873Y-133774500D01*
X272472870Y-133774500D01*
X272027133Y-133774500D01*
X272027121Y-133774501D01*
X272013248Y-133775992D01*
X271986756Y-133775991D01*
X271972889Y-133774501D01*
X271972875Y-133774500D01*
X271972873Y-133774500D01*
X271972870Y-133774500D01*
X271527133Y-133774500D01*
X271527121Y-133774501D01*
X271513248Y-133775992D01*
X271486756Y-133775991D01*
X271472889Y-133774501D01*
X271472875Y-133774500D01*
X271472873Y-133774500D01*
X271472870Y-133774500D01*
X271027130Y-133774500D01*
X271027116Y-133774501D01*
X271010906Y-133776244D01*
X270984404Y-133776244D01*
X270972835Y-133775000D01*
X270527169Y-133775000D01*
X270515594Y-133776244D01*
X270489100Y-133776243D01*
X270472889Y-133774501D01*
X270472875Y-133774500D01*
X270472873Y-133774500D01*
X270472870Y-133774500D01*
X270027133Y-133774500D01*
X270027121Y-133774501D01*
X270013248Y-133775992D01*
X269986756Y-133775991D01*
X269972889Y-133774501D01*
X269972875Y-133774500D01*
X269972873Y-133774500D01*
X269972870Y-133774500D01*
X269527130Y-133774500D01*
X269527116Y-133774501D01*
X269510906Y-133776244D01*
X269484404Y-133776244D01*
X269472835Y-133775000D01*
X269027169Y-133775000D01*
X269015594Y-133776244D01*
X268989100Y-133776243D01*
X268972889Y-133774501D01*
X268972875Y-133774500D01*
X268972873Y-133774500D01*
X268972870Y-133774500D01*
X268527133Y-133774500D01*
X268527121Y-133774501D01*
X268513248Y-133775992D01*
X268486756Y-133775991D01*
X268472889Y-133774501D01*
X268472875Y-133774500D01*
X268472873Y-133774500D01*
X268472870Y-133774500D01*
X268027133Y-133774500D01*
X268027121Y-133774501D01*
X268013248Y-133775992D01*
X267986756Y-133775991D01*
X267972889Y-133774501D01*
X267972875Y-133774500D01*
X267972873Y-133774500D01*
X267972870Y-133774500D01*
X267687135Y-133774500D01*
X267620096Y-133754815D01*
X267574341Y-133702011D01*
X267564397Y-133632853D01*
X267584032Y-133581611D01*
X267625220Y-133519969D01*
X267676140Y-133397036D01*
X267690890Y-133322884D01*
X267702100Y-133266533D01*
X267702100Y-133133466D01*
X267676141Y-133002969D01*
X267676140Y-133002968D01*
X267676140Y-133002964D01*
X267625220Y-132880031D01*
X267625214Y-132880022D01*
X267578230Y-132809703D01*
X267572579Y-132791657D01*
X267562356Y-132775749D01*
X267557904Y-132744786D01*
X267557353Y-132743026D01*
X267557333Y-132740814D01*
X267557333Y-132726247D01*
X267557334Y-132726243D01*
X267557333Y-132657075D01*
X267557598Y-132648966D01*
X267568751Y-132478781D01*
X267570865Y-132462719D01*
X267603345Y-132299425D01*
X267607534Y-132283792D01*
X267661057Y-132126116D01*
X267667247Y-132111174D01*
X267740885Y-131961848D01*
X267748982Y-131947824D01*
X267841484Y-131809385D01*
X267851339Y-131796541D01*
X267963743Y-131668369D01*
X267969260Y-131662479D01*
X272995504Y-126636236D01*
X272995507Y-126636235D01*
X273010975Y-126620767D01*
X273011058Y-126620721D01*
X273047297Y-126584460D01*
X273047298Y-126584461D01*
X273079326Y-126552414D01*
X273103431Y-126528310D01*
X273103431Y-126528309D01*
X273109617Y-126522124D01*
X273109731Y-126521990D01*
X273155839Y-126475859D01*
X273349768Y-126237757D01*
X273518475Y-125981165D01*
X273660210Y-125708745D01*
X273773504Y-125423323D01*
X273791372Y-125360293D01*
X273791485Y-125359976D01*
X273793741Y-125352008D01*
X273793743Y-125352006D01*
X274895819Y-121460700D01*
X274895824Y-121460701D01*
X274895824Y-121460679D01*
X274932222Y-121332266D01*
X274982945Y-121059698D01*
X275008414Y-120783623D01*
X275008414Y-120506377D01*
X274982945Y-120230302D01*
X274932222Y-119957734D01*
X274895813Y-119829275D01*
X274895814Y-119829274D01*
X274895806Y-119829252D01*
X274871296Y-119742710D01*
X273793743Y-115937995D01*
X273793742Y-115937993D01*
X273791613Y-115930476D01*
X273791429Y-115929958D01*
X273773491Y-115866683D01*
X273660198Y-115581261D01*
X273518463Y-115308843D01*
X273349757Y-115052252D01*
X273155829Y-114814150D01*
X273155658Y-114813979D01*
X273109366Y-114767660D01*
X273109366Y-114767661D01*
X273103474Y-114761766D01*
X273103431Y-114761690D01*
X273044149Y-114702408D01*
X272995507Y-114653765D01*
X272995506Y-114653764D01*
X272991182Y-114649440D01*
X272991171Y-114649430D01*
X267574350Y-109232609D01*
X267568803Y-109226687D01*
X267550550Y-109205874D01*
X267456351Y-109098460D01*
X267446477Y-109085591D01*
X267353999Y-108947187D01*
X267345889Y-108933141D01*
X267339330Y-108919841D01*
X267272260Y-108783836D01*
X267266055Y-108768856D01*
X267212545Y-108611215D01*
X267208348Y-108595549D01*
X267183323Y-108469737D01*
X267175873Y-108432284D01*
X267173758Y-108416227D01*
X267169218Y-108346956D01*
X267184476Y-108278776D01*
X267224064Y-108235747D01*
X267240606Y-108224695D01*
X267334695Y-108130606D01*
X267408620Y-108019969D01*
X267459540Y-107897036D01*
X267468035Y-107854325D01*
X267485500Y-107766533D01*
X267485500Y-107633466D01*
X267459541Y-107502969D01*
X267459540Y-107502968D01*
X267459540Y-107502964D01*
X267444438Y-107466503D01*
X267408623Y-107380038D01*
X267408622Y-107380037D01*
X267408620Y-107380031D01*
X267369061Y-107320827D01*
X267334698Y-107269398D01*
X267334692Y-107269390D01*
X267240609Y-107175307D01*
X267240601Y-107175301D01*
X267129979Y-107101386D01*
X267129972Y-107101382D01*
X267129969Y-107101380D01*
X267129965Y-107101378D01*
X267129961Y-107101376D01*
X267007040Y-107050461D01*
X267007030Y-107050458D01*
X266876533Y-107024500D01*
X266876531Y-107024500D01*
X266743469Y-107024500D01*
X266743467Y-107024500D01*
X266612969Y-107050458D01*
X266612959Y-107050461D01*
X266490038Y-107101376D01*
X266490022Y-107101385D01*
X266423889Y-107145573D01*
X266357212Y-107166450D01*
X266289832Y-107147965D01*
X266286111Y-107145573D01*
X266219977Y-107101385D01*
X266219973Y-107101383D01*
X266219969Y-107101380D01*
X266219965Y-107101378D01*
X266219961Y-107101376D01*
X266097040Y-107050461D01*
X266097030Y-107050458D01*
X265966533Y-107024500D01*
X265966531Y-107024500D01*
X265833469Y-107024500D01*
X265833467Y-107024500D01*
X265702969Y-107050458D01*
X265702959Y-107050461D01*
X265580038Y-107101376D01*
X265580020Y-107101386D01*
X265469398Y-107175301D01*
X265469390Y-107175307D01*
X265375307Y-107269390D01*
X265375301Y-107269398D01*
X265301386Y-107380020D01*
X265301376Y-107380038D01*
X265250461Y-107502959D01*
X265250458Y-107502969D01*
X265224500Y-107633466D01*
X265224500Y-107633469D01*
X265224500Y-107766531D01*
X265224500Y-107766533D01*
X265224499Y-107766533D01*
X265250458Y-107897030D01*
X265250461Y-107897040D01*
X265301376Y-108019961D01*
X265301386Y-108019979D01*
X265375301Y-108130601D01*
X265375307Y-108130609D01*
X265469390Y-108224692D01*
X265469395Y-108224696D01*
X265492563Y-108240176D01*
X265537369Y-108293787D01*
X265547674Y-108343279D01*
X265547674Y-108389928D01*
X265552697Y-108440928D01*
X265576673Y-108684386D01*
X265576673Y-108684388D01*
X265634398Y-108974603D01*
X265634400Y-108974609D01*
X265712662Y-109232609D01*
X265720295Y-109257769D01*
X265802937Y-109457289D01*
X265833526Y-109531137D01*
X265833530Y-109531144D01*
X265973009Y-109792094D01*
X266096864Y-109977456D01*
X266131839Y-110029801D01*
X266137403Y-110038127D01*
X266325108Y-110266847D01*
X266325118Y-110266858D01*
X266366509Y-110308248D01*
X266366520Y-110308261D01*
X271853759Y-115795499D01*
X271853760Y-115795500D01*
X271902735Y-115844476D01*
X271908137Y-115850233D01*
X271985376Y-115937995D01*
X272017768Y-115974799D01*
X272027416Y-115987282D01*
X272054726Y-116027687D01*
X272118114Y-116121473D01*
X272126101Y-116135084D01*
X272199016Y-116279699D01*
X272205210Y-116294214D01*
X272260564Y-116450874D01*
X272262955Y-116458395D01*
X272273733Y-116496452D01*
X272281772Y-116524837D01*
X272281773Y-116524840D01*
X272283364Y-116530455D01*
X273320904Y-120193888D01*
X273320905Y-120193890D01*
X273339694Y-120260236D01*
X273341739Y-120268541D01*
X273378681Y-120444460D01*
X273381033Y-120461394D01*
X273393131Y-120636451D01*
X273393131Y-120653549D01*
X273381033Y-120828605D01*
X273378681Y-120845539D01*
X273341739Y-121021458D01*
X273339694Y-121029762D01*
X273320905Y-121096109D01*
X273320904Y-121096112D01*
X272282868Y-124761295D01*
X272281775Y-124765156D01*
X272281772Y-124765163D01*
X272273088Y-124795824D01*
X272272125Y-124799228D01*
X272262893Y-124831825D01*
X272260501Y-124839348D01*
X272205224Y-124995790D01*
X272199030Y-125010305D01*
X272126114Y-125154922D01*
X272118127Y-125168533D01*
X272027431Y-125302723D01*
X272017780Y-125315209D01*
X271908311Y-125439591D01*
X271902908Y-125445349D01*
X266861052Y-130487206D01*
X266861036Y-130487214D01*
X266720104Y-130628145D01*
X266720103Y-130628146D01*
X266532398Y-130856865D01*
X266368007Y-131102894D01*
X266367996Y-131102912D01*
X266228523Y-131363851D01*
X266228513Y-131363872D01*
X266115289Y-131637221D01*
X266115287Y-131637226D01*
X266115285Y-131637232D01*
X266029392Y-131920388D01*
X266029391Y-131920392D01*
X266029391Y-131920393D01*
X265971665Y-132210609D01*
X265971665Y-132210612D01*
X265942666Y-132505074D01*
X265942667Y-132580606D01*
X265942667Y-132687681D01*
X265922982Y-132754720D01*
X265870178Y-132800475D01*
X265801020Y-132810419D01*
X265737464Y-132781394D01*
X265730986Y-132775362D01*
X263877819Y-130922195D01*
X263844334Y-130860872D01*
X263841500Y-130834514D01*
X263841500Y-122749097D01*
X263861185Y-122682058D01*
X263877813Y-122661421D01*
X264004663Y-122534571D01*
X264065982Y-122501089D01*
X264068150Y-122500638D01*
X264126085Y-122489113D01*
X264223497Y-122469737D01*
X264369179Y-122409394D01*
X264500289Y-122321789D01*
X264611789Y-122210289D01*
X264699394Y-122079179D01*
X264759737Y-121933497D01*
X264790500Y-121778842D01*
X264790500Y-121621158D01*
X264790500Y-121621155D01*
X264790499Y-121621153D01*
X264759738Y-121466510D01*
X264759737Y-121466503D01*
X264704134Y-121332264D01*
X264699397Y-121320827D01*
X264699390Y-121320814D01*
X264611789Y-121189711D01*
X264611786Y-121189707D01*
X264500292Y-121078213D01*
X264500288Y-121078210D01*
X264369185Y-120990609D01*
X264369172Y-120990602D01*
X264223501Y-120930264D01*
X264223489Y-120930261D01*
X264068845Y-120899500D01*
X264068842Y-120899500D01*
X263911158Y-120899500D01*
X263911155Y-120899500D01*
X263756510Y-120930261D01*
X263756498Y-120930264D01*
X263610827Y-120990602D01*
X263610814Y-120990609D01*
X263508891Y-121058713D01*
X263442213Y-121079591D01*
X263374833Y-121061107D01*
X263371109Y-121058713D01*
X263269185Y-120990609D01*
X263269172Y-120990602D01*
X263123501Y-120930264D01*
X263123489Y-120930261D01*
X262968845Y-120899500D01*
X262968842Y-120899500D01*
X262811158Y-120899500D01*
X262811155Y-120899500D01*
X262656510Y-120930261D01*
X262656498Y-120930264D01*
X262510827Y-120990602D01*
X262510814Y-120990609D01*
X262379711Y-121078210D01*
X262379707Y-121078213D01*
X262268213Y-121189707D01*
X262268210Y-121189711D01*
X262180609Y-121320814D01*
X262180602Y-121320827D01*
X262120264Y-121466498D01*
X262120261Y-121466510D01*
X262089500Y-121621153D01*
X262089500Y-121778846D01*
X262120261Y-121933489D01*
X262120264Y-121933501D01*
X262180602Y-122079172D01*
X262180609Y-122079185D01*
X262268602Y-122210874D01*
X262289480Y-122277551D01*
X262289500Y-122279765D01*
X262289500Y-131193330D01*
X262289499Y-131193348D01*
X262289499Y-131359054D01*
X262289498Y-131359054D01*
X262290786Y-131363859D01*
X262330423Y-131511785D01*
X262352198Y-131549500D01*
X262359358Y-131561900D01*
X262359359Y-131561904D01*
X262359360Y-131561904D01*
X262404795Y-131640602D01*
X262409479Y-131648714D01*
X262409481Y-131648717D01*
X262528349Y-131767585D01*
X262528355Y-131767590D01*
X263329127Y-132568362D01*
X263362612Y-132629685D01*
X263357628Y-132699377D01*
X263315756Y-132755310D01*
X263250292Y-132779727D01*
X263230006Y-132779514D01*
X263125002Y-132769785D01*
X263124999Y-132769785D01*
X262921917Y-132788602D01*
X262725752Y-132844417D01*
X262725739Y-132844422D01*
X262543178Y-132935327D01*
X262380418Y-133058237D01*
X262243019Y-133208958D01*
X262243017Y-133208960D01*
X262154927Y-133351232D01*
X262102899Y-133397868D01*
X262033917Y-133408972D01*
X261969883Y-133381019D01*
X261931127Y-133322884D01*
X261925500Y-133285955D01*
X261925500Y-132817519D01*
X261945185Y-132750480D01*
X261946398Y-132748628D01*
X261959394Y-132729179D01*
X262019737Y-132583497D01*
X262050500Y-132428842D01*
X262050500Y-132271158D01*
X262050500Y-132271155D01*
X262050499Y-132271153D01*
X262049545Y-132266357D01*
X262019737Y-132116503D01*
X262000955Y-132071158D01*
X261959397Y-131970827D01*
X261959390Y-131970814D01*
X261871789Y-131839711D01*
X261871786Y-131839707D01*
X261760292Y-131728213D01*
X261760288Y-131728210D01*
X261629185Y-131640609D01*
X261629172Y-131640602D01*
X261483501Y-131580264D01*
X261483489Y-131580261D01*
X261328845Y-131549500D01*
X261328842Y-131549500D01*
X261171158Y-131549500D01*
X261171155Y-131549500D01*
X261016510Y-131580261D01*
X261016498Y-131580264D01*
X260870827Y-131640602D01*
X260870814Y-131640609D01*
X260739711Y-131728210D01*
X260739707Y-131728213D01*
X260628213Y-131839707D01*
X260628210Y-131839711D01*
X260540609Y-131970814D01*
X260540602Y-131970827D01*
X260480263Y-132116500D01*
X260480262Y-132116503D01*
X260475698Y-132139449D01*
X260443311Y-132201359D01*
X260441762Y-132202935D01*
X259860113Y-132784584D01*
X259798790Y-132818069D01*
X259729098Y-132813085D01*
X259673165Y-132771213D01*
X259665045Y-132758903D01*
X259660182Y-132750480D01*
X259654921Y-132741368D01*
X259577387Y-132648966D01*
X259531144Y-132593855D01*
X259383633Y-132470080D01*
X259383632Y-132470079D01*
X259277083Y-132408563D01*
X259216872Y-132373800D01*
X259216869Y-132373799D01*
X259216868Y-132373798D01*
X259194019Y-132365482D01*
X259035917Y-132307937D01*
X258852968Y-132275679D01*
X258790365Y-132244652D01*
X258754474Y-132184705D01*
X258750500Y-132153563D01*
X258750500Y-118599983D01*
X260874500Y-118599983D01*
X260874500Y-119200001D01*
X260874501Y-119200019D01*
X260885000Y-119302796D01*
X260885001Y-119302799D01*
X260940185Y-119469331D01*
X260940186Y-119469334D01*
X261032288Y-119618656D01*
X261156344Y-119742712D01*
X261305666Y-119834814D01*
X261472203Y-119889999D01*
X261574991Y-119900500D01*
X262625008Y-119900499D01*
X262625016Y-119900498D01*
X262625019Y-119900498D01*
X262681302Y-119894748D01*
X262727797Y-119889999D01*
X262894334Y-119834814D01*
X263043656Y-119742712D01*
X263167712Y-119618656D01*
X263167712Y-119618655D01*
X263172819Y-119613549D01*
X263174705Y-119615435D01*
X263221625Y-119582212D01*
X263261868Y-119575500D01*
X264168837Y-119575500D01*
X264235876Y-119595185D01*
X264256518Y-119611819D01*
X265478181Y-120833482D01*
X265511666Y-120894805D01*
X265514500Y-120921163D01*
X265514500Y-121232479D01*
X265494815Y-121299518D01*
X265493602Y-121301370D01*
X265480609Y-121320814D01*
X265480602Y-121320827D01*
X265420264Y-121466498D01*
X265420261Y-121466510D01*
X265389500Y-121621153D01*
X265389500Y-121778846D01*
X265420261Y-121933489D01*
X265420264Y-121933501D01*
X265480602Y-122079172D01*
X265480609Y-122079185D01*
X265568210Y-122210288D01*
X265568213Y-122210292D01*
X265679707Y-122321786D01*
X265679711Y-122321789D01*
X265810814Y-122409390D01*
X265810827Y-122409397D01*
X265956498Y-122469735D01*
X265956503Y-122469737D01*
X266111153Y-122500499D01*
X266111156Y-122500500D01*
X266111158Y-122500500D01*
X266268844Y-122500500D01*
X266268845Y-122500499D01*
X266423497Y-122469737D01*
X266569179Y-122409394D01*
X266700289Y-122321789D01*
X266811789Y-122210289D01*
X266899394Y-122079179D01*
X266959737Y-121933497D01*
X266990500Y-121778842D01*
X266990500Y-121621158D01*
X266990500Y-121621155D01*
X266990499Y-121621153D01*
X266959738Y-121466510D01*
X266959737Y-121466503D01*
X266904134Y-121332264D01*
X266899397Y-121320827D01*
X266899390Y-121320814D01*
X266886398Y-121301370D01*
X266865520Y-121234692D01*
X266865500Y-121232479D01*
X266865500Y-120523465D01*
X266862101Y-120506381D01*
X266862100Y-120506376D01*
X266853152Y-120461394D01*
X266839541Y-120392964D01*
X266788620Y-120270031D01*
X266788618Y-120270028D01*
X266788616Y-120270024D01*
X266714695Y-120159394D01*
X266714692Y-120159390D01*
X264930609Y-118375307D01*
X264930605Y-118375304D01*
X264819975Y-118301383D01*
X264819965Y-118301378D01*
X264697036Y-118250459D01*
X264697028Y-118250457D01*
X264566535Y-118224500D01*
X264566531Y-118224500D01*
X263261868Y-118224500D01*
X263233478Y-118216163D01*
X263204447Y-118210404D01*
X263199273Y-118206119D01*
X263194829Y-118204815D01*
X263175809Y-118189774D01*
X263168662Y-118182884D01*
X263167712Y-118181344D01*
X263043656Y-118057288D01*
X263028987Y-118048240D01*
X263019381Y-118038980D01*
X263008420Y-118019754D01*
X262993618Y-118003297D01*
X262991453Y-117989991D01*
X262984777Y-117978281D01*
X262985951Y-117956177D01*
X262982397Y-117934334D01*
X262987767Y-117921972D01*
X262988483Y-117908510D01*
X263001420Y-117890550D01*
X263010240Y-117870252D01*
X263025679Y-117856874D01*
X263029322Y-117851818D01*
X263033344Y-117850233D01*
X263040348Y-117844165D01*
X263043342Y-117842318D01*
X263167315Y-117718345D01*
X263259356Y-117569124D01*
X263259358Y-117569119D01*
X263314505Y-117402697D01*
X263314506Y-117402690D01*
X263324999Y-117299986D01*
X263325000Y-117299973D01*
X263325000Y-117250000D01*
X260875001Y-117250000D01*
X260875001Y-117299986D01*
X260885494Y-117402697D01*
X260940641Y-117569119D01*
X260940643Y-117569124D01*
X261032684Y-117718345D01*
X261156655Y-117842316D01*
X261156659Y-117842319D01*
X261159656Y-117844168D01*
X261161279Y-117845972D01*
X261162323Y-117846798D01*
X261162181Y-117846976D01*
X261206381Y-117896116D01*
X261217602Y-117965079D01*
X261189759Y-118029161D01*
X261159661Y-118055241D01*
X261156349Y-118057283D01*
X261156343Y-118057288D01*
X261032289Y-118181342D01*
X260940187Y-118330663D01*
X260940186Y-118330666D01*
X260885001Y-118497203D01*
X260885001Y-118497204D01*
X260885000Y-118497204D01*
X260874500Y-118599983D01*
X258750500Y-118599983D01*
X258750500Y-116700013D01*
X260875000Y-116700013D01*
X260875000Y-116750000D01*
X261850000Y-116750000D01*
X262350000Y-116750000D01*
X263324999Y-116750000D01*
X263324999Y-116700028D01*
X263324998Y-116700013D01*
X263314505Y-116597302D01*
X263259358Y-116430880D01*
X263259356Y-116430875D01*
X263167315Y-116281654D01*
X263043345Y-116157684D01*
X262894124Y-116065643D01*
X262894119Y-116065641D01*
X262727697Y-116010494D01*
X262727690Y-116010493D01*
X262624986Y-116000000D01*
X262350000Y-116000000D01*
X262350000Y-116750000D01*
X261850000Y-116750000D01*
X261850000Y-116000000D01*
X261575029Y-116000000D01*
X261575012Y-116000001D01*
X261472302Y-116010494D01*
X261305880Y-116065641D01*
X261305875Y-116065643D01*
X261156654Y-116157684D01*
X261032684Y-116281654D01*
X260940643Y-116430875D01*
X260940641Y-116430880D01*
X260885494Y-116597302D01*
X260885493Y-116597309D01*
X260875000Y-116700013D01*
X258750500Y-116700013D01*
X258750500Y-112499986D01*
X260875001Y-112499986D01*
X260885494Y-112602697D01*
X260940641Y-112769119D01*
X260940643Y-112769124D01*
X261032684Y-112918345D01*
X261156654Y-113042315D01*
X261305875Y-113134356D01*
X261305880Y-113134358D01*
X261472302Y-113189505D01*
X261472309Y-113189506D01*
X261575019Y-113199999D01*
X261849999Y-113199999D01*
X262350000Y-113199999D01*
X262624972Y-113199999D01*
X262624986Y-113199998D01*
X262727697Y-113189505D01*
X262894119Y-113134358D01*
X262894124Y-113134356D01*
X263043345Y-113042315D01*
X263167315Y-112918345D01*
X263259356Y-112769124D01*
X263259358Y-112769119D01*
X263314505Y-112602697D01*
X263314506Y-112602690D01*
X263324999Y-112499986D01*
X263325000Y-112499973D01*
X263325000Y-112450000D01*
X262350000Y-112450000D01*
X262350000Y-113199999D01*
X261849999Y-113199999D01*
X261850000Y-113199998D01*
X261850000Y-112450000D01*
X260875001Y-112450000D01*
X260875001Y-112499986D01*
X258750500Y-112499986D01*
X258750500Y-109999983D01*
X260874500Y-109999983D01*
X260874500Y-110600001D01*
X260874501Y-110600019D01*
X260885000Y-110702796D01*
X260885001Y-110702799D01*
X260940185Y-110869331D01*
X260940186Y-110869334D01*
X261032288Y-111018656D01*
X261156344Y-111142712D01*
X261159628Y-111144737D01*
X261159653Y-111144753D01*
X261161445Y-111146746D01*
X261162011Y-111147193D01*
X261161934Y-111147289D01*
X261206379Y-111196699D01*
X261217603Y-111265661D01*
X261189761Y-111329744D01*
X261159665Y-111355826D01*
X261156660Y-111357679D01*
X261156655Y-111357683D01*
X261032684Y-111481654D01*
X260940643Y-111630875D01*
X260940641Y-111630880D01*
X260885494Y-111797302D01*
X260885493Y-111797309D01*
X260875000Y-111900013D01*
X260875000Y-111950000D01*
X263324999Y-111950000D01*
X263324999Y-111900028D01*
X263324998Y-111900013D01*
X263314505Y-111797302D01*
X263259358Y-111630880D01*
X263259356Y-111630875D01*
X263167315Y-111481654D01*
X263043344Y-111357683D01*
X263043341Y-111357681D01*
X263040339Y-111355829D01*
X263038713Y-111354021D01*
X263037677Y-111353202D01*
X263037817Y-111353024D01*
X262993617Y-111303880D01*
X262982397Y-111234917D01*
X263010243Y-111170836D01*
X263040344Y-111144754D01*
X263043656Y-111142712D01*
X263167712Y-111018656D01*
X263259814Y-110869334D01*
X263314999Y-110702797D01*
X263325500Y-110600009D01*
X263325499Y-110081163D01*
X263332884Y-110056011D01*
X263336522Y-110030055D01*
X263343444Y-110020046D01*
X263345183Y-110014125D01*
X263355497Y-110000296D01*
X263358530Y-109996769D01*
X263454695Y-109900606D01*
X263497232Y-109836944D01*
X263528620Y-109789969D01*
X263579540Y-109667036D01*
X263605500Y-109536531D01*
X263605500Y-108555489D01*
X263625185Y-108488450D01*
X263677989Y-108442695D01*
X263747147Y-108432751D01*
X263776948Y-108440926D01*
X263846503Y-108469737D01*
X264001153Y-108500499D01*
X264001156Y-108500500D01*
X264001158Y-108500500D01*
X264158844Y-108500500D01*
X264158845Y-108500499D01*
X264313497Y-108469737D01*
X264459179Y-108409394D01*
X264590289Y-108321789D01*
X264701789Y-108210289D01*
X264789394Y-108079179D01*
X264849737Y-107933497D01*
X264880500Y-107778842D01*
X264880500Y-107621158D01*
X264880500Y-107621155D01*
X264880499Y-107621153D01*
X264849737Y-107466503D01*
X264849735Y-107466498D01*
X264789397Y-107320827D01*
X264789390Y-107320814D01*
X264776398Y-107301370D01*
X264755520Y-107234692D01*
X264755500Y-107232479D01*
X264755500Y-105315302D01*
X267719500Y-105315302D01*
X267719500Y-105724697D01*
X267722356Y-105760991D01*
X267722357Y-105760997D01*
X267767504Y-105916391D01*
X267767506Y-105916397D01*
X267779620Y-105936880D01*
X267796801Y-106004604D01*
X267779620Y-106063120D01*
X267767506Y-106083602D01*
X267767504Y-106083608D01*
X267722357Y-106239002D01*
X267722356Y-106239008D01*
X267719500Y-106275302D01*
X267719500Y-106684697D01*
X267722356Y-106720991D01*
X267722357Y-106720997D01*
X267767504Y-106876390D01*
X267767505Y-106876393D01*
X267849881Y-107015684D01*
X267849887Y-107015692D01*
X267964307Y-107130112D01*
X267964318Y-107130121D01*
X268019306Y-107162640D01*
X268066990Y-107213708D01*
X268079494Y-107282450D01*
X268059289Y-107338262D01*
X268031382Y-107380027D01*
X268031376Y-107380038D01*
X267980461Y-107502959D01*
X267980458Y-107502969D01*
X267954500Y-107633466D01*
X267954500Y-107633469D01*
X267954500Y-107766531D01*
X267954500Y-107766533D01*
X267954499Y-107766533D01*
X267980458Y-107897030D01*
X267980461Y-107897040D01*
X268031376Y-108019961D01*
X268031386Y-108019979D01*
X268105301Y-108130601D01*
X268105307Y-108130609D01*
X268199390Y-108224692D01*
X268199398Y-108224698D01*
X268310020Y-108298613D01*
X268310023Y-108298614D01*
X268310031Y-108298620D01*
X268310037Y-108298622D01*
X268310038Y-108298623D01*
X268365059Y-108321413D01*
X268432964Y-108349540D01*
X268432968Y-108349540D01*
X268432969Y-108349541D01*
X268563466Y-108375500D01*
X268563469Y-108375500D01*
X268696533Y-108375500D01*
X268784325Y-108358035D01*
X268827036Y-108349540D01*
X268949969Y-108298620D01*
X268979668Y-108278776D01*
X269016110Y-108254427D01*
X269082787Y-108233549D01*
X269150167Y-108252034D01*
X269153890Y-108254427D01*
X269220020Y-108298613D01*
X269220023Y-108298614D01*
X269220031Y-108298620D01*
X269220037Y-108298622D01*
X269220038Y-108298623D01*
X269275059Y-108321413D01*
X269342964Y-108349540D01*
X269342968Y-108349540D01*
X269342969Y-108349541D01*
X269473466Y-108375500D01*
X269473469Y-108375500D01*
X269606533Y-108375500D01*
X269694325Y-108358035D01*
X269737036Y-108349540D01*
X269859969Y-108298620D01*
X269970606Y-108224695D01*
X270064695Y-108130606D01*
X270138620Y-108019969D01*
X270189540Y-107897036D01*
X270198035Y-107854325D01*
X270215500Y-107766533D01*
X270215500Y-107633466D01*
X270189541Y-107502969D01*
X270189540Y-107502968D01*
X270189540Y-107502964D01*
X270174438Y-107466503D01*
X270138623Y-107380038D01*
X270138622Y-107380037D01*
X270138620Y-107380031D01*
X270110711Y-107338262D01*
X270089834Y-107271584D01*
X270108319Y-107204204D01*
X270150694Y-107162640D01*
X270205681Y-107130121D01*
X270205682Y-107130119D01*
X270205687Y-107130117D01*
X270320117Y-107015687D01*
X270402494Y-106876395D01*
X270447643Y-106720993D01*
X270450500Y-106684690D01*
X270450500Y-106275310D01*
X270447643Y-106239007D01*
X270402494Y-106083605D01*
X270390379Y-106063120D01*
X270373196Y-105995399D01*
X270390379Y-105936880D01*
X270402494Y-105916395D01*
X270447643Y-105760993D01*
X270450500Y-105724690D01*
X270450500Y-105315310D01*
X270447643Y-105279007D01*
X270425134Y-105201533D01*
X270402495Y-105123609D01*
X270402494Y-105123606D01*
X270402494Y-105123605D01*
X270320117Y-104984313D01*
X270241613Y-104905809D01*
X270209521Y-104850223D01*
X270202014Y-104822205D01*
X270122613Y-104684677D01*
X270010322Y-104572386D01*
X269928651Y-104490715D01*
X269913947Y-104463787D01*
X269897355Y-104437969D01*
X269896463Y-104431768D01*
X269895166Y-104429392D01*
X269892332Y-104403034D01*
X269892332Y-104381927D01*
X269893393Y-104365742D01*
X269903724Y-104287269D01*
X269912102Y-104256001D01*
X269928721Y-104215881D01*
X269939256Y-104190444D01*
X269955442Y-104162412D01*
X270003637Y-104099604D01*
X270014324Y-104087417D01*
X270060356Y-104041386D01*
X270060356Y-104041384D01*
X270070561Y-104031180D01*
X270070565Y-104031175D01*
X271136383Y-102965357D01*
X271136386Y-102965356D01*
X271182435Y-102919305D01*
X271194604Y-102908633D01*
X271257414Y-102860437D01*
X271285445Y-102844254D01*
X271351001Y-102817099D01*
X271382267Y-102808722D01*
X271460729Y-102798392D01*
X271476909Y-102797332D01*
X271542033Y-102797333D01*
X271542037Y-102797332D01*
X271967963Y-102797332D01*
X271967967Y-102797333D01*
X272033071Y-102797332D01*
X272049257Y-102798393D01*
X272127730Y-102808724D01*
X272158998Y-102817102D01*
X272224553Y-102844256D01*
X272252587Y-102860442D01*
X272315395Y-102908637D01*
X272327590Y-102919332D01*
X272380674Y-102972417D01*
X272380688Y-102972429D01*
X273186604Y-103778345D01*
X273220089Y-103839668D01*
X273215105Y-103909360D01*
X273202028Y-103934913D01*
X273116817Y-104062449D01*
X273116814Y-104062455D01*
X273053269Y-104215877D01*
X273053267Y-104215885D01*
X273020871Y-104378753D01*
X273020870Y-104378758D01*
X273020869Y-104536296D01*
X273020869Y-104544827D01*
X273053263Y-104707705D01*
X273112290Y-104850225D01*
X273116809Y-104861134D01*
X273116811Y-104861139D01*
X273146657Y-104905812D01*
X273209063Y-104999221D01*
X273211648Y-105001806D01*
X273211659Y-105001825D01*
X273267773Y-105057939D01*
X273267780Y-105057946D01*
X273324886Y-105115061D01*
X273324964Y-105115130D01*
X273408801Y-105198967D01*
X273411370Y-105201536D01*
X273549461Y-105293807D01*
X273702900Y-105357365D01*
X273865785Y-105389765D01*
X273865788Y-105389766D01*
X273865790Y-105389766D01*
X274031874Y-105389766D01*
X274031875Y-105389765D01*
X274194762Y-105357365D01*
X274348201Y-105293807D01*
X274475714Y-105208604D01*
X274542388Y-105187726D01*
X274609768Y-105206210D01*
X274632284Y-105224025D01*
X274954642Y-105546383D01*
X274954644Y-105546386D01*
X275000679Y-105592420D01*
X275011375Y-105604616D01*
X275043552Y-105646550D01*
X275068746Y-105711719D01*
X275055985Y-105773936D01*
X275057111Y-105774403D01*
X275003861Y-105902959D01*
X275003858Y-105902969D01*
X274977900Y-106033466D01*
X274977900Y-106033469D01*
X274977900Y-106166531D01*
X274977900Y-106166533D01*
X274977899Y-106166533D01*
X275003858Y-106297030D01*
X275003861Y-106297040D01*
X275054776Y-106419961D01*
X275054786Y-106419979D01*
X275128701Y-106530601D01*
X275128707Y-106530609D01*
X275222790Y-106624692D01*
X275222798Y-106624698D01*
X275333420Y-106698613D01*
X275333423Y-106698614D01*
X275333431Y-106698620D01*
X275456364Y-106749540D01*
X275456368Y-106749540D01*
X275456369Y-106749541D01*
X275586866Y-106775500D01*
X275586869Y-106775500D01*
X275719933Y-106775500D01*
X275807725Y-106758035D01*
X275850436Y-106749540D01*
X275882547Y-106736238D01*
X275952014Y-106728769D01*
X275977448Y-106736237D01*
X276009564Y-106749540D01*
X276009568Y-106749540D01*
X276009569Y-106749541D01*
X276140066Y-106775500D01*
X276140069Y-106775500D01*
X276273133Y-106775500D01*
X276360925Y-106758035D01*
X276403636Y-106749540D01*
X276526569Y-106698620D01*
X276637206Y-106624695D01*
X276731295Y-106530606D01*
X276805220Y-106419969D01*
X276856140Y-106297036D01*
X276882100Y-106166531D01*
X276882100Y-106033469D01*
X276882100Y-106033466D01*
X276856141Y-105902969D01*
X276856140Y-105902968D01*
X276856140Y-105902964D01*
X276805220Y-105780031D01*
X276742232Y-105685763D01*
X276722115Y-105630755D01*
X276712041Y-105541340D01*
X276712040Y-105541336D01*
X276712039Y-105541325D01*
X276661764Y-105321057D01*
X276659755Y-105315317D01*
X276619043Y-105198967D01*
X276587143Y-105107802D01*
X276489114Y-104904244D01*
X276455170Y-104850223D01*
X276368911Y-104712942D01*
X276340736Y-104677612D01*
X276228042Y-104536300D01*
X276175300Y-104483559D01*
X274899683Y-103207942D01*
X273401808Y-101710066D01*
X273401757Y-101710021D01*
X273383698Y-101691962D01*
X273207056Y-101551093D01*
X273015756Y-101430890D01*
X272812205Y-101332864D01*
X272812191Y-101332858D01*
X272598955Y-101258243D01*
X272598943Y-101258239D01*
X272428950Y-101219439D01*
X272378676Y-101207965D01*
X272378672Y-101207964D01*
X272378663Y-101207963D01*
X272154168Y-101182668D01*
X272154164Y-101182668D01*
X272120600Y-101182668D01*
X271520169Y-101182668D01*
X271520158Y-101182664D01*
X271355832Y-101182664D01*
X271131336Y-101207959D01*
X271131320Y-101207961D01*
X270911059Y-101258234D01*
X270911043Y-101258239D01*
X270697807Y-101332854D01*
X270494241Y-101430887D01*
X270302941Y-101551091D01*
X270302933Y-101551096D01*
X270126298Y-101691960D01*
X270046420Y-101771840D01*
X270046419Y-101771840D01*
X269994635Y-101823624D01*
X268805913Y-103012345D01*
X268805878Y-103012384D01*
X268786966Y-103031296D01*
X268646093Y-103207943D01*
X268525890Y-103399243D01*
X268427864Y-103602794D01*
X268427858Y-103602808D01*
X268353243Y-103816044D01*
X268353239Y-103816056D01*
X268302965Y-104036324D01*
X268302963Y-104036336D01*
X268277668Y-104260831D01*
X268277668Y-104403034D01*
X268257983Y-104470073D01*
X268241349Y-104490715D01*
X268047388Y-104684675D01*
X268047384Y-104684680D01*
X267967987Y-104822201D01*
X267967985Y-104822205D01*
X267960477Y-104850225D01*
X267928386Y-104905808D01*
X267849883Y-104984312D01*
X267849879Y-104984318D01*
X267767505Y-105123606D01*
X267767504Y-105123609D01*
X267722357Y-105279002D01*
X267722356Y-105279008D01*
X267719500Y-105315302D01*
X264755500Y-105315302D01*
X264755500Y-95851163D01*
X264775185Y-95784124D01*
X264791819Y-95763482D01*
X266118482Y-94436819D01*
X266179805Y-94403334D01*
X266206163Y-94400500D01*
X266298543Y-94400500D01*
X266428582Y-94374632D01*
X266491835Y-94362051D01*
X266673914Y-94286632D01*
X266837782Y-94177139D01*
X266977139Y-94037782D01*
X267086632Y-93873914D01*
X267162051Y-93691835D01*
X267200500Y-93498541D01*
X267200500Y-93301459D01*
X267200500Y-93301456D01*
X267162052Y-93108170D01*
X267162051Y-93108169D01*
X267162051Y-93108165D01*
X267162049Y-93108160D01*
X267086635Y-92926092D01*
X267086628Y-92926079D01*
X266977139Y-92762218D01*
X266977136Y-92762214D01*
X266837785Y-92622863D01*
X266837781Y-92622860D01*
X266673920Y-92513371D01*
X266673907Y-92513364D01*
X266491839Y-92437950D01*
X266491829Y-92437947D01*
X266298543Y-92399500D01*
X266298541Y-92399500D01*
X266101459Y-92399500D01*
X266101457Y-92399500D01*
X265908170Y-92437947D01*
X265908160Y-92437950D01*
X265726092Y-92513364D01*
X265726079Y-92513371D01*
X265562218Y-92622860D01*
X265562214Y-92622863D01*
X265422863Y-92762214D01*
X265422860Y-92762218D01*
X265313371Y-92926079D01*
X265313364Y-92926092D01*
X265237950Y-93108160D01*
X265237947Y-93108170D01*
X265199500Y-93301456D01*
X265199500Y-93393837D01*
X265179815Y-93460876D01*
X265163181Y-93481518D01*
X263817181Y-94827518D01*
X263755858Y-94861003D01*
X263686166Y-94856019D01*
X263630233Y-94814147D01*
X263605816Y-94748683D01*
X263605500Y-94739837D01*
X263605500Y-91801162D01*
X263625185Y-91734123D01*
X263641814Y-91713486D01*
X272747064Y-82608235D01*
X272808385Y-82574752D01*
X272810490Y-82574313D01*
X272833497Y-82569737D01*
X272979179Y-82509394D01*
X273110289Y-82421789D01*
X273221789Y-82310289D01*
X273309394Y-82179179D01*
X273369737Y-82033497D01*
X273400500Y-81878842D01*
X273400500Y-81721158D01*
X273400500Y-81721155D01*
X273400499Y-81721153D01*
X273369737Y-81566503D01*
X273369735Y-81566498D01*
X273309397Y-81420827D01*
X273309390Y-81420814D01*
X273221789Y-81289711D01*
X273221786Y-81289707D01*
X273110292Y-81178213D01*
X273110288Y-81178210D01*
X272979185Y-81090609D01*
X272979172Y-81090602D01*
X272833501Y-81030264D01*
X272833489Y-81030261D01*
X272678845Y-80999500D01*
X272678842Y-80999500D01*
X272521158Y-80999500D01*
X272521155Y-80999500D01*
X272366510Y-81030261D01*
X272366498Y-81030264D01*
X272220827Y-81090602D01*
X272220814Y-81090609D01*
X272089711Y-81178210D01*
X272089707Y-81178213D01*
X271978213Y-81289707D01*
X271978210Y-81289711D01*
X271890609Y-81420814D01*
X271890602Y-81420827D01*
X271830263Y-81566500D01*
X271830262Y-81566503D01*
X271825698Y-81589449D01*
X271793311Y-81651359D01*
X271791762Y-81652935D01*
X262405307Y-91039390D01*
X262405304Y-91039394D01*
X262331383Y-91150024D01*
X262331378Y-91150034D01*
X262280459Y-91272963D01*
X262280457Y-91272971D01*
X262254500Y-91403464D01*
X262254500Y-107232479D01*
X262234815Y-107299518D01*
X262233602Y-107301370D01*
X262220609Y-107320814D01*
X262220602Y-107320827D01*
X262160264Y-107466498D01*
X262160261Y-107466510D01*
X262129500Y-107621153D01*
X262129500Y-107778846D01*
X262160261Y-107933489D01*
X262160264Y-107933501D01*
X262220603Y-108079174D01*
X262220604Y-108079175D01*
X262220606Y-108079179D01*
X262233602Y-108098628D01*
X262254480Y-108165305D01*
X262254500Y-108167519D01*
X262254500Y-109138835D01*
X262245855Y-109168275D01*
X262239332Y-109198262D01*
X262235577Y-109203277D01*
X262234815Y-109205874D01*
X262218181Y-109226516D01*
X262181516Y-109263181D01*
X262120193Y-109296666D01*
X262093835Y-109299500D01*
X261574998Y-109299500D01*
X261574980Y-109299501D01*
X261472203Y-109310000D01*
X261472200Y-109310001D01*
X261305668Y-109365185D01*
X261305663Y-109365187D01*
X261156342Y-109457289D01*
X261032289Y-109581342D01*
X260940187Y-109730663D01*
X260940186Y-109730666D01*
X260885001Y-109897203D01*
X260885001Y-109897204D01*
X260885000Y-109897204D01*
X260874500Y-109999983D01*
X258750500Y-109999983D01*
X258750500Y-81721153D01*
X265499500Y-81721153D01*
X265499500Y-81878846D01*
X265530261Y-82033489D01*
X265530264Y-82033501D01*
X265590602Y-82179172D01*
X265590609Y-82179185D01*
X265678210Y-82310288D01*
X265678213Y-82310292D01*
X265789707Y-82421786D01*
X265789711Y-82421789D01*
X265920814Y-82509390D01*
X265920827Y-82509397D01*
X266066498Y-82569735D01*
X266066503Y-82569737D01*
X266221153Y-82600499D01*
X266221156Y-82600500D01*
X266221158Y-82600500D01*
X266378844Y-82600500D01*
X266378845Y-82600499D01*
X266533497Y-82569737D01*
X266679179Y-82509394D01*
X266810289Y-82421789D01*
X266921789Y-82310289D01*
X267009394Y-82179179D01*
X267069737Y-82033497D01*
X267100500Y-81878842D01*
X267100500Y-81721158D01*
X267100500Y-81721155D01*
X267100499Y-81721153D01*
X267069737Y-81566503D01*
X267069735Y-81566498D01*
X267009397Y-81420827D01*
X267009390Y-81420814D01*
X266921789Y-81289711D01*
X266921786Y-81289707D01*
X266810292Y-81178213D01*
X266810288Y-81178210D01*
X266679185Y-81090609D01*
X266679172Y-81090602D01*
X266533501Y-81030264D01*
X266533489Y-81030261D01*
X266378845Y-80999500D01*
X266378842Y-80999500D01*
X266221158Y-80999500D01*
X266221155Y-80999500D01*
X266066510Y-81030261D01*
X266066498Y-81030264D01*
X265920827Y-81090602D01*
X265920814Y-81090609D01*
X265789711Y-81178210D01*
X265789707Y-81178213D01*
X265678213Y-81289707D01*
X265678210Y-81289711D01*
X265590609Y-81420814D01*
X265590602Y-81420827D01*
X265530264Y-81566498D01*
X265530261Y-81566510D01*
X265499500Y-81721153D01*
X258750500Y-81721153D01*
X258750500Y-57399500D01*
X258770185Y-57332461D01*
X258822989Y-57286706D01*
X258874500Y-57275500D01*
X266958825Y-57275500D01*
X267025864Y-57295185D01*
G37*
%TD.AperFunction*%
%TD*%
M02*
